<?xml version="1.0" encoding="UTF-8"?>
<svg id="_レイヤー_2" data-name="レイヤー 2" xmlns="http://www.w3.org/2000/svg" viewBox="0 0 1201 601">
  <defs>
    <style>
      .cls-1 {
        fill: none;
        stroke: #231815;
        stroke-miterlimit: 10;
      }
    </style>
  </defs>
  <g id="_レイヤー_1-2" data-name="レイヤー 1">
    <g>
      <rect class="cls-1" x=".5" y=".5" width="1200" height="600"/>
      <line class="cls-1" x1=".5" y1="563" x2="1200.5" y2="563"/>
      <line class="cls-1" x1=".5" y1="525.5" x2="1200.5" y2="525.5"/>
      <line class="cls-1" x1=".5" y1="488" x2="1200.5" y2="488"/>
      <line class="cls-1" x1=".5" y1="450.5" x2="1200.5" y2="450.5"/>
      <line class="cls-1" x1=".5" y1="413" x2="1200.5" y2="413"/>
      <line class="cls-1" x1=".5" y1="375.5" x2="1200.5" y2="375.5"/>
      <line class="cls-1" x1=".5" y1="338" x2="1200.5" y2="338"/>
      <line class="cls-1" x1=".5" y1="300.5" x2="1200.5" y2="300.5"/>
      <line class="cls-1" x1=".5" y1="263" x2="1200.5" y2="263"/>
      <line class="cls-1" x1=".5" y1="225.5" x2="1200.5" y2="225.5"/>
      <line class="cls-1" x1=".5" y1="188" x2="1200.5" y2="188"/>
      <line class="cls-1" x1=".5" y1="150.5" x2="1200.5" y2="150.5"/>
      <line class="cls-1" x1=".5" y1="113" x2="1200.5" y2="113"/>
      <line class="cls-1" x1=".5" y1="75.5" x2="1200.5" y2="75.5"/>
      <line class="cls-1" x1=".5" y1="38" x2="1200.5" y2="38"/>
      <line class="cls-1" x1="1161.79" y1=".5" x2="1161.79" y2="600.5"/>
      <line class="cls-1" x1="1123.08" y1=".5" x2="1123.08" y2="600.5"/>
      <line class="cls-1" x1="1084.37" y1=".5" x2="1084.37" y2="600.5"/>
      <line class="cls-1" x1="1045.66" y1=".5" x2="1045.66" y2="600.5"/>
      <line class="cls-1" x1="1006.95" y1=".5" x2="1006.95" y2="600.5"/>
      <line class="cls-1" x1="968.24" y1=".5" x2="968.24" y2="600.5"/>
      <line class="cls-1" x1="929.53" y1=".5" x2="929.53" y2="600.5"/>
      <line class="cls-1" x1="890.82" y1=".5" x2="890.82" y2="600.5"/>
      <line class="cls-1" x1="852.11" y1=".5" x2="852.11" y2="600.5"/>
      <line class="cls-1" x1="813.4" y1=".5" x2="813.4" y2="600.5"/>
      <line class="cls-1" x1="774.69" y1=".5" x2="774.69" y2="600.5"/>
      <line class="cls-1" x1="735.98" y1=".5" x2="735.98" y2="600.5"/>
      <line class="cls-1" x1="697.27" y1=".5" x2="697.27" y2="600.5"/>
      <line class="cls-1" x1="658.56" y1=".5" x2="658.56" y2="600.5"/>
      <line class="cls-1" x1="619.85" y1=".5" x2="619.85" y2="600.5"/>
      <line class="cls-1" x1="581.14" y1=".5" x2="581.14" y2="600.5"/>
      <line class="cls-1" x1="542.44" y1=".5" x2="542.44" y2="600.5"/>
      <line class="cls-1" x1="503.73" y1=".5" x2="503.73" y2="600.5"/>
      <line class="cls-1" x1="465.02" y1=".5" x2="465.02" y2="600.5"/>
      <line class="cls-1" x1="426.31" y1=".5" x2="426.31" y2="600.5"/>
      <line class="cls-1" x1="387.6" y1=".5" x2="387.6" y2="600.5"/>
      <line class="cls-1" x1="348.89" y1=".5" x2="348.89" y2="600.5"/>
      <line class="cls-1" x1="310.18" y1=".5" x2="310.18" y2="600.5"/>
      <line class="cls-1" x1="271.47" y1=".5" x2="271.47" y2="600.5"/>
      <line class="cls-1" x1="232.76" y1=".5" x2="232.76" y2="600.5"/>
      <line class="cls-1" x1="194.05" y1=".5" x2="194.05" y2="600.5"/>
      <line class="cls-1" x1="155.34" y1=".5" x2="155.34" y2="600.5"/>
      <line class="cls-1" x1="116.63" y1=".5" x2="116.63" y2="600.5"/>
      <line class="cls-1" x1="77.92" y1=".5" x2="77.92" y2="600.5"/>
      <line class="cls-1" x1="39.21" y1=".5" x2="39.21" y2="600.5"/>
    </g>
  </g>
</svg>