<?xml version="1.0" encoding="UTF-8"?>
<svg id="_レイヤー_2" data-name="レイヤー 2" xmlns="http://www.w3.org/2000/svg" viewBox="0 0 245.49 245.01">
  <defs>
    <style>
      .cls-1 {
        fill: #fae48b;
      }

      .cls-2 {
        fill: #f09d8d;
      }

      .cls-3 {
        fill: #ef8773;
      }

      .cls-4 {
        fill: #ffeca0;
      }

      .cls-5 {
        fill: #4d462c;
      }

      .cls-6 {
        fill: #fff0b1;
      }

      .cls-7 {
        fill: #feea9b;
      }

      .cls-8 {
        fill: #aa9b61;
      }

      .cls-9 {
        fill: #ffefab;
      }

      .cls-10 {
        fill: #ffea95;
      }

      .cls-11 {
        fill: #070402;
      }

      .cls-12 {
        fill: #62a7dc;
      }

      .cls-13 {
        fill: #4b2d28;
      }

      .cls-14 {
        fill: #f5e08e;
      }

      .cls-15 {
        fill: #f9e38b;
      }

      .cls-16 {
        fill: #ffeda1;
      }

      .cls-17 {
        fill: #ffeb9b;
      }

      .cls-18 {
        fill: #afab9b;
      }

      .cls-19 {
        fill: #fae48a;
      }

      .cls-20 {
        fill: #fde792;
      }

      .cls-21 {
        fill: #040000;
      }

      .cls-22 {
        fill: #f5efdb;
      }

      .cls-23 {
        fill: #3e6fb6;
      }

      .cls-24 {
        fill: #f7f7f7;
      }

      .cls-25 {
        fill: #ffefaa;
      }

      .cls-26 {
        fill: #070202;
      }

      .cls-27 {
        fill: #060f1e;
      }

      .cls-28 {
        fill: #fff0b2;
      }

      .cls-29 {
        fill: #ffec9e;
      }

      .cls-30 {
        fill: #ee9180;
      }

      .cls-31 {
        fill: #fff2b9;
      }

      .cls-32 {
        fill: #ffeda4;
      }

      .cls-33 {
        fill: #fff3bf;
      }

      .cls-34 {
        fill: #f3a294;
      }

      .cls-35 {
        fill: #11110e;
      }

      .cls-36 {
        fill: #fce790;
      }

      .cls-37 {
        fill: #3b3622;
      }

      .cls-38 {
        fill: #63a9dd;
      }

      .cls-39 {
        fill: #ec7b65;
      }

      .cls-40 {
        fill: #050101;
      }
    </style>
  </defs>
  <g id="_レイヤー_1-2" data-name="レイヤー 1">
    <g>
      <path class="cls-40" d="M187.98,18.73l4.31,6.23c1.68,3.11,2.97,6.57,4.79,9.58,1.57,3.8-.54,2.26-1.92,0-.93.32-1.11-.17-.48-.96-.9-1.95-1.86-3.87-2.88-5.75-.93.32-1.11-.17-.48-.96l-5.75-8.15-1.7-.4c-9.29-9.95-20.93-17.34-35.05-14.64-7.97,1.52-15.81,4.01-23.52,6.54l-2.53-.12c.04,1.14-.76,1.46-2.4.96-.95,1.76-2.86,2.56-5.75,2.4-.91,1.82-2.83,2.78-5.75,2.88l-.37,1.3c-9.89,6.08-20.16,13.8-25.25,24.49l-1.22.56c-4.85,10.98-5.8,22.86-4.07,34.67l-.72,1.75,1.24,1.62c1.63,10.73,7.08,19.6,14.04,27.39,1.62,2.19,3.28,4.48,3.82,7.19l-.89.71c1.54.63-.53,3.53-1.92,2.88-.43.85-.49,1.52-.2,1.99,9.32,8.55,22.61,11.13,34.83,13.47,19.97,3.82,40.42,6.57,60.72,9.18,4.16.53,11.96,1.25,15.78-.25,10.59-4.18-.72-11.37-5.3-14.06-.71-.42-1.68-1.18-2.29-1.7-.9.4-1.87.21-2.92-.59-13.85-3.73-9.12-11.56-1.66-18.99l-10.65-.86c-3.32.07-6.23-.62-8.74-2.08-8.39,1.26-21.84-4.81-17.35-15.16,9.7-9.3,18.87-19.53,27.2-29.98,6-6.52,7.58-7.78,16.4-8.54,2.21.12,4.29.17,6.35-.47-1.9-4.05-1.74-5.01.48-2.88.6,1.18.94,2.75,2.6,3.35,8.69-2.34,28.64-13.72,33.44-.81,2.84,7.64-3.53,15.17-8.47,20.46-5.27,5.66-9.74,6.51-14.78,10.62-4.69,3.82,1.07,5.42,2.95,8.38,7.12,11.15-7.25,15.57-15.56,16.88-2.41.38-5.98,0-8.31.79-2.11.71-9.53,9.14-9.54,11.48-.01,4.5,10.2,6.28,13.51,7.99,22.99,11.92,39.99,31.73,42.98,58.15,4.76,42.15-26.57,48.85-60.23,54.31-17.63,2.86-37.76,5.88-55.54,5.37-25.81-.74-55.66-2.86-80.84-8.31-6.65-1.44-24.91-5.5-29.63-9.19-33.98-26.56-13-76.42-5.04-110.48,5.22-22.33,24.26-33.78,44.31-18.87,4.33,3.22,10.34,8.77,14.19,12.65,3.29,3.32,6.15,6.96,9.17,10.51.76.23,10.75-3.82,11.22-4.47.53-.72.67-1.38.21-2.18-10.64-10.25-16.66-21.6-18.87-36.26-4.26-28.32,6.7-43.85,27.25-61.03,2.85-2.28,6.04-4.27,9.59-5.27,5.75-2.84,11.82-5,18.01-6.67,7.23-1.96,21.24-5.85,28.24-5.3,11.44.9,24.94,9.07,30.92,18.68Z"/>
      <path class="cls-35" d="M195.17,34.55l2.15,1.92-.23-1.92c2.88,4.77,6.53,8.34,9.11,13.42-3.05-1.51-.21,1.73-.48,2.88-.52-.15-1.09-.32-1.46-.75-1.4-1.61-8.94-12.48-9.33-13.89-.16-.56.04-1.14.25-1.66Z"/>
      <path class="cls-22" d="M110.8,12.03c-3.24,1.6-6.26,3.82-9.59,5.27.39-.33.81-1.17,1.43-1.68,2.14-1.8,5.32-3.51,8.16-3.59Z"/>
      <path class="cls-35" d="M192.29,24.96c-2.33-1.3-3.05-4.2-4.31-6.23,2.2,1.5,3.13,4.05,4.31,6.23Z"/>
      <path class="cls-10" d="M74.86,117.93l-1.29.9c-14.89-.02-27.84,10.05-30.67,24.72-.89,2.17-2.46,4.8-4.47,6.01-.14.05-.34-.05-.48,0-7.53-1.63-13.52,1.34-15.82,9.11-6.8,6.73-7.82,12.38-7.21,21.83.23,3.5.79,7.57,3.85,9.8-.92-3.46-2.34-7.17-2.4-10.8-.13-7.69.68-12.24,5.76-17.95l1.21.31c2.16,7.29,10.47,14.83,18.3,13.91,8.53,2.74,26.39,7.94,30.43-3.15-.59-1.18-1.1-2.32-1.53-3.4l2.01-.72c10.16,1.17,20.4.46,30.53-.65l1.02.41c1.17.04,2.29-.12,3.36-.48.34-.42,1.02-.3,1.44,0,.42-.42,1.18-.71,1.44,0l2.4-.48c1.02-.19.06-.35-2.88-.48-1.89.15-3.81.31-5.75.48-1.15.8-2.3.95-3.36,0-6.01.43-12.21.54-18.21,0-13.58-1.58-26.23-6.17-36.77-14.32l-1.1,2.34c1.33.05,1.31,1.13,0,1.44-1.15.15-1.3-.38-1.46-1.32l-4.87-1.92-.38-1.07c2.35-.94,6.53-2.34,8.17-4.05s3.58-6.93,4.77-9.37l1.1-.25c5.94,15.22,33.07-.14,24.47-12.88l.31-1.25c2.58-.48,5.15-1.18,7.67-1.91-.3,3.87-.11,5.84,2.64,8.62,11.49,11.59,51.87,15.82,68.3,17.74.78.84.52,1.43-.54,1.76l-5.41.75c1.34,2.49,30.97,2.77,35.49,2.75,7.57,1.52,14.82,1.37,21.77-.45,1.24-.91,2.35-1.23,3.34-.97,7.03,7.69,5.54,7.81,8.6,17.04,3.42,10.32,13.19,10.31,15.63-.72.37-1.69.77-4.54.69-6.25-.26-.69-.2-.84.48-.48,1.34,2.92,2.96,6.19,3.97,9.21.77,2.32.84,3.94,1.31,6.12.5,2.14-.66,2.16-3.46.06l.51,5.49c.88,2.69-4.28,9.7-5,5.13-4.51,11.82-16.27,25.57-28.68,29.38-54.28,24.67-118.04,17.33-174.24,4.09-16.5-3.89-23.2-26.97-25.84-41.77-.12.98-.32,1.63-1.51,1.46.18-21.43,7.16-35.94,12.05-55.77,1.62-6.56,1.42-11.2,4.73-17.56l1.16.66c2.54,9.26,11.07,9.18,18.6,6,1.82-.51,3.72-.61,5.57-.21,7.44,2.5,17.24,3.77,19.07-6.13l1.14-.8c3.92,3.56,6.56,6.24,10.07,10.06Z"/>
      <path class="cls-10" d="M185.58,18.73l5.75,8.15c.15.32.34.65.48.96,1.01,1.89,1.97,3.8,2.88,5.75.15.34.33.64.48.96,2.75,5.95,7.69,10.37,10.55,16.29-.55,2.34-4.26,1.22-6.47,1.44-2.03.2-4.77.45-6.69.98-5.73,1.59-14.36,14.34-18.72,19.15-4.51,4.97-9.27,9.77-13.84,14.68-2.26,2.43-4.21,2.37-4.18,6.65.07,8.27,10.93,10.19,17.29,11.25.39,1.08-.34,1.74-2.22,1.96l6,1.35c5.26-.66,8.28,2.2,1.54,4.04l-2.96,1.39c-5.65,4.76-10.38,5.5-17.64,4.67-11.68,1.2-23.3,1.93-34.85,2.19l2.64.85c17.25,1.48,34.48,3.82,51.7,7.04l19.55.85c-.94-.77-1.07-1.48.2-1.81,5.73,1.19,17.6,8.96,10.55,15.1-3.89,3.39-10.23,2.47-15.1,2.15-16.68-1.09-33.89-4.39-50.39-7.12-13.27-2.2-33.41-4.78-44.71-12.32-.73-.49-4.59-3.46-4.86-3.89-1.51-2.39.62-2.16.98-2.54l.96-.56c3.38,1.21,7.4-.1,1.44-1.36l-.48-.96c-.2-4.42-7.38-11.39-9.98-15.18-4.44-6.48-7.09-13.96-8.24-21.72.6-.95,1.99-.99,4.16-.14,1.07-1.8,2.45-2.42,4.44-2.93-.03-2.49,1.11-4.8,3.41-6.93-.79-1.74-.91-3.28-.37-4.61,4.08-5.63,7.88-11.5,11.49-17.6,4.73-8.08,11.06-14.63,18.93-19.63,4.63-.62,4.8-6.71,4.78-10.37l1.23-.56c4.21.87-.94-4.4-2.39-5.19l-.16-1.05c7.65-2.76,16.39-5.27,24.35-7.05,16.2-3.61,27.95,4.44,38.44,15.67Z"/>
      <path class="cls-19" d="M2.48,181.67c.92-1.17.35-4.57,2.15-2.87,1.75,5.59,2.2,11.46,4.08,17.01,2.06,6.11,7.1,15.9,11.98,20.13,5.96,5.15,7.71,4.68,14.88,6.21,30.94,6.56,52.2,11.24,84.6,10.82,30.1-.39,54.86-2.58,82.34-15.44,3.61-1.69,6.92-2.06,10.16-4.7,5.57-4.53,15.13-14.81,18.05-21.25.6-1.33,2.06-6.77,2.32-7.03,1.64-1.67.56,4.93.48,5.27l3.1-3.84c.67-3.12-.72-6.35-.23-9.58.27-.31,2.59,1.51,3.19,1.83.84.44,1.26,1.12,1.12-.4,4.14,19.26,3.54,36.26-14.54,47.52-14.91,9.29-49.3,12.73-67.25,14.72-24.06,2.66-47.69,1.19-71.84-.9-19.51-1.69-43.7-4.52-62.08-11.02-5.91-3.51-11.69-9.4-14.91-14.21l-.43.31c-6.05-10.06-7.29-21.11-7.19-32.59Z"/>
      <path class="cls-34" d="M239.74,52.28c.41,1.53-.13,4.26-1.92,2.88l-.65-.11c-6.37-7.54-16.61,2.16-21.43,7.37-7.54,9.96-16.02,17.9-25.8,25.37-.39,1.79,2.01,2.73,3.44,3.24,6.42,2.26,14.16,2.27,20.91,1.7l1.47.76c.8-2.66,4.23.06,2.4,1.92,1.85,1.85-.98,3.27-2.75,3.95-4.38,1.69-15.49,1.88-20.49,1.89-6.27.02-12.19-.46-18.49-1.47-4.91.21-9.7-.12-14.36-1.01-3.28-1.98-5.1-3.39-3.08-7.63l15.07-14.64c4.16-4.55,12.81-17.19,17.08-19.82,3.42-2.11,11.91-1.31,16.48-2.21,8.05-1.58,15.99-7.14,24.19-7.45,4.25-.16,6.9,1.06,7.9,5.27Z"/>
      <path class="cls-19" d="M173.12,105c7.01,1.18,14.46,1.65,21.57,1.92l-6.63,7.5c-6.06,10.5,4.02,9.19,9.03,13.1.05.04-.15.58.11.84.57.56,2.07.69,1.81,2.03l-21.8-.96c-15.06-3.12-30.21-5.15-45.56-6.2-3.91-.27-8.78-.88-11.72-3.37,4.53-.8,9.12-.22,13.68-.46,7.97-.42,15.99-1.43,23.95-1.93,2.79-.18,8.2.55,10.44-.11,1.19-.35,5.4-3.6,7.04-4.46,2.03-1.06,4.47-2.14,6.72-2.63-.84-1.64-3.33-.76-4.97-1.01-3.61-.55-7.1-2.03-10.84-1.86,1.6-1.89,5.28-.67,7.19-2.39Z"/>
      <path class="cls-25" d="M108.89,16.34c1.91-.86,6.46-1.26,4.04,1.6l-5.33,3.44c2.24-1.08,5.51-1.55,6.3,1.42,5.49-3.14,6.46,1.24,2.71,4.52-5.84,4.77-11.9,9.31-18.18,13.63-5.66,3.77-8.69,10.04-7.56,16.8-.24,2.13-2.82,2.08-4.51,1.72-.91,1.01-1.52.35-2.1-.64l-1.86,12.53c-1.38,2.76-3.15,1.19-4.31-.81-3.22-5.62,1.36-21.9,3.95-27.85,3.22-9.84,17.92-21.52,26.84-26.36Z"/>
      <path class="cls-38" d="M206.66,145.25l.96,4.79c-6.6.26-13.27.74-19.91.5-5.65-.2-11.54-.9-17.18-1.52-17.77-1.94-66.96-7.28-79.83-17.47-2.46-1.95-6.92-6.56-3.74-9.65.13-.13,2.83-1.54,2.99-1.53.46.03,1.19,2.02,1.67,2.6,9.32,11.05,36.23,14.79,50.03,17.07,13.41,2.22,26.82,4.33,40.32,5.7,8.19.83,16.81,2.95,24.68-.48Z"/>
      <path class="cls-23" d="M227.59,149.73c1.01.9,4.77,6.74,5.11,8.07,1.33,5.13.89,14.69-4.01,17.86-2.55,1.65-3.86-.17-5.5-2.13-3.48-4.16-3.9-10.01-6.38-14.7-1.5-2.84-8.8-11.67-8.57-14.3.2-2.31,4.24-.85,5.62-.48,2.84.76,11.77,3.93,13.73,5.69Z"/>
      <path class="cls-29" d="M122.79,10.11c1.88.3,5.62,4.89,5.24,6.43-.7,1.17-2.17.7-3.33.76.69,2.9.24,5.5-1.23,8.11-1.99,3.55-2.93,1.99-5.26,3.36-10.26,6.03-17.46,19.48-23.5,29.22-1.13,1.82-4.86,6.21-5.28,7.7-.32,1.14,1,2.07.78,3.58-.21,1.43-2.98,3.4-3.28,4.43-.27.93.15,2.4-.17,2.95-.18.3-2.63.87-3.26,1.3-.91.62-.86,1.92-2.27,2.04s-2.47-1.23-3.97-.87c-1.8-12.18-1.46-25.55,4.79-36.42-1.92,5.87-5.27,20.38-3.72,26,.35,1.27,2.39,4.81,3.15,2.42l2.49-16.92,1.21,4.31c.24.51.73.7,1.18.96,3.05.53,5.85-.44,4.31-3.74,5.36-12.08,15.88-20.81,26.08-28.52,1.29-1.71,2.66-2.77,4.12-3.2-.08-1.28-.12-2.61-.12-4.01-2.27-3.91-1.88-6.12,1.16-6.62-.79-.65-1.3-1.42-1.52-2.3.81-.31,1.55-.65,2.4-.96Z"/>
      <path class="cls-17" d="M26.44,157.71l.87,1.05c-.46,6.82,5.05,11.2,10.65,13.76,2.7-1.63,5.93-1.52,9.68.33,11.94,1.35,14.45-.7,7.55-6.13-.41-.47,0-.9.48-1.34,2.27-.14,4.65.33,7.13,1.4,2.98.31,5.56,1.12,7.73,2.44,4.42,2.06,2.25,6.65-1.11,8.72-4.79,2.94-12.33,2.52-17.69,1.68-3.54-.55-8.08-2.68-10.9-3.01-1.18-.14-2.12.44-3.5.18-2.92-.55-10.25-6.06-12.06-8.57-1.51-2.09-2.01-4.44-3.16-6.67,1.72-1.93,2.27-2.36,4.31-3.83Z"/>
      <path class="cls-16" d="M37.95,152.44c1.36.25,5.02,1.61,5.93,2.35.42.34.26,1.16.78,1.97l1.35.27c2.37,3.12,5.64,5.39,9.15,7.07l.52,1.29c.09,1.9,6.36,5.43,4.02,7.24-2.49,1.92-8.75,1.74-11.79,1.26-2.01-.32-5.4-1.83-6.86-1.82-1.63.02-1.79,1.61-3.22,1.41-1.05-.15-5.06-2.76-6.07-3.57-3.89-3.12-5.9-7.08-5.31-12.18,4.69-3.39,6.6-3.31,11.5-5.27Z"/>
      <path class="cls-1" d="M74.86,117.93c1.26,1.37,3.34,2.57,4.31,4.31-10.04,1.65-21.92,2.81-28.19,11.84-2.33,3.36-4.32,10.76-6.31,12.86-1.26,1.33-4.51,1.95-6.24,2.62l3.71-6.6c1.21-7.66,6.95-15.96,13.59-19.96,5.56-3.36,12.6-5.54,19.13-5.07Z"/>
      <path class="cls-1" d="M210.02,152.92c-2.35,2.36-7,3.08-10.31,3.35-5.53.44-9.87-.75-14.83-.97-9.22-.4-18.58.22-27.77-.99-3.9-.51-7.82-2.03-11.79-2.35-.69-.71.05-.86.71-.95,2.44-.31,4.81-.45,7.23-.92.82-.16,1.8.13,2.12-1,14.57,1.7,35.34,4.55,49.56,2.82,1.26-.15,3.24-1.29,3.42-1.28.76.03,1.28,1.87,1.67,2.29Z"/>
      <path class="cls-4" d="M76.77,124.64c3.04,4.27,3.59,8.62.25,12.95-4.54,5.88-15.5,12-22.31,6.47-1.94-1.57-2.14-3.49-3.83-5.04.15-.31.01-1.11.37-1.76,5.69-10.43,15.21-10.69,25.51-12.61Z"/>
      <path class="cls-32" d="M114.64,13.46c3.12-1.36,5.83.93,2.44,3.11,1.9,1.02,3.06,2.34,2.8,4.58,1.62.45,1.46,1.43.99,2.84-1.49,3.13-10.26,8.86-13.43,11.73-5.68,5.15-11.23,11.37-14.93,18.13-1.83,3.34-.45,2.19-.39,3.92.07,2.36-3.86,2.76-5.76,1.67,5.16-.23,3.14-2.15,3.31-5.03.67-11.42,8.77-14.38,16.31-19.68,1.79-1.26,3.98-3.7,5.82-5.2,2.39-1.95,6.05-2.84,6.19-6.98-1.06-.43-4.37,1.75-4.78,1.44-.09-.07-.2-1.71-.96-2.16-2.66-1.6-7.95,2.82-10.55,3.6,2.92-3.99,7.61-6.02,11.5-8.86l-4.31-.24c2.03-1.1,3.65-1.91,5.75-2.88Z"/>
      <path class="cls-25" d="M60,103.56c3.04,4.52.03,10.36-5.14,11.44-7.17-1.08-14.6-1.45-21.66.34-8.99,1.58-13.95-7.2-8.67-14.18,11.91-12.73,24.19-7.16,35.47,2.4Z"/>
      <path class="cls-2" d="M218.17,95.41c1.39-.68,2.39.41,2.4,1.92-.54,3.31-9.38,5.89-12.44,6.5-8.99,1.78-38.34-.4-46.04-5.06,4.5.12,9.14-.26,13.66,0,4.13.24,8.35,1.2,12.45,1.45,5.77.35,21.3-.26,26.64-1.68.88-.23,3.94-1.72,3.34-3.13Z"/>
      <path class="cls-4" d="M24.53,101.16c-1.39,2.5-.94,3.14-.92,5.51,0,.81-.48,1.7-.39,2.33.07.43,1.79,3.02,2.24,3.45,4.2,4.02,10.19,1.03,15.11.68,4.02-.29,7.77.56,12,.45.93-.02,2.02.63,2.78.45.18-.04,2.93-1.86,3.07-1.99,2.3-2.13,1.78-5.65,1.58-8.48,1.67,1.41,3.18,2.85,4.79,4.31-1.34,7.62-5.61,10.25-13.17,9.58-3.14-.28-6.47-2.01-9.59-1.95-3.35.07-7.07,2.22-10.53,2.45-6.6.44-10.78-3.33-12.24-9.6,1.69-3.23,2.83-4.58,5.27-7.19Z"/>
      <path class="cls-30" d="M220.57,97.33c-.6-1.18-1.67-.7-2.4-1.92-1.03-1.72.36-2.36-2.4-1.92-.92-.42-1.53-.91-.96-1.92-.96-.46-5.05-4.16-5.4-4.93-1.59-3.55,1.12-6.22,3.52-8.4,5.55-5.05,11.43-10.14,17.21-15.08.38-.33.85-.55,1.34-.77s1.01-.39,1.54-.53c.46-1.27,1.1-1.91,1.92-1.92.15-.75.69-1.58,1.62-2.47,0-1.38.41-2.16,1.26-2.32.07-.17,2.48-1.03,1.92-2.88.47,2,.58,1.96.07,4.15-1.01,4.31-8.1,12.34-11.57,15.27-3.7,3.13-12.53,6.76-13.68,11.24-1.66,6.45,7.27,6.69,6,14.39Z"/>
      <path class="cls-7" d="M37.95,149.56c-5.92,2.3-11.2,4.54-15.82,9.11-.44-7.03,7.47-11.63,13.84-10.24.78.17,1.7.22,1.98,1.13Z"/>
      <path class="cls-29" d="M120.39,11.07c.76.11,3.13,1.73,3.35,2.16.44.88-.65.68-1.04.84-.89.38-1.78.84-2.79.83,1.03,3.89,3.04,4.73.96,9.1.53-2.08-1.59-1.68-1.85-1.98s.1-1.85-.31-2.81c-.48-1.11-2.77-1.98-3.11-2.65-.52-1.03,1.69-.93,1.88-1.23.99-1.56-1.71-2.02-2.84-1.88,2.05-.95,3.66-1.58,5.75-2.4Z"/>
      <path class="cls-12" d="M218.17,144.29l-7.67-1.92c1.65-2.42,1.32-4.08.48-6.7,3.38,2.27,7.88,3.72,7.18,8.62Z"/>
      <path class="cls-20" d="M25.01,228.16c-5.76-2.04-12.16-8.62-15.34-13.9-.13-1.52.3-.98.95-.23,4.42,5.13,9.18,9.82,14.39,14.12Z"/>
      <path class="cls-15" d="M95.47,116.02c2.12-.12,4.41,1.3,5.75,2.87-2.79.6-4.93,1.71-7.67,0,.31-.32,1.93-2.5,1.92-2.88Z"/>
      <path class="cls-14" d="M224.4,146.69c-3.58-.17-6.06-1.87-5.74-5.75.72.31,6.56,5.06,5.74,5.75Z"/>
      <path class="cls-35" d="M191.33,26.88c-2.07-2.53-4.39-5.17-5.75-8.15,3.28,3.51,3.63,3.69,5.75,8.15Z"/>
      <path class="cls-35" d="M194.69,33.59c-1.59-1.22-2.06-3.91-2.88-5.75,1.87,1.22,2.08,3.95,2.88,5.75Z"/>
      <path class="cls-18" d="M235.43,162.5l-.48.48c0-.17-.87-1.08-.47-1.91.6-.16.65.78.95,1.44Z"/>
      <path class="cls-11" d="M44.66,155.31c.26-1.25.61-1.76,1.77-1.04,5.34,5.77,12.94,8.65,20.51,10.25l15.11,2.77c5.91.69,12.78.62,18.69,0,1.12,0,2.24,0,3.36,0,1.57-.29,3.29-.5,4.79,0,.42.14.41.3,0,.48-.47.05-.97-.05-1.44,0-1.07.35-2.19.51-3.36.48-12.32,1.74-20.97,2.56-33.55.96-4.96-.63-10.27-1.84-14.86-3.83-4.18-1.81-8.53-4.78-11.02-8.63v-1.44Z"/>
      <path class="cls-36" d="M82.52,167.29c-.12.22-.29.2-.48,0-11.89-.55-27.35-2.9-35.81-11.87-.76-.8-.5-.78-1.58-.11,0-1.12,0-2.24,0-3.36,1.13-1.14,7.41,4.44,8.85,5.29,8.62,5.05,19.46,7.37,29.01,10.05Z"/>
      <path class="cls-37" d="M100.74,167.29c-.5.79-1.82.48-2.63.49-4.47.05-8.97.06-13.43,0-.81-.01-2.13.31-2.63-.49.16,0,.32,0,.48,0,5.95.24,12.23.01,18.21,0Z"/>
      <path class="cls-37" d="M109.85,166.82c1.75,0,3.52,0,5.27,0,0,.93-1.73.37-2.39.47l-2.4.48c-.47.03-.97-.05-1.44,0v-.48c.11-.21.43-.37.96-.48Z"/>
      <rect class="cls-8" x="115.6" y="166.34" width="2.87" height=".95"/>
      <path class="cls-5" d="M109.85,166.82c-.13.46-.55.46-.96.48-1.58.09-3.21,0-4.79,0,1.43-.88,3.94-.48,5.75-.48Z"/>
      <path class="cls-37" d="M107.45,167.77c-.68.91-2.31.37-3.36.48,1.04-.15,2.19-.35,3.36-.48Z"/>
      <path class="cls-5" d="M112.72,167.29c-.63.1-1.21.4-2.4.48.41-.78,1.63-.45,2.4-.48Z"/>
      <path class="cls-21" d="M159.56,34.17c6.49-1.47,10.58,3.38,13.33,8.51,2.09,3.89,5.19,13.67-.37,15.94-8.24,3.37-21.44-14.29-15.7-22.4.54-.77,1.81-1.84,2.74-2.05Z"/>
      <path class="cls-26" d="M237.83,55.16c-.22.51.13,1.76-.54,3.05-.75,1.43-1.85,1.3-2.34,1.74-.75.51-.91.19-.48-.96l-.46-.59c1.18-1.49,1.12-2.77-.02-4.2l-.83.56c-6.39.33-10.97,3.95-14.99,8.78-7.5,9.56-15.37,17.88-25.67,24.7,3.5,1.53,7.27,2.27,11.29,2.24.59.71,1.55,1.07,2.88,1.09,1.77-1.38,6.4-1.54,8.15,0,.3.44,1.33.65.96,1.92-5.98.95-13.71.61-19.67-.7-2.35-.52-8.48-2.16-6.94-5.51l15.37-12.93c5.85-6.99,17.23-23.21,27.22-22.99,2.46.05,5.84.83,6.07,3.8Z"/>
      <path class="cls-27" d="M221.52,159.63l-8.56-9.88c-.66-1.04-.97-2.61.18-3.53,1.21,5.48,7.43,7.92,8.38,13.42Z"/>
      <path class="cls-25" d="M34.96,157.34c3.49-.5,9.04,2.58,11.6,4.97l-6.53,7.32c-5.84.76-13.66-11.07-5.07-12.29Z"/>
      <path class="cls-9" d="M72.8,129.57c4.98,6.13-12,17.34-15.89,9.42-3.91-7.96,11.4-14.95,15.89-9.42Z"/>
      <path class="cls-6" d="M56.5,109.65c-2.44,2.99-11.96.82-15.94,1.07s-8.61,2.7-12.37.43-2.56-7.65-.02-10.42c6.01-6.56,21.37-5.36,27.05,1.14,1.65,1.89,3,5.69,1.28,7.79Z"/>
      <path class="cls-3" d="M233.99,54.2c2.06.74,1.23,2.81.48,4.79-.14.91-.62,1.86-1.44,2.88-5.54,5.03-11.71,10.18-17.48,15.35-1.59,1.43-5.34,4.47-5.55,6.44-.4,3.73,1.49,3.18,3.11,5.08.58.68,1.11,1.97,1.71,2.84-2.64-.18-5.55.25-8.15,0-3.69-.29-4.4-1.04-2.12-2.27-2.12-1.57-1.92-3.88.6-6.93,4.37-5.2,8.14-10.71,11.89-16.38,3.74-5,9.46-11.81,16.34-9.03-.39-1.98-.18-2.9.61-2.77Z"/>
      <path class="cls-13" d="M234.95,59.95c-.58.52-1.19,1.26-1.92,1.92-.14-1.19,1.18-2.2,1.44-2.88l.48.96Z"/>
      <path class="cls-24" d="M167.36,47.01c-.98,1.04-5-4.57-4.31-5.27.99-.99,5.25,3.58,4.31,5.27Z"/>
      <path class="cls-39" d="M233.99,54.2c-.79.42.6,1.05.51,2.13-.25,2.92-2.72.92-3.51.87-8.25-.5-15.17,12.55-19.13,18.23-2.25,3.23-6.94,7.66-7.87,11.35-.55,2.2,2.72,1.46,2.2,2.63-.43.95-2.22.74-2.39,1.68,1.05-.49,2.35.43,2.87.48-3.77-.18-8.21-.29-11.81-1.37-.78-.23-3.81-1.08-3.52-2.22,4.49-3.76,9.92-7.28,14.15-11.25,5.37-5.04,14.58-19.07,21.2-21.45.89-.32,5.42-1.51,6.18-1.56s.86.38,1.12.48Z"/>
      <path class="cls-28" d="M37.36,97.46c4.95-.64,12.55.43,16.18,4.16,1.98,2.04,3.54,6.02.57,7.79s-10.16.08-14.01.34-12.75,3.49-13.21-3.09c-.37-5.29,5.92-8.62,10.47-9.2Z"/>
      <path class="cls-31" d="M36.87,98.89c4.92-.71,15.1.26,16.68,6.1,1.23,4.52-4.83,3.3-7.2,3.34-4.08.06-8.1.82-11.99,1-10.21.46-5.3-9.31,2.5-10.44Z"/>
      <path class="cls-33" d="M40.24,100.34c4.65-.03,14.71,4.43,5.56,6.04-2.13.38-6.29.54-8.55.56-1.85.02-6.94.64-5.78-2.39s5.94-4.19,8.76-4.21Z"/>
    </g>
  </g>
</svg>