<?xml version="1.0" encoding="UTF-8"?>
<svg id="_レイヤー_2" data-name="レイヤー 2" xmlns="http://www.w3.org/2000/svg" viewBox="0 0 1278.43 1278.43">
  <defs>
    <style>
      .cls-1 {
        fill: #f5a517;
      }

      .cls-2 {
        fill: #faeda8;
      }

      .cls-3 {
        fill: #d2d4d6;
      }

      .cls-4 {
        fill: #dc9b2a;
      }

      .cls-5 {
        fill: #74bce7;
      }

      .cls-6 {
        fill: #e4e8ec;
      }

      .cls-7 {
        fill: #d3ebf2;
      }

      .cls-8 {
        fill: #9aa4a1;
      }

      .cls-9 {
        fill: #faf8e3;
      }

      .cls-10 {
        fill: #dfe6ec;
      }

      .cls-11 {
        fill: #bbc7d1;
      }

      .cls-12 {
        fill: #97c8eb;
      }

      .cls-13 {
        fill: #fcfdff;
      }

      .cls-14 {
        fill: #d9d8d8;
      }

      .cls-15 {
        fill: #f4f4e2;
      }

      .cls-16 {
        fill: #7ebee8;
      }

      .cls-17 {
        fill: #d1e9f7;
      }

      .cls-18 {
        fill: #dddbda;
      }

      .cls-19 {
        fill: #fefeff;
      }

      .cls-20 {
        fill: #e1c19b;
      }

      .cls-21 {
        fill: #50aee2;
      }

      .cls-22 {
        fill: #e2b16f;
      }

      .cls-23 {
        fill: #89cbec;
      }

      .cls-24 {
        fill: #fdfeff;
      }

      .cls-25 {
        fill: #5db2e3;
      }

      .cls-26 {
        fill: #f9f6df;
      }

      .cls-27 {
        fill: #45abe1;
      }

      .cls-28 {
        fill: #ebe9d6;
      }

      .cls-29 {
        fill: #50aacf;
      }

      .cls-30 {
        fill: #fff;
      }

      .cls-31 {
        fill: #dcebf8;
      }

      .cls-32 {
        fill: #8cc5ea;
      }

      .cls-33 {
        fill: #d0ac6e;
      }

      .cls-34 {
        fill: #040000;
      }

      .cls-35 {
        fill: #f7fbfe;
      }

      .cls-36 {
        fill: #7abfe9;
      }

      .cls-37 {
        fill: #d6e9f8;
      }

      .cls-38 {
        fill: #eaebdb;
      }

      .cls-39 {
        fill: #edf0f2;
      }

      .cls-40 {
        fill: #c3e1f5;
      }

      .cls-41 {
        fill: #c6d9e4;
      }

      .cls-42 {
        fill: #d0e5f5;
      }

      .cls-43 {
        fill: #efcfa5;
      }

      .cls-44 {
        fill: #78bbe7;
      }

      .cls-45 {
        fill: #ebceaa;
      }

      .cls-46 {
        fill: #4eaee2;
      }

      .cls-47 {
        fill: #feffff;
      }

      .cls-48 {
        fill: #549237;
      }

      .cls-49 {
        fill: #99caed;
      }
    </style>
  </defs>
  <g id="_レイヤー_1-2" data-name="レイヤー 1">
    <g>
      <rect class="cls-30" width="1278.43" height="1278.43"/>
      <path class="cls-34" d="M408.81,253.05c11.5-.87,23.02-2.79,34.5-3.82,31.15-2.78,62.5-3.44,93.74-4.83,98.98-4.41,199.04-5.78,298.1-.76,1.86.34,2.94,2.81,3.63,4.36,6.42,14.46-4.43,17.14-5.54,28.53-1.94,19.82,4.85,39.35,14.45,56.24,4.57,8.04,21.77,28.44,22.03,35.17.54,13.86-2.04,31.91-2.4,46.1-4.66,181-10.53,361.66-17.04,542.7-1.88,52.32,9.35,93.15-35.88,129.61-64.82,52.25-181.03,58.75-258.8,38.63-42.56-11.01-104.95-39.55-114.8-87.2-18.86-221.14-39.52-442.4-55.19-663.74,5.07-18.88,20.35-32.95,26.34-51.54,3.31-10.29,7.11-35.68,5.17-45.88-.9-4.73-15.17-13.73-8.31-23.58Z"/>
      <path class="cls-27" d="M826,297.89c3.12.96,5.15,3.79,6.08,8.52,3.61,14.25,13.72,31.56,21.9,43.81-1.02.98-2.06,1.91-3.21,2.7s-2.25,1.51-3.46,1.88c-13.54,4.17-27.49,6.98-41.36,9.76-42.68,8.55-85.68,14.26-128.61,19.51,60.14,10.94,127.25,9.86,185.46-6.97,1.26,2.9,1.97,6.11,2.13,9.62-1.15,60.56-3.75,120.93-6.08,181.31-1.02,3.98-1.05,8.2,0,12.17-.33,8.17-.78,16.26-1.22,24.34-.01,2.27-.42,4.3-1.22,6.08.91,2.13.98,5.2,0,7.3.36,5.95.77,12.03,1.22,18.25-1.1,39.67-2.23,80.68-4.87,120.47.07,2.81-.34,5.24-1.22,7.3.91,2.39,1.06,6.06,0,8.52.99,1.35.7,4.55-1.22,4.87.73,14.57.48,29.3-1.22,43.81.9,9.23,1.07,18.73,0,27.99.93,7.8.79,16.74-1.22,24.34l-3.22,3.36c-90.66,28.24-179.33,136.78-157.19,234.72,3.88,5.69,3.91,9.5.09,11.44-56.58,5.4-119.94,3.25-173.85-20.85-27.51-12.3-59.48-34.04-67.38-64.39-1.16-.88-1.97-2.51-2.43-4.87-6.34-49.33-9.35-102.27-13.39-152.1.92-3.11.92-6.36,0-9.73-3.84-22.55-4.09-46.87-6.09-69.96-9.81-112.94-19.88-225.92-29.2-338.89l3.46,1.7c18.62,47.87,65.04,63.55,111.76,45.79,79-30.04,120.81-124.72,106.19-206.45-1.69-11.16,4.61-13.13,18.78-8.94,56.72-.14,113.28.26,169.9,1.13,3.45.05,6.89.44,10.34.86s6.9,1,10.33,1.64Z"/>
      <path class="cls-2" d="M810.18,267.47c3.94,1.17,8.19.87,12.17,0,2.22.22,5.47,2.24,8.51,1.22-2.39,9.56-1.32,19.65,0,29.2.13,3.04-1.49,3.04-4.87,0-51.66,0-103.78-1.35-155.09-1.27-17.66.03-35.34.08-52.98.06,10.6,53.05.17,104.55-28.24,150.02-34.87,55.81-119.87,104.03-175.63,47.15-8.9-9.08-13.59-20.35-18.81-31.69-2.32-28.18-4.33-56.43-7.38-84.55.6-4.29,3.11-7.84,4.95-11.58.56-.48.56-.89,0-1.22.86-1.57,2.29-2.18,2.43-2.43.56-.48.56-.88,0-1.22.31-.58,1.05-.91,1.22-1.22l1.22-1.22c-.02-1.61.8-3.23,2.43-4.87.56-.45.56-.85,0-1.22,3.34-6.11,7.74-11.5,10.78-17.82,9.11-18.97,10.57-40.51,9.9-61.28,8.89-.36,17.28,1.36,26.22,1.27,18.12-.19,37.77-3.88,55.93-4.9,100.21-5.65,207.45-8.72,307.24-2.45Z"/>
      <path class="cls-1" d="M847.9,873.45c.35-1.06.75-1.05,1.22,0-1.19,48.39-1.37,97.24-3.6,145.46-1.97,42.53-24.5,61.7-59.67,80.87l-2.43,1.22-2.43,1.22-1.22,1.22c-19.28,9.38-36.4,14.65-57.19,19.47l-3.65,1.22c-45.38,9.69-90.64,10.15-136.28,2.43l-4.87-1.22c-26.95-5.03-47.23-10.72-71.79-23.12l-1.22-1.22c-23.77-12.41-52.96-31.74-59.62-59.62-.31-2.13.1-3.35,1.22-3.65,33.15,71.51,137.24,87.72,207.52,85.23l34.62-2.49c-.07-3.12-2.51-5.17-3.33-8.22-25.58-95.57,72.58-216.44,162.74-238.79Z"/>
      <path class="cls-14" d="M411.05,256.53l82.15-7.29c105.53-3.79,212.03-8.42,317.59-2.46,11.46.65,30.93-4.11,25.2,14.28-2.54,8.17-8.84,3.13-15.5,2.79-125.5-6.38-251.69-2.73-377.2,7.36-13.76-3.88-32.27,6.04-32.25-14.67Z"/>
      <path class="cls-23" d="M863.72,362.39c.61,5.24,1.01,10.52,1.22,15.82,0,2.83.05,5.68,0,8.52-2.79-.87.67-8.31-3-7.27s-6.93,3.28-11.56,4.27c-48.19,10.32-112.45,13.2-160.92,5.08-8.6-1.44-18.39-3.19-26.51-6.35,19.64-1.42,39.17-2.77,58.65-5.83,3.93-.62,7.74-2.31,11.67-2.93,40.48-6.42,81.59-10.98,120.71-23.48,2.48,3.71,7.38,7.25,9.73,12.17Z"/>
      <path class="cls-39" d="M851.55,791.92c.02,6.07.01,12.18,0,18.25-.38,3.79-.78,7.44-1.22,10.95-.35,1.06-.75,1.05-1.22,0,.26-14.64.19-29.2,1.22-43.81.71.09,1.31.25,1.54.63,1.34,2.24.11,11.08-.32,13.97Z"/>
      <path class="cls-31" d="M850.33,829.65c-.01,6.47.11,13,0,19.47-.35,1.06-.75,1.05-1.22,0,.08-9.31-.16-18.68,0-27.99h1.22c1.03,2.79.53,5.66,0,8.52Z"/>
      <path class="cls-11" d="M849.11,873.45h-1.22c1.87-7.96,1.15-16.21,1.22-24.34h1.22c-.13,8.11-1.03,16.57-1.22,24.34Z"/>
      <path class="cls-41" d="M864.93,378.2c-2.69-3.99-.19-10.21-2.15-15.11l.93-.71c3.56,7.43,1.23,8.72,1.22,15.82Z"/>
      <path class="cls-18" d="M851.55,791.92c-.02-4.6,1.03-10.98-1.22-14.6.11-1.54,1.12-3.33,1.22-4.87.35-1.06.75-1.05,1.22,0,0,6.17,1.02,14.04-1.22,19.47Z"/>
      <path class="cls-10" d="M830.86,297.89c.39,2.82.52,5.75,1.22,8.52l-6.08-8.52h4.87Z"/>
      <path class="cls-6" d="M850.33,829.65c0-2.84-.02-5.68,0-8.52.03-3.43-.99-8.55,1.22-10.95-.01,6.18,1.03,14.03-1.22,19.47Z"/>
      <path class="cls-3" d="M857.63,636.17c-2.15-4.95-1.34-12.57-1.22-18.25.35-1.06.75-1.05,1.22,0,0,6.06.17,12.2,0,18.25Z"/>
      <path class="cls-7" d="M822.34,267.47c-2.69,2.08-9.71,2.02-12.17,0,3.96.25,8.29-.38,12.17,0Z"/>
      <path class="cls-12" d="M858.85,580.2c-2.16-2.68-1.93-9.14,0-12.17-.16,4.04.16,8.13,0,12.17Z"/>
      <path class="cls-44" d="M430.53,880.75c-.26-3.2.18-6.52,0-9.73.4,2.34,3.29,6.94,0,9.73Z"/>
      <path class="cls-4" d="M446.35,1037.72l-1.22,3.65c-.87-3.63-.77-5.05-1.22-8.52,1.49,1.27,1.67,3.22,2.43,4.87Z"/>
      <path class="cls-37" d="M852.77,772.45h-1.22c.18-2.82-.17-5.7,0-8.52.35-1.06.75-1.05,1.22,0,0,2.84,0,5.68,0,8.52Z"/>
      <path class="cls-49" d="M852.77,763.94h-1.22c.17-2.94,1.12-5.79,1.22-7.3v7.3Z"/>
      <path class="cls-28" d="M397.67,358.73h-1.22c.53-2.5,2.14-3.35,3.65-4.87-.84,1.52-1.17,2.78-2.43,4.87Z"/>
      <path class="cls-42" d="M857.63,617.92h-1.22c.05-2.42-.16-4.9,0-7.3.35-1.06.75-1.05,1.22,0v7.3Z"/>
      <path class="cls-16" d="M857.63,610.62h-1.22c.17-2.55,1.17-5.28,1.22-6.08v6.08Z"/>
      <path class="cls-8" d="M582.63,1126.55c-2.08-.35-3.75-1.01-4.87-1.22l4.87,1.22Z"/>
      <path class="cls-22" d="M722.57,1122.9c-.56.13-1.87.84-3.65,1.22l3.65-1.22Z"/>
      <path class="cls-45" d="M785.84,1099.78c-.82.45-1.63.8-2.43,1.22.7-.36,1.35-1.27,2.43-1.22Z"/>
      <path class="cls-43" d="M783.41,1101c-.82.43-1.61.8-2.43,1.22,1-.65,1.59-.79,2.43-1.22Z"/>
      <path class="cls-9" d="M400.11,353.87c.17-.31-.17-.9,0-1.22l1.2.61c-.31.32-.91.32-1.2.6Z"/>
      <path class="cls-15" d="M392.81,366.04c.16-.33-.17-.91,0-1.22l1.2.62-1.2.6Z"/>
      <path class="cls-26" d="M395.24,362.39c.17-.31-.17-.9,0-1.22l1.19.62-1.19.6Z"/>
      <path class="cls-33" d="M505.97,1102.21c-.53-.27-.88-1.04-1.22-1.22l1.22,1.22Z"/>
      <path class="cls-20" d="M779.76,1103.43c.35-.46.73-.9,1.22-1.22-.41.21-.77,1-1.22,1.22Z"/>
      <path class="cls-38" d="M396.46,359.95v-1.22h1.22c-.28.46-.99.81-1.22,1.22Z"/>
      <path class="cls-1" d="M604.53,818.69c-7.21-3.82-10.4-15.99-12.35-24.01s-4.76-20.49.18-27.1l.96-3.06c15.06-9.26,30.89-16.82,47.34-23.34,15.81-6.66,24.44-17.82,29.1-33.38l2.91.15c4.57-3.3,7.82-3.7,9.73-1.22,4.85.09,3.96,7.41,2.75,11.09-7.27,10.65-4.42,12.87,8.54,6.67-5.3-5.21-7.65-14.83-1.55-20.2,47.34-2.37,87.22,21.17,81.4,73.49-8.65,77.77-129.79,109.56-169.01,40.89Z"/>
      <path class="cls-2" d="M621.57,698.23l-2.67,3.5c-16.64,5.67-30.8,15.82-41.65,29.54-7.89,11.06-16.49,21.28-25.78,30.66,11.89,3.92,25.18,8.13,37.88,4.15l3.03,1.51c-1.36,18.41,3.13,35.27,12.17,51.11-11.81,7.95-22.71,15.75-37.24,18.12-16.08,2.63-24.91-3.03-37.7-3.42-9.72-.29-16.98,4.99-24.82-5.59-7-9.44-2.27-12.83-3.88-20.4-.52-2.45-4.31-7.07-5.69-10.18-16.8-38.05-12.07-78.98,21.83-105.59,12.05-9.46,37.61-16.25,52.81-15.3,4.8.3,11.17,2.58,15.78,2.46,5.8-.14,12.87-4.38,19.2-3.47,9.21,1.32,17.11,13.81,16.75,22.89Z"/>
      <path class="cls-48" d="M692.14,704.31c-.09,4.83-2.37,10.61.03,14.89,1.07,1.9,4.72,1.54,3.68,6.24-.51,2.31-15.39,7.45-17.01,2.46-.97-2.98,4.09-8.75,4.68-13.35.54-4.19-1.05-6.15-1.11-7.8-2.56-1.91-5.81-1.51-9.73,1.22-4.25,5.23-3.16,10.29-6.78,15.74-11.98,18.04-31.32,21.98-49.66,30.65-7.49,3.54-16.43,10.33-23.87,13.24-6.51,2.54-12.96,2.98-19.93,2.28-2.29-.23-20.59-4.64-21.49-5.28-5.09-3.59,1.89-6.37,3.14-7.88,22.6-27.31,30.36-46.14,67.48-58.49,7.33-2.44,11.9-4.33,20.07-3.63,9.76.83,20.35,10.21,28.96,8.25,1.72-.39,11.06-6.18,11.9-7.58,2.12-3.54-.61-20.75,7.7-18.84,4.9,1.12,1.93,9.79,1.9,12.63-.07,5.08.15,10.19.06,15.26Z"/>
      <path class="cls-30" d="M559.51,576.53c13.73-5.03,38.63-3.87,41.13,14.33s-20.74,26.14-34.4,28.4c-1.87.31-2.73,1.69-4.29-.76l20.05-12.77c21.83-25.76-10.81-26.37-28.48-15.09-4.42,2.82-16.27,17.72-19.05,7.91-2.87-10.14,10.4-18.93,16.48-26.3,2.83-3.43,12.39-14.97,13.4-18.24,1.25-4.07-7.57.37-9.23.56-5.7.64-12.65-1.47-13.88-7.8.36-1.85,13.73-2.86,17.05-3.67,6.21-1.51,12.57-6.75,18.92-3.11,2.56,1.47,6.31,7.07,5.28,10.2-.32.98-12.73,11.34-15.1,14.19-3.08,3.7-5.98,7.72-7.89,12.17Z"/>
      <path class="cls-30" d="M685.12,599.38c2.41,3.4,22.38,4.49,21.3,15.32-1.19,11.91-16-4.08-20.98-3.6-.75.07-9.9,5.81-13.33,6.87s-8.18,2.3-11.85,2.1c-18.07-.96-18.44-20.49-1.48-22.74,3.47-.46,14.19,1.24,14.96-2.03.39-1.65-2.13-12.65-2.28-15.74-.41-8.47.44-17.06-.03-25.53-.31-5.57-7.21-27.28,6.52-16.25,8.94,7.18,3.12,20.96,3.19,30.78.03,4.45.87,13.53,1.41,18.16.2,1.77,2.16,12.06,2.57,12.64Z"/>
      <path class="cls-30" d="M476.8,558.27c.5.45,9.46-3.51,11.91,3.31s-8.03,4.6-9.35,8.43c-.58,1.69-.54,13.39-.22,15.72.91,6.61,13.58,9.64,13.53,18.22-.06,11.16-9.64-4.31-12.85-4.3-2.5,0-6.41,4.86-9.13,5.61-12.7,3.51-24.97-27.2-1.23-20.19-.48-3.13,1.21-12.49-1.14-14.07s-13.07.19-13.46-7.83c2.12.18,12.37-.53,13.22-1.38.76-.76.57-14.15,6.97-8.46,1.79,1.59,1.55,4.77,1.75,4.95Z"/>
      <path class="cls-30" d="M766.38,587.49c3.39,3.14,6.99-15.07,12.15-12.16-2.58,6.17-1.88,31.3-11.46,30.45-1.88-.17-5.43-2.89-6.61-4.46-6.31-8.37-5.72-34.39-7.81-45.73-1.36-7.41-10.9-24.67,4.89-18.27,9.21,3.73,4.48,22.48,5.2,31.3.51,6.25,2.79,12.67,3.64,18.87Z"/>
      <path class="cls-19" d="M626.33,894.25c2.27,3.2-6.7,14.82-8.41,18.12,1.41-.08,17.31,3.49,14.61.02-7.37.76-3.35-5.88,1.58-4.72,3.14.74,3.52,5.69,5.1,7.14,2.5,2.29,9.07.77,7.91,7.29-3,1.18-8.34-2.72-10.21-2.27-.97.23-7.72,11.4-13.71,14.24-4.02,1.91-8.14,2.15-3.76-2.59,3.19-3.45,6-4.53,8.72-9.49.73-1.33,2.83-3,.76-4.17-1.69-.96-10.55-2.21-12.57-1.59-3.5,1.08-9.39,14.78-18.99,8.2-1.86-10.07,11.09-9.07,15.18-11.97,3.16-2.24,5.85-10.61,7.82-14.09-3.48-.79-4.32,2.08-8.8,1.57-3.28-.37-3.86-1.4-3.37-4.6,3.98,1.34,15.86-4.34,18.15-1.1Z"/>
      <path class="cls-47" d="M575.32,894.14c1.85,7.51-10.16,5.43-10.88,6.15-.22.21-.6,4.81-.73,6.03,2.45,3.82,23.53-6.52,22.57,6.07l-23.12,1.23c-1.64,13.88,17.28,1.34,17.04,12.16-6.23,1.03-19.37,1.86-21.66-5.72-.54-1.8,0-6.2-.24-6.45-.55-.57-13.44,1.33-14.6-4.27-1.04-5.02,11.34-.5,14.6-1.81-.1-1.89.5-4.53-.56-6.13-1.16-1.75-11.3-2.04-6.04-7.22l23.63-.03Z"/>
      <path class="cls-24" d="M726.22,905.09c-.79,2.13-.38,2.53,1.22,1.22,10.7-6.75,8.09,2.62,10.33,6.1,5.43,8.44,13.39-15.17,13.99-16.23.93-1.65,2.2-.62,3.67-.81,1.95,1.83-7.53,20.16-10.58,21.96s-10.24,2.18-11.94-1.27c-1.34-2.73,1-7.58-2.41-7.3-3.36,1.33-13.5,16.98-14.62,17-2.36.04-1.61-4.55-1.3-6.14,2.26-11.67,16.37-25.66,15.3-38.86,3.28-.48,6.41,1.61,5.9,5.18-.18,1.24-8.02,15.81-9.56,19.16Z"/>
      <path class="cls-19" d="M445.14,582.62c2.92-1.24-.3-9.57,4.85-8.5-1.69,5.16,2.7,22.56.64,25.58-3.98,5.84-8.69-7.28-9.49-10.03-5.69-19.55,1.56-41.09-4.52-60.57,4.27.23,7.86,6.78,8.43,10.42,2.19,14-6.37,29.25.09,43.11Z"/>
      <path class="cls-24" d="M665.37,922.12c-10.6.2-.97-10.07,1.22-14.59-1.24-.97-11.17,4.64-10.95-2.44,2.08-.33,13.88-3.32,14.37-3.88,1.38-1.58.61-6.8.37-8.99-.43-3.9,6.35-1.34,7.04,1.54s-2.74,3.72-2.31,6.45c16.18-3.77,5.85,29.19-.79,30.33-1.65.28-7.38-6.07-7.74-8.42-.06-.44-.46-.44-1.22,0Z"/>
      <path class="cls-24" d="M510.84,907.52c4.44-1.67,8.79-3.45,12.81-6.05,2.55-1.66,9.06-8.5,9.7-8.52,1.29-.04,1.77,2.11,1.32,3.7-1.86,6.6-16.13,16.91-23.1,16.86-.5,0-5.6-.83-5.6-1.12v-29.81c0-.62-1.94-2.54-1.21-4.25,2.53-.72,6.61,2.25,7.15,4.53.43,1.82-1.07,2.93-1.07,3.37v21.29Z"/>
      <path class="cls-47" d="M798.01,538.83c12.08.16,19.71,37.27,11.4,40.06-9.79,3.28-5.98-18.9-6.67-24.72s-4.08-9.8-4.73-15.34Z"/>
      <path class="cls-13" d="M481.47,544.75c-2.88,4.53-28.01,3.53-27.79-5.33.08-3.29,8.16,1.68,10.32,1.67,4.36-.01,15.91-8.06,17.65-.4.23.99.31,3.3-.18,4.06Z"/>
      <path class="cls-24" d="M690.04,567.72c-7.94-6.59,20.74-18.26,16.5-4.19-1.32,4.38-13.1,7-16.5,4.19Z"/>
      <path class="cls-35" d="M690.93,907.53c5.07,1.41,9.05-1.26,3.99-4.93-.67-.48-15.15-6.23-8.23-7.24,3.19-.47,15.19,7.22,16.19,10.61,2.89,9.77-10.08,9.15-11.95,1.57Z"/>
      <path class="cls-36" d="M727.43,906.31c-.82.51-1.79,3.62-3.64,3.65-.8-2.42,1.78-3.47,2.42-4.87l1.22,1.22Z"/>
      <path class="cls-21" d="M665.37,922.12c2.9-2.52,6.54-16.91,7.59-17.96.3-.3,4.48-1.52,5.13-1.54,3.53-.08-1.08,20.27-4.79,20.45-.87.04-2.58-1.75-4.01-2.02-1.84-.35-2.56,1.07-2.7,1.07-.41,0-.81,0-1.22,0Z"/>
      <path class="cls-29" d="M682.41,706.75l-9.73,1.22c2.97-3.65,6.59-4.86,10.35-7.29,2.02,1.36-.65,5.1-.62,6.08Z"/>
      <path class="cls-46" d="M653.32,605.86c4.02-5.96,30.5,2.9,11.17,6.91-4.92,1.02-15.17-.99-11.17-6.91Z"/>
      <path class="cls-32" d="M703.09,613.06v2.42s-3.64,0-3.64,0c.41-1.76,1.96-2.79,3.64-2.42Z"/>
      <path class="cls-25" d="M462.76,589.97c1.18-.11,7.91,4.25,7.9,5.44-5.43,8.84-13.06-4.96-7.9-5.44Z"/>
      <path class="cls-17" d="M486.5,563.15c-1.58.5-6.12-1.82-4.86-2.41,2.17-.33,4.27.07,4.86,2.41Z"/>
      <path class="cls-5" d="M610.62,917.27c-.43,2.44-6.93,6.08-8.51,4.85-2.61-2.04,7.34-5.59,8.51-4.85Z"/>
      <path class="cls-40" d="M445.14,593.58c-.81-1.52,1.95-4.24,2.41-3.65.81,1.52-1.95,4.24-2.41,3.65Z"/>
    </g>
  </g>
</svg>