<?xml version="1.0" encoding="UTF-8"?>
<svg id="_レイヤー_2" data-name="レイヤー 2" xmlns="http://www.w3.org/2000/svg" viewBox="0 0 1250.71 1250.71">
  <defs>
    <style>
      .cls-1 {
        fill: #68aad9;
      }

      .cls-2 {
        fill: #dcebf7;
      }

      .cls-3 {
        fill: #e8f3fa;
      }

      .cls-4 {
        fill: #f1f7fc;
      }

      .cls-5 {
        fill: #c8b497;
      }

      .cls-6 {
        fill: #53a0d6;
      }

      .cls-7 {
        fill: #3290ce;
      }

      .cls-8 {
        fill: #725b4a;
      }

      .cls-9 {
        fill: #cab698;
      }

      .cls-10 {
        fill: #eaf3fa;
      }

      .cls-11 {
        fill: #e2edf8;
      }

      .cls-12 {
        fill: #988f89;
      }

      .cls-13 {
        fill: #529dd4;
      }

      .cls-14 {
        fill: #c8b396;
      }

      .cls-15 {
        fill: #288dcc;
      }

      .cls-16 {
        fill: #cccbcb;
      }

      .cls-17 {
        fill: #1170a7;
      }

      .cls-18 {
        fill: #c9b698;
      }

      .cls-19 {
        fill: #cab597;
      }

      .cls-20 {
        fill: #6aa9d9;
      }

      .cls-21 {
        fill: #cbcbca;
      }

      .cls-22 {
        fill: #f9e1be;
      }

      .cls-23 {
        fill: #fefeff;
      }

      .cls-24 {
        fill: #9f9690;
      }

      .cls-25 {
        fill: #878f92;
      }

      .cls-26 {
        fill: #9c948e;
      }

      .cls-27 {
        fill: #fdfeff;
      }

      .cls-28 {
        fill: #1789ca;
      }

      .cls-29 {
        fill: #060201;
      }

      .cls-30 {
        fill: #eee7dd;
      }

      .cls-31 {
        fill: #eff7fc;
      }

      .cls-32 {
        fill: #edf5fb;
      }

      .cls-33 {
        fill: #fef7eb;
      }

      .cls-34 {
        fill: #2e8ecd;
      }

      .cls-35 {
        fill: #c9b597;
      }

      .cls-36 {
        fill: #a49c97;
      }

      .cls-37 {
        fill: #fff;
      }

      .cls-38 {
        fill: #3e94d0;
      }

      .cls-39 {
        fill: #c8b598;
      }

      .cls-40 {
        fill: #f6fafd;
      }

      .cls-41 {
        fill: #6bacdb;
      }

      .cls-42 {
        fill: #070303;
      }

      .cls-43 {
        fill: #aea59f;
      }

      .cls-44 {
        fill: #53a0d5;
      }

      .cls-45 {
        fill: #becbd1;
      }

      .cls-46 {
        fill: #9ac7e6;
      }

      .cls-47 {
        fill: #b5a388;
      }

      .cls-48 {
        fill: #67a8d9;
      }

      .cls-49 {
        fill: #e5f1f9;
      }

      .cls-50 {
        fill: #60a8d8;
      }

      .cls-51 {
        fill: #fce4c0;
      }

      .cls-52 {
        fill: #e7f1fa;
      }

      .cls-53 {
        fill: #e8f2fa;
      }

      .cls-54 {
        fill: #fdf6eb;
      }

      .cls-55 {
        fill: #e9f3fa;
      }

      .cls-56 {
        fill: #e7f2fa;
      }

      .cls-57 {
        fill: #eff6fc;
      }

      .cls-58 {
        fill: #c1ac8f;
      }

      .cls-59 {
        fill: #eef6fb;
      }

      .cls-60 {
        fill: #a49d97;
      }

      .cls-61 {
        fill: #ecf5fb;
      }

      .cls-62 {
        fill: #c0bab3;
      }

      .cls-63 {
        fill: #f0f7fc;
      }

      .cls-64 {
        fill: #4e9bd3;
      }

      .cls-65 {
        fill: #c9b497;
      }

      .cls-66 {
        fill: #a19a95;
      }

      .cls-67 {
        fill: #cbcbcb;
      }

      .cls-68 {
        fill: #a99b83;
      }

      .cls-69 {
        fill: #3f95d0;
      }

      .cls-70 {
        fill: #453d39;
      }

      .cls-71 {
        fill: #c9b598;
      }

      .cls-72 {
        fill: #b0a8a1;
      }

      .cls-73 {
        fill: #fbe3c0;
      }

      .cls-74 {
        fill: #686562;
      }

      .cls-75 {
        fill: #5aa3d6;
      }

      .cls-76 {
        fill: #050000;
      }

      .cls-77 {
        fill: #cab699;
      }

      .cls-78 {
        fill: #ebf4fb;
      }

      .cls-79 {
        fill: #eef6fc;
      }

      .cls-80 {
        fill: #feffff;
      }

      .cls-81 {
        fill: #c9b699;
      }

      .cls-82 {
        fill: #deecf7;
      }
    </style>
  </defs>
  <g id="_レイヤー_1-2" data-name="レイヤー 1">
    <g>
      <path class="cls-37" d="M.02,140.32V0h1250.69v611.32l-4.22-.99c-17.22-20.31-30.11-43.98-41.09-68.24l-28.91-66.36c-21.29-47.42-57.89-90.78-108.46-106.16-23.56-17.74-45.54-37.48-65.95-59.23-14.32-14.07-29.9-25.21-48.54-32.1-47.39-29.21-92.51-61.85-135.36-97.93-13.64-10.4-27.74-20.19-42.18-29.38s-35.15-5.92-50.84-1.96c-28.3,8.92-56.91,16.58-86.36,20.84-46.2,5.36-73.31,48.76-91.64,86.94-7.92,16.5-2.86,25.58,12.14,35.04,4.67,1,6.38,3.2,5.12,6.61l-93.39,62.87c1.1,17.11,6.94,20.91,23.53,20.94,24.51.04,34.49-3.31,52.42-19.84,13.21-1.14,21.66-2.14,34.37-8.37,10.7-7.23,21.83-12.71,33.39-16.43,6.89,13.35,13.68,26.75,20.38,40.19l-2.43,2.93c-37.24,4.37-51.5,40.85-63.67,72.08-12,37.72-24.97,74.59-38.9,110.6-.95,5.08,2.77,22.66,4.52,27.9,8.65,25.81,18.86,49.18,31.73,73.24.43,1.81.35,3.61-.19,5.4,1.62,1.71.94,2.34-1.22,1.22l-4.04-1.9c-31.11-29.75-63.77-57.74-97.99-83.98-7.49-33.79-34.22-56.09-63.23-72.15l-53-27.54c-35.43-17.53-66.27-41.7-73.22-81.9-4.83,7.99-10.52,14.26-19.88,17.2-23.85-19.28-50.59-39.95-78.05-56.01-9.12-5.33-18.49-9.9-28.32-12.2-12.81-24.37-22.9-47.6-27.52-75.69-10.6-37.27-28.53-81.19-72.16-86.33-4.53-23.95-18.61-46.87-45.01-48.67l-1.31-1.62c-.35,1.07-.75,1.05-1.22,0Z"/>
      <path class="cls-51" d="M845.61,1245.83l-1.17,2.44h-418.28l-1.52-2.44-2.46-3.18c-11.31-59.71-29.42-115.91-52.37-172.19l-4.4-13.99c-14.52-67.08-50.07-137.65-121.97-155.03l-57.49-15.52c-35.53-9.39-68.88-23.57-95.7-49.79-27.35-24.56-54.95-48.74-83-72.48-2.44-2.06-4.71-4.12-6.01-7.13-.35,1.07-.75,1.05-1.22,0v-1.22c-.13-44.49.28-88.83,1.22-133,.23-1.09.64-1.04,1.22,0,1.22-1.07,2.64-2.31,4.19-2.21,33.91,2.05,63.67,16.23,91.56,32.54,53.26-38.55,123.78-47.48,188.93-42.84,50.58,3.6,100.36,15.9,142.69,41.29,10.4,7.26,15.17,1.5,21.91-7.72,11.89-16.29,13.67-31.06,11.58-50.87l2.18-4.43c41.42,32.17,83.5,65.32,118.18,104.82,28.05,31.94,48.31,71.86,61.43,111.24,1.56,33.28,16.99,66.11,32.04,96.57,29.74,53.49,59.15,107.14,88.23,160.96,27.67,60.87,54.96,121.12,81.86,180.78l-1.62,3.41Z"/>
      <path class="cls-28" d="M1250.71,984.71v261.12c-65.33,3.45-131.07,3.19-196.55,2.53-17.91.36-35.8-.37-53.59-2.53l-2.09-1.4c-117.42-203.13-235.91-406.64-355.46-610.55-7.11-34.13-7.33-71.56,9.42-103.04,51.44-23.03,101.01-49.4,146.79-80.05,16.22-10.86,34.87-25.01,44.99-40.98l2.6-1.05c5.04-.25,10.4.79,16.08,3.13,23.52,4.37,46.44,9.97,67.05,21.13l3.41,3.22c105.07,180.11,210.21,360.4,315.42,540.88l1.93,7.58Z"/>
      <path class="cls-37" d="M1.24,761.41c11.81,6.46,22.72,14.68,32.71,24.67l61.19,54.23c26,24.57,58.86,37.03,92.67,46.14,66.51,14.92,111.45,27.14,147.42,88.43,9.57,16.31,16.78,33.84,22.23,52.06l11.88,42.11c21.83,55.04,41.1,109.58,51.16,167.71.38,3.8,2.17,6.33,4.15,9.08h420.96c1.72-3.62,1.49-5.48-.74-9.68l-10.2-20.02c-41.32-100.19-88.27-196.76-143.63-288.95-14.8-27.67-46.46-87.14-45.79-118.38,0-.35.65-.69,1.47-1.02.36-.76.77-.74,1.22,0,1.97.51,3.71,1.43,5.2,2.79,11.28,15.3,22.65,30.48,35.3,44.67,10.2,11.44,17.2,15.82,30.95,9.01,2.66-.49,5.21.47,7.62,1.57,9.03,5.23,15.37,7.96,25.56,3.91l218.35,374.64c-.2-1.09.74-.6,2.8,1.46,6.81-3.34,20.28-3.87,26.84,0,83.35.54,166.78-.41,250.14,0v4.88H.02v-489.3c.35-1.07.75-1.05,1.22,0Z"/>
      <path class="cls-51" d="M1250.71,619.87v356.3c-5.41-6.64-10.31-13.63-14.65-21.01-41-69.7-81.67-139.6-122.26-209.54-4.31-7.41-7.88-15.17-10.73-23.26l-1.22-1.22c-1.07-.35-1.05-.75,0-1.22l1.17-1.17c5.72,1.89,40.36,10.04,43.06,6.31.9-1.24.4-2.71-.3-3.92-1.29.85-2.78,1.49-4.33,1.14-18.23-4.03-41.47-13.08-55.79-24.99l-151.92-260.52c-2.52-2.05-3.84-4.06-3.93-6.04l-1.92-3.35c-8.6-4.42-17.63-8.01-27.09-10.76-23.36-5.95-48.41-13.71-64.95-32.26l-2.9-.16-9.71-16.42c-3.75-7.77-8.5-13.22-14.23-16.37-4.47,2.35-8.51-.7-11.24-4.34-11.93-15.9-16.13-34.79-11.94-54.23-3.74-4.41,4.49-15.51,8.17-19.55,4.5-4.94,10.06-9.29,17.05-9.4,87.41,44.22,181.72,80.28,273.62,111.82,42.91,19.83,72.97,58.15,92.04,100.45l26.97,62.07c11.73,27,26.41,52.76,45.26,75.59l1.79,6.02Z"/>
      <path class="cls-76" d="M1.24,140.32c27.17-.52,44.32,24.18,47.68,48.71,52.87,3.85,71.09,73.83,80.29,116.77,2.88,13.44,3.41,11.09,9.32,22.41,1.87,3.59,9.5,22.32,10.58,22.98s4.41.17,6.76,1.17c28.86,12.22,49.7,29.5,74.65,47.37,6.29,4.5,14.6,10.21,20.29,15.14,1.29,1.12,1.68,3.41,1.9,3.57,1.32.94,11.74-6.37,13.2-7.94,1.87-2.01,5.5-11.62,8.67-9.74,1.85,1.1,5.31,17.71,6.71,21.4,28.01,73.91,164.02,74.07,183.57,161.74,34.21,28.38,69.57,54.72,100.09,87.21,1.03.31,1.42-.12,1.22-1.22-12.24-26.9-28.8-53.66-35.01-82.74-.97-4.52-4.25-19.05-3.79-22.54.93-7.04,9.21-22.82,11.97-30.75,7.4-21.29,13.42-43.21,21.01-64.4,9.71-27.11,25.23-73.41,53.11-85.99,6.59-2.97,13.84-2.47,19.78-5.82-7.7-12.15-14.09-25.16-19.52-38.44-17.42,6.95-32.99,21.45-51.97,24.27-4.23.63-8.53-.56-12.74.69-6.63,1.96-14.49,13.55-23.49,16.78-9.52,3.41-38.37,5.48-47.19,1.55-5.54-2.47-11.82-16.61-9.24-22.61l94.62-64c-13.01-2.86-25.52-17.52-22.64-31.18,1.75-8.29,27.11-49.77,33.34-58.17,30.64-41.28,61.69-36.76,106.48-47.26,29.84-7,69.7-27.3,97.5-9.73,60.1,37.99,111.4,90.5,173.74,125.21,7.68,4.28,16.66,6.84,23.9,11.49,31.12,19.98,60.75,59.94,91.67,80.37,6.15,4.06,17.49,6.27,24.99,10.39,88.85,48.85,91.25,138.27,140.87,212.99,4.86,7.32,11.11,14.9,17.12,21.32v8.54c-11.44-14.82-21.94-28.71-31.14-45.12-40.68-72.59-46.34-143.12-124.66-191.37-15.67-9.65-32.09-12.24-48.93-18.18-58.75-20.73-119.64-46.24-177.15-70.55-19.95-8.43-38.79-19.08-58.31-28.43-12.03,1.23-21.38,15.95-24.71,26.64-2.44,12.63-2.01,24.43,2.1,36.63.63,1.87,10.07,20.13,10.93,20.95,1.52,1.46,7.97,1.19,10.16.99,1.15-.37,3.04-1.18,4.09-.94,4.11.96,19.62,28.43,22.76,33.88l5.66,6.16c3.7,11.52,9.16,13.61,20.36,16.83,24.17,3.65,46.75,10.78,67.74,21.39l.19,1.99c2.14,1.31,3.81,3.05,5.5,4.87l151.88,260.22c16.76,13.77,37.9,19.96,58.59,25.32.99,1.45,1.26,3.53-.37,4.6-6.72,4.41-38.95-10.48-46.55-14.72,2.9,3.35,3.89,6.32,2.99,8.9v1.22l1.22,1.22c47.68,85.43,99.07,168.89,147.64,253.8v8.54l-319.15-547.8c-.81-1.33-2.01-2.04-3.33-2.77-5.86-3.26-27.28-11.57-34.04-13.55-15.96-4.67-30.45-5.34-47.36-11.82-3.47,2.77-6.65,6.39-9.54,10.86-18.87,16.53-41.75,32.18-63.84,46.21-44.64,28.36-93.4,56.59-143.08,68.06-18.3,35.16-22.32,83.23,1.27,118.97,109.51,187.54,219.15,376.47,328.92,566.81l13.17,26.15c-1.3-.1-2.75.32-4.03-.19-73.54-124.03-146.25-249.16-218.06-374.41-11.64,8.69-21.94-3.46-30.17-4.68-3.11-.46-8.16,3.57-13.13,3.56-4.12-.01-8.56-2.03-12.24-3.72-18.2-16.88-32.94-38.85-48.16-58.61-1.72-1.43-2.12-1.43-1.22,0,.81,4.08.58,9.65,1.53,13.72,3.82,16.31,11.07,33.95,17.78,49.33,29.38,67.32,71.94,128.56,103.75,195.2,23.52,49.25,44.75,99.53,66.68,149.29,4.32,9.8,11.57,18.97,14.04,29.88l-4.9.63c-2.46-11.14-9.09-20.58-13.65-30.89-22.44-50.79-44.32-102.24-68.46-152.4-33.96-70.57-85.84-141.15-111.62-214.18-6.1-17.28-6.21-34.9-10.86-50.15-4.05-13.29-19.27-43.29-26.21-56.77-18.95-36.84-56.82-73.79-87.66-101.47-19.74-17.71-42.6-32.06-61.64-50.62,1.76,22.31,1.96,38.88-12.84,56.7-1.46,1.75-10.55,11.12-11.7,11.35-5.62,1.1-32.44-15.44-39.53-18.62-79.29-35.47-212.27-40.16-288.34,5.69-2.54,1.53-12.96,10.42-13.81,10.58-4.18.8-14.19-7.84-17.89-9.81-23.27-12.4-52.44-22.93-78.94-22.95-2.41-.45-2.47-4.69,0-4.88,7.77-1.71,15.95-1.7,24.54.03-1.38-.97-1.13-2.17-.14-3.69l-3.82-1.35c-5.08-9.47-11.71-17.32-19.88-23.55l-.7-3.16c-1.99-.33-2-3.4-1.22-4.88.69-.32,1.38-.6,2.1-.74,6.7-1.24,28.68,25.61,32.36,32.32l-.29,3.8c2.54,1.27,3.45,2.8,4.53,5.19,19.98,5.8,40.19,14.56,57.51,26.55,16.41-12.18,34.8-20.99,55.17-26.43-1.8-.86-2.76-1.85-2.51-4.1-11.43.76-21.88-11.17-26.72-20.77-2.64-5.24-7.07-14.62-3.79-19.5-.47-6.34-1.51-12.44-3.12-18.28,1.85-3.4,2.89-7.47,3.12-12.22l-2.1-3.25c1.55-14.28,7.28-28.11,16.47-39.06-7.68-27.23-17.94-52.57-34.12-75.63-11.62-20.54-18.72-45.33-23.94-68.64-11.47-51.24-21-103.53-29.58-154.68-4.83-25.12-12.77-55.14-42.53-58.7l-2.55-2.69c-1.03-.3-.91-2.75,0-3.66Z"/>
      <path class="cls-51" d="M69.57,539.33c.73,2.72.9,5.37.51,7.97-20.6,3.11-40.92,10.86-56.64,24.98.62,2.98,3.47,2.15,8.55-2.51,24.05-14.26,43.79-21.01,71.96-15.9,4.06.74,23.27,5.09,24.03,6.69l1.61,16.6c4.13,19.63,11.19,32.05,30.5,40.27l-.21,2.66c-19.91,6.22-39.04,14.3-58,22.81-17.05-8.54-34.48-16.16-52.28-22.85l-4.2-3.84c-9.25-12.99-19.71-28.14-34.17-35.39-.35,1.07-.75,1.05-1.22,0,0-.41,0-.81,0-1.22.67-81.3,1.08-163.05,1.22-245.26.35-1.07.75-1.05,1.22,0,.74.45,1.45.94,2.01,1.56,1.57,1.74,13.49,38.34,15.25,44.23,5.77,19.35,7.9,36.44,7.5,56.17,19.4,29.9,38.87,61.22,44.06,98.25l-1.7,4.77Z"/>
      <path class="cls-33" d="M1.24,334.34c4.48,78.87-3.43,161.82.09,241.14.75,1.44-1.31,3.88-1.31,4.13v-247.7c1.17-1.44,2.17,1.12,1.22,2.44Z"/>
      <path class="cls-33" d="M.02,755.31v-133c.35-1.07.75-1.05,1.22,0L.02,755.31Z"/>
      <path class="cls-33" d="M1.24,253.8c-.35,1.07-.75,1.05-1.22,0v-109.82c.35-1.07.75-1.05,1.22,0,3.84,36.36,4.07,73.48,0,109.82Z"/>
      <path class="cls-54" d="M1.24,614.99c3.24.39,3.1,1.51,0,2.44-.35,1.07-.75,1.05-1.22,0v-31.73c.35-1.07.75-1.05,1.22,0,2.4,9.73,2.4,19.55,0,29.29Z"/>
      <path class="cls-12" d="M2.46,283.09l.39,23.31-1.61,1.1c-.35,1.07-.75,1.05-1.22,0v-25.62c.6-8.16,8.1-3.11,2.44,1.22Z"/>
      <path class="cls-30" d="M1.24,257.46c1.56,6.34,3.67,17.11-1.22,21.96v-25.62h1.22c2.36,1.12,2.36,2.55,0,3.66Z"/>
      <path class="cls-72" d="M1.24,323.36c-.35,1.07-.75,1.05-1.22,0v-15.86h1.22c2.71,3.85,2.77,11.96,0,15.86Z"/>
      <path class="cls-43" d="M2.46,617.43c-1.24,1.62-1.23,3.28,0,4.88-.41,0-.81,0-1.22,0H.02v-4.88h1.22c.13-1.1.55-1.04,1.22,0Z"/>
      <path class="cls-60" d="M2.46,585.7c-.38,1.04-.79,1.03-1.22,0H.02v-4.88h1.22l1.22,4.88Z"/>
      <path class="cls-62" d="M2.46,334.34h-1.22c-.06-1.03-.05-2.12-1.22-2.44v-2.44c.35-1.07.75-1.05,1.22,0,3.29-.3,4.06,3.3,1.22,4.88Z"/>
      <path class="cls-26" d="M1.24,329.46H.02v-6.1h1.22c3.23.65,2.69,4.73,0,6.1Z"/>
      <path class="cls-66" d="M1.24,761.41H.02v-4.88h1.22c2.64,2.88,2.64,4.51,0,4.88Z"/>
      <rect class="cls-24" x=".02" y="140.32" width="1.22" height="3.66"/>
      <path class="cls-77" d="M1.24,257.46c2.14-1.97,3.64-1.3,4.48,1.39,4.08,22.26,8.17,45.46,5.38,67.67,15.3,33.09,27.33,70.85,25.64,107.53,10.12,12.95,18.48,29.5,25.67,44.68,9.26,19.53,19.4,41.36,19.48,62.98,7.48.09,31.02,1.25,35.16,6.37.54.66.95,1.43,1.32,2.23.74,1.62-.01,9.37-1.56,9.49-13.18-4.26-26.41-7-39.94-8.04l-2.55-1.56c-4.62-42.85-23.94-79.66-47.04-113.63.08-19.43-1.26-36.39-7.02-55.15C6.16,349.26.18,318.11,2.46,283.09c-.14-1.19.11-2.46-.01-3.65h-1.19s-1.24,2.43-1.24,2.43c0-.81,0-1.63,0-2.44.04-6.67,1.16-14.72,1.22-21.96Z"/>
      <path class="cls-70" d="M566.19,669.89c.85,1.86,4.35,3.46,3.65,6.1-2.37-.68-3.44-3.36-4.87-4.88l1.22-1.22Z"/>
      <path class="cls-29" d="M424.65,1245.83l-3.45-.18c-8.25-25.04-11.02-50.91-18.19-76.41-10.01-35.62-25.39-68.8-36.97-103.35-5.96-17.78-9.57-36.72-16.13-54.65-14.47-39.56-44.72-84.73-85.13-100.34-51.08-19.73-115.75-24.18-159.18-59.23-35.77-28.87-68.31-61.74-104.36-90.26v-4.88c37.67,28.33,71.07,63.07,108.02,92.7,37.09,29.74,98.22,38.55,143.6,52.85,54.77,17.25,86.81,64.91,104.73,117.35,5.2,15.22,8.06,31.49,13.03,46.76,10.57,32.48,25.61,64.19,35.36,97.64,7.87,26.99,11.84,54.78,18.66,82.01Z"/>
      <path class="cls-17" d="M846.83,408.77c-.04,2.3-1.28,3.7-2.47,5.45-10.61,15.68-39.38,35.87-55.72,46.78-42.32,28.26-88.58,50.18-134.63,71.58-15.54,30.34-15.56,67.52-8.77,100.35,116.14,201.81,236.47,401.32,351.88,603.53,1.31,2.29,4.85,6.79,3.45,9.36-8.68-.06-18.34.63-26.84,0-106.77-185.86-216.65-369.98-323.14-556.02-26.94-47.07-46.65-66.57-33.99-125.08,1.34-6.2,8.08-29.58,12.36-32.79,2.65-1.99,16.41-4.09,21.16-5.69,51.17-17.25,109.51-52.12,152.89-83.83,14.6-10.67,32.91-18.31,40.18-36.1.71-.55,2.87,2.15,3.64,2.44Z"/>
      <path class="cls-37" d="M886.85,718.9c2.4,4.11-6.61,6.26-9.84,5.72-1.48-.25-4.13-2.58-4.53-2.26-.28.22-1.4,4.75-2.67,6.51-7.72,10.73-15.7,8.58-23.6-.39-2.92-3.31-7.33-12.56-9.47-14.31-1.93-1.58-10.82-1.82-9.43-4.6.95-1.9,13.12-9.44,15.71-7.79,1.11.71,9.17,19.06,13.47,22.51,6.3,5.05,13.35-2.49,11.78-8.06-.24-.86-8.49-14.57-9.18-15.28-3.49-3.56-10.36.52-8.63-4.82.28-.87,13.57-8.23,16.51-5.5,3.34,3.1,9.13,17.51,13.51,23.08,1.86,2.36,6.15,4.83,6.36,5.19Z"/>
      <path class="cls-80" d="M787.1,766.23c-2.19-1.79-4.71-41.3-8.46-46.82-1.14-1.67-5.49-.33-7.46-.72,1.41-2.48,12.06-7.05,14.27-7.08s29.52,24.94,35.37,28.83c2.33,1.55,5.84,4.67,7.77,5.65,2.3,1.17,5.48-.04,7.23,2.5-.05,1.59-10.48,5.7-12.73,5.48-6.11-.6-11.82-12.43-18.99-10.44-.87.24-12.48,6.15-12.9,6.75-2.07,2.9,5.09,14-.05,15.76-.83.29-3.66.41-4.06.09Z"/>
      <path class="cls-80" d="M956.66,667.45c.24,8.32-6.17,15.86-15.01,13.17-6.99-2.12-12.82-22.19-18.67-22.56-1.17-.07-8.01,2.42-6.58-.97,3.3-1.75,10.82-11.27,13.94-10.36,1.49.44,10.19,23.66,17.42,25.42,6.31,1.53,5.98-5.39,4.96-9.93-.39-1.74-7.62-17.24-8.41-17.82-1.95-1.44-6.53,2.92-8.37-.74,2.15-2.85,5.43-4.33,8.01-6.66,1.74-1.57,1.01-4.92,4.58-3.55,2.87,1.1,10.62,17.96,13.24,22.18,1.09,1.75,6.71,8.11,6.76,8.75.36,4.18-8.89,7.52-11.86,3.08Z"/>
      <path class="cls-27" d="M992.37,643.39c-3.05,1.89-3.14,9.28-11.67,6.74-14.98-4.46,14.37-33.54-6.97-33.92-1.91,3.53,5.01,14.61.58,15.86-7.29,2.06-10.29-16.75-.27-21.03,14.38-6.15,17.37,20.84,26.43,26.7-.5,5.1-6.01,4.36-8.11,5.66Z"/>
      <path class="cls-23" d="M902.91,666.28c3.45,10.6,14.8,23.87,15.86,34.88.93,9.62-10.28,22.7-10.9,15.73-.13-1.49,3.45-6.71,2.13-13.16-.51-2.51-12.02-23.52-13.78-25.26-2.31-2.29-7.5-1.07-7.9-3.1-.48-2.43,13.05-10.16,14.58-9.09Z"/>
      <path class="cls-55" d="M985.93,710.16c.48,1,4.21,9.78,0,6.73-1.57-1.14-9.78-17.09-9.61-18.15.52-3.22,7.89-7.2,11.53-4.54,5.22,3.81,1.28,10.69,1.75,11.07.77.62,8.05-1.56,7.31,3.66-2.73-.12-7.32-.26-9.76-1.21-.91.39-1.32,1.2-1.22,2.44Z"/>
      <path class="cls-32" d="M843.16,785.81c-2.76-3.47-10.12-3.32-8.52,1.82.94,3,17.83.54,15.35,9.2-2.36,8.26-17.82,4.41-14.13,1.19,2.33.74,11.9,1.59,10.97-3.04-.7-3.49-13.01.4-15.35-6.67-2.96-8.92,11.88-12.94,11.69-2.5Z"/>
      <path class="cls-59" d="M941.99,790.7c5.08,14.07,15.45,23.29-7.3,13.42-.39.41,5.21,14.82.01,9.75-.61-.59-7.33-14.41-7.31-15.26.05-2.01,1.87-1.3,3.21-.82,2.2.78,12.91,7.25,13.83,6.32-.49-4.02-3.75-6.47-4.64-10.61-.55-2.58-.76-3.21,2.19-2.8Z"/>
      <path class="cls-57" d="M963.96,782.15c-6.35-1.3-11.4,1.8-9.25,8.58,2,6.31,12.58,4.69,11.69-2.47l-7.31.61c3.07-2.4,8.7-6.96,9.76-1.21,3.01,16.26-23.97,12.49-16.46-4.27,1.48-3.29,11.55-8.08,11.56-1.24Z"/>
      <path class="cls-61" d="M910.27,810.26c.28.34-.13,2.62,0,3.62-.46.55-10.23-5.06-9.84,5.45.34,9.16,11.52,8.89,12.99,3.13.61-2.38-2.58-6.54,1.11-6.13,4.51,4.4,1.05,11.18-4.19,12.86-12.27,3.95-18.71-14.95-8.03-19.1,1.72-.67,7.29-.63,7.95.17Z"/>
      <path class="cls-59" d="M981.05,722.36c-.52.49-9.1-5.38-12.81,1.17-.87,1.53,2.98,7.78-1.2,7.36l-4.28-21.94c1.35-1.31,13.81,7.64,15.79,9.22,1.43,1.14,2.94,2.01,2.51,4.19Z"/>
      <path class="cls-78" d="M955.42,722.36c-14.97-7.01-15.43,17.78-.83,13.2,2.65-.83,4.05-5.81,5.11-5.85,4.72-.16-1.66,11.08-10.67,9.5-10.25-1.8-11.4-18.19-2.49-20.24,3.1-.71,9.13-1.33,8.88,3.39Z"/>
      <path class="cls-31" d="M880.99,782.15c-2.96.4-1.94,0-2.57-1.69-2.23-5.96-.61-12.84-1.08-19.04,1.55-1.61,18.19,10.15,18.27,11.59.21,3.69-5.55-1.3-6.67-1.35-5.93-.27-9.51,4.78-7.96,10.5Z"/>
      <path class="cls-4" d="M922.47,761.41c-2.65-2.21-10.1-15.42-10.41-18.16-.81-7.38,12.78-8.42,14.09-.7s-5.48,7.48-6.03,9.83c-.36,1.52,3.66,6.16,2.35,9.03Z"/>
      <path class="cls-63" d="M1014,796.8c-.4-6.67,3.69-3.08,7-5.21,1.67-1.08,1.5-6.21,6.41-3.98,5.58,2.54,6.16,13.96,2.48,10.4-.54-.52-2.3-10.71-6.12-7.31-.86.77,3.33,7.59,2.43,9.75l-6.09-5.5c-6.69,1.07,2.14,8.28-1.23,11.61l-1.22-1.22c-.14-.32.12-.83,0-1.22l-1.22-1.22c-.13-.36.13-.86,0-1.22-1.21-1.32-2.02-2.95-2.44-4.88Z"/>
      <path class="cls-10" d="M866.35,773.61c-11.93-4.65-14.81,11.26-3.7,12.94,4.04.61,8.87-6.33,9.8-1.36-8.9,11.8-26.81-2.07-17.64-12.75,2.53-2.95,11.49-4.64,11.54,1.17Z"/>
      <path class="cls-61" d="M999.35,680.88c2.53,2.77-6.51,5.31-2.42,9.76l6.09-1.22c.23,4.32-5.89,2.41-3.06,7.32,3.32,5.76,8.53-1.68,10.39,0,1.62,1.46-2.14,3.3-2.8,3.9-6.41,5.89-6.02,4-9.59-1.88-1.18-1.94-5.96-11-5.92-12.46.06-2.37,6.59-6.23,7.33-5.43Z"/>
      <path class="cls-57" d="M884.64,843.16c-4.58-4.81-3.36-14.51-3.64-20.74,2.58-2.63,13.44,11.1,15.83,12.81-2.62,3.86-3.42-1.7-6.65-1.8-6.27-.19-5,5.55-5.54,9.73Z"/>
      <path class="cls-56" d="M983.5,768.73c1.14,1.13,12.72-3.43,12.17,6.62-.32,5.83-4.94,6.16-9.74,5.58v-3.66c3.92,1.75,8.46-.45,6-4.77-1.14-2-9.65,2.67-10.86-4.43-1.68-9.82,8.55-6.88,8.51-4.82-.02,1.05-9.77,1.83-6.07,5.48Z"/>
      <path class="cls-63" d="M1026.2,755.3c-4.2.16-5.86-4.3-9.82-.58-1.3,1.22,1.38,13.24-2.37,9.14-1.08-1.19-4.04-17.74-3.67-20.74,1.07-1.23,15.36,9.41,15.86,12.18Z"/>
      <path class="cls-11" d="M1001.8,805.34c-.44-3.11,4.84-6.67,7.68-5.93,2.42.62,8.31,7.97,6.79,10.62-.24.42-7.09,4.81-8.45,4.53-4.07-.85-4.14-4.98-2.35-7.99-1.02-.35-2.24-.76-3.66-1.22Z"/>
      <path class="cls-79" d="M1001.96,762.81c-1.02,1.7,4.6,10.4.46,8.35-2.35-1.17-8.44-13.43-7.77-16.22,1.53-6.36,16.04-3.72,11.44,5.28-.91,1.77-3.83,2.09-4.13,2.59Z"/>
      <path class="cls-57" d="M1002.69,819.65c-4.35,5.28-13.66,1.77-11.63-7.33,2.93-13.14,17.63.05,11.63,7.33Z"/>
      <path class="cls-3" d="M896.84,752.87c.6.61,4.73,13.65,6.14,15.86,3.67-1.5,6.7-4.8,10.59-5.87,1.8-.49,3.29-.94,2.8,1.58-3.25,1.84-11.65,9.13-15,6.84-1.63-1.12-6.87-14.2-6.99-16.57s1.42-2.91,2.46-1.85Z"/>
      <path class="cls-32" d="M946.89,845.6c-3.85,2.06-5.48,3.69-4.88,4.88.33.14,1.88.09,2.44,0,2.17-1.88,4.2-2.69,6.1-2.44.93,6.32-12.87,9.25-14.45-.88-1.31-8.43,12.55-8.95,10.79-1.56Z"/>
      <path class="cls-4" d="M952.99,837.06c-.49-.27-2.22.29-2.44,0-2.47-3.44,4.11-6.2,7.72-3.76.54.37,4.41,8.58,4.33,9.08-.77,4.72-11.43,7.61-10.83-2.13.06-.97,1.14-1.63,1.21-1.97,1.68-3.02,1.68-3.43,0-1.22Z"/>
      <path class="cls-53" d="M922.48,848.05c1.62,5.98-3.75,2.27-5.57,4.78-4.27,5.88,5.35,11.69,10.45,6.19.36,2.89,0,4.33-3.06,4.9-14.22,2.63-16.54-16.81-1.82-15.88Z"/>
      <path class="cls-52" d="M984.71,811.45l-4.85,5.48c1.64,3.64,6.81.02,7.29.61,2.34,2.92-3.39,4.61-3.63,5.55-.16.63,5.47,15.37-1.48,5.05-4.62-6.85-9.81-16.22,2.67-16.7Z"/>
      <path class="cls-40" d="M890.14,653.24c6.66-.06,6.32,14.58-3.04,9.94-5.04-2.49-1.53-9.9,3.04-9.94Z"/>
      <path class="cls-49" d="M970.06,826.09c.63,2.22-1.78,2.92-2.24,4.57s2.77,10.59-.79,8.84c-6.27-7.01-7.92-11.57,3.03-13.41Z"/>
      <path class="cls-82" d="M921.25,802.9c.54,5.38,4.75,9.01,6.1,14.06.26.99,1.98,4.45-.6,4.22-.94-.08-9.17-15.52-9.12-16.46.04-.8,2.42-2.3,3.62-1.82Z"/>
      <path class="cls-2" d="M935.9,859.02c-2.37,2.61-10.9-15.8-9.75-17.07,2.37-2.61,10.9,15.8,9.75,17.07Z"/>
      <path class="cls-7" d="M985.93,710.16c-.9-1.87-7.2-10.7-6.1-12.19,4.15-1.78,8.71-1.8,7.07,3.95-.69,2.42-4.69,3.86.25,5.79l-1.22,2.44Z"/>
      <path class="cls-1" d="M1001.8,805.34c4.27,1.16,3.06-3.63,7.32-2.43,0,1.83-3.21,2.89-3.66,3.65-1.68-.03-3.4.64-3.66-1.22Z"/>
      <path class="cls-46" d="M952.99,837.06c-.35-5.4,5.69-1.62,0,1.22.07-.32.05-1.19,0-1.22Z"/>
      <path class="cls-11" d="M1016.44,801.68c-2.56-.77-2.31-2.65-2.44-4.88,1.37,1.32,1.84,3.17,2.44,4.88Z"/>
      <path class="cls-6" d="M942.01,850.49c-4.43-1.81,2.66-3.52,4.88-4.88-.51,2.14-4.11,2.65-4.88,4.88Z"/>
      <path class="cls-6" d="M950.55,848.04c-2.27.34-3.8,2.09-6.1,2.44,1.31-1.25,5.63-5.64,6.1-2.44Z"/>
      <path class="cls-11" d="M1017.66,804.12c-.46-.29-1.04-.71-1.22-1.22.51.23,1.06.69,1.22,1.22Z"/>
      <path class="cls-11" d="M1018.88,806.56c-1.3.16-.99-.69-1.22-1.22l1.22,1.22Z"/>
      <path class="cls-74" d="M647.94,807.78h-1.22c-.03-.16-1.89-.29-1.21-2.44,1.45-.02,1.78,1.6,2.43,2.44Z"/>
      <path class="cls-9" d="M929.8,430.73c-5.77-3.52-22.88-9.93-29.87-12.23-14.67-4.84-43.32-6.87-54.68-15.77-1.97-1.54-7.39-14.86-9.41-18.37,10.96,7.06,21.33,14.42,33.34,19.74,16.59,7.34,43.8,12.22,57.79,20.29,2.61,1.51,5.32,2.95,2.82,6.34Z"/>
      <path class="cls-39" d="M1101.85,719.92c-1.64-1.14-5.61-8.56-6.82-10.87-.54-1.04-3.13-2.57-1.12-3.76,13.29,7.89,33.62,17.29,48.91,19.44,3.98.56,2.98-.4,2.96-3.58,2.41,1.09,1.59,5.16-.8,5.92-7.36,2.34-36.55-2.54-43.13-7.14Z"/>
      <path class="cls-65" d="M809.01,351.42c-1.49.48-2.69,2.17-5.64,2.39-9.73.72-7.36-7.23-9.92-13.05-1.26-2.87-4.81-5.11-6.64-9.22-5.63-12.65-4.94-25.93-.97-38.68-1.01,20,1,42.72,17.65,56.17,1.81,1.46,2.75,2.9,5.54,2.4Z"/>
      <path class="cls-39" d="M1103.07,722.36c-.14-.25-1.12-.55-1.22-1.22l1.22,1.22Z"/>
      <path class="cls-37" d="M269.25,413.22c1.33-1.21,1.85-4.02,4.08-4.45,6.08,32.29,28.75,54.53,56.54,69.76,49.05,26.88,122.17,49.9,131.18,114.08,3.57,25.43-1.46,45.29-22.37,61.06-38.8-22.77-82.17-37.96-127.06-43.41-48.82-5.93-99.07-5.75-146.28,9.08-19.84-6.45-37.14-17.62-41.79-39.42-15.78-74.05,55.38-111.5,107.49-143.29,12.16-7.42,27.5-13.68,38.21-23.4Z"/>
      <path class="cls-51" d="M1055.48,361.18c1.04,1.12.23,1.53-2.44,1.22-46.24-13.8-89.88-34.45-134.26-53.04-35.97-15.07-72.88-27.41-107.01-46.75-11.92-3.03-27.35,18.22-30.84,27.79l-2.54,1.26c-9.65-5.91-38.07-30.47-35.87-42,7.76-10.88,14.66-22.21,20.7-33.99l-.59-3.37c-2.97-3.11-6.88,7.48-8.77,10.14-3.44,4.85-7.39,10.69-11.97,14.26-3.6,4.1-7.54,7.29-12.82,8.7-4.55,1.22-13.05,1.85-15.24-2.6-4.4-7.75-16.82-17.56-25.62-19.52l-2.34-1.1c.54-9.9-1.53-18.48-6.2-25.74-1.14-.18-2.48.09-3.66,0,2.1,10.55,5.88,17.75-.62,28.05-21.86,9.22-41.22,23.95-61.61,35.4-10.64,7.83-21.98,15.2-34.46,19.9-13.1,4.94-25.16,4.42-33.87-7.7-.58-2.72-.92-2.36-.21-5.6,1.83-8.37,27.56-50.93,33.87-58.97,30.91-39.35,62.35-34.41,106.47-44.83,26.99-6.38,64.29-25.19,89.68-9.98,57.61,34.52,107.48,87.58,165.94,120.81,11.42,6.49,25.84,11.57,36.1,18.81,24.47,17.24,54.37,48.25,78.19,68.84Z"/>
      <path class="cls-51" d="M119.6,546.65l-1.22,3.66c-12.32-4.76-25.81-6.57-39.05-6.09.46-7.04.01-12.78-1.82-19.54-8.21-30.26-23.28-57.61-38.64-84.6-1.14-2-3.87-3.42-4.44-5.32-1.54-5.15.27-16.59-.27-22.92-1.57-18.39-10.63-48.21-17.03-65.94-1.79-4.96-8.09-15.69-8.55-19.61s1.4-10.55,1.25-15.81c-.44-15.3-3.02-32.59-6.05-47.62-.42-2.07.36-4.56-2.54-5.39,0-1.22,0-2.44,0-3.66.28-36.58,0-73.24,0-109.82,40.7,2.79,45.11,48.35,50.89,80.28,9.53,52.61,16.78,103.4,31.48,155.22,3.39,11.97,8.13,29.12,13.78,39.9,7.6,14.5,16.91,25.81,24,41.89,6.27,14.23,10.59,28.39,14.84,43.32-10.13,14.51-14.95,24.36-16.63,42.06Z"/>
      <path class="cls-51" d="M616.22,523.47l-1.78,2.11c-7.02-1.67-14.14-3.32-21.41-2.11-9.59,5.42-1.78,4.13,2.92,5.01,5.22.98,8.74,2.06,12.97,5.33,12.27,9.49,4.59,21.23,2.74,33.3-4.59,29.92-5.27,44.74,5.77,73.49,7.69,22.4-7.87,51.87-34.17,42.71-11.88-6.18-12.07-17.02-17.26-27.28-13.66-27.01-32.58-55.4-33.89-87.01-.38-9.11,16.55-48.85,20.66-60.79,11.29-32.74,28.95-104.54,61.35-120.46,3.44-1.69,23.95-7.96,24.02-1.58-5.8,6.52-17.21,5.65-18.02,16.14-.21,2.67,1.31,4.75.75,7.95-2.08,11.81-27.96,22.34-29.06,28.43-1.78,9.77,9.35,20.36,9.32,25.58-.01,2.31-7.41,9.11-8.65,12.88-3.37,10.22,11.49,24.66,16.91,32.98,2.82,4.33,4.54,9.5,6.81,13.32Z"/>
      <path class="cls-51" d="M59.81,195.23c36.93,8.94,54.98,67.37,62.85,100.05,1.57,6.5,1.67,15.5,3.35,21.06,1.57,5.19,12.04,20.06,15.38,27.32,12.02,26.1,18.93,55.62,24.94,83.66l21.42,28.71-1.05,3.35c-16.2,10.02-30.24,20.3-42.69,34.79l-3.5-1.35c-8.28-24.18-18.41-47.94-33.19-69.56-14.3-25.68-21.47-54.82-28.23-83.39-10.34-48.15-19.16-96.14-26.47-143.97,1.77-1.5,4.17-1.72,7.2-.68Z"/>
      <path class="cls-37" d="M630.86,396.57c13.48-9.83,35.14-21.18,50.43-29.49,13.79-7.49,28.15-14.19,42.02-21.55,4.44-.68,8.67,4.47,13.67,5.41,5.73,1.07,15.91-4.14,21.62-6.6,7.89-3.39,18.38-13.29,25.82-5.55,4.02,4.18,13.33,24.99,14.84,26.05,3.23,2.26,4.47-4.91,1.2-7.3,3.41.33,6.53-.31,9.76-1.23.37-.63.78-.62,1.22,0-2.84,4.55-4.19,8.96-7.92,13.44-5.94,7.16-19.2,17.2-26.91,23.12-44.85,34.42-113.61,77.2-170.17,84.25l-1.14-2.72c1.64-3.17,2.51-6.56,2.6-10.17-10.18-19.17-7.62-27.6,10.73-39.6,7.92-7.9,8.42-12.47,9.11-23.68.59-1.76,1.4-3.44,3.11-4.36Z"/>
      <path class="cls-37" d="M681.83,227.25c16.44-1.96,39.68,23.67,29,38.8-11.99,16.99-51.21,40.89-69.83,52.19-17.02,10.33-57.41,35.56-74.8,39.9-6.49,1.62-14.81.83-19.6,2.36-6.16,1.97-14.12,13.02-22.78,16.27-6.72,2.52-24.04,4.16-31.44,4.03-5.05-.09-12.66-2.12-15.8-6.27-11.13-14.71,1.85-16.17,11.42-22.6,45.59-30.64,90.2-63.09,135.61-93.78,10-6.76,48.3-29.72,58.22-30.9Z"/>
      <path class="cls-37" d="M633.3,525.91c-4.93,1.45-7.93-1.53-9-8.93-7.33-10.23-14.13-20.77-20.42-31.61l1.35-3.39c57.81-7.15,129.31-51.43,175.05-86.69,7.4-5.71,18.24-14.04,24.5-20.65,4.76-5.03,7.13-10.89,11.54-15.9,3.05,11.38,22.15,33.13,23.19,43.43,1.27,12.59-27.47,28.62-36.52,35.35-37.82,28.11-124.31,81.5-169.69,88.39Z"/>
      <path class="cls-51" d="M696.75,861.47c-8.32-5.51-38.98-46.5-46.14-56.97-13.26-19.39-19.27-36.89-24.3-59.89-1.98-9.07-10.53-59.96-8.24-64.93,1.04-2.25,4.97-4.53,6.91-8.94,3.42-7.77.84-14.59,7.29-4.09,32.72,53.26,62.41,109.14,93.76,163.1,8.76,15.8-10.95,40.77-29.28,31.73Z"/>
      <path class="cls-37" d="M741.1,272.9c11.65,11.29,24.14,21.97,36.8,32.14.69,9.34.93,17.95,4.25,26.85-14.72-2.58-33.2,18.33-47.39,13.84-4.48-1.42-5.93-6.04-11.48-5.09-3.07.53-18.41,10.28-19.21,9.56l-25.5-50.41c10.32-10.27,32.87-22.67,38.32-36.24.57-1.41.41-4.58.64-4.81.51-.52,9.2-.2,10.91.58,3.25,1.47,9.71,10.74,12.65,13.58Z"/>
      <path class="cls-51" d="M154.99,357.52c30.14,14.34,45.78,26.42,72.38,45.37,3.48,2.48,21.97,15.35,22.77,17.51.69,1.85-3.85,3.58-5.26,4.43-15.02,8.99-34.13,20.78-49.62,27.87-.78,1.09-1.75,1.51-2.8.6-6.12-9.76-12.89-19.1-20.32-28.03-4.99-22.02-10.49-43.94-18.36-65.31-2.01-1.32-1.36-4.1,1.22-2.44Z"/>
      <path class="cls-37" d="M622.32,334.34c11.27-7.92,37.5-25.36,49.16-30.77,1.08-.5,2.01-1.2,3.29-.96l25.58,49.25c-16.41,9.66-33.21,18.6-49.96,27.62-3.86,2.13-7.15-.1-9.86-6.67l-18.21-34.04v-4.44Z"/>
      <path class="cls-42" d="M2.46,283.09c1.51,13.18,2.21,23.03,2.45,36.01.45,24.11,16.28,50.75,21.36,75.02,2.86,13.67.76,30.76,3.29,41.86,1.02,4.46,12.67,19.01,15.82,24.45,16.45,28.37,26.81,55.89,30.88,88.7,1.11,1.46,15.58,2.05,19.22,2.75,7.1,1.35,13.99,3.97,20.97,5.79,1.7-.18,1.76-5.92,1.93-7.34.16-1.29-.45-3.09,1.22-3.66-1,10.58-.85,19.92,0,30.51-1.1-5.23-2.29-10.4-2.54-15.77-16.25-3.23-32.27-9.04-49.17-7.27-12.28,1.29-30.96,9.39-41.85,15.5-2.61,1.47-11.3,8.57-12.03,8.74-4.78,1.08-1.93-4.08-.58-6.09,15.46-13.83,35.54-21.74,55.91-24.58.74-2.69.81-5.47.22-8.37-4.75-31.13-12.68-50.23-28.3-77.25-3.33-5.76-15.06-20.47-16.36-25.24-.7-2.58.98-11.08.77-15.32-1.63-34.25-16.74-56.72-23.23-87.19-.32-1.52-1.09-3.86-1.22-4.88-.24-1.9.11-4.11,0-6.1-.29-5.22.01-10.62,0-15.86-.02-7.8-1.01-17.06,1.22-24.4Z"/>
      <path class="cls-77" d="M59.81,195.23c-1.91.44-5.06-1.55-4.9,1.82.14,2.94.98,7.61,1.41,10.82,7.53,55.71,20.16,130.8,38.83,183.25,9.51,26.72,26.16,49.36,37.69,74.56,4.23,9.24,6.03,19.67,11.16,28.5-1.79,2.09-2.68,6.43-6.09,6.1-2.35-17.44-9.91-36.55-17.85-52.31-5.54-11-14.49-21.43-19.69-31.56-5.81-11.31-11.11-32.41-14.59-45.2-13.06-47.99-20.28-94.51-28.8-143.25-1.95-11.15-4.51-22.27-6.95-33.31,3.31-2.1,7-.08,9.78.59Z"/>
      <path class="cls-77" d="M150.11,617.43c2.83,1.21,5.04,3.01,8.54,2.45.37.28-.62,1.46-1.21,1.83-8.02,5.13-27.03,9.25-37.08,14.17-8.16,3.99-15.12,10.04-23.12,14.27-14.2-9.32-29.08-15.88-44.77-22.33-2.97-1.22-13.04-3.58-14.31-4.6-1.49-1.2-1.9-5.81-2.76-7.01,19.95,5.76,38.13,15.61,56.83,24.39,7.59-1.64,13.84-7.7,21.3-10.32l36.57-12.85Z"/>
      <path class="cls-81" d="M780.94,290.41c-.8,2.19-.92,6.09-1.23,8.55-1.36.14-2.42.04-3.66-.61-2.98-1.57-13.23-11.04-16.5-14-3.59-3.25-27.98-26.99-28.51-28.95-.96-3.62,9.74-9.81,12.55-12.7,4.16-4.27,12.8-15.61,15.88-20.73,1.83-3.04,3.68-5.84,3.16-9.65,1.42,1.49,1.59,2.1,1.22,4.14-1.46,8-19.17,31.65-18.98,33.78,1.2,13.25,25.18,33.29,36.06,40.17Z"/>
      <path class="cls-37" d="M584.49,689.42c10.62,2.57,19.65,1.19,29.28-3.65.76,18.54,4.64,36.61,7.33,54.9.5,2.2.09,3.01-1.22,2.44-10.22-23.05-21.75-34.48-36.61-53.69.36-.74.77-.72,1.22,0Z"/>
      <path class="cls-9" d="M545.45,272.11c7.22,3.75,13.55,9.08,22.39,8.46,9.61-.68,36.45-15.33,45.94-20.66-5.16,5.42-11.87,9.98-17.92,14.42-16.81,12.36-34.31,29.2-48.79,2.84-1.26-2.29-1.13-2.78-1.62-5.06Z"/>
      <path class="cls-67" d="M630.86,396.57c-1.85,7.89-.85,15.13-4.84,22.61-5.28,9.91-23.68,15.72-21.95,27.93,1.48,10.4,10.73,17.99,2.39,29.99-2.84.35-6.22,2.24-9.76,1.21-.73-.54,9.73-11.96,9.57-13.79-.42-4.83-11.98-19.07-10.63-24.4.93-3.65,26.61-16.1,28.84-27.35,1.17-5.93-1.91-10.52,3.32-15.03,1.01-.87,2.56-.81,3.06-1.17Z"/>
      <path class="cls-73" d="M26.87,613.76c-.26.94-.65,2.37-1.36,2.44-7.22.69-17.8.04-24.27-1.22v-29.29c.39.1.92-.15,1.22,0,11,5.45,17.92,18.5,24.4,28.06Z"/>
      <path class="cls-16" d="M622.32,334.34c8.82,12.84,14.43,29.26,23.37,41.91,1.29,1.83,2.16,3.21,4.7,3.23-4.3,2.32-6.29,8.15-10.79,1.63-8.45-12.25-14.32-28.82-21.67-41.89-1.43-4,2.92-3.85,4.39-4.88Z"/>
      <path class="cls-21" d="M605.23,481.98c4.15,12.61,14.49,21.33,20.97,33.33,2.03,3.76,2.24,11.79,7.1,10.59-2.93.44-6.82,3.19-10.39.02-1.47-1.31-6.67-12.78-8.62-15.79-2.29-3.53-19.93-25.97-17.59-28.15,2.76-.25,5.86.33,8.54,0Z"/>
      <path class="cls-71" d="M583.27,683.32c9.23-1.18,15.77,2.27,23.17-5.5,9.42-9.9,12.49-23.89,10.99-37.21,4.36,11.34,9.29,11.88,4.95,25.08-5.61,17.03-22.9,26.06-39.11,17.63Z"/>
      <path class="cls-35" d="M153.77,359.96c6.09,10.19,9.66,23.59,13.07,35.12,2.6,8.79,3.43,20.07,7.06,28.33,2.93,6.66,10.83,13.89,15.03,20.35,1.82,2.79,2.65,9.02,6.32,8.93-.52.24-1.52,4.01-3.68,1.86-5.09-7.46-10.52-14.69-15.87-21.96-1.4-1.9-4.68-3.9-5.42-5.56-2.24-4.99-3.75-20.3-5.62-27.33-3.1-11.65-9.64-27.15-10.89-38.53-.5-.41-.5-.81,0-1.22Z"/>
      <path class="cls-18" d="M696.75,861.47c3.89-1.61,7.13.35,11.28-.25,10.73-1.55,21.61-21.07,18.01-31.47,8.34,10.22,10.77,13.79,1.84,24.42-8.27,9.84-19.35,15.1-31.13,7.31Z"/>
      <path class="cls-22" d="M744.34,860.25c2.56,6.82.66,8.21-6.1,8.54-4.67-.97-9.38-2.67-13.4-5.49,5.06-4.46,9.07-9.65,12.79-15.25,2.64,3.82,4.59,8.07,6.71,12.2Z"/>
      <path class="cls-5" d="M616.22,523.47c.94,1.58,2.57,4.27,3.63,5.57s3.78,1.55,3.77,2.44c0,.68-3.84,9.09-4.35,9.09-4.58-11.4-14.95-14.95-26.23-17.1,4.39-2.48,6.47-2.72,11.63-2.51l11.55,2.51Z"/>
      <path class="cls-14" d="M713.83,242.82c10.47,2.04,19.51.55,28.06-6.1-3.35,6.28-13.26,14.9-20.48,15.61s-5.33-5.53-7.59-9.51Z"/>
      <path class="cls-35" d="M26.87,613.76c.63.93,6.47,5.93,4.87,7.31-9.77-1.65-19.38-2.87-29.28-3.65-.4-.03-.81.02-1.22,0v-2.44l6.65-1.27,18.97.05Z"/>
      <path class="cls-5" d="M688.21,223.3c-1.66-.37-6.77.46-7.32,0,4.13-9.78,2.59-17.39-1.23-26.84.85.13,1.64.05,2.42.59,2.81,1.98,6.95,21.79,6.12,26.25Z"/>
      <path class="cls-58" d="M744.34,860.25c4.31,8.4,6.77,11.21-6.1,8.54,3.75-2.68,6.45-2.92,6.1-8.54Z"/>
      <path class="cls-68" d="M154.99,357.52c-1.15.38-1.17,1.39-1.22,2.44-.02.39-.04.83,0,1.22-2.02-1.33-2.65-3.78-2.43-6.1.42-.56,3.03,2.14,3.65,2.44Z"/>
      <path class="cls-36" d="M621.1,740.67c.18,1.22,2.36,3.59,1.21,6.1-1.5.4-1.69-1.98-2.43-3.66l1.22-2.44Z"/>
      <path class="cls-47" d="M1057.92,363.62c-.36.72-.77.7-1.22,0-1.02-.37-2.63-.91-3.66-1.22l2.44-1.22c1.12.96,1.47,1.27,2.44,2.44Z"/>
      <path class="cls-8" d="M1057.92,363.62c.04.05.77-.24,1.21.61l-.63.63c-1.33.77-1.49-1.12-1.81-1.24h1.22Z"/>
      <path class="cls-25" d="M810.23,356.3c.29-.08.51-2.15,1.82-1.23l.62.62c-.46.85-1.18.55-1.21.61h-1.22Z"/>
      <path class="cls-45" d="M584.49,689.42h-1.22c-.04-.05-.77.24-1.21-.61l.63-.63c1.24-.85,1.55,1.17,1.81,1.24Z"/>
      <path class="cls-19" d="M13.44,572.28c8.53-12.65,28.5-21.21,42.9-24.82,3.29-.83,10.19-.96,12.43-1.99,1.79-.82.42-4.48.79-6.13.32,2.1,3.75,8.95,1.28,10.41-20.88,2.6-39.72,11.87-57.41,22.53Z"/>
      <polygon class="cls-34" points="789.49 745.54 787.06 724.8 802.88 738.84 789.49 745.54"/>
      <path class="cls-15" d="M989.48,642.93c-6.12,4.25-10.32-10.55-5.36-12.08,4.8-1.48,8.31,10.03,5.36,12.08Z"/>
      <path class="cls-13" d="M971.29,716.28c1.67,2.03-1.91,2.94-3.65,3.65v-4.88c.92.82,3.52,1.09,3.65,1.23Z"/>
      <path class="cls-75" d="M885.88,769.94l-4.87,1.23v-4.87c1.54-.94,5.35,3.05,4.87,3.64Z"/>
      <path class="cls-69" d="M915.17,740.67c9.14-1.1,11.57,2.73,4.26,8.51-2.55-2.19-4.63-4.97-4.26-8.51Z"/>
      <path class="cls-44" d="M887.09,828.53c-.18,6.6-5.54,1.53-3.64-1.23.23-.34,2.36,1.8,3.64,1.23Z"/>
      <path class="cls-20" d="M1016.43,749.21c1.33,1.33-1.1,3.76-2.43,2.43s1.1-3.76,2.43-2.43Z"/>
      <path class="cls-41" d="M1011.55,806.56c.66.64-1.34,6.68-3.65,4.87-1.18-2.44,2.18-6.31,3.65-4.87Z"/>
      <path class="cls-64" d="M999.37,761.41c.03-1.76-1.59-3.6-1.15-5.32,1.3-5.1,11.33.05,1.15,5.32Z"/>
      <path class="cls-38" d="M996.42,810.33c5.2-1.61,5.39,7.51,2.28,8.42-5.23,1.53-6.97-6.97-2.28-8.42Z"/>
      <path class="cls-50" d="M943.23,843.18c.59.46-2.13,3.23-3.66,2.42-.59-.46,2.13-3.23,3.66-2.42Z"/>
      <path class="cls-48" d="M959.08,843.16c-.81,1.03-5.57,1.39-4.87-1.8.83-3.77,6.62-.41,4.87,1.8Z"/>
    </g>
  </g>
</svg>