<?xml version="1.0" encoding="UTF-8"?>
<svg id="_レイヤー_2" data-name="レイヤー 2" xmlns="http://www.w3.org/2000/svg" viewBox="0 0 1278.43 1278.43">
  <defs>
    <style>
      .cls-1 {
        fill: #dfdfdf;
      }

      .cls-2 {
        fill: #e2dedd;
      }

      .cls-3 {
        fill: #c44f48;
      }

      .cls-4 {
        fill: #c34742;
      }

      .cls-5 {
        fill: #9d9895;
      }

      .cls-6 {
        fill: #a9a8a8;
      }

      .cls-7 {
        fill: #c2423f;
      }

      .cls-8 {
        fill: #373837;
      }

      .cls-9 {
        fill: #666361;
      }

      .cls-10 {
        fill: #c2403e;
      }

      .cls-11 {
        fill: #ebc5b9;
      }

      .cls-12 {
        fill: #c34943;
      }

      .cls-13 {
        fill: #c24340;
      }

      .cls-14 {
        fill: #c34843;
      }

      .cls-15 {
        fill: #65605d;
      }

      .cls-16 {
        fill: #c34944;
      }

      .cls-17 {
        fill: #c44a44;
      }

      .cls-18 {
        fill: #fff;
      }

      .cls-19 {
        fill: #c13d3c;
      }

      .cls-20 {
        fill: #a7a3a0;
      }

      .cls-21 {
        fill: #78736f;
      }

      .cls-22 {
        fill: #b3b2b1;
      }

      .cls-23 {
        fill: #040000;
      }

      .cls-24 {
        fill: #c24440;
      }

      .cls-25 {
        fill: #f6f6f5;
      }

      .cls-26 {
        fill: #e9bbb9;
      }

      .cls-27 {
        fill: #c34a44;
      }

      .cls-28 {
        fill: #898481;
      }

      .cls-29 {
        fill: #c34541;
      }

      .cls-30 {
        fill: #f5e6e0;
      }

      .cls-31 {
        fill: #42413f;
      }

      .cls-32 {
        fill: #c34441;
      }

      .cls-33 {
        fill: #dcdcdc;
      }

      .cls-34 {
        fill: #e0e0e0;
      }

      .cls-35 {
        fill: #79736f;
      }

      .cls-36 {
        fill: #ddd3d0;
      }

      .cls-37 {
        fill: #c5534b;
      }

      .cls-38 {
        fill: #3f3f3d;
      }
    </style>
  </defs>
  <g id="_レイヤー_1-2" data-name="レイヤー 1">
    <g>
      <rect class="cls-18" width="1278.43" height="1278.43"/>
      <path class="cls-23" d="M667.02,161.42c81.67-3.05,210.6,34.62,265.31,98.24,10.65,12.38,31.78,46.6,19.37,61.87-2.41,2.97-7.01,2.16-8.55,5.18-1.26,2.48-3.74,17.37-4.02,20.94-2.19,28.03,12.52,47.22,10.94,74.64l-175.46,685.8c-14.03,19.19-41.77,15.71-61.19,24.9-11.89,5.63-16.05,18.05-31.82,18.2-33.89.33-75.72-6.68-109.35-12.98-61.07-11.43-134.63-34.86-191.04-60.96-10.4-4.81-38.75-18.95-44.46-27.9-4.41-6.92-2.42-17.07-5.73-24.23-4.97-10.76-26.08-26.66-33.94-38.44-3.48-5.2-7.67-12.08-7.82-18.5,68.61-222.94,140.55-445.27,211.04-667.77,3.67-6.41,8.65-12.2,13.53-17.67,10.66-11.94,33.87-27.49,40.98-38.88,4.78-7.65.56-14.38,1.59-23.38,5.33-46.53,73.44-57.68,110.61-59.07Z"/>
      <path class="cls-34" d="M820.69,335.84c-8.33,22.27-15.82,45.47-21.08,68.75l-2.62,1.16c-.35,1.09-.77,1.07-1.25,0-3.28,1.07-5.74,2.61-7.39,4.62,3.29,3.17,3.14,7.32-1.87,7.99,2.16-.49,3.83-.73,5.51,1.13-7.38,38.36-19.72,76.39-34.92,112.36.92,1.62.33,2.17-1.25,1.25l-3.44,4.03c-9.63,3.79-19.26,7.57-28.9,11.37l-2.59-1.67c-.81-.37-.8-.78,0-1.25l-2.11-1.75,20.53-76.83-4.88.23c-11.41,5.29-22.77,10.61-34.07,15.95-4.24,10.6-7.53,21.5-10.59,32.72-8.89,32.61-17.92,65.17-27.15,97.67-.56,1.97,36.72-12.54,38.21-13.95l14.34-42.98c2.55-4,17.16-12.69,17.79-4.25l-21.82,77.65c1.16.97,11.58-3.97,13.66-5l2.34,1.7,2.13,1.56c-27.2,89.11-54.41,178.23-81.62,267.37l-2.83.74c-75.38-25.87-159.85-49.7-239.01-59.77-15.07-1.92-30.56-2.69-45.73-2.64-4.41-1.19-10.84-33.82-12.02-39.54,47.57-155.89,98.74-311.01,147-466.82,8.68-9.99,30.62-37.66,42.47-41.14,29.35-8.61,94.74-1.21,126.44,3.32,55.02,7.86,107.12,20.91,156.71,46.02Z"/>
      <path class="cls-34" d="M865.59,235.96c25.39,14.69,58.87,37.76,71.32,65.31,9.47,20.95-2.95,37.32-2.72,57.66.21,19.61,15.42,41.52,12.34,62.3l-173.24,678.67c-1.89.51-2.07-.48-3.13-1.23-7.76-5.44-15.84-13.02-23.89-18.53-26.58-18.23-57.88-31.88-87.72-43.91.72-2.44,2.8-3.27,6.24-2.5,30.57,19.35,65.03-.04,81.28-27.88,22-37.7,18.68-90.73-20.16-115.68,13.64-6.96,38.82-14.74,44.3-29.95l112.6-419.23c-4.7-13.87-9.67-27.74-14.71-41.48,1.92-12.29,4.73-26.84,13.81-35.89-11.35-37.23-17.06-78.43-18.46-118.5-.05-1.5.28-3.02.64-4.57s.91-3.08,1.5-4.59Z"/>
      <path class="cls-34" d="M642.33,900.14l2.04,1.85-30.23,97.24c-.75,5.53-1.04,11.2.11,16.7l-1.85,2.81c-44.35-16.21-92.37-32.62-137.92-44.85-36.3-9.74-146.16-38.09-176.39-17.58-1.62,1.64-2.06.95-1.25-1.25,12.96-50.99,34.1-101.24,47.41-152.31,1.87.19,1.94,1.83,2.42,3.18,2.23,6.27,5.28,29.47,12.15,31.53,4.31,1.3,13.22-.13,18.46.25,84.13,6.19,185.82,33.33,265.05,62.41Z"/>
      <path class="cls-6" d="M331.51,952.94c45.98-3.04,130.21,20.32,175.83,34.26,69.89,21.35,203.97,64.11,257.1,110.95,6.74,5.94,9.3,6.95,1.26,13.49-14.41,11.73-38.47,9.85-55.03,18.58-7.12,3.75-12.14,10.35-19.09,14.31-41.05-27.08-89.83-46.63-136.24-63.05-69.1-24.44-140.26-37.62-214.01-34.22-4.94-1.68-4.12-18.15-6.56-23.39-1.07-2.3-6.6-9.02-8.59-11.38-10.56-12.49-33.42-29.2-33.01-46.93.05-2.03,9.22-7.07,11.74-8.04,7.35-2.85,18.69-4.05,26.62-4.57Z"/>
      <path class="cls-25" d="M820.69,335.84c7.31,3.7,18.67,7.71,23.49,14.57,3.35,4.77,8.68,18.88,11.14,25.06,2.75,6.91,10.15,25.18,10.27,31.54l1.43,7.3c-48.69,157.17-97.69,314.71-147,472.61l-2.85.75c-15.01-1.8-24.07-2.02-37.82,5.21-3.53,1.85-13.64,10.9-15.23,11.06-2.44.24-15.41-6.2-19.28-7.53l82.32-269.67c-1.71-1.74-.94-2.5,1.25-1.25l2.82-3.7c9.81-1.48,15.58-6.48,17.3-15,5.52-24.37,12.04-48.38,18.69-72.43.76-2.75-1.31-2.36-3.48-1.93-3.14,1.55-5.36,1.36-6.65-.58,11.47-37.49,23.67-74.8,34.92-112.36-2.37-2.41-2.07-3.05,1.25-2.5,2.44-3.12,3.69-6.87,3.74-11.24.15-7.25,15.82-57.48,19.58-65.92.97-2.17.8-4.18,4.12-4Z"/>
      <path class="cls-34" d="M824.43,215.98c-5,33.83-2.11,66.94.95,100.48.67,6.76-.9,11.55-4.69,14.38-43.09-20.92-90.94-34.31-138.18-42.08-35.91-5.91-112.5-15.78-145.96-5.75-13.66,4.09-25.5,23.12-36.4,31.6-.78-.37-.76-.79,0-1.25,2.82-9.78,4.96-13.77,11.25-21.82,12.55-16.04,28.13-25.03,41.18-38.68,9.52-9.96,5.71-11.7,8-21.92,6.19-27.64,52.24-41.37,76.31-44.74,62.6-8.77,130.04,6.2,187.53,29.79Z"/>
      <path class="cls-34" d="M717.17,887.66l141.27-453.48c1.38-8.73,7.33-18.33,7.15-27.17,5.41,10.84,10.4,23.27,13.18,35l-111.39,414.14c-1.39,8.49-8.64,12.89-15.39,17.06-5.47,3.38-24.51,13.71-29.86,15.18-3.09.85-3.47-.55-4.97-.73Z"/>
      <path class="cls-6" d="M687.22,1144.86c.02,2.13-4.04,2.42-5.45,2.37-96.42-2.97-201.57-31.09-289.88-69.44-15.72-6.83-33.7-15.23-46.41-26.57,91.74-5.15,179.23,20.01,262.76,54.7,27.15,11.28,53.7,23.98,78.97,38.94Z"/>
      <path class="cls-34" d="M668.52,1029.98c-1.55-2.02-.6-4.27,2.85-6.74,13.99-42.03,27.67-84.12,41.05-126.28l3.49-5.55c33.95,7.53,43.56,52.82,38.1,82.46-6.87,37.38-45.55,82.31-85.5,56.12Z"/>
      <path class="cls-25" d="M865.59,235.96c1.11,34.66,4.61,69.52,12.07,103.4,1.02,4.66,6.94,21.84,6.69,24.51-.27,2.86-4.43,4.93-5.99,7.83-4.19,7.76-4.77,20.12-10.27,27.8-4.19-11.41-16.19-47.56-23.13-54.87-2.65-2.8-19.71-11.58-24.26-13.79,5.33-17.56-.48-36.26-1.3-54.26s-.49-37.43,2.52-55.01c.37-2.18-.55-4.71,2.53-5.59,15.62,6.41,26.51,11.5,41.16,19.98Z"/>
      <path class="cls-6" d="M561.26,217.23c14.69-61.83,134.07-54.15,181.08-45.8,61.02,10.83,192.32,58.3,207.5,126.89,1.43,6.44,3.82,17.77-4.42,20.03-2.57-23.03-21.13-43.89-38.08-58.64-68.61-59.7-218.09-99.68-304.63-69.04-17.53,6.21-29.67,13.67-40.2,29.05-1.45,1.2-1.86.36-1.25-2.5Z"/>
      <path class="cls-25" d="M715.92,891.4c-14.03,44.32-26.39,89.37-42.37,132.99l-5.02,5.59c-56.34-36.94-18.61-153.22,47.4-138.58Z"/>
      <path class="cls-25" d="M642.33,900.14c5.69,2.09,11.28,3.61,16.98,6.14.77.34,2.67-.26,1.72,1.96-.76,1.79-8.04,9.83-10.18,13.54-18.4,31.87-20.57,90.12,13.93,111.95-.83,2.8-3.85,2.71-6.24,2.5-15.08-6.08-30.87-11.9-46.15-17.48-1.9-6.4-1.62-13.45-.69-20.04l30.62-98.56Z"/>
      <path class="cls-9" d="M562.51,219.73c-.63.93-1.01,2.49-2.48,2.5-.87-2.19.95-3.79,1.23-4.99l1.25,2.5Z"/>
      <path class="cls-5" d="M298.09,956.32c-.63.43-.99,2.65-2.48,2.5-.78-1.98,1.02-2.89,1.23-3.75l1.25,1.25Z"/>
      <path class="cls-35" d="M500.14,314.61c-.05.04.24.78-.62,1.24l-.64-.63c-.94-1.34,1.17-1.56,1.26-1.86v1.25Z"/>
      <path class="cls-23" d="M720.91,545.58c-.75,1.01-1.3,1.91,0,1.25l34.92-13.73,2.06,1.83-24.63,82.94c-.7,3.44-1.8,5.7-4.87,7.62-.45.19-.84,1.08-1.25,1.25-5.17,2.1-19.38,10.49-18.34,2.08l22.07-78.23c-.66-.67-12.69,5.08-13.47,7.1l-14.3,43.74-40.18,15.39-3.03-2.1c10.59-34.83,18.76-70.47,29.21-105.33,1.47-4.89,7.53-26.31,9.73-28.33,6.04-5.58,26.99-9.83,34.5-16.02,2.31-.91,7.83-1.48,8.69,1.43l-21.12,79.12Z"/>
      <path class="cls-23" d="M487.67,485.65c1.21-2.82,1.21-3.66,0-2.5l-39.9,49.33c-1,2.44,6.76,2.6,8.31,2.63,3.66.07,14.13-3.54,13.64,2.38-.3,3.64-13.08,14.35-16.36,18.05-4.75,5.37-21.23,27.93-24.87,30.04-1.99,1.16-3.34,1.52-5.67,1.19,1.95-40.89,30.07-76.06,56.15-105.47,12.16-13.7,29.59-32.34,43.6-43.75,3.71-3.02,11.69-10.32,12.28-1.55-8.29,24.44-13.19,49.86-20.37,74.6-8.66,29.8-9.42,34.89-32.39,56.22-3.19,2.96-20.9,21.85-22.87,11.65-.42-2.17,12.04-36.16,13.81-41.95,5.16-16.88,9.71-33.96,14.63-50.9Z"/>
      <path class="cls-23" d="M612.4,581.78c-8.68,3.29-24.26,14.32-31.79,13.81-14.14-.96-10.62-29.02-4.93-37.45,12.79-18.93,68.78-48.77,90.75-57.72,13.94-5.68,10.28,2.19,7.97,11.71-5.92,24.41-15.14,48.3-20.76,72.86l-38.83,17.31-4.91.7c-.77-6.93,1.47-13.57,3.74-19.98.18-1.11-.45-1.23-1.25-1.25Z"/>
      <path class="cls-23" d="M527.58,543.08c-2.72-6.28-8.83-13.59-9.9-20.68-.88-5.8-.97-15.54,2.86-20.08s26.36-20.38,32.09-23.43c10.11-5.39,18.41-4.62,28.2,1.53,16.39,10.29,6.07,16.92-5.96,24.48-29.39,18.49-13.6-2.26-13.56-17.44.02-8.07-6.75-1.6-10.05,1.3-4.28,3.76-9.13,8.02-6.81,14.31,3.51,9.51,17.44,24.6,22.82,34.61,8.12,15.1,4.82,19.3-7.25,29.76-3.17,2.75-23.23,17.22-25.84,17.82-3.66.85-28.65-1.44-33.16-2.49-3.7-.86-7.84-5.21-7.82-9.11.04-6.13,17.34-20.45,22.76-24.11,3.52-2.38,7.06-5.85,11.62-5.22l1.25,1.25q1.3,7.73,0,0l-1.25-2.5Z"/>
      <path class="cls-23" d="M527.58,657.94c-.49.66-5.18,6.08-5.52,6.33-3.51,2.59-14.34,1.83-11.89-4.34l23.19-35.6c3.18-2.17,6.8.43,10.43-.1,1.28,6.22-3.43,9.7-4.99,14.97,4.66-1.56,13.08,2.15,16.65,1.35,2.04-.46,1.7-10.01,5.79-11.95,1.75-.83,11.16-1.17,12.3-.46,2.69,1.66-1.01,12.23-2.33,14.81,9.25,2.73,21.59,3.91,30.29,7.78,2.22.99,5.68,1.92,4.63,5.33-2.14,6.96-33.34-7.04-37.49-3.84-1.34,1.03-1.24,5.2-2.42,6.96,6.59,1.87,16.53,2.64,22.46,5.62,2.64,1.32,3.82,1.21,3.53,4.74-.88,10.87-25.86-1.62-29.6,1.03-.43.31-2.84,9.34-2.54,10.33.82,2.73,28.4,7.82,33.16,9.31,9.84,3.09,10.62,9.16,1.3,13.7-27.11-10.78-56.38-13.3-84.85-18.39-2.16-1.91-3.48-7.52-.02-8.65,6.89-2.25,33.38,3.35,35.21,2.16.86-.56,3.57-11.3,2.61-12.3-6.39-2.11-19.96,1.7-18.67-8.77h-1.25Z"/>
      <path class="cls-19" d="M642.95,360.81c6.06.51,20.08,3.08,25.21,5.98,8.02,4.54,11.19,12.99,7.23,21.49-3.65,7.82-11.41,6.32-18.17,9.5.18,6.01-.12,13.79,1.63,19.53s13.18,11.7-2.22,10.98c-4.5-.21-18.05-1.06-18.05-6.93v-30.59c6.57-.63,14.8,2.1,20.03-3.05,7.65-7.54,1.54-18.67-8.86-17.55l-26.82,39.27c-2.95,5.86,3.56,7.38,3.18,12.53-4.24-1.12-31.39-3.74-32.42-5.01-.28-.35.16-2.69-.01-3.72,1.74,0,3.6.24,5.28-.31,10.55-3.43,24.18-35.7,33.28-44.16.47-3.49-8.36-3.1-7.37-7.97,5.92.36,12.2-.49,18.09,0Z"/>
      <path class="cls-19" d="M558.76,362.06c-7.44,2.34-13.41-5.22-4.43-6.3,5.29-.64,26.86,1.39,32.17,2.88,23.55,6.61,11.7,32.71-1.53,44.01-12.31,10.51-24.45,13.14-40.53,11.83-4.03-.33-18.06-1.35-14.97-7.43l29.29-44.98Z"/>
      <path class="cls-19" d="M727.14,380.8c1.16,3.8-4.65,3.04-5.06,4.5-1.26,4.4.35,17.29-1.16,22.95l26.82-14.97c1.32-1.86-3.65-2.58-4.26-4.51-.5-1.6.57-4.12,1.74-4.21.95-.07,17.52,5.48,18.04,6.29.21.33.18,3.51.06,3.65-.36.44-7.9,1.99-10.83,3.53-7.6,4.01-24.04,14.15-30.34,19.56-2.32,1.99-13.06,14.4-13.34,16.24-.44,2.94,9.38,6.59,3.89,8.05-1.69.45-33.21-6.01-34.14-7.49-2.95-4.68,6.48-3.88,10.23-5.25,4.26-1.55,14.06-13.9,14.66-17.88.29-1.94-.93-16.87-1.26-19.85-.29-2.55-.97-7.18-1.83-9.4-2.07-5.32-17.78-13.44.86-9.59,8.64,1.78,17.65,5.37,25.94,8.38Z"/>
      <path class="cls-22" d="M728.39,625.48l27.44-92.39c-.07-1.06.51-1,1.25-1.25,4.64-1.55,13.88-5.25,12.54,3.08-9.5,24.46-12.24,55.07-20.87,79.1-2.55,7.11-13.79,8.66-20.36,11.46Z"/>
      <path class="cls-10" d="M449.01,747.83c2.14,4.67-9.96,14.66-9.95,15.6,0,.82,11.13,12.92,4.32,14.35-4.31.9-2.64-9.71-7.49-10.08-3.21-.25-13.5,8.45-15.56,6.33-1.24-1.28.51-3.67,2.03-4.82,6.88-5.21,15.91-7.94,20.41-17.03l-16.21-.62v-3.73s22.46,0,22.46,0Z"/>
      <path class="cls-7" d="M579.97,802.77c8.23,1.38,19.34,2.39,22.44-7.48-3.03-1.07-22.77-5.45-23.55-6.39-.35-.42-.3-4.67-.14-4.85,1.03-1.12,27.93,7.79,28.52,9.57,3.75,11.39-23.78,21.12-27.27,9.16Z"/>
      <path class="cls-13" d="M555.01,762.82c3.4,2.51-2.11,15.25-1.23,16.2,3.57-.9,15.55,7.69,14.95,10.61-1.27,6.17-12.24-7.6-15.52-6.82-2.23,1.63-5.5,13.68-7.55,13.69-.62,0-2.74-2.42-2.57-3.76.34-2.61,4.77-11.32,6.01-15.24.83-2.63,2.35-17.29,5.9-14.67Z"/>
      <path class="cls-13" d="M633.8,805.45c-.47.78-1.43,17.32-4.57,17.3-6.66-.03,1.03-11.3-.62-14.99-1.12-1.13-15.08,4.8-14.93-1.88.04-1.87,14.88-2.79,18.33-4.09,2.11-.79,15.34-11.78,15.29-5.89-.03,3.7-13.07,8.84-13.5,9.55Z"/>
      <path class="cls-29" d="M718.43,348.34c-1.05,1.07,2.42,12.22,1.23,14.95-3.2.54-2.26-.46-2.85-2.69-1.58-5.94.73-15.74-8.34-11.62-3.52,1.6-4.45,7.86-8.75,8.07-.55-2.54.57-3.33,1.81-5.04,1.76-2.42,13.78-16.88,15.27-17.23,3.5-.83,11.62,4.38,11.64,7.92.03,5.59-9.58,5.21-10.01,5.64Z"/>
      <path class="cls-4" d="M700.94,334.59c-.12.15-3.26,1.06-3.75.63-.83-.74-.76-2.81-2.11-3.16-5.4-1.42-9.93,1.97-10.36,7.52,1.56-.28,6.11.26,6.22,1.88.19,2.89-8.12.02-10.36.8-.82.29-4.29,4.72-4.57,5.46-1.02,2.7,1.77,1.59,3.06,1.87,3.04.66,6.21,1.09,9.15,2.16,1.99.72,3.34-.68,2.73,2.81-6.39-.61-14.51-1.18-19.95-4.39-.28-1.31,15.01-20.61,16.21-21.21,4.12-2.06,17.26,1.28,13.72,5.63Z"/>
      <path class="cls-14" d="M622.5,340.7c2.49,3.59,10.47-.43,13.17-2.8,3.52-3.09,6.59-11.19,9.77-13.32,1.89-1.26,3.16-.42,3.11.64-.11,1.99-11.68,16.5-14.48,17.95-6.59,3.4-17.39,2.45-14.9-7.34.51-1.99,10.33-16.11,11.31-16.19,2.77-.24.94,2.93.36,4.07-1.7,3.38-10.76,13.52-8.35,16.99Z"/>
      <path class="cls-17" d="M673.33,333.14c-2.69,4.74-16.38,1.52-17.34,2.07-.86.49-7.45,13.3-9.91,10.62-1.25-1.35,1.15-3.9,1.82-5.04,1.2-2.04,11.21-16.72,12.12-17.25,2.9-1.68,16.49,4.03,13.32,9.61Z"/>
      <path class="cls-4" d="M618.45,319.79c.67,1.14,0,3.35.17,4.81-5.16-4.72-10.23-4.67-14.93.62,20.53,14.12-7.15,24.03-12.48,11.22-.92-2.22,1.77-2.35,3.11-1.89.9.31,5.45,9.19,12.78,3.48,4.31-3.35-4.75-7.46-5.69-10.58-2.99-9.96,15.34-10.58,17.05-7.67Z"/>
      <path class="cls-33" d="M527.58,657.94c1.7-2.31,3.62-9.71,6.82-10.08,5.73-.67,12.46.36,18.13,1.35.29.32-1.11,7.09-1.39,7.33-2.78,2.36-19.48-5.17-22.31,1.4h-1.25Z"/>
      <path class="cls-24" d="M775.42,398.51c4.68-1.43,10.25,1.2,8.92,6.36-.88,3.44-14.51,14.73-16.04,6.52.4-1.63,6.1-2.25,6.2-3.75.05-.67-5.96-7.02.91-9.12Z"/>
      <path class="cls-29" d="M487.07,755.33c6.1-1.37,1.03,10.96-.38,13.36-1.68,2.86-11.47,13.66-14.58,12.85-1.27-.33-2.36-2.14-1.3-3.77,1.23-1.9,8.75-6.22,11.2-10.02,1.81-2.81,3.48-12.06,5.07-12.42Z"/>
      <path class="cls-13" d="M498.9,755.33c4.25-4.22,7.25,10.58,7.46,13.11.29,3.44-.39,17.2-4.36,18.09-5.68,1.28.64-11.21.63-14.36-.01-5.48-4.16-11.17-3.73-16.85Z"/>
      <path class="cls-32" d="M795.74,405.75c1.47,4.06.78,8.26-2.49,11.24-.25.84-1,1.66-1.25,2.5-10.66,4.45-18.97-2.97-3.75-3.75.67-2.42-2.47-3.25-2.3-5.4.34-4.23,6.12-6.86,9.79-4.58Z"/>
      <path class="cls-12" d="M514.69,772.97c1.83-.58,20.22,1.73,23.46,2.37,5.04,1,3.75,5.04-1.14,5.01-3.44-.02-19.28-1.86-22.3-2.76-2.72-.82-2.81-3.72,0-4.62Z"/>
      <path class="cls-29" d="M608.55,781.66c.28.45.23,3.49.1,3.62-.9.93-23.78-4.27-25.4-5-2.01-.91-.78-4.89,2.06-4.77,2.25.1,22.6,5.14,23.24,6.15Z"/>
      <path class="cls-14" d="M446.52,761.57c6.83.23,13.99-.8,20.66,1.16s5.78,4.84-.69,4.5c-1.47-.08-24.9-1.38-19.96-5.66Z"/>
      <path class="cls-29" d="M513.52,756.75c10.54-2.88,7.19,17.02-2.54,10.83-4.48-2.85-1.47-9.74,2.54-10.83Z"/>
      <path class="cls-27" d="M527.48,359.67c.78,1.07-.03,4.45-1.02,5.64-2.76,3.32-10-.24-7.61,10.49h-3.73c-3.04-5.46,7.91-22.27,12.36-16.13Z"/>
      <path class="cls-16" d="M532.76,367.23c-1.89,1.16-.91,10.74-5.17,9.8-2.05-4.26,7.38-20.24,10.61-19.9,2.57.27,4.41,8.02-.27,9.71-1.54.56-4.08-.28-5.17.39Z"/>
      <path class="cls-3" d="M574.97,770.31c.45.43-.73,11.97-4.34,11.22-2.58-.54-1.02-10.81-.61-11.21.18-.17,4.77-.18,4.95-.01Z"/>
      <path class="cls-37" d="M564.4,769.06c4.18-.82,4.08,9.41,1.21,9.97-4.18.82-4.08-9.41-1.21-9.97Z"/>
      <path class="cls-26" d="M793.25,416.99c1.1-3.63,2.01-7.46,2.49-11.24h1.25c-.09,4.52,3.77,7.62-3.74,11.24Z"/>
      <path class="cls-21" d="M612.4,581.78c.26-.1.21-1.94,2.49-1.24.69,2.27-1.15,2.25-1.24,2.49l-1.25-1.25Z"/>
      <path class="cls-20" d="M487.67,485.65v-2.5l1.23-1.25c.84,2.06-1,2.93-1.23,3.75Z"/>
      <path class="cls-15" d="M720.91,546.83l-.62,1.24c-1.29-.13-1-2.57.62-2.49v1.25Z"/>
      <path class="cls-28" d="M528.83,545.58c-.29-.41-.97-.72-1.25-1.25v-1.25c.28.65,1.17.95,1.25,2.5Z"/>
      <path class="cls-22" d="M804.17,549.56c4.24-.57,5.98.43,5.03,5.03l-23.18,78.01c-1.83,3.32-9.22,7.62-12.86,9.59-2.95,1.6-17.45,10.12-17.11,2.91l21.61-84.55c.9-1.53,23.63-10.61,26.52-10.99Z"/>
      <path class="cls-22" d="M811.75,540.37c-1.09.65-5.64.2-8.3,1.07-4.37,1.43-15.1,7.91-18.37,7.9-1.49,0-2.46-.68-2.91-2.08-.82-2.57,6.72-30.25,8.62-32.23.95-.99,22.63-10.69,24.88-11.33,4.82-1.36,6.72-.43,6.03,4.73-.43,3.24-8.52,31.09-9.95,31.94Z"/>
      <path class="cls-34" d="M631.1,526.86c.24,1.75-.18,3.36-.56,5.05-1.37,6.03-9.59,35.26-11.92,38.93-1.15,1.81-9.2,4.97-11.17,4.13-1.48-.63-5.87-5.65-6.24-7.56-3.45-17.65,14.11-35.7,29.89-40.55Z"/>
      <path class="cls-31" d="M618.01,591.77c.81.42.81.83,0,1.25v-1.25Z"/>
      <path class="cls-1" d="M528.83,545.58c2.55,3.59,11.91,16.98,13.05,20.03,4.04,10.8-15.3,14.1-23.02,12.43-.74-.69,3.79-17.08,4.63-19.7,1.33-4.14,5.51-9.2,5.34-12.76Z"/>
      <path class="cls-38" d="M560.01,558.06c.59.59-1.15,1.99-1.25.62-.03-.43.97-.9,1.25-.62Z"/>
      <path class="cls-8" d="M560.01,558.06c-.59-.59,1.15-1.99,1.25-.62.03.43-.97.9-1.25.62Z"/>
      <path class="cls-34" d="M545.05,406.99l26.44-43.41c17.25-3.38,11.08,14.64,5.73,23.82-6.9,11.87-17.34,22.14-32.18,19.59Z"/>
      <path class="cls-36" d="M724.65,344.56c-.42.5-11.5,2.75-12.45-.61,2.73-10.03,15.83-3.46,12.45.61Z"/>
      <path class="cls-30" d="M666.03,328.35c1.09.5,5.54,1.26,3.73,3.73-1.52,2.08-5.5.1-6.23.01-4.21-1.16-1.45-5.58,2.49-3.75Z"/>
      <path class="cls-2" d="M666.03,328.35c-3.33-.58-2.55.79-2.49,3.75-1.62-.19-3.36.15-4.99-.01,2.92-4.65,1.93-6.31,7.48-3.73Z"/>
      <path class="cls-11" d="M516.36,761.57l-2.48,2.48c-.36-2.61-.12-2.84,2.48-2.48Z"/>
    </g>
  </g>
</svg>