<?xml version="1.0" encoding="UTF-8"?>
<svg id="_レイヤー_2" data-name="レイヤー 2" xmlns="http://www.w3.org/2000/svg" viewBox="0 0 1278.43 1278.43">
  <defs>
    <style>
      .cls-1 {
        fill: #c2433e;
      }

      .cls-2 {
        fill: #b0a19e;
      }

      .cls-3 {
        fill: #d4c5c2;
      }

      .cls-4 {
        fill: #edc786;
      }

      .cls-5 {
        fill: #925050;
      }

      .cls-6 {
        fill: #debbb1;
      }

      .cls-7 {
        fill: #bca9a6;
      }

      .cls-8 {
        fill: #c3423e;
      }

      .cls-9 {
        fill: #f6cf88;
      }

      .cls-10 {
        fill: #c3413d;
      }

      .cls-11 {
        fill: #9d3130;
      }

      .cls-12 {
        fill: #c2b9b8;
      }

      .cls-13 {
        fill: #f3cd88;
      }

      .cls-14 {
        fill: #764141;
      }

      .cls-15 {
        fill: #1c0e0c;
      }

      .cls-16 {
        fill: #9c3130;
      }

      .cls-17 {
        fill: #f3c884;
      }

      .cls-18 {
        fill: #e4d9d7;
      }

      .cls-19 {
        fill: #ada9aa;
      }

      .cls-20 {
        fill: #fff;
      }

      .cls-21 {
        fill: #c13d3c;
      }

      .cls-22 {
        fill: #af725e;
      }

      .cls-23 {
        fill: #a76558;
      }

      .cls-24 {
        fill: #d5d2d3;
      }

      .cls-25 {
        fill: #f4ca85;
      }

      .cls-26 {
        fill: #190d0c;
      }

      .cls-27 {
        fill: #bbafad;
      }

      .cls-28 {
        fill: #fce4c0;
      }

      .cls-29 {
        fill: #c2403d;
      }

      .cls-30 {
        fill: #925151;
      }

      .cls-31 {
        fill: #6d645f;
      }

      .cls-32 {
        fill: #f2cb87;
      }

      .cls-33 {
        fill: #f6ce87;
      }

      .cls-34 {
        fill: #b9a9a7;
      }

      .cls-35 {
        fill: #f5cd87;
      }

      .cls-36 {
        fill: #f8d38a;
      }

      .cls-37 {
        fill: #f2cc87;
      }

      .cls-38 {
        fill: #f5cc86;
      }

      .cls-39 {
        fill: #94716f;
      }

      .cls-40 {
        fill: #925051;
      }

      .cls-41 {
        fill: #050000;
      }

      .cls-42 {
        fill: #b3938d;
      }

      .cls-43 {
        fill: #efc885;
      }

      .cls-44 {
        fill: #f4cc86;
      }

      .cls-45 {
        fill: #f0c986;
      }

      .cls-46 {
        fill: #f4cb86;
      }

      .cls-47 {
        fill: #aca189;
      }
    </style>
  </defs>
  <g id="_レイヤー_1-2" data-name="レイヤー 1">
    <g>
      <rect class="cls-20" width="1278.43" height="1278.43"/>
      <path class="cls-31" d="M66.1,565c3.82,6.34,6.04,13.44,6.66,21.32l8.06,46.13c15.45,104.94,33.03,213.95,57.16,316.47,20.08-.22,37.87-2.13,56.12-9.44,44.14-23.95,96.99-36.39,147.91-46.42l124.56-22.23c195.93-31.36,392.38-65.02,586.68-103.29,38.56-7.4,77.44-5.64,116.34-2.16l5.31,2.92.96,40.23c-2.99,12.73-12.25,18.65-25.18,17.03-4.36-.55-8.9-3.12-13.83-3.62-11.05-1.12-41.67-1.19-51.36,2.25-21.34,7.58-45.61,23.67-68.5,26.29-38.63,4.43-82.37,5.33-120.87,1.28-197,14.71-391.1,53.77-584.01,93.32-30.87,6.33-57.45,9.35-87.21,22.54-8.31,3.69-16.04,9.57-24.49,12.92-14.59,5.78-36.75,8.33-52.61,9.75-9.57.86-24.99,3.38-32.98-1.93-12.96-8.6-16.38-50.63-19.16-65.65-20.14-108.75-29.19-219.6-55.58-327.32-2.12-4.99,1.84-10.21,2.3-13.62.04-.31-4.91-1.5-2.58-4.95s17.83-6.77,22.87-8.48c2.03-.69,4.08-.22,3.45-3.35Z"/>
      <path class="cls-41" d="M66.1,565c-2.1-10.52-3.61-21.19-5.97-31.66.98-2.88,3.73-2.97,6.16-3.7,10.98-3.29,33.85-7.52,45.28-8.35,31.85-2.32,64.14,7.47,96.07,3.77,15.01-1.74,31.31-7.02,46.56-9.56,28.16-4.7,56.44-9.5,84.63-13.91,172.38-26.94,343.65-58.53,515.3-89.62,83.44-15.11,173.1-21.69,246.85-66.21l52.01-7.84c7.37,34.66,10.27,70.15,16.08,105.07,8.5,51.15,23.2,102.08,31.67,152.92,3.36,20.16,3.92,40.47,6.77,60.58,4.23,29.78,17.83,68.93,18.62,97.44.08,2.94.63,5.15-2.19,6.64-3.4,1.8-24.82,5.36-30.06,6.11-6.15.88-12.77,2.1-18.97,1.61-52.11-4.13-82.3-6.58-134.77,4.3-108.48,22.49-217.68,39.88-326.74,59.9-94.2,17.3-189.01,30.36-283.33,47.19-63.53,11.34-141.32,23.2-200.88,46.07-22.86,8.78-34.71,20-60.19,23.38-10.25,1.36-21.83,1.77-32.22,2.55-1.44-.34-3.62-12.24-4.18-14.78-17.57-79.64-33.49-163.53-45.13-244.23-6.46-44.83-12.5-83.24-21.36-127.68Z"/>
      <path class="cls-21" d="M619.88,845.63c-107.94,18.08-220.28,32.04-326.79,56.74-19.17,4.45-42.06,11.29-60.52,18.05-14.96,5.48-28.73,13-42.98,20l-72.34-415.32c9.71.24,19.6.56,29.29,1.25,11.14.8,24.02,3.52,34.88,3.78,26.2.62,48.84-6.72,74.04-10.88,28.59-4.72,57.27-9.4,85.88-13.9,171.97-27.1,342.81-58.6,514-89.67,66.73-12.11,154.71-19.87,215.25-49.16,4.29-2.08,27.19-16.79,29.48-14.79.22,1.16-.26,2.75,0,3.74-7.05,33.2-16.54,65.75-28.48,97.63l-2.7,2.15c1.84,1.72,1.27,2.75-1.25,2.49,1.32,6.58-2.97,15.21-8.73,18.71-.43,3.59-1.68,6.09-3.74,7.48-.82,7.25-3.31,10.99-7.48,11.23l-1.69.35c-9.45-7.31-18.61,7.21-11.03,16.64.7.87.65,1.95.25,2.97l.95,2.59c-12.43,22.37-28.48,42.12-48.17,59.73-.57.51-1.41.75-2.31.97s-1.88.3-2.85.32c-1.53.28-2.69-.18-3.73-1.21-14.59-14.42-29.51-28.53-46.71-40.02l-.7-2.42-.56-1.77c9.95-8.69,35.67-45.31,20.24-56.33-14.18-10.13-45.78,21.13-45.76,36.55l-2.6,1.59c-.31.51-.64.98-1.08,1.32-1.01.77-20.54-9.68-21.37-12.54-3.45-2.79,4.55-15.64,7.39-17.58,25.62-5.57,50.54-16.67,71.53-32.89,4.62,1.38,6.04.06,4.24-3.95,13.84-17.5,7.5-22.67-19.02-15.49-22.35-8.89-48.04-10.91-70.87-1.15-29.72,12.71-41.52,50.38-.54,53.6,5.8,1.87.79,12.9-3.97,12.47-64.55-33.06-150.91-63.32-222.97-35.98-42.17,16-70.26,68.69-72.51,111.78-1.85,35.25,7.41,39.74,38.52,52.08l.03,1.84c.59,2.47-.33,5.11-2.76,7.9-6.25,25.31-12.62,50.93-19.13,76.83-.52,4.57-3.84,6.74-7.25,3.65-14.71-23.61-30.25-46.67-46.6-69.19-2.54-.62-5.16-.69-7.78-.71-9.57-.08-32.71.08-17.54,13.15,9.76,34.36,17.71,71.97,12.67,107.38,3.67.25,24.44-2.97,24.77-5.38-7.55-10.23-13.23-20.25-14.15-33.72l-3.09-26.41c-3.02-8.8-2.18-13.07,2.53-12.81l40.45,60.62c6.48,7.77,11.39,11.27,15.99-.15l17.91-77.86c.58-2.53,2.72-3.31,5.14-2.57,3.74,1.15,13.21,62.9,11.01,72.03-1.34,2.96-2.3,5.93-2.86,8.9.66,1.81,33.97-4.22,37.02-6.02.43-.26.51-2.36-.2-2.8-8.07-5.28-9.62-13.97-11.2-22.98-3.39-19.4-6.69-38.78-9.35-58.3-2.26-7.46-2.89-14.66-1.87-21.59,9.98,2.13,20.74,9.21,29.5,15.3,29.23,20.31,45.27,45.31,54.89,78.51,6.35,14.12,11.53,17.77,24.79,25.41,1.17.67,1.84,1.52,1.83,3.01l-1.71,2.72c-42.32,19.78-84.15,42.76-118.59,74.28-1.86,3.45-4.16,6.05-6.92,7.81Z"/>
      <path class="cls-21" d="M1130,525.09c13.93,79.41,27.74,158.94,42.41,238.21l-41.73-3.78c-52.53-2.79-100.94,13.74-151.31,23.4-40.17,7.71-80.98,13.23-121.26,20.3-1.02-1.56,4.37-14.81,5.09-15.23l8.63.26c6.67-2.47,14.21-3.31,22.63-2.53,67.09-3.42,107.39-25.33,137.92-86.46,23.27,2.31,46.55,5.37,69.84,9.17,31.38-.7,6.26-44.2-11.56-48.89-18.08-7.32-37.01-12.42-56.8-15.3l-2.38-3.16c-2.23-1.12-4.21-2.14-2.2-4.11,42.88-22.83,77.99-62.45,96.46-107.54l4.27-4.34Z"/>
      <path class="cls-21" d="M1132.5,515.11c-9.63-55.26-20.14-110.43-28.69-165.88l45.42-7.49c1.09.09,1.4,2.49,1.62,3.44,7.13,31.34,9.15,67.04,14.47,99.07,8.5,51.18,23.27,102.04,31.64,152.95,3.24,19.71,4.03,39.58,6.81,59.3,4.62,32.73,14.33,64.71,18.56,97.56l-.75,3.16c-10.46,2.42-21.05,4.68-31.71,6.09-4.14-4.53-6.85-10.28-8.12-17.24-19.29-75.81-35.22-152.37-47.79-229.67-.64.93-1.11.13-1.47-1.29Z"/>
      <path class="cls-21" d="M107.26,526.34c1.88,3,2.56,7.07,2.03,12.21,31.74,199.57,47.61,299.36,47.61,299.36,4.1,36.11,9.37,71.35,15.82,105.71l-4.35,1.8c-9.83,1.13-19.98,1.83-29.87,2.42-13.84-79.42-33.38-157.83-44.79-237.71-4.03-28.23-5.84-57.47-10.52-85.52-5.07-30.37-15.1-60.04-18.25-90.7,14.05-2.84,28.06-5.74,42.31-7.57Z"/>
      <path class="cls-40" d="M1116.28,447.76l.35,10.05c11.55,53.89-28.02,133.24-71.4,164.27-8.24,5.89-20.14,14.22-29.98,12.76-1.34.71-1.72.41-2.23-.56-9.61-18.32-17.85-34.02-29.62-51.54-.85-1.26-1.15-2.51-.58-4.03,13.88-12.31,28.34-27.34,39.17-42.52,2.67-3.75,10.99-19.65,13.21-21.09-.43-1-.58-2.37.23-2.75,7.41-3.45,10.55-5.17,10.47-14.7l1.77-2.51,7.48-11.23c1.06,2.86,2.31.36,3.74-7.48,2.79-6.27,6.06-12.45,8.73-18.71,2.64-1.27,9.3-1.44,11.23,1.25h2.49l1.25-3.74c-.43-.51-.85-.52-1.25,0-1.07,3.04-11.05,2.87-12.47,0,12.63-29.5,17.35-60.6,26.83-91.04.92-2.94,1.35-7.18,4.36-8.74,7.78,28.74,10.99,62.63,16.21,92.3Z"/>
      <path class="cls-11" d="M107.26,526.34c1.58-.2,3.88-2.18,6.13-1.15l73.71,417.09c.01.97-16.37,2.86-18.73,3.13,3.45-2.18,2.13-.65,1.47-3.27-5.53-21.66-7.27-45.89-10.37-68.27-9.9-71.28-20.79-142.24-32.46-213.25-6.38-38.83-15.55-78.47-19.73-117.46-.56-5.26-1.44-11.91-.01-16.82Z"/>
      <path class="cls-40" d="M764.56,767.06c.96-.44,1.93-.79,2.91-.84,3.69-.17,24.36,5.82,29.86,7.49.85.26,1.52,1.09,2.15,2.08.58.82,1.44,2.06,1.02,2.67-3.65,5.36-10.88,13.56-15.38,18.4-7.93,8.54-18.97,18.81-29.3,23.83-34.13,6.16-68.07,14.26-102.27,19.96-.36-1.39-.75-2.98-.13-4.26,4.04-8.31,19.97-20.88,27.69-26.9,22.24-17.32,47.96-33.2,74.65-42.59l8.79.17Z"/>
      <path class="cls-14" d="M1130,525.09c-8.09,22.84-20.91,44.11-36.78,62.38-17.61,20.28-36.58,38.3-60.57,50.5-2.36,1.2-3.41-.17-1.19,3.12-1.17,4.3-16.66-1.72-16.69-4.33,0-.63.2-1.27.47-1.91,29.37-10.18,48.5-29.85,65.37-54.99,14.79-22.04,33.74-62.63,35.71-89.02,1.08-14.5-3.02-28.77-.05-43.08,4.54,25.76,9.2,51.55,13.72,77.33Z"/>
      <path class="cls-14" d="M764.56,767.06c-24.83,5.77-49.58,21.62-70.5,36.14-14.37,9.97-31.14,22.76-40.51,37.44-11.2,1.86-22.48,3.11-33.68,4.99,1.51-5.86,4.39-9.15,8.72-13.11,16.77-15.34,53.71-39.49,74.01-50.71,14.41-7.97,29.89-13.51,44.49-20.99,4.83-1.22,14.48,2.32,17.46,6.24Z"/>
      <path class="cls-16" d="M1132.5,515.11c3.24-.59,2.53.97,3.01,3.11,15.67,71.11,25.86,143.81,44.74,214.18,2.78,10.35,6.6,20.63,9.62,30.91-4.28.57-8.47,1.85-12.89,1.29l-1.46-2.47c-14.39-82.33-28.66-164.7-43.02-247.02Z"/>
      <path class="cls-40" d="M871.82,788.26c-1.54.06-5.41-.44-6.09.15-.64.55-3.91,13.17-7.63,14.82-16.14,2.83-32.51,4.64-48.64,7.48l-5.19.55c-1.55-.92,9.36-28.45,13.93-30.48l.45-1.62c17.22,2.39,34.56,4.6,52.03,6.65l1.15,2.45Z"/>
      <path class="cls-14" d="M811.96,779.53c-6.2,10.33-12.85,20.79-19.97,31.39-3.03,1.66-3.86,2.84-2.48,3.53-11.18,1.98-22.46,4.21-33.68,6.24l27.47-25.53,16.18-19.37c2.37-1.91,11.84.33,12.47,3.74Z"/>
      <path class="cls-14" d="M818.19,780.77c-3.15,9.55-7.74,18.54-11.4,27.9-1.69,4.33.13,1.56,2.67,2.04-4.09.72-8.33,1.76-12.47,2.49l-1.41-2.32c5.12-10.82,10.58-21.27,16.38-31.35.37-3.26,7.04-2.1,6.24,1.25Z"/>
      <path class="cls-5" d="M811.96,779.53c1.26,1.35-12.07,30.22-14.97,33.68-2.49.44-5,.81-7.48,1.25-3.77.47-2.42-.89-1.01-2.88,6.75-9.56,12.92-20.06,19.5-29.14.63-.87,2.46-4.51,3.96-2.9Z"/>
      <path class="cls-36" d="M636.09,638.59c6.72,26.78,8.1,55.62,14.33,82.33.89,3.84,2.01,10.21,3.98,13.37s10.05,5.62,6.06,11.62c-1.23,1.86-34.76,8.27-38.46,7.17-6.29-1.87-.39-8.45.25-12.95,1.49-10.4-5.82-54.1-9-65.62-.35-1.28-.31-3.78-2.1-3.48l-18.33,79.58c-6,13.77-12.38,10.14-20.31.82l-41.18-61.69c5.77,18.13,3.07,44.51,12.22,60.72,2.58,4.57,12.63,12.03,4.6,15.35-3.61,1.49-23.6,5.69-26.07,3.88s1.9-19.51,1.75-24.43c-.41-13.78-9.12-73.42-14.71-83.85-2.68-4.99-11.13-10.06-.98-14.19,5.03-2.05,26.29-4.03,30.13-1.23,17.29,21.52,30.68,45.73,46.4,68.3.75,1.08-.22,2.32,2.77,1.63,3.31-16.94,8.66-33.42,12.89-50.11,3.06-12.09,2.7-28.76,12.07-37.2,7.57.05,18.04,4.89,23.7,9.98Z"/>
      <path class="cls-36" d="M472.71,715.93l11.11,6.95c12.02,8.53,15.86,23.33,22.74,34.64,1.55,2.55,11.08,10.73,9.22,13.31-1.43,1.98-25.35,6.27-27.74,5.31-6.01-2.43-19.79-35.91-29.66-44.03-9.92-8.16-26.46-2.74-37.93-1.11-1.26,1.49,4.32,34.67,5.43,38.6,1.29,4.54,10.03,14.01,6.85,17.36-1.12,1.18-28.89,6.25-31.81,6.34-11.72.37-5-5.45-4.37-10.72,1.78-14.83-9.36-86.86-16.34-99.52-1.69-3.07-7.53-5.92-4.23-10.86,1.34-2.01,23.76-6.32,27.86-7.06,18.84-3.42,55.32-11.14,72.21-4.34,28.12,11.33,24.89,47.95-3.34,55.13Z"/>
      <path class="cls-36" d="M390.08,794.2c-.9.89-5.31,2.12-6.87,2.48-6.42,1.44-21.59,4.75-27.46,4.97-11.53.42-6-9.58-9.14-17.62-1.01-2.6-18.34-27.9-19.84-28.8-3.62-2.19-32.28,1.15-33.71,3.97-.67,9.34-10.8,33.94-8.02,41.49.87,2.37,7.83,8.39,4.06,11.04-2.09,1.47-26.15,3.97-27.89,1.57l41.14-131.14c6.58-4.76,11.86,4.92,15.64,9.5,24.9,30.13,44.05,66.93,72.24,94.92,1.65,2,1.67,5.83-.15,7.63Z"/>
      <path class="cls-36" d="M172.42,708.73c1.03-.87,17.59-4.31,20.64-4.91,17.77-3.52,39.16-8.22,56.64-3.74,19.31,4.95,29.16,18.14,22.82,38.29-7.7,24.49-42.13,28.36-63.69,32.4,2.46,9.71,2.13,22.16,4.77,31.51,1.47,5.2,8.04,10.61,4.57,15.2-1.81,2.39-17.96,4.68-21.73,4.58-13.31-.36-5.97-8.45-5.74-15.84.52-16.18-8.82-55.58-13.19-72.61-1.44-5.62-9.33-21.3-5.09-24.87Z"/>
      <path class="cls-41" d="M869.33,498.9c1.93,1.73,1.1,2.54-1.25,1.25-.36,1.01-.77.99-1.25,0l-2.49-1.25-2.49-1.25-2.49-1.25c-.97-.1-1.39-.51-1.25-1.25-1.78,1.67-2.45.91-1.25-1.25-.84.63-1.62.7-2.49,0-1.64-.49-2.89-1.33-3.74-2.49h-1.25c-1.2-.04-2.03-.46-2.49-1.25-1.13.55-2.36.04-2.49-1.25l-5.42.25c-32.61-14.45-66.93-25.96-102.35-30.9l-4.49-3.03c-1.07.98-2.63.96-3.74,0l-4.33,2.15c-62.95-5.16-110.13,13.84-135.78,74.4-8.84,20.88-21.59,70.8,5.81,81.77l46.13,21.2c33.04,15.1,62.23,38.09,75.95,72.74,3.48,15.82,10.29,29.08,20.42,39.79l.54,3.55c3.97-.22,7.92,1.03,11.83,3.75,90.21,31.88,225.4,56.46,275.47-51.1l4.56-3.79-1.36-3.17c3.64-8.71,2.32-16.69-.84-25.19-4.98-13.41-14.84-31.41-21.83-44.11-20.06-36.47-38.51-62.91-74.21-85.72l-1.54-3.94c-1.97-1.88.38-3.82,2.49-2.49,10.18,6.41,20.87,15.04,29.95,23.06,7.14,6.3,15.18,13.26,21.19,20.6,5.55,6.78,10.73,15.27,15.18,22.86,5.46,9.32,11.63,25.88,17.25,33.27,2.4,3.16,11.72,5.07,16.21,6.24,27.54,7.14,58.44,7.26,78.55,30.59,10.93,12.67,16.65,41.28-8.06,39.25l-68.4-9.82c-15.59,24.17-30.32,51.57-56.14,66.17-34.2,19.34-67.68,19.54-105.61,20.99l-53.63-7.48c-1.92-1.49-4.32-.85-6.24-1.25-3.76-.78-8.6-2.83-12.47-3.74-11.61-2.75-23.56-5.1-34.92-8.73-5.55-1.78-12.15-3.91-17.46-6.24-29.59-12.97-26.86-29.16-38.44-54.47-14.19-31.02-42.55-52.9-72.56-67.76-7.67-3.8-16-6.45-23.7-9.98-8.26-3.79-25.1-10.04-31.63-15.15-10.25-8.02-9.63-36.93-8.13-48.93,4.39-35.02,31.12-83.98,63.86-99.53,66.83-31.75,157.76-4.98,220.81,25.34,3.78,1.82,11.25,4.13,12.03,8.55Z"/>
      <path class="cls-36" d="M869.33,498.9c.64-1.61,5.32-9.51,4.99-9.96-39.42-1.77-37.39-36.44-8.89-54.43,19.34-12.21,45.97-12.67,67.52-7.33,3.9.97,8.24,4.06,11.98,4.33,4.07.29,8.16-2.04,12.34-2.43,10.34-.98,18.02-2.02,15.3,10.31-.77,3.5-6.84,10.58-6.84,11.5,0,1.03,9.45,15.86,5.87,19.34-3.91,3.8-5.69-8.13-6.59-10.27-.56-1.34-1.95-5.18-3.83-4.55-2.56.85-8.38,6.38-11.65,8.34-12.22,7.29-28.7,15.67-42.12,20.24-4.39,1.5-15.53,2.86-18.08,4.37-1.83,1.08-7.69,12.82-8.77,15.55.8.41.8.83,0,1.25-.53,1.52-.15,2.72,1.39,3.54-15.2,36.94,12.71,50.83,40.53,25.64l2.98.75c-1.23-3.16.08-3.6,2.49-1.25.61-.96.32-1.94-.54-2.92,4.78-4.78,9.26-9.99,13.04-15.64,32.64-48.73-12.24-43.6-28.23-6.67,10.3,1.02,8.03,13.84-.49,14,1.48,1.7.65,2.11-2.49,1.25-2.26,6.82-11.77-.86-5.58-4.67l-.66-2.82c-1.13-.23-1.08-.65,0-1.25.49-18.14,22.73-38.82,39.89-41.89,9.02-1.62,14.85,6.76,15.03,15.13.31,14.44-16.04,37.02-26.23,46.71-.85.81-1.82,1.91-2.49,2.49l-.63,3.78c-20.76,19.19-61.06,19.6-66.38-13.59-1.3-8.1-1.2-23.14,5.89-27.61.05-.13.95-.49,1.25-1.25Z"/>
      <path class="cls-33" d="M967.87,502.64c16.29-5.31,9.79,8.91,10.67,18.75l-6.93,1.2c.83-3.83,3.17-4.82,3.76-9.31.73-5.56.65-11.51-5.73-6.98s0,20.9-10.51,18.79c3.03-9.88,5.34-20.24,5.59-30.62.03-1.47-4.02-3.11,2.31-5.78,6.89-2.91-1.85,10.77.84,13.95Z"/>
      <path class="cls-9" d="M1005.06,500.35c4.1,6.69-11.77,26.25-18.59,16.72-4.85-6.78,2.47-19.57,10.7-19.5,1.37.01,7.49,2.14,7.89,2.77Z"/>
      <path class="cls-44" d="M1047.69,495.16c2.65,5.36-1.47,14.89-6.34,17.99-1.95,1.24-5.16,1.34-6.14,1.97-16.47-7.61,4.73-35.61,12.47-19.96Z"/>
      <path class="cls-35" d="M1002.78,454c0,5.37-6.71,1.56-4.99,7.47,15.31.92.94,2.8-1.21,4.4-2.7,2-2.54,11.04-10,9.32l6.23-9.96c-2.07-1.56-10.36,4.21-9.97-2.5.82-.68,12.17,1.25,11.21-3.74-1.66.73-8.86,2.24-8.7-.63.1-1.75,14.8-4.25,17.43-4.36Z"/>
      <path class="cls-38" d="M1027.72,497.64c-3.19.25-4.89-1.58-8.14-.15-6.29,2.77-10.91,16.7-2.09,14.3,2.49-.68,9.28-6.98,8.99-2.3-.22,3.58-12.29,9.08-16.33,3.85-4.01-5.18,2.26-17.7,8.49-19.18,3.15-.75,9.34-1.35,9.08,3.46Z"/>
      <path class="cls-17" d="M1021.32,457.91c.99,1.58-.74,11.94-2.25,13-2.27,1.6-9.44.03-12.54.54-1.06-4.75,8.97-2.99,9.98-3.74,1.34-4.8-6.3-1.44-7.48-2.5.11-5.54,5.02-3.47,8.72-2.49.54-3.63-.72-2.2-3.12-2.46-16.89-1.84,4.15-6.42,6.7-2.36Z"/>
      <path class="cls-46" d="M1027.74,467.71c2.81-8.68,14.57,2.55,12.47-12.46h-11.22c-.73-6.1,14-4.21,15.62-1.32.71,1.26-1.92,11.33-3.66,12.65-3.1,2.36-9.32.67-13.2,1.13Z"/>
      <path class="cls-45" d="M1058.91,476.45l-.02,18.07c-2.6,3.01-.63,16.25-1.23,16.85-.64.63-6.1-.11-6.2-1.85-.04-.72,3.17-10.7,3.55-13.89.46-3.93-.28-8.01.16-11.69.59-4.84,2.85-5.48,3.74-7.48Z"/>
      <path class="cls-15" d="M903,515.11c-.01.41-.02.84,0,1.25.75,1.49,1.17,4.67-.18,5.65-1.86,1.34-19.68-10.26-22.86-12.85l.59-4.02c.14-.37-.14-.89,0-1.25l22.45,11.23Z"/>
      <path class="cls-25" d="M1053.91,450.26v12.46c.66.71,10.66-5.42,8.72-.64-.82,2.04-9.79,6.11-11.77,5.62-2.74-.68-.49-12.17.19-14.75.59-2.22-.36-3.23,2.85-2.69Z"/>
      <path class="cls-4" d="M1081.36,455.24c.35-1.09.77-1.07,1.25,0,.65.98,3.38,1.1,2.49,3.74-1.22.13-2.53-.14-3.74,0h-2.49c-3.76-.08-7.77.73-11.23-1.25.4-.94.93-1.74,1.25-2.49h12.47Z"/>
      <path class="cls-13" d="M1076.77,506.09c.25.42,2.13.14,2.13.91.04,5.49-4.16.93-5.84.81-2.32-.16-4.46,4.66-8.57,1.07-5.42-4.73,5.47-9.98,7.61-12.39s3.59-6.19-1.11-4.86c-2.82.8-6.15,6.87-8.32,4.77-2.74-2.64,10.7-13.59,14.38-6.2,1.91,3.82-2.18,12.72-.28,15.89Z"/>
      <path class="cls-32" d="M1110.04,502.62c-.39.53-7.78,2.64-9.36,2.64-14,.01-3.98-22.78,4.78-19.96,1.55.5,3.44,3.81,3.15,5.32-1.02,5.35-16.29,1.41-10.47,10.83,2.02,3.26,8.96-2.58,10.03-2.52.8.04,2.54,2.77,1.86,3.69Z"/>
      <path class="cls-37" d="M1088.82,483.96c.35.23,2.86,4.53,2.56,5.54-.27.89-2.7.79-3.53,2.75-.54,1.27-1.96,11.07-1.49,11.64.36.43,2.29-.89,3.1-.77,4.95.73.02,5.95-4.81,4.42-5.15-1.63.66-14-.8-16.13-.14-.21-5.16,2.48-4.96-.62.13-1.87,5.59-2.2,6.73-2.99,1.23-.85.06-5.9,3.2-3.84Z"/>
      <path class="cls-43" d="M1096.32,445.26c-2.58,10.62,5.27,6.28,8.73,13.08l-9.97-1.85c.22,1.66.33,8.75-1.88,8.7-4.26-.09.6-17.01-.62-19.94h3.73Z"/>
      <path class="cls-6" d="M1081.36,458.99c-2.04.25-1.42.02-2.49,0h2.49Z"/>
      <path class="cls-18" d="M1082.61,455.24h-1.25c.66-5.98,1.02-.35,1.25,0Z"/>
      <path class="cls-21" d="M411.68,678.6c1.16-1.67,33.54-5.66,37.67-4.8,16.39,3.4,14.59,28.02,1.78,34.88-2.81,1.51-30.75,7.51-32.59,7.08-1.45-.34-1.73-1.69-1.95-2.98-1.93-11.18-2.36-23.02-4.92-34.18Z"/>
      <path class="cls-29" d="M316.79,740.86l-18.7,2.49,4.99-19.94c2.37-.58,2.4.87,3.51,2.09,1.23,1.35,11.25,14.48,10.19,15.36Z"/>
      <path class="cls-21" d="M204.54,757.08l-6.97-42.48c15.29-4.68,41.13-7.88,47.79,11,7.5,21.25-23.53,34.54-40.83,31.48Z"/>
      <path class="cls-40" d="M728.39,455.24c1.26.91,2.46.9,3.74,0,35.64,3.67,79.82,18.51,112.25,33.68.02.61.85,1.44,2.49,2.49.14-.65.97-.65,2.49,0,.73.12,1.21.46,1.25,1.25,1.24-.02,2.48.4,3.74,1.25.96.56,1.58.66,2.49,0,.54.24.9,1.08,1.25,1.25l1.25,1.25,2.49,1.25,2.49,1.25,2.49,1.25h1.25c-17.33,46.72,25,68.81,61.11,37.42,5.91,3.58,11.45,8.15,16.81,12.5,17.61,14.32,31.31,25.58,43.58,44.97,10.6,16.75,21.36,38.06,30.06,56,8.17,16.84,17.91,29.9,9.33,48.67-1.3,2.66-3.53,2.32-6.7-1.04-69.92,18.99-146.08-1.73-208.08-35.32-3.17-1.24-7.42-2.58-8.91,1.28-1.86,11.12-4.18,19.89-13.92,26.9-18.43,14.09-34.77,27.7-40.7,50.72-2.57,5.01-7.32,11.47-13.55,8.59-16.92-12.21-16.85-28.54-24.71-45.76-22.29-48.81-62.39-62.91-107.09-83.74-16.14-7.52-27.42-9.5-29.14-29.49-2.97-34.62,7.62-63.65,26.95-91.63,28.62-41.44,77.53-49.18,125.26-44.99Z"/>
      <path class="cls-14" d="M1028.98,699.7c-37.91,82.9-112.2,92.84-194.99,79.62-24.19-3.86-77.88-14.78-96.87-28.48,12.31-3.81,11.99-13.52,16.39-22.9,2.13-4.54,5.45-9.97,8.58-13.87,9.04-11.27,30.41-23.96,36.72-34.37,4.56-7.53.04-23.78,14.45-19.34,6.45,1.99,19.63,10.55,27.4,13.75,56.06,23.13,107.83,36.75,168.61,25.22,3.56-.68,9.07-3.26,11.74-3.37,3.87-.16,4.46,3.57,7.96,3.74Z"/>
      <path class="cls-28" d="M1020.25,642.33c29.21,8.2,69.95,7.83,89.1,35,6.28,8.91,11.36,29.93-4.9,29.96l-69.24-10.09c5.29-19.18-7.39-36.97-14.96-53.62-.71-.37-.7-.79,0-1.25Z"/>
      <path class="cls-27" d="M846.88,490.17c.74.37.73.79,0,1.25-1.91-.5-5.5-1.82-2.49-2.49.86.4,1.66.84,2.49,1.25Z"/>
      <path class="cls-42" d="M854.36,493.91c-1.66-.47-1.82-.23-3.74-1.25v-1.25c1.83.63,2.89,2.14,3.74,2.49Z"/>
      <path class="cls-39" d="M732.13,455.24c-.17,1.88-3.57,1.88-3.74,0,1.23.11,2.52-.13,3.74,0Z"/>
      <path class="cls-47" d="M1020.25,642.33v1.25c-1.88.1-1.56-3.05-.62-2.49l.62,1.24Z"/>
      <path class="cls-24" d="M849.37,491.41c-.65-.21-1.77.19-2.49,0v-1.25c.88.43,1.63.78,2.49,1.25Z"/>
      <path class="cls-12" d="M856.86,493.91l-.79,1.07c-.93.25-1.4-.98-1.7-1.07.6.25,1.91-.26,2.49,0Z"/>
      <path class="cls-19" d="M859.35,496.4c-.51-.23-1.72.16-2.49-.01l1.24-1.23c.45.21.81,1.01,1.25,1.25Z"/>
      <path class="cls-2" d="M866.83,500.14c-1.19.17-1.81-.89-2.49-1.25.75.36,1.93.18,2.49,1.25Z"/>
      <path class="cls-34" d="M864.34,498.9c-.79-.41-1.7-.88-2.49-1.25.75.42,1.71.87,2.49,1.25Z"/>
      <path class="cls-7" d="M861.85,497.65c-.85-.39-1.68-.88-2.49-1.25.82.44,1.65.77,2.49,1.25Z"/>
      <path class="cls-3" d="M850.62,492.66c-.47-.25-.82-1.02-1.25-1.25.38.12.88-.13,1.25,0v1.25Z"/>
      <path class="cls-21" d="M936.68,436.52c-11.05,4.87-22.56,12.18-31.76,20.01-4.66,3.97-25.15,26.54-27.76,27.22-4.36,1.15-19.08-3.3-22.83-6.65-15.13-13.47,4.93-35.51,18.76-41.18,15.28-6.27,43.4-8.17,59.15-3.04,2.02.66,3.81,1.39,4.45,3.64Z"/>
      <path class="cls-21" d="M927.95,533.82c-5.72-2.51-11.94-7.12-16.21-11.23,6.45-6.34,7.97-13.09-3.73-10.59,5.24-12.96,15-27.29,28.36-32.76,8.09-3.31,16.25-4.71,17.74,6.67,1.93,14.77-15.65,38.3-26.15,47.91Z"/>
      <path class="cls-30" d="M880.55,505.13c-.59,2.68,1.44,2.7,3.06,3.74,4.98,3.18,10.46,6.55,15.64,9.37,3.88,2.11,4.05,3.21,3.75-1.88,0,.13.95.98,1.16,1.99.32,1.55-.17,5.22.08,5.5.34.39,3.98-.36,5-.01,5.61.44,14.19,6.35,16.21,11.23-6.04,5.08-14.07,12.06-22.12,13.42-32.61,5.52-31.17-20.62-22.78-43.36Z"/>
      <path class="cls-21" d="M894.27,481.42c5.05-10.85,38.9-42.45,49.26-42.46,4.13,0,14.82,8.3,15.43,12.15.35,2.18-8.27,7.77-10.41,9.15-16.4,10.59-35.1,17.57-54.29,21.16Z"/>
      <path class="cls-10" d="M965.34,446.51c-2.28,1.59-10.25-10.01-13.69-10.59,13.43-6.05,24.42-5.83,13.69,10.59Z"/>
      <path class="cls-26" d="M911.74,522.6c4.82,1.16,9.1,4.73,13.13,7.51,1.55,1.07,3.7.95,3.08,3.72-.57.52-1.86.72-2.49,1.25-4.44-1.84-12.69-10-16.21-11.23.69-.49,1.98-.74,2.49-1.25Z"/>
      <path class="cls-8" d="M989.07,515.11c-1.89-4.47,4.86-15.01,9.32-13.71,5.57,1.63-2.18,17.62-9.32,13.71Z"/>
      <path class="cls-1" d="M1036.82,495.54c6.92-5.91,11.05,3.53,4.96,11.79-7.93,10.76-12.85-5.05-4.96-11.79Z"/>
      <path class="cls-23" d="M1066.39,506.37l4.98-4.98c.27,2.68-2.49,5.29-4.98,4.98Z"/>
      <path class="cls-22" d="M1105.06,488.93c-.42,1.8-2.01,2.86-3.73,2.48v-2.48s3.73,0,3.73,0Z"/>
      <path class="cls-20" d="M639.62,524.13c3.46-.13,3.62.3,6.51,1.54,17.15,7.41,37.8,28.96,52.95,40.59,25.15,19.3,49.5,36.59,73.63,57.33,11.35,9.76,24.19,15.13,26.45,32.16,2.84,21.42-16.46,29.55-28.97,41.47-6.59,6.28-17.23,19.32-21.26,27.38-6.68,13.35-8.56,34.11-21.6,6.73-8.25-17.32-11.04-36.58-21.17-53.66-13.53-22.82-45.75-46.91-70.08-57.14-15.96-6.71-42.11-8.93-48.68-27.4-3.57-10.05,5.63-23.15,10.77-31.76,9.42-15.8,21.09-36.47,41.46-37.24Z"/>
    </g>
  </g>
</svg>