<?xml version="1.0" encoding="UTF-8"?>
<svg id="_ふきだし" data-name="ふきだし" xmlns="http://www.w3.org/2000/svg" viewBox="0 0 513.24 250.71">
  <defs>
    <style>
      .cls-1 {
        fill: #231815;
      }

      .cls-2 {
        fill: #fff;
        stroke: #57c3f0;
        stroke-linejoin: round;
        stroke-width: 8px;
      }
    </style>
  </defs>
  <path class="cls-2" d="M385.93,209.44h-248.52c-13.34,0-25.99-3.1-37.26-8.6l-58.31,13.39,28.04-38.01c-11.24-14.47-17.95-32.62-17.95-52.26v-13.98c0-47.01,38.46-85.48,85.48-85.48h248.52c47.01,0,85.48,38.46,85.48,85.48v13.98c0,47.01-38.46,85.48-85.48,85.48Z"/>
  <g>
    <path class="cls-1" d="M126.34,101.46c-2.2-.04-4.02-.45-5.46-1.23-1.44-.78-2.51-1.78-3.2-2.99-.69-1.22-1.04-2.51-1.04-3.87,0-1,.2-1.97.59-2.9.39-.93.99-1.75,1.78-2.48-1.64.19-3.3.38-4.96.58s-3.21.37-4.64.54c-.38.04-.73-.06-1.04-.32-.31-.26-.49-.59-.53-.99-.02-.4.09-.76.34-1.07.25-.31.57-.47.98-.5.62-.04,1.24-.1,1.86-.16.62-.06,1.25-.13,1.89-.19,1.15-.55,2.31-1.26,3.47-2.11,1.16-.85,2.27-1.77,3.33-2.75,1.06-.98,2.01-1.98,2.85-2.99.84-1.01,1.52-1.96,2.03-2.83.19-.34.48-.56.88-.67.39-.11.76-.05,1.1.16.34.19.57.47.67.85.11.37.06.74-.13,1.1-.85,1.47-2.05,2.97-3.6,4.48-1.55,1.52-3.24,2.9-5.07,4.16,1.88-.23,3.7-.48,5.47-.75,1.77-.27,3.37-.51,4.8-.72.4-.06.77.01,1.09.22.32.21.52.52.61.93.08.38.02.75-.21,1.09-.22.34-.54.54-.94.61-.53.09-1.18.18-1.94.29-.76.11-1.57.21-2.45.32-1.19.15-2.19.54-2.99,1.17-.8.63-1.4,1.37-1.79,2.22-.4.85-.59,1.71-.59,2.56,0,.96.24,1.84.72,2.64.48.8,1.23,1.45,2.26,1.94,1.02.49,2.34.76,3.94.8.41,0,.75.14,1.02.43s.42.63.42,1.04c-.02.4-.18.75-.46,1.02-.29.28-.64.4-1.04.38ZM115.75,80.79l-3.49-3.49c-.28-.3-.42-.65-.42-1.04s.14-.73.42-1.01c.28-.3.62-.45,1.02-.45s.75.15,1.02.45l3.49,3.49c.28.28.42.61.42,1.01s-.14.74-.42,1.04c-.28.28-.62.42-1.02.42s-.75-.14-1.02-.42Z"/>
    <path class="cls-1" d="M145.48,101.97c-.38,0-.71-.13-.98-.4-.27-.27-.4-.6-.4-1.01v-8.74c-.51.73-1.01,1.46-1.49,2.21-.48.75-.96,1.49-1.42,2.24-.21.32-.51.51-.9.58-.38.06-.74-.01-1.06-.22-.32-.21-.51-.51-.58-.9-.06-.38.01-.74.22-1.06.51-.73,1.23-1.73,2.14-3.02.92-1.29,1.94-2.63,3.07-4.02v-4.8c-.15,0-.33.01-.53.03-.2.02-.42.06-.66.13-.24.04-.56.12-.98.24s-.81.22-1.17.32c-.36.1-.62.17-.77.21-.41.09-.77.02-1.1-.19s-.54-.51-.62-.9c-.08-.38-.03-.75.18-1.09.2-.34.51-.55.91-.64.13-.02.38-.07.77-.16.38-.08.81-.19,1.28-.3.47-.12.88-.22,1.22-.3.28-.04.54-.08.78-.13.25-.04.47-.07.69-.1v-5.09c0-.41.13-.74.4-1.01.27-.27.59-.4.98-.4.41,0,.74.13,1.01.4.27.27.4.6.4,1.01v5.79c.32.26.58.58.77.96.23.49.3,1.12.19,1.89,1.11-1.07,2.22-1.94,3.34-2.62s2.2-1.02,3.25-1.02c2.26,0,3.82.77,4.69,2.32.86,1.55.99,4.08.37,7.6-.3,1.71-.49,2.99-.56,3.86-.08.86-.05,1.47.08,1.81.13.34.33.59.61.74.55.28,1.19.29,1.9.05.71-.25,1.46-.73,2.22-1.46.3-.28.64-.4,1.04-.38.39.02.73.18,1.01.48.26.3.37.65.35,1.04-.02.4-.18.73-.48,1.01-1.11,1.11-2.35,1.84-3.73,2.19s-2.65.23-3.82-.37c-.7-.36-1.22-.87-1.55-1.52-.33-.65-.49-1.58-.46-2.8.02-1.22.2-2.83.54-4.83.34-1.9.47-3.34.4-4.34-.08-.99-.33-1.67-.77-2.03s-1.04-.54-1.81-.54c-1.11,0-2.32.51-3.63,1.54-1.31,1.02-2.63,2.33-3.95,3.9v12.45c0,.41-.13.74-.4,1.01-.27.27-.6.4-1.01.4Z"/>
    <path class="cls-1" d="M190.34,101.46c-2.2-.04-4.02-.45-5.46-1.23-1.44-.78-2.51-1.78-3.2-2.99-.69-1.22-1.04-2.51-1.04-3.87,0-1,.2-1.97.59-2.9.39-.93.99-1.75,1.78-2.48-1.64.19-3.3.38-4.96.58s-3.21.37-4.64.54c-.38.04-.73-.06-1.04-.32-.31-.26-.49-.59-.53-.99-.02-.4.09-.76.34-1.07.25-.31.57-.47.98-.5.62-.04,1.24-.1,1.86-.16.62-.06,1.25-.13,1.89-.19,1.15-.55,2.31-1.26,3.47-2.11,1.16-.85,2.27-1.77,3.33-2.75,1.06-.98,2.01-1.98,2.85-2.99.84-1.01,1.52-1.96,2.03-2.83.19-.34.48-.56.88-.67.39-.11.76-.05,1.1.16.34.19.57.47.67.85.11.37.06.74-.13,1.1-.85,1.47-2.05,2.97-3.6,4.48-1.55,1.52-3.24,2.9-5.07,4.16,1.88-.23,3.7-.48,5.47-.75,1.77-.27,3.37-.51,4.8-.72.4-.06.77.01,1.09.22.32.21.52.52.61.93.08.38.02.75-.21,1.09-.22.34-.54.54-.94.61-.53.09-1.18.18-1.94.27-.76.1-1.57.21-2.45.34-1.28.17-2.31.57-3.1,1.2-.79.63-1.37,1.37-1.73,2.21-.36.84-.54,1.69-.54,2.54,0,.96.24,1.84.72,2.64.48.8,1.23,1.45,2.26,1.94,1.02.49,2.34.76,3.94.8.41,0,.75.14,1.02.43s.42.63.42,1.04c-.02.4-.18.75-.46,1.02-.29.28-.64.4-1.04.38ZM179.75,80.79l-3.49-3.49c-.28-.3-.42-.65-.42-1.04s.14-.73.42-1.01c.28-.3.62-.45,1.02-.45s.75.15,1.02.45l3.49,3.49c.28.28.42.61.42,1.01s-.14.74-.42,1.04c-.28.28-.62.42-1.02.42s-.75-.14-1.02-.42ZM196.2,82.45c-.23.21-.51.31-.83.29-.32-.02-.59-.16-.8-.42-.3-.36-.63-.73-.99-1.1-.36-.37-.73-.72-1.09-1.04-.21-.19-.33-.44-.35-.74-.02-.3.07-.55.29-.77.23-.23.5-.34.78-.32.29.02.56.13.82.32.3.21.67.53,1.12.96s.83.81,1.15,1.15c.23.23.34.51.3.83s-.17.6-.4.83ZM198.85,79.8c-.21.24-.48.35-.8.34s-.6-.13-.83-.37c-.32-.36-.67-.73-1.04-1.09-.37-.36-.74-.69-1.1-.99-.21-.19-.34-.43-.38-.72-.04-.29.04-.55.26-.78.21-.23.46-.35.75-.34s.56.1.82.27c.32.21.71.52,1.17.93.46.41.86.77,1.2,1.09.23.21.35.49.34.82-.01.33-.13.61-.37.85Z"/>
    <path class="cls-1" d="M209.48,101.97c-.38,0-.71-.13-.98-.4-.27-.27-.4-.6-.4-1.01v-8.74c-.51.73-1.01,1.46-1.49,2.21-.48.75-.96,1.49-1.42,2.24-.21.32-.51.51-.9.58-.38.06-.74-.01-1.06-.22-.32-.21-.51-.51-.58-.9-.06-.38.01-.74.22-1.06.51-.73,1.23-1.73,2.14-3.02.92-1.29,1.94-2.63,3.07-4.02v-4.8c-.15,0-.33.01-.53.03-.2.02-.42.06-.66.13-.24.04-.56.12-.98.24s-.81.22-1.17.32c-.36.1-.62.17-.77.21-.41.09-.77.02-1.1-.19s-.54-.51-.62-.9c-.08-.38-.03-.75.18-1.09.2-.34.51-.55.91-.64.13-.02.38-.07.77-.16.38-.08.81-.19,1.28-.3.47-.12.88-.22,1.22-.3.28-.04.54-.08.78-.13.25-.04.47-.07.69-.1v-5.09c0-.41.13-.74.4-1.01.27-.27.59-.4.98-.4.41,0,.74.13,1.01.4.27.27.4.6.4,1.01v5.79c.32.26.58.58.77.96.23.49.3,1.12.19,1.89,1.11-1.07,2.22-1.94,3.34-2.62s2.2-1.02,3.25-1.02c2.26,0,3.82.77,4.69,2.32.86,1.55.99,4.08.37,7.6-.3,1.71-.49,2.99-.56,3.86-.08.86-.05,1.47.08,1.81.13.34.33.59.61.74.55.28,1.19.29,1.9.05.71-.25,1.46-.73,2.22-1.46.3-.28.64-.4,1.04-.38.39.02.73.18,1.01.48.26.3.37.65.35,1.04-.02.4-.18.73-.48,1.01-1.11,1.11-2.35,1.84-3.73,2.19s-2.65.23-3.82-.37c-.7-.36-1.22-.87-1.55-1.52-.33-.65-.49-1.58-.46-2.8.02-1.22.2-2.83.54-4.83.34-1.9.47-3.34.4-4.34-.08-.99-.33-1.67-.77-2.03s-1.04-.54-1.81-.54c-1.11,0-2.32.51-3.63,1.54-1.31,1.02-2.63,2.33-3.95,3.9v12.45c0,.41-.13.74-.4,1.01-.27.27-.6.4-1.01.4Z"/>
    <path class="cls-1" d="M250.79,99.41c-.41.09-.78.03-1.14-.18-.35-.2-.58-.5-.69-.88-.11-.4-.06-.78.14-1.14s.51-.58.91-.69c2.43-.62,4.28-1.66,5.54-3.12,1.26-1.46,1.89-3.32,1.89-5.58,0-1.49-.34-2.82-1.02-3.97-.68-1.15-1.64-2.08-2.86-2.78-1.23-.7-2.68-1.11-4.37-1.22-.32,3.54-.91,6.62-1.78,9.23-.86,2.61-1.89,4.64-3.07,6.08-1.18,1.44-2.42,2.16-3.7,2.16-1.07,0-2.03-.32-2.9-.98-.86-.65-1.55-1.57-2.05-2.75s-.75-2.56-.75-4.14c0-1.75.34-3.38,1.01-4.88.67-1.5,1.61-2.82,2.82-3.94s2.62-1.99,4.24-2.62c1.62-.63,3.38-.94,5.28-.94,2.32,0,4.39.45,6.21,1.34,1.81.9,3.24,2.15,4.29,3.76,1.05,1.61,1.57,3.49,1.57,5.65,0,2.99-.84,5.48-2.51,7.47s-4.03,3.37-7.06,4.11ZM240.68,94.33c.49,0,1.02-.36,1.58-1.09.56-.73,1.12-1.73,1.66-3.02.54-1.29,1.03-2.81,1.47-4.56.44-1.75.75-3.65.94-5.7-1.83.28-3.39.89-4.66,1.84-1.27.95-2.23,2.1-2.88,3.44-.65,1.34-.99,2.75-1.01,4.22,0,1.56.28,2.76.83,3.6.55.84,1.24,1.26,2.05,1.26Z"/>
    <path class="cls-1" d="M273.61,101.05c-.32.23-.68.33-1.09.27s-.73-.25-.96-.59c-.26-.32-.35-.68-.29-1.09.06-.41.26-.73.58-.96,1.56-1.15,2.83-2.54,3.81-4.16.98-1.62,1.64-3.39,1.98-5.3.34-1.91.33-3.87-.03-5.87-.08-.41-.01-.77.22-1.1.24-.33.55-.53.96-.59.41-.08.77-.01,1.1.22.33.24.54.56.62.96l.19,1.34c2.05-.11,3.63-.29,4.75-.54,1.12-.26,1.89-.55,2.32-.9s.64-.69.64-1.06c0-.55-.17-.98-.5-1.26-.33-.29-1.04-.43-2.13-.43h-17.09c-.41,0-.75-.14-1.04-.43s-.43-.63-.43-1.04c0-.43.14-.78.43-1.07.29-.29.63-.43,1.04-.43h17.09c3.8,0,5.7,1.5,5.7,4.51,0,1.26-.39,2.27-1.17,3.02-.78.76-1.96,1.32-3.54,1.68-1.58.36-3.58.61-6.02.74-.06,1.86-.39,3.66-.99,5.41-.6,1.75-1.42,3.37-2.46,4.85-1.04,1.48-2.28,2.76-3.71,3.82Z"/>
    <path class="cls-1" d="M313.29,100.79c-.41,0-.75-.14-1.04-.43-.29-.29-.43-.63-.43-1.04v-13.82c-1.43,1.32-2.94,2.6-4.54,3.82-1.6,1.23-3.19,2.32-4.77,3.28-.34.21-.71.27-1.1.16-.39-.11-.71-.33-.94-.67-.21-.36-.27-.74-.16-1.14.11-.39.33-.7.67-.91,2.09-1.26,4.1-2.65,6.02-4.16,1.92-1.51,3.69-3.11,5.31-4.8,1.62-1.69,3.01-3.37,4.16-5.06.24-.34.55-.55.94-.62.39-.07.76,0,1.1.24.34.23.55.55.62.96.07.41,0,.78-.24,1.12-.56.79-1.18,1.59-1.87,2.42s-1.44,1.65-2.22,2.48v16.7c0,.41-.14.75-.43,1.04s-.65.43-1.07.43Z"/>
    <path class="cls-1" d="M334.57,96.09c-.49-.28-.86-.53-1.1-.75-.25-.22-.37-.47-.37-.75,0-.4.14-.75.43-1.04s.63-.43,1.04-.43h11.17c1.41,0,2.47-.12,3.2-.37.72-.25,1.22-.73,1.49-1.46.27-.73.4-1.82.4-3.3s-.13-2.58-.4-3.31c-.27-.74-.76-1.22-1.49-1.46-.73-.23-1.78-.35-3.17-.35h-10.85c-.49-.28-.86-.53-1.1-.75s-.37-.47-.37-.75c0-.41.14-.75.43-1.04s.63-.43,1.04-.43h10.85c2.05,0,3.66.23,4.83.7,1.17.47,2,1.29,2.48,2.46.48,1.17.72,2.82.72,4.93s-.25,3.73-.74,4.91c-.49,1.18-1.32,2.01-2.48,2.48-1.16.47-2.78.7-4.85.7h-11.17Z"/>
    <path class="cls-1" d="M371.18,85.91c-.51-.45-1.09-.92-1.74-1.41-.65-.49-1.3-.96-1.95-1.41-.65-.45-1.24-.83-1.78-1.15-.34-.21-.57-.52-.67-.91s-.05-.76.16-1.1c.21-.36.52-.6.93-.7.41-.11.78-.04,1.12.19.53.34,1.17.77,1.9,1.3.74.52,1.46,1.05,2.16,1.57.7.52,1.27.96,1.7,1.3.32.26.51.59.56.99.05.41-.05.77-.3,1.09-.24.32-.56.51-.98.58s-.78-.04-1.1-.32ZM367.91,98.33c-.38.15-.76.14-1.12-.03-.36-.17-.62-.45-.77-.83-.15-.38-.13-.76.05-1.14.18-.37.46-.63.85-.78,1.75-.64,3.5-1.4,5.25-2.29,1.75-.88,3.43-1.84,5.04-2.88,1.61-1.03,3.07-2.11,4.38-3.22,1.31-1.11,2.4-2.2,3.28-3.26.26-.32.59-.5.99-.53.41-.03.77.08,1.09.34.32.26.5.59.54.99.04.41-.06.77-.32,1.09-.85,1.05-2.01,2.17-3.46,3.36-1.45,1.19-3.06,2.37-4.83,3.54-1.77,1.16-3.6,2.23-5.49,3.22-1.89.98-3.72,1.79-5.49,2.43Z"/>
    <path class="cls-1" d="M414.69,100.82c-3.01.4-5.47.56-7.39.46-1.92-.1-3.42-.39-4.5-.88-1.08-.49-1.83-1.1-2.26-1.84-.43-.74-.64-1.54-.64-2.42,0-1.58.67-3.04,2-4.4,1.33-1.35,3.21-2.53,5.62-3.54-.38-.53-.85-.92-1.41-1.15-.77-.34-1.56-.43-2.37-.27-.81.16-1.6.5-2.37,1.01-.77.51-1.48,1.13-2.14,1.86-.28.3-.63.46-1.07.48-.44.02-.8-.12-1.07-.42-.28-.3-.41-.65-.38-1.06.02-.41.18-.73.48-.96,1.19-.96,2.22-2.04,3.07-3.23.85-1.19,1.57-2.41,2.14-3.65-1.04.02-2.04.04-2.98.05-.94.01-1.74,0-2.4-.02-.41-.02-.75-.17-1.02-.43-.28-.27-.41-.6-.38-1.01.02-.4.18-.74.46-1.01s.63-.38,1.04-.34c.75.02,1.68.03,2.82.03s2.31-.01,3.55-.03c.17-.51.31-1.01.42-1.5.11-.49.2-.96.29-1.41.04-.41.21-.73.5-.98.29-.25.63-.35,1.04-.3.41.02.73.19.96.51.23.32.32.67.26,1.06-.04.41-.11.82-.21,1.23-.1.42-.2.84-.3,1.26.96-.04,1.88-.1,2.75-.16s1.64-.14,2.3-.22c.41-.04.76.05,1.07.27s.49.54.53.94c.04.41-.06.75-.3,1.04s-.56.45-.94.5c-.85.09-1.83.17-2.94.24-1.11.08-2.26.13-3.46.18-.28.66-.59,1.32-.93,1.97-.34.65-.7,1.29-1.09,1.9,1.39-.38,2.63-.36,3.74.06.51.19,1.04.48,1.58.86.54.38,1.04.95,1.49,1.7,1.11-.34,2.29-.65,3.55-.93,1.26-.28,2.57-.52,3.94-.74.41-.04.77.05,1.09.27.32.22.5.53.54.91.06.41-.03.76-.27,1.06-.25.3-.56.48-.94.54-1.34.17-2.59.38-3.73.62-1.14.25-2.19.51-3.15.78.15.6.27,1.27.35,2.02.09.75.13,1.57.13,2.46,0,.41-.14.75-.42,1.04-.28.29-.62.43-1.02.43s-.75-.14-1.02-.43-.42-.63-.42-1.04c0-.68-.03-1.32-.08-1.9-.05-.59-.13-1.14-.24-1.65-2.01.79-3.47,1.66-4.38,2.62-.92.96-1.38,1.91-1.38,2.85,0,1.05.91,1.76,2.72,2.14,1.81.38,4.75.31,8.8-.22.41-.06.77.02,1.09.24s.5.54.54.94c.04.38-.05.73-.29,1.04-.23.31-.55.48-.96.53Z"/>
    <path class="cls-1" d="M114.6,152.26c-.36,0-.68-.13-.94-.38-.27-.26-.4-.57-.4-.93-.02-.36.09-.67.34-.91.25-.25.54-.38.88-.4.81-.02,1.34-.13,1.58-.32.25-.19.37-.59.37-1.18v-4.7h-7.04c-.26,3.29-1.08,6.03-2.46,8.22-.19.3-.45.5-.77.61-.32.11-.64.08-.96-.06-.28-.15-.47-.38-.58-.69-.11-.31-.08-.6.1-.88.77-1.19,1.35-2.54,1.74-4.05s.59-3.38.59-5.62v-6.56c0-1,.12-1.79.35-2.35.23-.56.66-.97,1.26-1.2.61-.23,1.48-.35,2.61-.35h.99c.19-.32.39-.67.61-1.06.21-.38.39-.7.54-.96.11-.21.11-.38.02-.51s-.27-.19-.53-.19h-2.69c-.49.83-1.02,1.65-1.6,2.45-.58.8-1.17,1.52-1.79,2.16-.26.28-.57.44-.94.5-.37.05-.71-.03-1.01-.24-.26-.21-.41-.5-.45-.85-.04-.35.05-.65.29-.88.58-.58,1.16-1.26,1.74-2.06s1.13-1.64,1.63-2.53c.5-.89.9-1.72,1.2-2.51.15-.36.39-.61.74-.74.34-.13.68-.12,1.02.03.36.13.6.36.7.69.11.33.1.67-.03,1.01-.04.13-.1.25-.16.37-.06.12-.12.24-.16.37h3.04c.94,0,1.59.3,1.95.91.36.61.33,1.3-.1,2.06-.21.36-.42.71-.62,1.04-.2.33-.39.65-.56.94,1,.02,1.77.16,2.3.42s.9.66,1.1,1.22c.2.55.3,1.31.3,2.27v14.18c0,1.28-.33,2.21-.98,2.8-.65.59-1.73.88-3.25.88ZM109.48,135.91h2.3v-3.07h-.58c-.72,0-1.19.1-1.41.29-.21.19-.32.59-.32,1.18v1.6ZM109.48,141.13h2.3v-3.07h-2.3v3.07ZM114.09,135.91h2.34v-1.6c0-.6-.11-.99-.32-1.18-.21-.19-.68-.29-1.41-.29h-.61v3.07ZM114.09,141.13h2.34v-3.07h-2.34v3.07ZM133.32,152.1c-.34.08-.67.05-.99-.1-.32-.15-.53-.4-.64-.74-.09-.32-.19-.67-.3-1.04-.12-.37-.24-.76-.37-1.17-.66.15-1.42.33-2.27.53-.85.2-1.73.4-2.64.59-.91.19-1.77.37-2.59.53-.82.16-1.54.29-2.16.4-.38.06-.73,0-1.04-.18-.31-.18-.5-.46-.56-.85-.06-.36,0-.69.18-.99.18-.3.46-.48.85-.54.6-.08,1.3-.2,2.1-.35.8-.15,1.63-.3,2.48-.45v-6.66h-.58c-1.54,0-2.64-.3-3.31-.9-.67-.6-1.01-1.64-1.01-3.14v-3.2c0-1.51.34-2.57,1.01-3.17.67-.6,1.78-.9,3.31-.9h.58v-5.22c0-.36.12-.66.37-.88.25-.22.54-.34.88-.34s.63.11.88.34.37.52.37.88v5.22h.54c1.56,0,2.67.3,3.33.9.66.6.99,1.65.99,3.17v3.2c0,1.49-.33,2.54-.99,3.14-.66.6-1.77.9-3.33.9h-.54v6.18c.43-.08.84-.17,1.25-.24s.78-.15,1.12-.24c-.19-.51-.38-1-.56-1.47-.18-.47-.35-.88-.5-1.25-.13-.3-.12-.6.02-.91.14-.31.37-.51.69-.59.32-.13.63-.13.94,0,.31.13.54.35.69.67.28.62.59,1.37.93,2.24.34.88.67,1.75.98,2.64s.57,1.67.78,2.35c.11.36.08.7-.08,1.01-.16.31-.42.52-.78.62ZM125.1,138.63h.26v-6.34h-.26c-.85,0-1.43.14-1.73.42-.3.28-.45.84-.45,1.7v2.11c0,.85.15,1.42.45,1.7.3.28.88.42,1.73.42ZM127.85,138.63h.26c.85,0,1.43-.14,1.73-.42.3-.28.45-.84.45-1.7v-2.11c0-.85-.15-1.42-.45-1.7-.3-.28-.88-.42-1.73-.42h-.26v6.34Z"/>
    <path class="cls-1" d="M150.34,150.18c-.36.04-.69-.05-.98-.27s-.45-.52-.5-.88.05-.69.27-.98.51-.44.85-.46c3.05-.4,5.23-1.21,6.54-2.42,1.31-1.2,1.85-2.55,1.62-4.05-.36-2.47-1.9-3.62-4.61-3.42-.7.06-1.5.16-2.4.29-.9.13-1.82.29-2.78.48-.96.19-1.88.38-2.77.58-.89.19-1.66.38-2.32.58-.34.09-.67.04-.98-.14-.31-.18-.52-.44-.62-.78-.09-.34-.04-.67.13-.99.17-.32.43-.52.77-.61.68-.19,1.49-.39,2.42-.59.93-.2,1.89-.39,2.9-.58,1-.18,1.98-.34,2.94-.46s1.8-.22,2.53-.29c1.98-.15,3.63.28,4.94,1.28,1.31,1,2.11,2.44,2.38,4.32.21,1.49-.04,2.9-.77,4.21s-1.89,2.43-3.5,3.34c-1.61.92-3.63,1.54-6.06,1.86Z"/>
    <path class="cls-1" d="M192.07,150.44c-2.41-.36-4.41-1.07-6-2.11-1.59-1.04-2.77-2.31-3.54-3.79-.77-1.48-1.15-3.03-1.15-4.66,0-1.86.4-3.59,1.22-5.22.81-1.62,1.98-2.99,3.52-4.1-.88.11-1.87.25-2.99.43-1.12.18-2.28.37-3.49.58-1.21.2-2.4.41-3.57.62s-2.25.42-3.23.61c-.38.09-.74,0-1.07-.24-.33-.25-.52-.57-.56-.98-.06-.38.02-.74.26-1.06.23-.32.55-.51.96-.58.58-.11,1.39-.25,2.43-.43,1.04-.18,2.22-.38,3.52-.59,1.3-.21,2.66-.44,4.08-.67s2.81-.46,4.18-.69c1.36-.22,2.61-.43,3.74-.61,1.13-.18,2.06-.34,2.78-.46.38-.06.74.01,1.06.22.32.21.52.51.61.9s.02.75-.19,1.09c-.21.34-.51.54-.9.61-1.56.26-2.93.75-4.11,1.49-1.18.74-2.17,1.61-2.96,2.61-.79,1-1.39,2.05-1.79,3.15-.41,1.1-.61,2.16-.61,3.18,0,2.26.76,4.04,2.27,5.34s3.5,2.13,5.95,2.5c.41.04.73.22.96.54.23.32.33.68.29,1.09-.06.41-.26.73-.58.96-.32.23-.68.32-1.09.26Z"/>
    <path class="cls-1" d="M215.65,150.31c-.28-.28-.42-.62-.43-1.02s.12-.75.4-1.02c.92-.94,1.77-2.07,2.56-3.39.79-1.32,1.46-2.7,2.02-4.13-1.04-.3-2.06-.53-3.04-.7-.98-.17-1.93-.3-2.85-.38-.85,1.75-1.82,3.18-2.91,4.29-1.09,1.11-2.25,1.82-3.49,2.14-.98.26-1.88.29-2.69.11-.81-.18-1.46-.57-1.94-1.17-.48-.6-.72-1.37-.72-2.3,0-1.07.33-2.04.99-2.93.66-.88,1.7-1.59,3.12-2.13,1.42-.53,3.27-.8,5.55-.8h.19c.26-.66.5-1.38.74-2.14s.45-1.58.64-2.43c.36-1.54.31-2.55-.14-3.06s-1.39-.67-2.8-.5c-.26.02-.59.06-.99.11-.41.05-.8.11-1.18.16s-.68.09-.9.11c-.41.02-.76-.1-1.06-.35-.3-.26-.47-.59-.51-.99-.02-.41.1-.76.35-1.07.26-.31.59-.47.99-.5.41-.04.9-.09,1.47-.14.58-.05,1.09-.09,1.54-.11,2.77-.17,4.63.3,5.57,1.41.94,1.11,1.11,2.97.51,5.57-.17.73-.36,1.44-.56,2.13-.2.69-.42,1.36-.66,2,1.86.23,3.72.59,5.6,1.06.47-1.71.71-3.27.74-4.7,0-.4.14-.75.42-1.02.28-.28.62-.42,1.02-.42.41-.02.75.11,1.04.38.29.28.42.62.4,1.02-.02.9-.11,1.8-.26,2.72-.15.92-.34,1.85-.58,2.78.72.21,1.44.44,2.14.69.7.25,1.39.5,2.05.75.36.15.62.41.78.78.16.37.16.74-.02,1.1-.15.38-.41.65-.78.8-.37.15-.74.15-1.1,0-.66-.28-1.32-.54-1.98-.78-.66-.25-1.31-.47-1.95-.69-.64,1.69-1.41,3.29-2.32,4.82-.91,1.53-1.88,2.83-2.93,3.92-.28.28-.61.42-1.01.43s-.74-.12-1.04-.4ZM207.18,143.4c.66-.17,1.33-.58,2.02-1.22s1.34-1.51,1.98-2.62c-1.45.06-2.6.26-3.44.58-.84.32-1.43.7-1.78,1.14-.34.44-.51.89-.51,1.36,0,.34.14.59.43.75.29.16.72.17,1.3.02Z"/>
    <path class="cls-1" d="M256.07,150.44c-2.41-.36-4.41-1.07-6-2.11-1.59-1.04-2.77-2.31-3.54-3.79-.77-1.48-1.15-3.03-1.15-4.66,0-1.86.4-3.59,1.22-5.22.81-1.62,1.98-2.99,3.52-4.1-.88.11-1.87.25-2.99.43-1.12.18-2.28.37-3.49.58-1.21.2-2.4.41-3.57.62s-2.25.42-3.23.61c-.38.09-.74,0-1.07-.24-.33-.25-.52-.57-.56-.98-.06-.38.02-.74.26-1.06.23-.32.55-.51.96-.58.58-.11,1.39-.25,2.43-.43,1.04-.18,2.22-.38,3.52-.59,1.3-.21,2.66-.44,4.08-.67s2.81-.46,4.18-.69c1.36-.22,2.61-.43,3.74-.61,1.13-.18,2.06-.34,2.78-.46.38-.06.74.01,1.06.22.32.21.52.51.61.9s.02.75-.19,1.09c-.21.34-.51.54-.9.61-1.56.26-2.93.75-4.11,1.49-1.18.74-2.17,1.61-2.96,2.61-.79,1-1.39,2.05-1.79,3.15-.41,1.1-.61,2.16-.61,3.18,0,2.26.76,4.04,2.27,5.34s3.5,2.13,5.95,2.5c.41.04.73.22.96.54.23.32.33.68.29,1.09-.06.41-.26.73-.58.96-.32.23-.68.32-1.09.26Z"/>
    <path class="cls-1" d="M273.35,151.56c-.38,0-.71-.14-.99-.42-.28-.28-.42-.61-.42-.99v-7.81c-.53.77-1.08,1.55-1.63,2.34-.55.79-1.11,1.58-1.66,2.37-.21.32-.52.51-.93.56-.41.05-.76-.04-1.06-.27-.32-.23-.51-.55-.58-.94-.06-.39.02-.75.26-1.07.94-1.24,1.88-2.48,2.82-3.73.94-1.25,1.87-2.46,2.78-3.63v-4.58c-.06.02-.13.05-.21.08-.08.03-.16.07-.24.11-.41.15-.96.37-1.68.66s-1.39.58-2.03.88c-.36.17-.73.19-1.1.05-.37-.14-.65-.39-.82-.75-.15-.36-.16-.74-.03-1.12.13-.38.38-.65.77-.8.36-.15.79-.31,1.28-.48.49-.17.99-.35,1.49-.53.5-.18.92-.33,1.26-.43.23-.06.46-.13.67-.19.21-.06.43-.11.64-.13v-4.93c0-.38.14-.71.42-.99s.61-.42.99-.42.71.14.99.42c.28.28.42.61.42.99v5.34c.11.09.22.18.34.27.12.1.22.21.3.34.19.28.32.58.38.91.06.33.04.71-.06,1.14,1.26-1.24,2.56-2.23,3.9-2.98,1.34-.75,2.73-1.12,4.16-1.12,1.51,0,2.88.34,4.08,1.02,1.21.68,2.16,1.72,2.86,3.1.7,1.39,1.06,3.16,1.06,5.31,0,1.94-.3,3.69-.9,5.25.43.41.84.84,1.25,1.3.4.46.8.94,1.18,1.46.23.32.33.68.27,1.07-.05.4-.24.71-.56.94-.32.23-.68.33-1.07.27-.4-.05-.71-.24-.94-.56-.51-.7-1.02-1.34-1.54-1.92-.66.85-1.43,1.51-2.32,1.98-.88.47-1.87.7-2.96.7-1.45,0-2.61-.38-3.49-1.14-.88-.76-1.31-1.77-1.31-3.02s.43-2.3,1.28-3.06c.85-.76,2.03-1.14,3.52-1.14.7,0,1.41.11,2.13.34s1.43.55,2.16.98c.26-1.02.38-2.18.38-3.46,0-1.64-.24-2.95-.72-3.92-.48-.97-1.1-1.67-1.87-2.1-.77-.43-1.57-.64-2.4-.64-1.62,0-3.18.58-4.69,1.74-1.5,1.16-2.98,2.63-4.43,4.4v11.52c0,.38-.14.71-.42.99-.28.28-.61.42-.99.42ZM284.2,146.98c.68,0,1.29-.17,1.82-.51s1-.81,1.41-1.41c-1.05-.79-2.12-1.18-3.23-1.18-.73,0-1.25.15-1.58.45s-.5.68-.5,1.15.17.84.5,1.1c.33.27.86.4,1.58.4Z"/>
    <path class="cls-1" d="M311.69,151.56c-.64,0-1.19-.23-1.65-.69-.46-.46-.69-1.01-.69-1.65s.23-1.18.69-1.63c.46-.45,1.01-.67,1.65-.67s1.19.22,1.65.67c.46.45.69.99.69,1.63s-.23,1.19-.69,1.65c-.46.46-1.01.69-1.65.69ZM311.69,144.2c-.34,0-.64-.12-.9-.37-.26-.25-.39-.54-.42-.88-.04-.73-.09-1.6-.13-2.64-.04-1.03-.08-2.12-.11-3.26-.03-1.14-.06-2.23-.1-3.28-.03-1.04-.06-1.95-.08-2.7-.02-.76-.03-1.25-.03-1.49v-3.97c0-.49.17-.9.5-1.23.33-.33.75-.5,1.26-.5s.94.17,1.28.5c.34.33.51.74.51,1.23v3.97c0,.23-.01.73-.03,1.49-.02.76-.05,1.66-.08,2.7-.03,1.05-.07,2.14-.11,3.28-.04,1.14-.09,2.23-.13,3.26-.04,1.04-.09,1.92-.13,2.64-.02.34-.15.63-.4.88-.25.25-.55.37-.91.37Z"/>
  </g>
</svg>