<?xml version="1.0" encoding="UTF-8"?>
<svg id="_レイヤー_2" data-name="レイヤー 2" xmlns="http://www.w3.org/2000/svg" viewBox="0 0 446.1 217.09">
  <g id="_レイヤー_1-2" data-name="レイヤー 1">
    <path d="M94.79.11c4.48-1.26,1.8,8.56,2.12,11.17.11.87.97,4.44,1.25,5.23.59,1.66,1.96,4.44,3.98,4.5l323.72-.04c10.99,1.29,19.29,10.2,20.23,21.2v154.2c-1.6,11.44-10.06,19.89-21.73,20.7H22.23c-13.77-.96-21.9-11.27-22.23-24.7V44.67c.81-12.1,6.94-20.6,18.87-23.56l62.1-.34,1.18-.82c2.57-4.5,4.12-10.12,7.17-14.29.71-.97,4.68-5.33,5.47-5.55ZM10.18,33.14c-1.81,2.09-3.44,7.27-3.69,10.03l.02,152.19c1.09,8.11,7.1,15.11,15.72,15.24h402.64c7.67-.56,14.03-7.12,14.74-14.72l-.02-154.19c-1.25-8.41-7.43-13.68-15.71-14.74l-321.73.05c-1.84-.24-5.4-4.92-6.3-6.67-2.06-4-2.32-8.49-3.16-12.81-2.46,4.02-4.65,8.54-6.6,12.87-.76,1.67-1.53,6.06-2.99,6.49l-60.84.1c-4.43.41-9.16,2.8-12.07,6.15Z"/>
  </g>
</svg>