<?xml version="1.0" encoding="UTF-8"?>
<svg id="_レイヤー_2" data-name="レイヤー 2" xmlns="http://www.w3.org/2000/svg" viewBox="0 0 4176.41 1005.77">
  <defs>
    <style>
      .cls-1 {
        fill: #57c3f0;
      }

      .cls-2 {
        fill: #fff;
        stroke: #57c3f0;
        stroke-linecap: round;
        stroke-linejoin: round;
        stroke-width: 51.02px;
      }
    </style>
  </defs>
  <g id="_レイヤー_1-2" data-name="レイヤー 1">
    <g>
      <path class="cls-2" d="M3973.15,980.26H676.36c-98.11,0-177.66-79.5-177.73-177.61-.06-83.84-.04-68.03-.05-73.19-.01-16.16,0-36.94,0-57.99,0-4.53,0-24.98,0-29.64-50.89-14.6-118.5-28.38-198.6-29.85-117.65-2.16-212.89,23.17-274.48,45.12,59.22-39.37,144.98-87.02,255.68-120.32,83.12-25,157.86-35.16,217.4-38.84,0-4.16,0-11.19,0-19.88-.08-88.61-.67-132.88-.74-138.96-.62-51.24-1.13-51.4.74-64.02,7.62-51.34,17.68-121.05,73.09-176.46,45.16-45.16,107.55-73.09,176.46-73.09h3225.01c98.17,0,177.74,79.58,177.74,177.74v599.26c0,98.17-79.58,177.74-177.74,177.74Z"/>
      <g>
        <path class="cls-1" d="M1011.02,509.41v148.28c-.2,3.93-1.87,7.52-5.01,10.76-3.15,3.24-6.98,4.86-11.5,4.86s-8.31-1.58-11.35-4.72c-3.05-3.14-4.67-6.78-4.86-10.91v-131.18c-35.57,15.33-72.62,23.58-111.14,24.76-4.52.4-8.5-.89-11.94-3.84-3.44-2.95-5.41-6.73-5.89-11.35-.49-4.62.63-8.74,3.39-12.38,2.75-3.64,6.58-5.55,11.5-5.75,41.08-.79,79.55-10.27,115.42-28.45,35.86-18.17,66.37-43.97,91.53-77.38,2.75-2.55,6.29-3.98,10.61-4.28,4.32-.3,8.35.74,12.09,3.1,2.75,2.75,4.52,6.29,5.31,10.61.78,4.33,0,8.16-2.36,11.5-23.78,30.86-52.38,56.31-85.79,76.36Z"/>
        <path class="cls-1" d="M1160.48,446.02c-4.13-.78-7.66-3.34-10.61-7.66-2.95-4.32-3.93-8.65-2.95-12.97.98-4.52,3.58-8.11,7.81-10.76,4.22-2.65,8.59-3.49,13.12-2.5,37.54,8.45,71.83,22.41,102.88,41.86,3.54,2.75,5.79,6.44,6.78,11.05.98,4.62.1,9.09-2.65,13.42-2.56,3.54-6.09,5.74-10.61,6.63-4.52.89-8.75.05-12.68-2.5-28.11-17.88-58.47-30.07-91.09-36.56ZM1371.26,461.94c.78-4.72,3.1-8.45,6.93-11.2,3.83-2.75,7.91-3.73,12.23-2.95,4.32.59,7.96,2.8,10.91,6.63,2.95,3.83,4.22,7.91,3.83,12.23-5.89,39.31-20.39,74.49-43.48,105.54-23.1,31.05-51.89,55.13-86.38,72.23-34.49,17.1-71.3,25.25-110.4,24.47-5.11,0-9.34-1.62-12.68-4.86-3.34-3.24-5.01-6.93-5.01-11.06s1.67-7.86,5.01-11.2c3.34-3.34,7.56-5.01,12.68-5.01,33.41.59,65-6.53,94.78-21.37,29.77-14.84,54.63-35.92,74.59-63.24,19.94-27.31,32.28-57.38,37-90.21Z"/>
        <path class="cls-1" d="M1539.89,409.76h147.7c6.09-.2,11.5,1.87,16.21,6.19,4.72,4.33,7.47,9.63,8.26,15.92,2.75,29.68-.15,58.47-8.7,86.38-8.55,27.91-22.36,53.46-41.42,76.65-18.87,22.99-41.42,40.93-67.66,53.8-26.24,12.87-53.8,20.58-82.69,23.14-4.52,0-8.55-1.53-12.09-4.57-3.54-3.05-5.41-6.49-5.6-10.32-.2-3.83,1.18-7.56,4.13-11.2,2.95-3.64,6.58-5.55,10.91-5.75,41.47-4.13,77.63-19.94,108.49-47.46-34.4-30.46-72.13-56.9-113.21-79.3-10.81,11.01-23.29,20.34-37.44,28-3.93,1.97-8.06,2.31-12.38,1.03-4.33-1.28-7.47-3.78-9.43-7.52-2.36-3.73-2.9-7.91-1.62-12.53,1.28-4.61,3.68-8,7.22-10.17,16.11-8.25,29.53-19.5,40.24-33.75,10.71-14.25,18.32-30.22,22.85-47.91,1.18-6.29,4.22-11.35,9.14-15.18,4.91-3.83,10.61-5.65,17.1-5.45ZM1544.61,443.37c-4.13,15.52-10.32,29.97-18.57,43.33,41.07,22.99,79.01,50.12,113.79,81.36,28.89-36.56,42.16-78.12,39.8-124.7h-135.02Z"/>
        <path class="cls-1" d="M1758.34,623.2v-190.74c.39-4.13,2.06-7.66,5.01-10.61,2.95-2.95,6.68-4.42,11.2-4.42s8.3,1.48,11.35,4.42c3.05,2.95,4.67,6.49,4.86,10.61v85.2c52.48-9.43,102.1-27.61,148.87-54.54,3.93-1.77,8.2-1.92,12.82-.45,4.62,1.48,8.01,4.08,10.17,7.81,1.96,4.33,2.31,8.75,1.03,13.27-1.28,4.53-3.88,7.86-7.81,10.03-50.9,30.27-105.83,49.72-164.79,58.37v59.55c0,5.11,1.82,9.83,5.45,14.15,3.63,4.32,8.01,6.78,13.12,7.37,53.26,5.31,107.4,5.7,162.44,1.18,4.13-.78,8.01.3,11.64,3.24,3.63,2.95,5.55,6.49,5.75,10.61.19,3.54-1.23,7.08-4.27,10.62-3.05,3.54-6.63,5.4-10.76,5.6-58.96,4.72-118.61,4.03-178.95-2.06-10.22-1.77-18.77-6.14-25.65-13.12-6.88-6.98-10.71-15.67-11.5-26.09ZM1971.18,471.67l-22.7-31.25c-1.97-2.55-2.51-5.6-1.62-9.14.88-3.54,2.8-6.39,5.75-8.55,2.36-1.96,5.31-2.6,8.84-1.92,3.54.69,6.49,2.51,8.84,5.45l20.93,29.48c1.57,2.75,2.11,5.85,1.62,9.29-.49,3.44-1.92,6.04-4.27,7.81-2.76,2.17-5.8,3.1-9.14,2.8-3.34-.3-6.09-1.62-8.26-3.98ZM2004.5,451.92l-25.06-32.14c-1.57-2.16-2.26-4.96-2.06-8.4.19-3.44,1.47-6.24,3.83-8.4,2.36-1.77,5.31-2.55,8.84-2.36,3.54.2,6.39,1.28,8.55,3.24l25.06,32.73c1.57,2.75,2.16,5.74,1.77,8.99-.4,3.24-2.06,5.85-5.01,7.81-2.36,1.77-5.06,2.56-8.11,2.36-3.05-.2-5.65-1.47-7.81-3.83Z"/>
        <path class="cls-1" d="M2098.24,468.43h146.22c7.08,0,13.27,2.85,18.57,8.55,4.91,6.29,6.88,12.88,5.89,19.75l-13.56,124.41h46.58c4.13,0,7.81,1.57,11.06,4.72s4.87,6.83,4.87,11.05-1.62,7.96-4.87,11.2c-3.24,3.24-6.93,4.86-11.06,4.86h-239.38c-3.94-.19-7.52-1.86-10.76-5.01s-4.86-6.83-4.86-11.06,1.57-7.86,4.72-10.91c3.14-3.05,6.78-4.67,10.91-4.86h160.67l13.27-121.46h-138.26c-3.93-.2-7.52-1.77-10.76-4.72-3.24-2.95-4.87-6.53-4.87-10.76s1.62-7.91,4.87-11.05c3.24-3.14,6.83-4.72,10.76-4.72Z"/>
        <path class="cls-1" d="M2376.24,523.55h215.2c4.91.2,9.09,2.21,12.53,6.04,3.44,3.83,5.06,8.01,4.87,12.53-.2,4.91-2.26,8.94-6.19,12.08-3.93,3.14-8.16,4.62-12.68,4.42h-212.85c-4.13.2-8.16-1.28-12.09-4.42-3.93-3.14-5.9-7.47-5.9-12.97-.2-4.52,1.47-8.55,5.01-12.08,3.54-3.54,7.56-5.4,12.09-5.6Z"/>
        <path class="cls-1" d="M2660.13,657.69c-5.7-78.22-3.24-156.64,7.37-235.25.78-4.13,3.14-7.56,7.07-10.32,3.93-2.75,8.15-3.64,12.68-2.65,3.73.59,7.12,2.7,10.17,6.34,3.05,3.64,4.47,7.42,4.27,11.35-11.2,76.65-13.66,152.9-7.37,228.76.19,4.13-1.33,8.06-4.57,11.79-3.24,3.73-7.32,5.6-12.23,5.6-3.93.2-7.76-1.28-11.5-4.42-3.74-3.14-5.7-6.88-5.9-11.2ZM2726.76,457.22h93.75v-32.72c-.2-4.52,1.52-8.5,5.16-11.94,3.63-3.44,7.81-5.16,12.53-5.16s8.79,1.72,12.23,5.16c3.44,3.44,5.06,7.42,4.87,11.94v32.72h34.2c4.72-.19,8.7,1.33,11.94,4.57,3.24,3.24,4.87,7.42,4.87,12.53,0,4.72-1.67,8.75-5.01,12.09-3.34,3.34-7.27,5.01-11.79,5.01h-34.2v78.42c21.62,14.55,40.19,32.43,55.72,53.66,2.75,3.93,3.69,8.25,2.8,12.97s-3.29,8.45-7.22,11.2c-3.93,2.75-8.21,3.69-12.82,2.8-4.62-.89-8.4-3.29-11.35-7.22-7.66-10.81-16.71-20.83-27.12-30.07-.2,11.99-3.79,22.56-10.76,31.69-6.98,9.14-15.87,15.87-26.68,20.19-15.53,6.49-31.74,8.45-48.64,5.89-16.9-2.55-31.74-8.55-44.51-17.98-7.86-7.47-13.61-16.26-17.25-26.38-3.64-10.12-4.57-20.39-2.8-30.81,2.36-10.41,6.93-19.9,13.71-28.45,6.78-8.55,15.38-14.59,25.8-18.13,26.13-10.21,51.59-9.04,76.35,3.54v-61.32h-93.75c-4.33,0-8.21-1.72-11.65-5.16-3.44-3.44-5.16-7.52-5.16-12.23s1.67-8.74,5.01-12.09c3.34-3.34,7.27-4.91,11.79-4.72ZM2820.51,590.48c-9.24-6.68-19.56-10.81-30.95-12.38-11.4-1.57-22.41-.59-33.02,2.95-10.22,3.34-16.22,10.22-17.98,20.64-2.36,10.42.54,19.12,8.7,26.09,8.15,6.98,17.59,11.11,28.3,12.38,10.71,1.28,20.98-.64,30.81-5.75,4.13-1.96,7.56-4.96,10.32-8.99,2.75-4.02,4.03-8.79,3.83-14.3v-20.63Z"/>
        <path class="cls-1" d="M2991.78,548.32c2.55-3.73,6.44-5.75,11.65-6.04,5.2-.3,9.38,1.13,12.53,4.28,3.93,3.34,6.04,7.47,6.34,12.38.3,4.92-1.13,9.24-4.27,12.97-6.09,7.28-10.91,14.94-14.45,23-1.57,5.89-.2,10.52,4.13,13.85,12.77,9.63,26.53,15.62,41.27,17.98,45.79,9.04,91.19,7.37,136.2-5.01,4.52-.98,8.79-.3,12.82,2.06,4.02,2.36,6.73,5.74,8.11,10.17,1.37,4.42,1.18,8.75-.59,12.97-1.77,4.23-4.72,7.03-8.84,8.4-53.26,13.56-106.92,14.64-160.96,3.24-18.87-3.34-35.96-11.3-51.29-23.88-8.65-6.49-14.05-15.04-16.21-25.65-2.17-10.61-.89-20.53,3.83-29.77,5.9-10.61,12.48-20.93,19.75-30.95ZM3004.46,418.02c49.92-6.29,99.05-1.67,147.4,13.86,10.22,3.93,17.1,10.61,20.64,20.05,3.54,10.61,1.08,19.56-7.37,26.82l-40.39,25.65c-3.14,2.55-6.98,3.39-11.5,2.5-4.52-.88-7.86-3.19-10.02-6.93-2.36-3.34-3.15-7.27-2.36-11.79.78-4.52,3.34-7.76,7.66-9.73l13.56-11.5c7.47-7.08,11.2-9.43,11.2-7.08l-2.06-1.18c-40.09-10.81-80.97-13.66-122.64-8.55-4.13.2-7.81-1.03-11.06-3.68-3.24-2.65-5.16-6.24-5.75-10.76-.4-4.13.59-7.91,2.95-11.35,2.36-3.44,5.6-5.55,9.73-6.34Z"/>
        <path class="cls-1" d="M3275.38,450.44h56.6c2.75-7.86,5.31-18.57,7.66-32.13.59-3.34,2.8-6.29,6.63-8.84,3.83-2.55,7.56-3.39,11.2-2.5,3.64.88,6.63,3,8.99,6.34,2.36,3.34,3.44,6.78,3.24,10.32-1.18,8.06-2.95,17-5.31,26.83h139.15c3.73.2,7.02,1.87,9.88,5.01,2.85,3.14,4.17,6.59,3.98,10.32.19,3.54-1.03,6.93-3.69,10.17-2.65,3.24-6.04,4.97-10.17,5.16h-148.29c-4.52,14.94-10.12,30.37-16.8,46.28,31.05-14.15,64.16-18.96,99.35-14.44,19.06,2.55,35.08,11.5,48.05,26.83,11.98,15.33,17.39,32.87,16.21,52.62s-8.95,36.41-23.29,49.97c-16.71,13.17-35.67,21.91-56.9,26.24-38.52,7.08-76.55,7.17-114.09.3-4.13-.79-7.42-3.05-9.88-6.78-2.46-3.74-3.24-7.42-2.36-11.05.89-3.64,3.19-6.68,6.93-9.14,3.73-2.45,7.76-3.19,12.09-2.21,33.02,5.9,66.72,5.6,101.12-.88,14.93-3.73,28.3-10.51,40.09-20.34,8.65-7.67,13.36-17.19,14.15-28.6.78-11.39-2.36-21.22-9.43-29.48-7.47-9.04-17.3-14.34-29.48-15.92-22.99-2.75-45.35-.2-67.07,7.66-21.72,7.86-40.73,20.15-57.04,36.85l-5.01,5.6c-2.76,2.95-6.04,4.67-9.88,5.16-3.83.49-7.52-.44-11.06-2.8-3.34-2.16-5.41-5.2-6.19-9.14-.79-3.93-.1-7.47,2.06-10.61,19.26-30.46,34.59-62.5,45.99-96.11h-47.46c-4.13,0-7.62-1.47-10.47-4.42-2.85-2.95-4.18-6.49-3.98-10.61-.2-4.32,1.13-7.96,3.98-10.91,2.85-2.95,6.34-4.52,10.47-4.72Z"/>
        <path class="cls-1" d="M3604.97,539.47c37.93-24.37,79.1-36.26,123.52-35.67,14.74,0,28.35,3.14,40.83,9.43,12.48,6.29,22.85,15.13,31.1,26.53,13.56,19.85,16.61,41.47,9.14,64.85-7.08,16.91-17.89,30.37-32.43,40.39-14.55,10.02-30.76,16.9-48.64,20.64-44.62,6.09-89.03,2.95-133.25-9.43-3.74-.78-6.73-3.14-8.99-7.08-2.26-3.93-2.61-8.06-1.03-12.38,1.18-3.93,3.63-7.08,7.37-9.43,3.73-2.36,7.96-3.05,12.68-2.06,40.88,12.78,82.05,15.72,123.52,8.84,22.21-5.89,38.71-19.46,49.52-40.68,4.91-13.95,2.75-26.43-6.49-37.44-11.6-12.38-26.05-18.96-43.33-19.75-49.34-1.57-92.47,14.55-129.42,48.35-5.5,5.7-12.09,7.08-19.75,4.13-7.27-4.13-10.71-10.22-10.32-18.28l10.32-109.67c.19-4.52,2.11-8.26,5.75-11.2,3.63-2.95,7.42-4.32,11.35-4.13,4.72.2,8.5,2.06,11.35,5.6,2.85,3.54,4.17,7.27,3.98,11.2l-6.78,77.24ZM3616.47,412.12c41.66,2.95,82.74,9.93,123.23,20.93,4.91,1.77,8.3,4.67,10.17,8.7,1.86,4.03,2.21,8.11,1.03,12.23-1.38,4.52-4.03,7.91-7.96,10.17-3.93,2.26-8.25,2.9-12.97,1.91-36.75-11-75.57-17.58-116.45-19.75-4.52-.19-8.4-2.11-11.65-5.75-3.24-3.63-4.77-7.81-4.57-12.53.19-4.32,2.21-8.15,6.04-11.49,3.83-3.34,8.2-4.81,13.12-4.42Z"/>
      </g>
    </g>
  </g>
</svg>