<?xml version="1.0" encoding="UTF-8"?>
<svg id="_レイヤー_2" data-name="レイヤー 2" xmlns="http://www.w3.org/2000/svg" viewBox="0 0 1233.2 1233.2">
  <defs>
    <style>
      .cls-1 {
        fill: #353228;
      }

      .cls-2 {
        fill: #fdedd0;
      }

      .cls-3 {
        fill: #e8cba0;
      }

      .cls-4 {
        fill: #302c23;
      }

      .cls-5 {
        fill: #343127;
      }

      .cls-6 {
        fill: #f4e4cb;
      }

      .cls-7 {
        fill: #464133;
      }

      .cls-8 {
        fill: #fef8f0;
      }

      .cls-9 {
        fill: #fdebca;
      }

      .cls-10 {
        fill: #39362a;
      }

      .cls-11 {
        fill: #ddbc30;
      }

      .cls-12 {
        fill: #fce6bc;
      }

      .cls-13 {
        fill: #fdf0d6;
      }

      .cls-14 {
        fill: #f9da9e;
      }

      .cls-15 {
        fill: #fbe6be;
      }

      .cls-16 {
        fill: #444032;
      }

      .cls-17 {
        fill: #e7c899;
      }

      .cls-18 {
        fill: #373429;
      }

      .cls-19 {
        fill: #2a3631;
      }

      .cls-20 {
        fill: #181814;
      }

      .cls-21 {
        fill: #e5c595;
      }

      .cls-22 {
        fill: #16110c;
      }

      .cls-23 {
        fill: #66a445;
      }

      .cls-24 {
        fill: #191612;
      }

      .cls-25 {
        fill: #f9d897;
      }

      .cls-26 {
        fill: #fce9c7;
      }

      .cls-27 {
        fill: #fdf5e9;
      }

      .cls-28 {
        fill: #3a3327;
      }

      .cls-29 {
        fill: #090706;
      }

      .cls-30 {
        fill: #e6c89a;
      }

      .cls-31 {
        fill: #070404;
      }

      .cls-32 {
        fill: #fef3df;
      }

      .cls-33 {
        fill: #ecebea;
      }

      .cls-34 {
        fill: #fad898;
      }

      .cls-35 {
        fill: #343026;
      }

      .cls-36 {
        fill: #f4d079;
      }

      .cls-37 {
        fill: #e6c799;
      }

      .cls-38 {
        fill: #fcfbfb;
      }

      .cls-39 {
        fill: #e4c492;
      }

      .cls-40 {
        fill: #3a362c;
      }

      .cls-41 {
        fill: #fbe7be;
      }

      .cls-42 {
        fill: #fcf6ee;
      }

      .cls-43 {
        fill: #e6c798;
      }

      .cls-44 {
        fill: #e9cda2;
      }

      .cls-45 {
        fill: #f7f4f0;
      }

      .cls-46 {
        fill: #fdebc9;
      }

      .cls-47 {
        fill: #fffffe;
      }

      .cls-48 {
        fill: #f7d28a;
      }

      .cls-49 {
        fill: #fff;
      }

      .cls-50 {
        fill: #e5c797;
      }

      .cls-51 {
        fill: #f4eada;
      }

      .cls-52 {
        fill: #383227;
      }

      .cls-53 {
        fill: #4a853c;
      }

      .cls-54 {
        fill: #3e4c39;
      }

      .cls-55 {
        fill: #e7c654;
      }

      .cls-56 {
        fill: #f8ebd9;
      }

      .cls-57 {
        fill: #fadba1;
      }

      .cls-58 {
        fill: #e8cb9f;
      }

      .cls-59 {
        fill: #fad99a;
      }

      .cls-60 {
        fill: #302d25;
      }

      .cls-61 {
        fill: #d3b416;
      }

      .cls-62 {
        fill: #fef7e9;
      }

      .cls-63 {
        fill: #f5e6d0;
      }

      .cls-64 {
        fill: #ecd2ac;
      }

      .cls-65 {
        fill: #e9cda3;
      }

      .cls-66 {
        fill: #e7ca9e;
      }

      .cls-67 {
        fill: #303228;
      }

      .cls-68 {
        fill: #282017;
      }

      .cls-69 {
        fill: #3e382b;
      }

      .cls-70 {
        fill: #e8c899;
      }

      .cls-71 {
        fill: #040000;
      }

      .cls-72 {
        fill: #e9f3df;
      }

      .cls-73 {
        fill: #fbe6bb;
      }

      .cls-74 {
        fill: #6d645f;
      }

      .cls-75 {
        fill: #fdf6ee;
      }

      .cls-76 {
        fill: #3d3227;
      }

      .cls-77 {
        fill: #f0f0f0;
      }

      .cls-78 {
        fill: #3c362b;
      }

      .cls-79 {
        fill: #eedcc0;
      }

      .cls-80 {
        fill: #3c3a2d;
      }

      .cls-81 {
        fill: #e6c89b;
      }

      .cls-82 {
        fill: #fffdfa;
      }

      .cls-83 {
        fill: #2c2a22;
      }

      .cls-84 {
        fill: #f9d694;
      }

      .cls-85 {
        fill: #fbf5ec;
      }

      .cls-86 {
        fill: #f6ead8;
      }

      .cls-87 {
        fill: #f9eda5;
      }

      .cls-88 {
        fill: #f8d38a;
      }

      .cls-89 {
        fill: #38362b;
      }

      .cls-90 {
        fill: #daba2c;
      }

      .cls-91 {
        fill: #f8d48e;
      }

      .cls-92 {
        fill: #3c372c;
      }

      .cls-93 {
        fill: #060202;
      }

      .cls-94 {
        fill: #424034;
      }

      .cls-95 {
        fill: #f4e7d3;
      }

      .cls-96 {
        fill: #74754c;
      }

      .cls-97 {
        fill: #fffaf1;
      }

      .cls-98 {
        fill: #e6c899;
      }

      .cls-99 {
        fill: #2d2a22;
      }

      .cls-100 {
        fill: #050000;
      }

      .cls-101 {
        fill: #4a4736;
      }

      .cls-102 {
        fill: #5d503a;
      }

      .cls-103 {
        fill: #f6d180;
      }

      .cls-104 {
        fill: #fbe4b7;
      }

      .cls-105 {
        fill: #403b2e;
      }

      .cls-106 {
        fill: #e6c44f;
      }

      .cls-107 {
        fill: #413d30;
      }

      .cls-108 {
        fill: #d2b415;
      }

      .cls-109 {
        fill: #363328;
      }

      .cls-110 {
        fill: #f1eae1;
      }

      .cls-111 {
        fill: #cbae76;
      }

      .cls-112 {
        fill: #372f24;
      }

      .cls-113 {
        fill: #fada9e;
      }

      .cls-114 {
        fill: #f7f8f9;
      }

      .cls-115 {
        fill: #fceac8;
      }

      .cls-116 {
        fill: #050101;
      }
    </style>
  </defs>
  <g id="_レイヤー_1-2" data-name="レイヤー 1">
    <g>
      <rect class="cls-49" width="1233.2" height="1233.2"/>
      <path class="cls-71" d="M471.62,1145.37c-.16-2.35-1.16-4.73-1.26-7.77-4.9-158.91,3.77-318.68.08-477.67,12.17-39.13,39.34-70.09,50.53-110.69,8.23-29.84,1.06-61.07-.07-91.41-2.74-73.52,8.81-145.1,17.04-217.67,1.61-14.16,5.71-28.79,3.39-43.39-.7-4.43-4.78-5.72-4.83-9.64-.06-5.12,5.86-16.24,6.1-21.85.16-3.6-2.98-4.08-3.59-7.09-2.02-10.07,2.15-13.29,10.8-15.63,22.84-6.18,62.29-5.41,85.73-1.5,5.33.89,13.28,2.12,16.36,6.5,5.13,7.31,1.13,11.91,1.35,18.99.27,8.85,4.91,17.76,3.67,27.78-1.02,8.28-6.53,9.17-6.08,20.47.95,23.69,7.26,51.58,9.66,75.75,6.98,70.47,12.33,141.17,15.73,211.73.81,16.84,1.67,30.71,5.11,47.76,9.18,45.52,41.61,79.08,47.72,125.52l.2,339.08c2.38,7.31,13.45-6.8,16.77-9.34,47.75-36.5,125.76,11.89,142.2,62.12,7.67,23.43,10.37,49.01,4.47,73.13l1.82,2.54c-8.44,27.07-24.07,49.69-53.87,53.21-28.79,17.91-70.49,25.15-101.95,10.42-.84-.28-1.58-.9-2.41-1.2-21.23-3-41.95-19.63-54.16-36.52-21.94,8.22-45.77,12.37-69.19,13.87-13.04.83-47.09,2.03-57.31-2.92-1.19-.58-2.31-1.32-3.41-2.1l-6.02-1.2c-1.1.44-2.21.83-3.35,1.05-7.04,1.36-40.3-8.34-49.27-12.35-8.39-3.75-21.44-10.02-21.98-19.98Z"/>
      <path class="cls-74" d="M738.72,1206.73c23.7,7.98,58.86,6.36,82.13-2.69,6.75-2.63,13.73-8.08,19.78-10.29,6.72-2.46,13.19-2.51,20.43-6.04,14.57-7.11,27.89-31.71,31.66-47.14,20.31,3.63,47.42,10.99,56.78,31.65,14.71,32.49-20.09,48.5-46.56,51.35-37.79,4.07-123.17,4.14-156.97-11.44-2.59-1.19-5.66-2.93-7.24-5.39Z"/>
      <path class="cls-74" d="M546.22,1176.65l6.02,1.2c44.61,6.53,87.51,3.06,130.36-10.91,13.12,17.03,33.57,31.19,53.72,38.59-19.05,1.2-38.08,1.43-57.2,1.25-52.1-.48-151.31,3.93-191.86-31.92-5.41-4.78-15.49-16.17-16.59-23.2-.53-3.35,1.02-5.51.97-6.29,10.34,16.31,32.41,21.66,50.27,26.13,8.03,2.01,16.16,3.8,24.32,5.15Z"/>
      <path class="cls-88" d="M525.76,430.72c2.78-.53.41,2.53.46,2.35,2.07-7.2,20.13-10.28,27.04-11.26,25.95-3.69,51.23-3.2,77.14-1.66,3.66.22,20.44,2.7,20.86,6.22.55,4.65.91,9.31,1.19,13.98,1.81,30.5,3.58,60.6,4.21,90.63,1.25,19.49,6.68,38.67,15.42,56.1,17.87,31.2,32.04,65.12,35.37,100.81-.54,2.09-2.95,3-7.24,2.71l-2.53,2.45c-60.13,6.18-125.66,12.11-186.65,3.49-1.4-.2-2.75-.75-4.11-1.35s-2.72-1.37-4.02-2.18c.63-1.45,1.78-2.61,3.45-3.48-2.73-27.48-1.1-52.21,17.78-74.55,15.22-30.62,15.95-72.67,14.91-106.31-.25-8.24-.78-25.01-8.21-29.78-3.09.18-4.47-.32-5.06-3.64-.58-15.27-1.09-30.42-1.2-45.72,1.82-1.77,2.47-1.11,1.2,1.2Z"/>
      <path class="cls-8" d="M492.08,691.79l6.79.39c.92-3.21,3.36-2.27,4.04.81,60.72,8.76,115.18,4.8,176.27,0,6.71-.53,13.47-2.51,21.05-2.41,6.4-2.73,9.21-1.93,8.42,2.41.67.26,1.29.57,1.7,1.05.85,1,1.29,14.43.71,17,2.39,1.14,2.38,2.47,0,3.61l1.2,7.22,1.43.54-.22,11.49c2.12.9,1.81,5.92,0,7.22,3.75,2.41,4.65,10.27,1.2,13.23,2.8,5.82,3.25,14.33,1.2,20.45,3.68,1.51,2.76,3.44.49,5.84l.72,3.79c1.83,12.67,3.01,25.57,3.55,38.7l-1.14,2.21,2.66,3.62c1.54,16.67,2.15,33.47,1.05,50.19-.3,3.59-1.94,4.1-4.91,1.53-27.3,8.29-60.62,15.74-89.03,18.05.13,2.38-6.63,1.57-8.66,1.17-.38-.07-.69-.56-.97-1.17-.88.66-1.77,1.28-2.74,1.75s-1.85.89-2.75.92c-19.65.65-39.29-.56-58.86-2.26-.91-.08-1.8-.53-2.73-1.01s-1.84-1.13-2.7-1.81c-1.15,1.65-1.71,1.99-2.41,0-4.18,2.72-6.58,2.72-7.22,0-12.67-1.06-57.04-4.32-64.97-13.23-1.96-7.11.2-7.91,6.75-7.14,3.53-1.79,6.1-1.82,7.69-.08.4,1.5.8,3.1,1.2,4.81l2.31-1.07c5.41,3.51,12.12,1.88,8.52-4.94-1.05-.34-1.04-.74,0-1.2-4.29-2.08-.05-11.71,4.63-7.09l1.38,7.09c1.95.99,3.15.99,3.61,0,1.39-2.07,3.46-4.1,6.22-6.11l2.93-11.55c2.97-3.69,4.45-7.38,1.91-11.88-1.39-2.47-10.74-.02-9.48,4.93,3,19.61-17.68,6.28-12.42-5.47-1.93-1.05-3.55,1.65-3.61,3.61,1.53,3.4-1.9,5.01-4.81,3.61-2.01,2.47-2.74,1.89-2.41-1.2-2.05-.32-2.86-1.12-2.41-2.41-.44-.54-.84-.54-1.2,0-.51.77-1.32.77-2.41,0-1.18-.32-1.99.07-2.41,1.2.57.34.54.74,0,1.2.55,1.13.55,2.33,0,3.61l2.16.54c-.46-2.78.76-2.55,2.65-.54,1.47-.75,2.12-.4,2.41,1.2.34-1.05.74-1.04,1.2,0,1.04.38,1.03.78,0,1.2l-1.2,2.41c6.59,5.77-6.2,20-11.56,13.09,1.77-7.59.81-11.56-2.88-11.89-.66-56.83-.69-114.02,0-170.84,5.99-2.38,13.33-.82,18.05,3.61Z"/>
      <path class="cls-77" d="M641.26,146.78c4.34,1.65,7.69,5.43,9.62,9.62.03,3.56-1.37,6.54-1.24,10.16.3,8.42,4.79,17.22,3.67,26.57-1.03,8.66-6.74,9.28-6.08,21.67,1.52,28.52,8.17,59.98,10.86,88.98,2.28,24.57,3.13,49.37,4.82,73.99-1.8,1.5-2.4.85-1.2-1.2-4.69-6.59-9.15-7.65-16.51-8.56-33.45-4.17-71.98-4.92-105.83-2.2-4.11,2.3-7.45,2.68-10,1.14v-1.2c-.75-.86-1.15-2.46-1.2-4.81,1.91-24.59,4.31-49.42,7.24-73.97,2.89-24.22,13.8-70.48,9.58-92.63-.66-3.46-4.58-4.26-4.73-7.19-.26-5.12,7.46-18.49,5.44-24.77-.65-2.01-2.7-3.11-3.09-5.97l2.29-6.01c2.12-1.33,2.56-2.13,1.32-2.42,3.87-1.99,6.33-2.54,10.56-3.27,25.28-4.36,59.71-4.12,84.48,2.07Z"/>
      <path class="cls-23" d="M838.57,1188.71c1.48,2.12-10.6,8.46-12.77,9.46-64.94,29.61-151.43-5.57-155.65-82.28-1.74-31.59,4.97-61.17,28.27-83.6-.49,18.34,6.11,34.6,14.4,50.56,16.47,31.7,42.77,58.57,72.92,77.47,16.92,10.6,36.1,17.39,52.83,28.4Z"/>
      <path class="cls-88" d="M516.14,1086.42c33.63,6.1,69.92,7.19,104.06,7.21l47.53-4.79c-3.13,18.8-.53,38.09,3.62,56.54v1.2c-1.3,1.42-2.88,2.4-4.79,2.7-33.32,5.3-102.88,13.74-133.71-3.65-3.07-1.73-19.22-16.16-20.06-18.56-1.08-3.08-3.56-37.44-2.59-39.15.6-1.92,2.58-2.42,5.94-1.5Z"/>
      <path class="cls-23" d="M807.29,999.79c46.62,13.89,76.93,47.09,84.06,95.81,4.94,33.79-7.04,87.38-46.76,93.08-3.92-34.05,8.39-67.37,6-101.66-2.14-30.79-19.89-67.26-44.5-86.04-1.5-1.05-1.1-1.45,1.2-1.2Z"/>
      <path class="cls-8" d="M529.37,366.95c2.09,2.51,5.2,2.37,9.31-.43,34.3-3.86,72.53-2.18,106.98,1.51,6.79.73,12.21,2.39,16.06,8.55.37.17.74.93,1.2,1.2.27,3.92.92,7.83,1.2,12.03-.33,3.18.07,4.39,1.2,3.61v1.2c.82,1.39,1.22,3,1.2,4.81.72,6.23,1.12,11.73,1.2,18.05-.44.84-1.2,1.84-1.92,1.63-23.35-6.9-42.68-7.57-67.58-5.88l-34.76-.9c-13.13-.48-24.86,1.62-36.3,7.53l-1.42-1.18c-1.15-7.11-1.15-14.33,0-21.66.13-8.36-.41-17.01,1.2-25.27-.19-3.43.61-5.43,2.41-6.02.01.4-.04.81,0,1.2Z"/>
      <path class="cls-72" d="M840.97,1186.28c-28.97-17.15-57.97-29.01-83.57-51.77-22.63-20.11-60.66-72.49-54.74-104.01.86-4.6,12.1-10.42,16.49-11.17,5.58-.95,15.21,1.94,16.85,1.33.88-.33,7.7-8.78,9.93-10.66,17.09-14.39,40.78-20.02,59.54-5.37,22.75,17.76,39.8,55,41.59,83.54,2.08,33.21-9.71,65.19-6.08,98.1Z"/>
      <path class="cls-61" d="M500.5,1082.81c1.63,10.71,2.78,21.75,3.44,33.1,2.16,15.84,11.14,29.77,26.39,35.45,46.36,17.27,98.96,14.92,145.83,4.84.86,1.79,5.55,5.73,2.4,7.81-2.75,1.82-20.97,6.02-25.48,7.01-39.8,8.74-75.59,8.26-115.5.44-15.37-3.01-51.12-11.25-59.95-24.27-.58-.85-3.6-6.83-3.6-7.23v-67.98c7.83,5.06,17.45,8.39,26.47,10.83Z"/>
      <path class="cls-115" d="M667.73,417.48l1.2,7.22c.81,13.15,1.98,26.56,2.41,39.7-.9,9.81-.9,19.84,0,30.08,2.43,27.7,3.9,59.43,14.61,85.85,12.71,31.37,35.85,59.93,39.39,95.36.2,80.35.23,160.74.15,241.08-.91,12.7-1.31,25.94-1.2,39.7,1,1.3.62,3.8-1.2,3.61l-1.87-.87c-.47-12.9-1.05-25.84-1.74-38.83.39-11.33,2.04-24.66,1.29-35.61-.17-2.43-.2-2.95-2.49-4.1.55-.17,1.54.39,2.25-.12,3.26-18.28.07-36.9-1.05-55.22.91-3.02,1.31-6.03,1.2-9.02-1.27-1.21-2.42-21.29-1.6-22.08.41-.39.98-.61,1.6-.78l-1.61-.25-1.18-9.49-.83.71c-2.17-2.01-1.14-6.6-1.2-9.62,2.69-1.45,1.19-17.41-1.2-20.45-.23-4.62-1.02-8.9-1.2-13.23.8-2.28,1.6-5.49,2.41-9.62.52-16.52.4-35.5-1.2-52.14-.62-6.38-1.63-12.11-3.31-18.31-6.8-25.12-17.85-49.12-29.6-72.53-7.34-17.26-17.41-41.77-18.45-60.63-1.56-28.18-1.47-56.9,1.25-85.16,2.39-11.65.65-19.66-5.24-24.04l-2.1,1.02c-28.51-6.39-61.98-5.99-91.45-4.66-13.34.6-27.92,1.81-39.42,8.88-1.04.31-1.99-4.31-.58-5.25,5.94-2.17,12.31-6.53,18.64-7.22,15.11-1.64,35.95-.01,51.79-.05,18.8-.04,40.04-1.89,58.34,1.81,2.47.5,11.83,3,13.19,4.25Z"/>
      <path class="cls-108" d="M529.37,507.72l4.8,1.36c1.75,31.38.49,66.36-11.16,95.36-8.57,11.83-16.43,24.02-23.55,36.58-2.57,16.53-3.26,33.28-2.07,50.24l-1.7.53h-3.61c-6.09-1.04-12.01-2.38-18.05-3.61.4-33.48-.14-34.4,15.43-63.37,23.63-43.96,39.94-66.56,38.71-119.5.37-.6.77-.58,1.2,0,.58.27.58,1.07,0,2.41Z"/>
      <path class="cls-57" d="M711.04,711.04c-.44-5.71-1.99-12.41-2.41-18.05l-1.49-1.96c-1.49-36.2-16.41-70.76-34.06-101.97-15.31-27.71-17.52-57.56-17.25-88.26-2.67-24.98-3.64-49.59-2.93-73.85-2.28-6.31-34.5-7.69-40.79-7.88-27.53-.84-54.54.22-80.98,7.87-1.65,2.37-3.44,3.63-5.38,3.76-.08-.56-.63-1.08-1.2-1.2-.02-2,0-4.01,0-6.02,3.17-.94,2.56.9,1.81.42-.4-.26-.52-.99-.14-1.16,24.79-11.48,82.24-8.86,110.98-7.13,6.99.42,24.33,2.24,23.75,11.02-.53,37.2-.02,75.29.98,112.41,7.45,30.36,20.08,57.21,34.3,84.77,7.8,18.24,15.36,39.4,16.95,59.1.3,3.73.96,27.6-.37,28.65-.28.22-.97-.08-1.78-.53Z"/>
      <path class="cls-104" d="M525.76,418.69c.05,1.09-.57,3.32.59,3.6,8.38-4.29,16.35-6.72,25.72-7.7,16.72-1.74,33.5.39,50.04.54,20.51.18,36.8-3.09,57.2,3.56,4.34,2.1,6.14,6.2,5.38,12.32-2.44,36.07-3.28,72.18-.22,108.06,7.23,28.01,19.26,55.05,32.44,81.32,7.71,18.55,15.12,37.61,17.74,57.57l1.34,32.88-1.34.81c3.08,3.18,3.21,14.01,0,17.45.74,2.56.34,4.16-1.2,4.81-2.21-2.78-1.16-8.25-1.2-12.03l-1.2-7.22c-.06-1.2.09-2.42,0-3.61,2-1.25,1.2-4.56,1.22-6.6.36-29.04-2.36-40.75-12.03-67.41-6.75-18.6-13.52-29.53-22.35-46.23-8-15.15-10.41-35.61-17.09-51.49l-2.08-115.82c-1.85-3.87-19.52-6.82-24.09-7.19-26.02-2.14-81.01-2.62-104.38,6.27-2.88,1.09-3.55,5.67-5.69.93,0-8.52-1.02-18.37,1.2-26.47-.11,7.06-.34,14.64,0,21.66Z"/>
      <path class="cls-48" d="M547.42,896.33l-.18,2.06c-18.59,15.88-24.6,38.53-21.47,61.71,18.02,71.62,120.63,58.46,116.45-17.82-.77-13.97-7.12-36.66-21.4-41.13-1.44,5.42-7.33-.57-1.2-2.41,3.18-.19,6.46.26,9.62,0,26.57,30.4,24.17,80.18-10.45,103.24-56.58,37.69-120.9-27.64-91.27-86.46,3.57-7.09,9.36-12.18,12.69-19.2,2.38.2,4.84-.19,7.22,0Z"/>
      <path class="cls-39" d="M500.5,843.39c2.79,3.62.37,12.96,10.82,13.23-2.66-13.15.78-17.13,14.44-15.63-2.7,3.66,1.09,7.73.68,9.72-.34,1.63-2.99,3.74-3.7,5.9-2.53,7.64-.58,15.52-11.41,16.86.21,1.77-1,1.77-3.61,0-.29-.2-1.68.5-2.5-.74-1.08-1.64-.66-6.49-1.71-6.49l-1.8,7.23c-4.34-.15-8.35.65-12.03,2.41-2.15.76-4.59,1.87-6.69,2.34-4.72,1.05-9.06-2.84-7.75,4.88-2.27-2.56-1.15-19.16-1.2-24.06,7.85-5.75,5.96,5.64,5,10.44-.83,4.16,6.73-1.83,7.58-3.27,1.25-2.13,1.4-5.87,1.86-8.37l1.2-2.41c.13-.38-.14-.89,0-1.2-2.16-2.98-.94-4.2,2.41-3.61,1.92-2.25,3.32-2.17,4.81-3.61-1.54-5.14-.33-6.35,3.61-3.61Z"/>
      <path class="cls-36" d="M510.12,1085.22c1.9.4,4.14.86,6.02,1.2-4.21-.15-3.32-.74-3.61,2.95-.93,11.81,2.5,25.01,1.4,37.16,7.53,4.13,12.71,12.28,19.15,16.94,15.2,10.99,52.59,10.06,71.53,10.28,23.22.27,43.84-4.68,66.72-7.17.37-.53.77-.52,1.2,0,.59,1.45.6,3.36,1.2,4.81-.02,1.25-.51,2.12-1.66,2.21-13.65,1.09-27.22,2.89-40.85,5.23-32.77,2.66-107.65,4.31-121.46-32.29-1.45-3.83-5.85-39.85-4.3-41.23l4.65-.09Z"/>
      <path class="cls-11" d="M505.31,1084.01c-1.15,1.58-.87,2.13.84,1.64-.02,10.48.5,20.95,1.58,31.43,2.61,27.04,29.61,36.08,53.12,39.57,38.67,5.74,72.87,2.95,111.22-2.83l2.88,1.17h1.2c.15.33-.16.88,0,1.2l-10.82,4.22c-38.14,9.54-104.78,7.38-140.77-9.64-5.93-2.8-11.54-8.43-14.93-13.95-9.5-15.45-8.08-30.19-10-47.77-.21-1.93-1.37-5,.86-6.25,1.49.4,3.31.85,4.81,1.2Z"/>
      <path class="cls-106" d="M502.9,693c-3.69-.53-6.76-.51-10.83-1.2,1.2-.04,2.41.06,3.61,0l1.93-3.89c-1.18-14.84-.84-29.52,1.01-44.05,6.9-13.82,15.11-27.1,24.62-39.83,6.04-11.69,8.55-31.97,10.09-45.42,1.66-14.54,3.05-34.19.94-48.54-.38-2.58-2.58-3.38-4.91-2.34-.12-.76.1-1.64,0-2.41l-1.2-1.2c-.08-2.8.11-5.63,0-8.42l-1.2-3.61c-.18-3.99.16-8.04,0-12.03,7.55-5.01,10.31,9.77,11.08,15.81,4.33,33.71,1.3,88.01-13.67,118.66-19.73,22.97-20.17,48.35-19.39,76.5l-2.09,1.98Z"/>
      <path class="cls-55" d="M505.31,1084.01c1.59.37,3.5.93,4.81,1.2-3.62-.67-2.34,1.84-2.41,4.16-.14,4.75,1,8.07,1.19,12.1,1.01,20.98-1.63,28.1,16.83,42.12,17.47,13.28,64.17,14.83,86,15.06,18.32.19,35.32-5.7,53.02-7.26,3.19-.28,6.4,1.02,9,0,.28.68.83,1.64,1.2,2.41v1.2c-41.15,6.56-85.41,11.77-128.04-.1-15.72-4.37-27.42-7.98-36.09-22.86-6.82-11.7-6.3-31.26-6.8-44.94-.08-2.07-2.99-3.49,1.29-3.08Z"/>
      <path class="cls-103" d="M525.76,475.23c1.57,3.99,3.26.51,5.96,1.74.77.35,3.1,2.81,3.67,3.66,4.66,6.93,4.59,26.87,4.86,36.04,1,33.05-1.39,56.13-10.01,87.56-3.59,13.09-12.91,21.26-17.65,32.88-3.34,8.2-5.01,24.64-5,33.61,0,4.02,2.85,19.61.03,22.18-.22.2-4.56.25-4.73.08-.85-.81-.16-20.4-.05-23.51.21-5.98.79-16.71,1.8-22.26,2.19-12.06,15.16-25.47,20.49-37.26,12.28-27.19,14.89-74.63,12.7-103.99-.53-7.13-1.68-26.08-10.88-25.92-.02-.37-1.11-2.38-1.2-4.81Z"/>
      <path class="cls-48" d="M723.08,960.09c2.29,6.71,1.9,15.58,1.2,22.86,1,8.8,1.74,18.99,0,27.67,1.03,2.04.11,4.48-2.41,4.81-1.6.06-3.22-.02-4.82,0,.21-5.81-.25-11.69-.04-17.5.9-25.73,1.57-51.75,2.46-77.55,2.01,1.25,2.26,3.26,2.43,5.39.89,11.12-1.72,23.52,1.18,34.31Z"/>
      <path class="cls-97" d="M725.48,956.48c-.34,1.05-.74,1.04-1.2,0-.02-9.8.33-19.72.06-29.53-.1-3.48-3.29-8.32,1.15-10.18-.01,13.22.02,26.49,0,39.7Z"/>
      <path class="cls-47" d="M725.48,982.95c-.34,1.05-.74,1.04-1.2,0,0-7.9-1.18-15.4-1.2-22.86,0-.61,1.21-2.26,1.2-3.61h1.2c-.02,8.81.05,17.66,0,26.47Z"/>
      <path class="cls-114" d="M643.67,146.78l2.41,1.2c4.06,1.88,4.77,3.26,4.81,8.42-3.97-.87-6.56-6.63-9.62-9.62.71.18,1.79-.21,2.41,0Z"/>
      <path class="cls-62" d="M671.34,494.48c-.69-7.87-1.33-15.26-1.22-23.48.03-2.04-.77-5.35,1.22-6.6.33,9.99-.24,20.08,0,30.08Z"/>
      <path class="cls-32" d="M725.48,1010.62c-.34,1.05-.74,1.04-1.2,0,1.02-7.74,0-19.39,0-27.67h1.2c-.05,9.08.48,18.69,0,27.67Z"/>
      <path class="cls-114" d="M546.22,147.98l2.4.59-6.01,7.83c-.26-1.95.06-6.13,1.11-7.68.83-1.24,2.06-.51,2.5-.74Z"/>
      <rect class="cls-102" x="474.03" y="1046.72" width="1.2" height="19.25"/>
      <path class="cls-45" d="M529.37,365.75c-.86,1.31-2.14,4.64-2.41,6.02-1.07-3.74.97-7.88,1.2-10.83,1.81.84,1.16,3.23,1.2,4.81Z"/>
      <path class="cls-33" d="M665.33,393.42c-.02.55-2.07,2.99-1.22,4.81-4.23-1.45-.98-5.59.01-8.42.02.25,1.29,1.34,1.2,3.61Z"/>
      <path class="cls-82" d="M725.48,1010.62c-.08,1.6.09,3.22,0,4.82-1.2.06-2.41-.05-3.61,0,.42-1.47,2.24-3.53,2.41-4.81h1.2Z"/>
      <path class="cls-104" d="M668.94,424.7c-2.02-1.31-1.17-4.95-1.2-7.22,2.14,1.97,1.04,4.55,1.2,7.22Z"/>
      <path class="cls-96" d="M552.23,1177.86l-6.02-1.2c2.1.35,4.73,1.01,6.02,1.2Z"/>
      <path class="cls-33" d="M666.53,399.44l-1.2-4.81c1.91.86,1.03,3.28,1.2,4.81Z"/>
      <path class="cls-53" d="M807.29,999.79l-1.2,1.2c-.66-.5-1.71-.71-2.41-1.2-.61-.37-.59-.77,0-1.2.98.36,2.61.91,3.61,1.2Z"/>
      <path class="cls-90" d="M528.17,495.69c0-.19-1.08-.93-1.2-3.61l1.2,3.61Z"/>
      <path class="cls-54" d="M803.68,998.59v1.2c-.87-.62-2.41-.97-2.41-2.39,2.19-.68,2.15,1.1,2.41,1.19Z"/>
      <path class="cls-77" d="M646.08,147.98l-2.41-1.2c1.12.38,1.63.84,2.41,1.2Z"/>
      <path class="cls-90" d="M529.37,505.31h-1.2c0-.4.01-.8,0-1.2.55.16,1.13.66,1.2,1.2Z"/>
      <path class="cls-23" d="M672.54,1146.57h-1.2v-1.2c.44.31,1,.71,1.2,1.2Z"/>
      <path class="cls-61" d="M676.15,1155h-1.2v-1.2c.2.41,1,.77,1.2,1.2Z"/>
      <path class="cls-84" d="M708.64,693c-2.63-2.62-5.04-2.36-8.42-2.41,8.48-1.52,3.92-5.69,3.72-11.56-.55-16.12-8.82-38.1-14.43-53.17-7.65-20.55-19.81-35.29-26.65-56.13-5.59-17.01-8.23-31.55-8.41-49.44-.12-11.94-.94-21.02-1.63-32.89-1.17-20.13-2.17-40.2-3.72-60.32-1.71-3.46-17.57-5.67-21.69-5.98-26.34-2-61.13-.97-85.75,5.66-6.54,1.76-10.47.2-15.31,7.55-1.23-.32-.45-2.5-.6-3.6l4.47-5.76c9.99-.92,18.42-5.54,28.57-6.32,18.89-1.44,69.74-2.09,86.6,2.53,2.28.62,8.75,2.8,9.74,4.72.7,1.37-.85,25.95-.69,30.74.55,16.25,3.54,32.97,3.71,49.23.26,25.47-.97,34.26,6.83,59.34,7.5,24.11,21.92,41.98,30.47,65.78,7.15,19.92,12.73,38.28,14.33,59.22.13,1.71-1.16,2.64-1.15,2.79Z"/>
      <path class="cls-88" d="M619.61,898.73l-1.2,2.39c.73.18,1.97-.22,2.41.01,19.04,8.23,24.14,39.12,20.36,58.2-13.08,66.12-106.84,62.73-114.21-2.86-6.81-21.84,5.65-46.69,22.86-60.16,24.6,1.82,45.3,3.83,69.78,2.41Z"/>
      <path class="cls-100" d="M504.11,736.31c.12-3.93-.83-10.3,1.13-13.6.69-1.15,16.42-12.5,17.5-12.45,6.91,5.1,20.01,14.07,1.81,12.81-1.37,16.2.07,31.91.01,48.13l4.82-.59c-5.51,6.51-7.26,9.54-6.03,18.64-4.27.16-11.61-.31-7.19-5.39,1.3-1.49,5.48-2.05,4.77-5.44-37.11,10.6-44.95-42.69-23.92-63.04,2.54-2.46,7-5.84,10.69-5.54-.2,3.23-3.5,3.75-5.79,6.83-2.11,2.84-5.03,8.91-5.69,12.36-.59,3.13-1.61,17.37.66,18.1l2.48,1.25c1.13,13.59,2.71,13.17,4.74-1.25-3.44-3.13-3.51-7.74,0-10.83Z"/>
      <path class="cls-39" d="M650.89,840.98c4.91,1.88,11.08,2.77,13.93,8.45,1.01,2.02-4.85,7.56-.08,9.59.74.32,1.25-3.75,2.4-4.84,1.23-1.16,3.61-.9,4.01-1.36.45-.53-.06-9.28,4.39-8.23,1.35.32,2.68,5.92,4.19,7.84,2.29,2.93,5.9,3.23,7.32,5.03,3.89,4.92.93,11.86,10.07,16.07,14.95,6.89,7.86-7.73,10.88-12.14,5.83-8.51,8.28,15.52,1.85,18.7-8.95,4.42-16-3.27-21.67-4.23-1.35,3.34-2.35,3.09-4.81,1.2-2.16.96-5.05.94-7.22,0-1.18.94-3.6,1.11-4.81,0l-1.2-1.2c-4.17.86-2.95-1.87,0-3.61-.36-.82-.76-.81-1.2,0,0,2.52-.81,3.32-2.41,2.41l-1.2,1.2c.35,1.15-.05,1.55-1.2,1.2-.36,3.35-2.88,3.35-3.61,0-3.58-.91-1.86-1.42-3.75-2.87-1-.76-2.81-.49-3.58-1.51-1.34-1.78-2.07-9.55-3.63-12.93-2.09-4.52-12.59-12.03-3.47-11.57-2.42-6.79.39-5.61,4.81-7.21Z"/>
      <path class="cls-71" d="M646.08,736.31c-10.73,3.48-4.4,19.11-6.07,28.22-.38,2.06-4.2,8.19-6.4,7.79-9.85-1.77-3.52-30.56-6.23-37.86-.02-2.55,5.29-6.58,7.3-6.59,2.51,0,3.45,3.67,5.77,3.45,2.49-.23,7.08-4.85,10.58-4.05,1.14.26,7.21,4.41,7.7,5.42.43.89,1.77,16.05,1.85,18.61.15,5.2.04,19.98-7.89,19.97-1.86,0-6.6-7.15-6.6-7.89v-27.07Z"/>
      <path class="cls-100" d="M620.62,734.09c.85,1.36.73,30.65-.07,32.04-.42.72-10.84,7.38-12.36,7.39s-14.97-7.55-15.9-8.68c-3.49-4.23-.77-23.27-1.36-29.55,4.48-1.06,13.21-7.32,17.26-7.33.69,0,12.06,5.54,12.43,6.13Z"/>
      <path class="cls-116" d="M541.53,788.17c-.66.77.12,4.41-.13,5.89,18.58-2.88,16.19,9.51,0,7.21.31,1.9-.43,10.42,0,10.84.4.4,10.4.93,11.28.84,1.31-.13,7.86-5.02,7.94-1.46.02.94-4.97,9.45-6.82,10-2.59.78-20.32.73-21.47-.92-3.36-4.79-.44-15.78-.51-21.04-.06-4.87-2.12-11.44-3.14-16.28,5.08-7.09,10.06-6.53,18.13-6.03,2.07.13,12.66,1.46,12.62,3-2.57,1.53-4.25,6.91-6.84,7.66-2.3.66-9.41-1.62-11.06.29Z"/>
      <path class="cls-100" d="M689.22,729.26c.85,1.32.59,29.19-.08,31.47s-12.65,10.67-14.62,10.29c-.67-.13-9.57-8.23-9.89-9.33-.92-3.28-1.18-26.37-.28-29.36.59-1.94,8.09-6.52,10.08-6.84,2.18-.35,14.14,2.76,14.78,3.77Z"/>
      <path class="cls-116" d="M529.7,764.83c-1.43-1.89-.56-29.59.26-30.95.43-.7,10.04-5.65,11.04-5.73,1.11-.1,10.58,4.38,11.25,5.13,1.64,1.83,1.98,29.55.58,31.89-.38.62-10.19,6.76-10.83,6.8-.92.06-11.69-6.34-12.3-7.14Z"/>
      <path class="cls-116" d="M573.89,762.18c-1.06,8.39-9.09,15.08-11.78,5.76-.85-2.96-.67-31.5.37-34.01,4.02-9.62,10.02-.86,13.15-1.16,2.9-.29,5.3-4.86,6.08-4.86.73,0,10.97,9.06,6.32,11.11-4.13,1.82-9.67.56-14.14.9-.63,7.05.86,15.39,0,22.26Z"/>
      <path class="cls-93" d="M654.49,822.92c-2.54,3.66-11.67-1.07-12.43-.99-3.89.4-4.84,4.36-10.49-1.94-3.2-3.57-4.28-15.1-1.65-18.62.86-1.15,8.26-5.99,9.61-6.12,2.06-.2,9.36,3.32,10.82,4.76,3.45,3.38,1.02,11.41,1.79,16.25.29,1.81,3.46,5.06,2.35,6.66Z"/>
      <path class="cls-31" d="M572.71,803.67c2.69,1.83,6.25-6.64,7.91-7.01,2.58-.58,7.67,2.31,5.31,4.61-.42.41-8.43.35-9.45,5.6-.51,2.64,7.37,13.61,11.85,11.26-5.27,18.51-16.01-2.39-17.45-2.39l-7.22,8.38c-11.52-11.68,5.07-4.17,5.01-12.61,0-1.13-4.41-7.7-4.99-7.75-.63-.06-4.66,4.17-5.43.51-.77-3.63,4.67-10.27,8.83-8.88,2.35.79,5.22,8.01,5.64,8.29Z"/>
      <path class="cls-31" d="M606.37,794.06c3.41-1.09,12.14,2.32,9.64,7.22,3.96-3.95,4.4-7.19,9.65-1.84,6.86,6.99-4.48,6.73-9.66,5.45-.31,4.12.43,8.6,0,12.66-.74,6.95-8.84,12.62-9.63,1.78-2.24-4.18-2.5-6.96-2.21-12.28-3.34-1.6-3.26-3.98.23-7.14l1.98-5.84Z"/>
      <path class="cls-29" d="M605.17,819.33c-1.82,3.65-14.44,7.28-14.44,3.01v-19.85c0-.16-2.36-.26-3.04-1.13-2.29-2.76,2.2-2.91,2.77-3.92,1.84-3.23-2.22-8.44,7.49-6.98-.11,6.84-1.61,8.05,6.02,7.22,1.91,1.47-1.14,6.46-3.77,6.73l-.09,8.98c5.06-1.24,7.13,1.56,5.06,5.94Z"/>
      <path class="cls-68" d="M549.83,896.33c-2.05,5.78-8.17,9.08-11.82,14.04-9.55,12.98-12.74,30.26-11.04,46.11.19,1.98-.21,3.19-1.2,3.61-1.18-5.5-2.63-8.98-2.47-15.07.48-18.8,9.85-36.85,24.13-48.69.79.06,1.61-.06,2.41,0Z"/>
      <path class="cls-21" d="M688.19,875.87c-1.42,2,.42,4.28-.17,6.34-1.42,4.94-15.88,6.02-19.08,3.28-1.56-3.37-1.93-12.36,2.06-7.9,1.93-.1,3.65.13,5.16.68,3.31-.35,5.72-.75,7.22-1.2.05-1.08,3.84-1.37,4.81-1.2Z"/>
      <path class="cls-49" d="M650.89,840.98c-1.67-.64-3.73-3.57-7.22-2.42,2-1.11,3.21-7.21,3.61-7.21h18.05c1.04,5.06-1.82,3.07-5.28,4.93-3.97,2.14-4.71,3.08-9.16,4.7Z"/>
      <path class="cls-42" d="M606.37,794.06c1.53,3.78-2.78,7.55-2.47,10.16.08.66,2.23.53,2.46,1.47.82,3.39-.28,9.6.01,13.63h-1.2c1.91-6.46-5.96-2.36-7.23-3.6-.44-.44-.32-11.33-.05-12.44.34-1.41,3.53-1.34,4.89-2.62,1.2-1.12.86-2.53,1.17-3,.68-1,1.53-3.33,2.41-3.61Z"/>
      <path class="cls-43" d="M680.97,816.92c1.13.31,1.11.72,0,1.2-.09.42-1.39,1.16-1.26,2.9.23,3.07,4.16,14.08.65,15.14-2.18.66-2.99-.23-3.93-2.06-.38-.73-3.82-14.63-3.69-15.41.42-2.46,6.3-1.77,8.23-1.77Z"/>
      <path class="cls-41" d="M719.47,825.34c-.82-13.35-2.86-27.66-2.41-40.91.05-1.41-.92-5.05,1.19-4.81-.03,3.76,2.42,10.68,2.42,13.83v22.86c0,1.99,3.83,7.11-1.2,9.02Z"/>
      <path class="cls-21" d="M501.7,874.67c5.14.53,4.48,6.83-.37,8.76-2.89,1.15-8.6-.39-10.46-2.74-3.11-7.61,5.7-7.84,10.83-6.02Z"/>
      <path class="cls-49" d="M680.97,816.92c-.64-1.4-6.88-2.87-6.92-5.4-.05-3.2,5.91-5.42,8.67-5.45,1.04-.01,2.94,8.96,3.06,10.85-1.99.69-.68,7.14-4.81,6.01v-4.81c.04-.25.09-1,0-1.2Z"/>
      <path class="cls-50" d="M685.78,816.92c1.08-.38,3.42.23,4.82,0v18.06c-10.26,1.45-4.38-11.02-4.82-18.05Z"/>
      <path class="cls-38" d="M504.11,736.31c-.11,3.59.02,7.23,0,10.83-1.01,3.35-6.86,3.89-7.22,0-.21-3.98.15-8.04,0-12.03l7.21,1.2Z"/>
      <path class="cls-43" d="M689.38,840.97c-2.11,9.56,4.06,3.08,4.82,6.65.46,2.16-3.74,9.44-7.9,4.26s-.01-13.89,3.08-10.91Z"/>
      <path class="cls-81" d="M698.91,823.02c3.7,2.26-.87,16.7-4.11,16.74-4.06.05,2.52-14.19.61-16.83,1.06.16,2.84-.32,3.5.09Z"/>
      <path class="cls-37" d="M493.29,834.96c.08-4.11-.31-8.24.28-12.34.89-6.24,5.89-11,4.74-2.58-.2,1.44-1.74,18.67-5.02,14.92Z"/>
      <path class="cls-98" d="M664.12,877.08c4.75-3.41,6.42,1.8,2.41,4.81-4.3,10.79-12.17,5.42-6.02-4.81,1.01.26,2.56-.24,3.61,0Z"/>
      <path class="cls-65" d="M489.66,819.33c-1.83,5.13,3.99,17.6-2.39,18.04-.85-5.19-2.47-11.5-.32-16.55.73-1.72.31-1.82,2.71-1.49Z"/>
      <path class="cls-15" d="M714.65,754.36c2.9-.68,2.66,1.52,3.03,3.53.88,4.81.8,10.2.58,15.13-.13,2.96.86,3.93-2.41,1.79-.14-6.88-.86-13.59-1.2-20.45Z"/>
      <path class="cls-81" d="M511.33,873.47c-.06,3.09,3.64,6.46,3.61,9.09-.05,3.79-8.68,4.68-6.96-3.41.9-4.23,3.95-2.84-.26-5.68,1.18-.1,2.44.14,3.61,0Z"/>
      <path class="cls-66" d="M483.64,825.34c-.94,4.88.95,9.06,1.61,13.46.16,1.1,1.32,4.69-.99,4.56-2.82-.16-6.68-16.32-.61-18.02Z"/>
      <path class="cls-14" d="M507.72,700.22c.03,2.04.68,2.61-1.7,2.32-6.3-.78-11-2.01-17.54.08v-4.8s19.25,2.41,19.25,2.41Z"/>
      <path class="cls-113" d="M566.67,705.03c12.37-.32,24.98-.26,37.31.6-4.74,2.91-9.35.58-13.8.54-7.83-.07-15.7.26-23.51.06-1.05-.34-1.04-.74,0-1.2Z"/>
      <path class="cls-30" d="M702.62,838.58c1.62,1.67-.67,11.66-6,9.62-2.77-3.39,3.35-12.36,6-9.62Z"/>
      <path class="cls-56" d="M670.14,872.26c-.39,2.02-1.85,1.52,0,3.61l1.2,1.2c1.26.28,3.32-.05,4.81,0,1.05.34,1.04.74,0,1.2-2.4.12-4.83-.09-7.23,0v7.23c-1.02-.88-1.43-2.6-2.4-3.61.46-1.15.64-2.48,1.22-3.6-1.57.56-2.87-1.04-3.62-1.21.43-.37.8-.8,1.2-1.2l1.2-1.2c.72-.93,1.12-2.03,2.41-2.41.34-1.05.74-1.04,1.2,0Z"/>
      <polygon class="cls-34" points="606.37 705.03 627.39 702.57 630.44 705.03 606.37 705.03"/>
      <path class="cls-58" d="M496.89,847c-1.35-4.06-9.66-8.77-1.21-10.83-.98,5.81,3.45,5.43,4.82,7.22-3.01-.87-2.09,2.15-3.61,3.61Z"/>
      <path class="cls-91" d="M702.62,696.6l1.2,13.24c-4.4-1.67-4.13-7.52-3.59-11.46.22-1.63.8-3.75,2.4-1.78Z"/>
      <path class="cls-37" d="M703.82,851.82c1.02,3.1-4.61,8.12-6.65,4.85-3.51-5.63,2.21-5.32,6.65-4.85Z"/>
      <path class="cls-63" d="M486.06,849.4c.64-1.76,2.38-1.19,3.61,0,.58.02,1.67.98,2.41,1.2-.17.2-2.32,3.41-2.41,3.61h-1.2l-2.41-1.2c-2.29.97-2.63,2.1-4.81,0v-3.61c.02-.36.07-.86,0-1.2.94-1.02,2.54-.62,4.81,1.2Z"/>
      <path class="cls-98" d="M682.16,838.57c1.2,12.42-4.8,12.42-3.6,0h3.6Z"/>
      <path class="cls-3" d="M690.6,859.03c.62-.62,8-.33,7.21,2.98-1.11,4.63-10.34.16-7.21-2.98Z"/>
      <path class="cls-25" d="M715.86,731.5c.36,3.16,1.15,11.09-2.41,9.62-.09-2.23-.23-5.07,0-7.22.25-2.37,1.11-4.05,1.2-4.81,1.32-.33,1.73.48,1.2,2.41Z"/>
      <path class="cls-95" d="M501.7,873.47v1.2c-5.54-.57-12.22-1.35-10.83,6.02-1.36-1.73-1.54-2.61-1.2-4.81.18-.06.51-1.93,2.98-2.39,2.77-.52,6.17.26,9.05-.02Z"/>
      <path class="cls-64" d="M490.86,840.99c.4.31,1.45,5.93,1.2,7.21-5.82-1.07-4.74-9.89-1.2-7.21Z"/>
      <path class="cls-2" d="M519.75,701.42l10.82,2.39c-4.93.58-8.62-.13-13.23-1.19-.19-.67.61-1.07,2.41-1.2Z"/>
      <path class="cls-3" d="M483.65,847l2.41,1.2c1.05.34,1.04.74,0,1.2-1.65-.29-3.36-.1-4.81-1.2-.36-1.67-3.13-2.58-2.4-4.81,2.71-.65,3.37,2.05,4.81,3.6Z"/>
      <path class="cls-17" d="M489.67,849.4c-1.01-.03-.82.49-3.61,0v-1.2c-1.05-.27-1.02-.68,0-1.2.39-.63.79-.62,1.2,0,1.4.33,1.86,1.24,2.41,2.41Z"/>
      <path class="cls-17" d="M481.25,849.4c1.55,2.57,4.35,4,0,3.61-2.52-2.42-.07-2.33,0-3.61Z"/>
      <path class="cls-73" d="M712.25,721.87c-2.09-1.34-1.08-4.94-1.2-7.22,2.02,1.31,1.18,4.95,1.2,7.22Z"/>
      <path class="cls-59" d="M519.75,701.42l-2.41,1.2c-1.02-.23-2.46.17-3.6-.01v-1.18s6.01-.01,6.01-.01Z"/>
      <path class="cls-9" d="M566.67,705.03v1.2c-1.37-.04-6.03.51-6.03-.6,1.27-1.2,4.24-.55,6.03-.6Z"/>
      <path class="cls-44" d="M486.06,853.01c1.09-.46,2.73-3.38,2.41,1.2l-2.41-1.2Z"/>
      <path class="cls-70" d="M487.26,857.84l-2.39,2.39c-.34-2.51-.12-2.74,2.39-2.39Z"/>
      <path class="cls-63" d="M488.47,857.83c.18-.98,0-2.03,1.2-2.41-.28.84.13,2.04-1.2,2.41Z"/>
      <path class="cls-63" d="M486.06,847c-.16.15.1.81,0,1.2-1.21.11-1.67-.4-2.41-1.2.76-.12,1.75.18,2.41,0Z"/>
      <path class="cls-64" d="M487.26,847c-.29-.07-1.16-.05-1.2,0,.16-.04.25-.77.64-.99l.56.99Z"/>
      <path class="cls-45" d="M661.72,376.58c-6.79-3.09-7.28-5.94-16.25-7.21-27-3.82-79.35-5.16-105.26-.74-2.91.5-6.6,3.51-10.21,3.16-1.21-.07-.49-3.51-.62-4.83,4.15-1.6,8.73-3.69,13.17-4.29,14.06-1.87,29.51-.28,43.9.64,15.36.98,30.39,2.65,45.81,3.63,10.13.64,26.99-3.93,29.46,9.64Z"/>
      <path class="cls-26" d="M643.07,1145.37c.78.4.78.8,0,1.2v-1.2Z"/>
      <path class="cls-83" d="M828.95,1152.59c-1.82,1.24-2.51.69-1.2-1.2l-.86-4.56c13.04-33.23,12.52-68.47-2.92-99.87l1.37-2.65c-1.14-1.76-.69-2.35,1.2-1.2,17.57,32.11,18.75,71.7,5.18,105.67-.97,2.43-.95,2.23-2.78,3.82Z"/>
      <path class="cls-99" d="M762.78,1009.42l.59,2.74c-7.18,9.09-4.47,23.51-.4,33.54,6.45,15.86,13.88,31.36,22.03,46.42l-.56,3.94c.81,1.99.73,2.32-1.2,1.2-9.56-16.94-30.31-54.29-28.85-72.77.59-7.47,1.58-11.55,7.2-16.26,1.71-1.28,2.34-.72,1.2,1.2Z"/>
      <path class="cls-60" d="M713.45,1033.48l1.81,1.9c.78,19.96,7.01,38.93,18.71,56.92l-1.27,2.54c.94,1.89.7,2.34-1.2,1.2-7.66-12.01-15.67-27.76-19.18-41.57-1.84-7.24-3.97-15.31-.07-22.19,1.69-1.59,2.31-.92,1.2,1.2Z"/>
      <path class="cls-5" d="M779.62,1111.68c1.08,1.8.69,2.35-1.2,1.2-9.73-9.34-17.24-24.2-20.45-37.3-.84-1.97-.72-2.32,1.2-1.2,7.28,12.26,13.45,25.05,20.45,37.3Z"/>
      <path class="cls-4" d="M822.93,1038.29c1.5,1.68.85,2.32-1.2,1.2l-3.16-.37c-5.68-7.94-12.18-15.37-19.6-21.73l-.1-3.17c-1.59-1.69-.92-2.31,1.2-1.2,10.65,7.93,15.66,14.23,22.86,25.27Z"/>
      <path class="cls-35" d="M802.48,1124.92c1.08,1.8.69,2.35-1.2,1.2-6.23-9.53-12.44-18.94-18.05-28.87l1.2-1.2c8.03,6.45,16.04,18.84,18.05,28.87Z"/>
      <path class="cls-109" d="M737.51,1040.7l1.2,1.2c5.91,7.79,9.46,14.87,14.44,22.86l1.2,1.2c.18.29-.18.91,0,1.2.81,1.07.17,1.51-1.2,1.2-2.42.34-2.91-.68-1.2-2.41l-1.2-1.2c-1.07-.34-1.05-.74,0-1.2l-1.2-1.2c-6.5-3.34-13.38-13.17-13.23-20.45l-1.2-1.2c-1.11-.35-1.1-.76,0-1.2-.9-1.24-.23-1.82,1.2-1.2.51.6.7,1.77,1.2,2.41Z"/>
      <path class="cls-1" d="M761.58,1126.12c2.1,1.88,3.21,3.69,0,2.41-6.88-5.68-12.04-10.18-18.05-16.84-1.55-1.9-2.97-3.87,0-2.41l2.96-.32,15.27,14.15-.17,3.01Z"/>
      <path class="cls-18" d="M783.23,1116.5c.17.3-.17.9,0,1.2l1.2,1.2c.17.3-.17.9,0,1.2l1.2,1.2c2.74,4.78,5.58,9.72,8.42,14.44l1.2,1.2c.46.77.75,1.64,1.2,2.41,1.36,3.54.56,3.54-2.41,0-6.93-4.69-11.25-12.13-12.03-20.45l-1.2-1.2c-1.07-.34-1.05-.74,0-1.2-1.37-3.53-.57-3.53,2.41,0Z"/>
      <path class="cls-76" d="M735.11,1037.09c.75,1,.08,1.37-1.2,1.2l-1.47.75c-4.82-3.57-9.95-6.63-15.37-9.18-1.69,1.59-2.31.92-1.2-1.2,8.5-4.03,14.2,2.82,19.25,8.42Z"/>
      <path class="cls-67" d="M778.42,1003.4l4.81,1.2c.74.14,1.73-.18,2.41,0l1.2,1.2c.64.22,1.84-.24,2.41,0l1.2,1.2c.33.16.89-.16,1.2,0,2.68,1.95,3.69,3.6,0,2.41-.33,1.03-.74,1.02-1.2,0l-1.2-1.2c-.39,1.04-.79,1.04-1.2,0l-1.2-1.2c-.2,3.18-1.29,2.94-2.41,0l-1.2-1.2c-1.09,3.3-11.56,3.07-13.23,0l-1.2,1.2c-.27,3.26-1.28,3.03-2.41,0-1.93.89-2.33.71-1.2-1.2.32-.14.82.12,1.2,0l1.2-1.2c1-.25,2.5.19,3.61,0l4.81-1.2c.8-.04,1.61.02,2.41,0Z"/>
      <path class="cls-40" d="M827.75,1151.39c.09-.01.81,1.11,1.2,1.2-7.28,6.36-10.56-.79-14.44-6.02-.56-1.64-.42-2.03,1.2-1.2,2.05-.8,4.05.4,6,3.61,3.12.05,5.13.85,6.03,2.41Z"/>
      <path class="cls-78" d="M785.64,1142.96l1.2,1.2c.34-1.03.74-1.02,1.2,0l1.2,1.2c1.77-2.87,3.51-2.14,3.61,1.2v1.2c-.12,1.09-.54,1.03-1.2,0-.35.57-.75.54-1.2,0-.41-.06-.85.09-1.2,0l-1.2-1.2c-.36-.14-.88.15-1.2,0l-1.2-1.2c-4.8-2.5-6.78-4.42-10.83-7.22-1.6-1.57-.94-1.77,1.2-1.2,4.61-1.12,8.55,1.42,9.62,6.02Z"/>
      <path class="cls-52" d="M772.4,1134.54l1.2,1.2c1.73-1.71,2.75-1.22,2.41,1.2l-1.2,1.2c-.27-.19-.94.19-1.2,0l-1.2-1.2c-3.71-2.69-7.3-5.5-10.83-8.42l1.17-.6-1.17-1.81c4.1-1.34,11.63,4.06,10.83,8.42Z"/>
      <path class="cls-107" d="M814.51,1142.96c.54,1.65.42,2.03-1.2,1.2-2.54-3.59-4.78-7.21-7.22-10.83-.55-1.65-.42-2.03,1.2-1.2,4.84.94,8.16,6.01,7.22,10.83Z"/>
      <path class="cls-105" d="M739.92,1104.47c1.12,1.77.69,2.35-1.2,1.2-2.53-3.25-4.98-6.11-7.22-9.62l1.2-1.2c3.61-.81,9.02,6.36,7.22,9.62Z"/>
      <path class="cls-19" d="M791.65,1148.98v-1.2c.39.04.8-.02,1.2,0,.3-.58.71-.54,1.2,0l4.81,1.2,1.2-1.2c-.34-1.14.06-1.54,1.2-1.2,2.49,6.9-4.72,4.63-9.62,2.41Z"/>
      <path class="cls-92" d="M796.47,1139.36c1.39,2.37,3.67,4.05,4.81,7.22-.45.33-.77.87-1.2,1.2h-1.2c-3.44-.75-6.62-4.94-4.81-8.42l1.81,1.17.6-1.17Z"/>
      <path class="cls-28" d="M800.08,1013.03l-1.2,1.2c-3.22,1.78-7.63-1.15-7.22-4.81l1.17-.6-1.17-1.81c3.04,1.62,5.68,3.97,8.42,6.02Z"/>
      <path class="cls-109" d="M759.17,1074.39l-1.2,1.2c-3.87-.57-4.91-2.33-3.61-6.02-.81-1.07-.17-1.51,1.2-1.2,1.22,2,2.41,4,3.61,6.02Z"/>
      <path class="cls-16" d="M826.54,1043.11l-1.2,1.2c-3.09,1.88-5.86-2.2-3.61-4.81l1.2-1.2c.95,1.46,2.25,2.33,3.61,4.81Z"/>
      <path class="cls-89" d="M743.53,1109.28l-1.17.6,1.17,1.81c-2.01-2.23-3.07-3.78-4.81-6.02l1.2-1.2c3.36-1.62,5.07,1.67,3.61,4.81Z"/>
      <path class="cls-94" d="M806.09,1129.73c.55,1.65.42,2.03-1.2,1.2-.92-1.38-2.33-2.86-3.61-4.81l1.2-1.2c3.14-1.46,5.9,2.14,3.61,4.81Z"/>
      <path class="cls-101" d="M717.06,1029.87c1.7,2.97-.64,5.32-3.61,3.61l-1.2-1.2c.97-1.71,1.78-2.74,3.61-3.61l1.2,1.2Z"/>
      <path class="cls-10" d="M783.23,1116.5l-1.81-1.17-.6,1.17c-3.43.53-3.94-.51-2.41-3.61l1.2-1.2c.82,1.43,2.56,2.96,3.61,4.81Z"/>
      <path class="cls-112" d="M766.39,1007.01c1.39,3.2-.92,4.49-3.61,2.41l-1.2-1.2c1.34-1.12,1.92-1.66,3.61-2.41l1.2,1.2Z"/>
      <path class="cls-20" d="M815.72,1145.37l-1.2,1.2c-.5-.67-.71-1.71-1.2-2.41l1.2-1.2c3.22-.42,3.53.16,1.2,2.41Z"/>
      <path class="cls-24" d="M807.29,1132.14l-1.2,1.2c-.49-.73-.71-1.67-1.2-2.41l1.2-1.2c3.14-.94,3.42.08,1.2,2.41Z"/>
      <path class="cls-112" d="M776.01,1003.4c-.25.01-3.28.94-4.81,1.2l4.81-1.2Z"/>
      <path class="cls-28" d="M783.23,1004.61l-4.81-1.2c3.04-.06,3.75,1,4.81,1.2Z"/>
      <path class="cls-112" d="M766.39,1005.81c.08-.03.25-.97,1.2-1.2l-1.2,1.2Z"/>
      <path class="cls-7" d="M738.72,1041.9l-1.2-1.2c.33.42.86.75,1.2,1.2Z"/>
      <path class="cls-10" d="M784.43,1118.9l-1.2-1.2c.13.22.83.55,1.2,1.2Z"/>
      <path class="cls-10" d="M785.64,1121.31l-1.2-1.2c.22.38.92.71,1.2,1.2Z"/>
      <path class="cls-80" d="M754.36,1065.97l-1.2-1.2c.21.33.87.66,1.2,1.2Z"/>
      <path class="cls-92" d="M795.26,1136.95l-1.2-1.2c.21.36.89.68,1.2,1.2Z"/>
      <path class="cls-78" d="M773.61,1138.15c-.54-.38-.85-.95-1.2-1.2l1.2,1.2Z"/>
      <path class="cls-28" d="M786.84,1005.81l-1.2-1.2c.92.24,1.12,1.18,1.2,1.2Z"/>
      <path class="cls-69" d="M786.84,1146.57c-.68-.31-.98-1.09-1.2-1.2l1.2,1.2Z"/>
      <path class="cls-7" d="M736.31,1038.29c-.61.14-1.15.57-1.2,1.2-1.05.53-1.42.08-1.2-1.2l1.2-1.2c.38.42.84.77,1.2,1.2Z"/>
      <path class="cls-69" d="M789.25,1147.78c-.83-.21-1.11-1.17-1.2-1.2l1.2,1.2Z"/>
      <path class="cls-69" d="M791.65,1148.98c-.46-.21-.84-.81-1.2-1.2.39.06.81-.04,1.2,0v1.2Z"/>
      <path class="cls-28" d="M790.45,1007.01l-1.2-1.2c.89.37,1.13,1.17,1.2,1.2Z"/>
      <path class="cls-80" d="M755.56,1068.37l-1.2,1.2c-1.77,1.51-2.44.84-1.2-1.2l1.2-1.2c.26.42.93.75,1.2,1.2Z"/>
      <path class="cls-73" d="M715.86,731.5c-.04-.36-1.3-1.51-1.2-2.41,1.01-7.98,0-10.62,0-17.45v-33.69c0-7.94-12.35-41.99-16-51.38-8.85-22.76-21.19-39.92-28.45-64.19-1.72-5.74-6.05-18.37-7.02-23.06-2.93-14.22,2.41-34.15-1.53-49-2.86-19.69,3.77-46.45,1.33-65.09-.44-3.34-1.96-4.13-3.68-6.55,3.75,1.22,5.51.57,6.08,5.35,2.3,19.11-2.7,41.77-2.53,61.48.11,13.78.46,38.55,2.54,51.61.64,4.01,5.41,17.65,6.96,23.12,8.24,28.96,22.98,51.06,33.02,78.87,9.24,25.61,9.12,34.92,10.5,61.69.52,10.13,5.61,20.42-.02,30.7Z"/>
      <path class="cls-90" d="M529.37,507.72l3-6.01c2.14,1.8,2.73,3.91,3.04,6.59,2.76,23.68-.75,60.9-6.32,83.96s-28.2,39.62-29.84,60.4c-.99,12.58.82,26.43.05,39.15-1.2.06-2.41-.06-3.61,0,.82-4.35-1.17-8.49-1.25-12.57-.04-2.17,1.32-4.54,1.3-7.22-.11-12.85-2.9-25.81,4.26-37.85,5.67-9.53,23.04-29.03,25.81-37.96,1.56-5.04.5-8.66,1.45-12.99,3.56-16.34,6.47-30.03,6.69-47.21.1-7.86-2.05-17.53-.97-25.86l-3.59,1.2c-.15-1.17.17-2.49-.01-3.61Z"/>
      <path class="cls-22" d="M525.76,960.09l1.2-3.61c6.24,58.03,91.64,68.59,111.02,10.56,6.23-18.66,2.02-55.85-17.18-65.91,2.42-3.47,6.94,2.54,8.45,4.18,25.03,27.3,16.9,76.04-14.56,94.98-37.11,22.34-80.13.81-88.94-40.21Z"/>
      <path class="cls-6" d="M517.33,848.19c-.42.82-2.04-.7-1.18-2.39.42-.82,2.04.7,1.18,2.39Z"/>
      <path class="cls-12" d="M619.61,939.65l-2.39,2.39c-.34-2.51-.12-2.74,2.39-2.39Z"/>
      <path class="cls-111" d="M533.58,938.43c.78.4.78.8,0,1.2v-1.2Z"/>
      <path class="cls-13" d="M534.79,936.03c.78.4.78.8,0,1.2v-1.2Z"/>
      <path class="cls-46" d="M586.52,916.78c.78.4.78.8,0,1.2v-1.2Z"/>
      <path class="cls-42" d="M520.96,771.21c-5.19.73-9.63-1-14.44-2.43-.98-1.27,10.32-11.78,10.85-15.09.5-3.08-1.21-6.3-1.28-9.51-.16-7.43.21-14.9.06-22.31,2.91-.2,5.74-.38,6.06,3.05l-1.25,46.29Z"/>
      <path class="cls-75" d="M504.11,747.14c-.03,6,.03,12.04-.01,18.05-6.16-4.03-6.84-11.31-7.21-18.05,1.65.54,5.19-.37,7.22,0Z"/>
      <path class="cls-51" d="M683.37,877.08c0,.08,1.41-.18,1.2,1.19-2.79.12-5.63-.13-8.42.01v-1.2c2.4.09,4.82-.06,7.22,0Z"/>
      <path class="cls-27" d="M668.94,872.26c.2-2.66-1.3-5.64,2.4-4.8,0,1.69-.89,3.19-1.2,4.8h-1.2Z"/>
      <path class="cls-86" d="M655.69,847c1.31,1.31-1.08,3.71-2.39,2.39s1.08-3.71,2.39-2.39Z"/>
      <path class="cls-21" d="M671.34,877.08c-.73-.16-.87-.83-1.2-1.2l1.2,1.2Z"/>
      <path class="cls-98" d="M665.33,875.87c.4-.4.79-.81,1.2-1.2-.35.45-.77.84-1.2,1.2Z"/>
      <path class="cls-85" d="M602.76,736.31c3.81-.35,7.65-.11,8.45,4.29-1.5,3.57.46,31.65-7.93,21.06-4.69-5.92,1.1-17.95-.52-25.35Z"/>
      <path class="cls-75" d="M672.54,756.76v-22.26c0-1.56,5.05-3.01,6.68-.66-1.12,7.9,8.09,31.84-6.68,22.92Z"/>
      <path class="cls-75" d="M545.01,762.78c-1.67.68-7.22-1.88-7.22-3.01v-23.46c1.72-.32,7.22-.03,7.22,1.8v24.66Z"/>
      <path class="cls-110" d="M642.47,802.49c-2.55,2.57.86,15.24-4.19,14.42l-.44-12.44,4.63-1.98Z"/>
      <path class="cls-79" d="M502.9,877.09v1.18c-5,.6-5-1.78,0-1.18Z"/>
      <path class="cls-87" d="M783.23,1005.81l1.2,1.2c.74.16,1.8-.2,2.41,0l1.2,1.2c.35.15.88-.15,1.2,0l1.2,1.2c.32.17.9-.17,1.2,0,2.05,1.15,5.34,3.35,7.22,4.81,7.82,6.07,17.37,17,22.86,25.27.91,1.37,3.39,4.39,3.61,4.81,3.02,5.73,8.47,21.16,10.21,27.68,6.96,26.06,1.74,54.68-7.81,79.39-7.23,1.1-7.2.51-12.03-6.02-.5-.68-.71-1.71-1.2-2.41-2.43-3.48-4.83-7.27-7.22-10.83-.49-.73-.72-1.67-1.2-2.41-1.14-1.73-2.61-3.28-3.61-4.81-6.02-9.24-12.66-19.31-18.05-28.87-8.12-14.41-18.21-35.54-24.28-50.92-3.92-9.92-6.52-28.1,2.62-35.71.32-.27,3.41-2.32,3.61-2.41.55-.22,1.7.18,2.41,0l1.2-1.2c2.96-.39,10.32-.42,13.23,0Z"/>
      <path class="cls-87" d="M733.9,1038.29c.37.43.79.82,1.2,1.2-.03.37-.09.97,0,1.2l1.2,1.2c4.04,6.94,9.01,13.57,13.23,20.45l1.2,1.2c.18.29-.18.91,0,1.2l1.2,1.2c.46.76.75,1.64,1.2,2.41.27.45.95.78,1.2,1.2,1.19,2.01,2.44,4.03,3.61,6.02,7.14,12.18,13.42,25.03,20.45,37.3.8,1.39,1.78,2.53,2.41,3.61.17.3-.17.9,0,1.2l1.2,1.2c3.96,6.86,7.9,13.7,12.03,20.45,1.69,2.76,4.2,5.15,4.81,8.42-.94.93-2.54.93-4.81,0l-1.2-1.2c-1.05-.46-2.33-.55-3.61-1.2l-1.2-1.2c-.31-.17-.9.17-1.2,0l-1.2-1.2c-3.3-1.93-6.4-3.99-9.62-6.02-.75-.47-1.66-.72-2.41-1.2l-1.2-1.2c-3.36-3.14-7.35-5.47-10.83-8.42-5.34-4.54-13.55-11.74-18.05-16.84-1.14-1.29-2.39-3.27-3.61-4.81-1.9-2.4-5.78-7.31-7.22-9.62-3.19-5.13-7.97-14.59-10.48-20.2-4.02-9-13.16-32.38-8.77-41.16.11-.23,3.37-3.52,3.61-3.61,5.73-2.25,13.38,4.45,16.84,8.42Z"/>
      <path class="cls-80" d="M750.75,1063.56c-.23-.38-.9-.71-1.2-1.2l1.2,1.2Z"/>
      <path class="cls-80" d="M751.95,1065.97c-.14-.24-.82-.57-1.2-1.2l1.2,1.2Z"/>
      <path class="cls-7" d="M736.31,1041.9c-.05-.09-.78-.14-1.2-1.2l1.2,1.2Z"/>
      <path class="cls-10" d="M782.03,1118.9c-.19-.32-.89-.66-1.2-1.2l1.2,1.2Z"/>
      <path class="cls-28" d="M790.45,1009.42l-1.2-1.2c.67.32.98,1.09,1.2,1.2Z"/>
      <path class="cls-112" d="M768.79,1007.01l1.2-1.2c-.31.04-.81,1.1-1.2,1.2Z"/>
      <path class="cls-28" d="M784.43,1007.01c-.55-.12-1.03-.65-1.2-1.2.57.08,1.07.63,1.2,1.2Z"/>
      <path class="cls-28" d="M788.04,1008.22l-1.2-1.2c.9.3,1.12,1.17,1.2,1.2Z"/>
      <path class="cls-69" d="M786.84,1144.17l-1.2-1.2c.53.31.87,1.02,1.2,1.2Z"/>
      <path class="cls-69" d="M789.25,1145.37l-1.2-1.2c.66.36,1.01,1.1,1.2,1.2Z"/>
      <path class="cls-69" d="M794.06,1147.78c-.4,0-.8.02-1.2,0v-1.2c.46.2.84,1.07,1.2,1.2Z"/>
      <path class="cls-78" d="M773.61,1135.75c-.47-.31-.83-.79-1.2-1.2.41.39.83.78,1.2,1.2Z"/>
      <path class="cls-78" d="M798.87,1147.78c.5.37.49.78,0,1.2-2.8.57-3.18-.59-4.81-1.2h4.81Z"/>
      <path class="cls-72" d="M798.87,1148.98v-1.2h1.2c-.37.28-.67,1.1-1.2,1.2Z"/>
    </g>
  </g>
</svg>