<?xml version="1.0" encoding="UTF-8"?>
<svg id="_レイヤー_2" data-name="レイヤー 2" xmlns="http://www.w3.org/2000/svg" viewBox="0 0 1278.43 1278.43">
  <defs>
    <style>
      .cls-1 {
        fill: #929975;
      }

      .cls-2 {
        fill: #a0adc9;
      }

      .cls-3 {
        fill: #7695cb;
      }

      .cls-4 {
        fill: #f1e270;
      }

      .cls-5 {
        fill: #f3d429;
      }

      .cls-6 {
        fill: #4e63a2;
      }

      .cls-7 {
        fill: #77799e;
      }

      .cls-8 {
        fill: #7895c8;
      }

      .cls-9 {
        fill: #a38763;
      }

      .cls-10 {
        fill: #f9eaa6;
      }

      .cls-11 {
        fill: #f5a518;
      }

      .cls-12 {
        fill: #2656a4;
      }

      .cls-13 {
        fill: #faca7e;
      }

      .cls-14 {
        fill: #9faac4;
      }

      .cls-15 {
        fill: #f5a51a;
      }

      .cls-16 {
        fill: #3b4969;
      }

      .cls-17 {
        fill: #eee070;
      }

      .cls-18 {
        fill: #2f5ca9;
      }

      .cls-19 {
        fill: #7796cb;
      }

      .cls-20 {
        fill: #f3d528;
      }

      .cls-21 {
        fill: #e19a29;
      }

      .cls-22 {
        fill: #ac8d6b;
      }

      .cls-23 {
        fill: #345fab;
      }

      .cls-24 {
        fill: #2155a5;
      }

      .cls-25 {
        fill: #9dadb8;
      }

      .cls-26 {
        fill: #eddf77;
      }

      .cls-27 {
        fill: #f2d429;
      }

      .cls-28 {
        fill: #234580;
      }

      .cls-29 {
        fill: #f1d42a;
      }

      .cls-30 {
        fill: #918f84;
      }

      .cls-31 {
        fill: #2256a5;
      }

      .cls-32 {
        fill: #fae2c0;
      }

      .cls-33 {
        fill: #83886c;
      }

      .cls-34 {
        fill: #5062a2;
      }

      .cls-35 {
        fill: #efd230;
      }

      .cls-36 {
        fill: #2457a6;
      }

      .cls-37 {
        fill: #d6983f;
      }

      .cls-38 {
        fill: #605fa5;
      }

      .cls-39 {
        fill: #7998cc;
      }

      .cls-40 {
        fill: #c09862;
      }

      .cls-41 {
        fill: #f8b84c;
      }

      .cls-42 {
        fill: #e19d2d;
      }

      .cls-43 {
        fill: #a3908c;
      }

      .cls-44 {
        fill: #2055a5;
      }

      .cls-45 {
        fill: #f9be60;
      }

      .cls-46 {
        fill: #2b59a8;
      }

      .cls-47 {
        fill: #877e8d;
      }

      .cls-48 {
        fill: #babecd;
      }

      .cls-49 {
        fill: #6a6e8a;
      }

      .cls-50 {
        fill: #78759c;
      }

      .cls-51 {
        fill: #d8d18a;
      }

      .cls-52 {
        fill: #fac674;
      }

      .cls-53 {
        fill: #f9e1c0;
      }

      .cls-54 {
        fill: #6e7399;
      }

      .cls-55 {
        fill: #f7c667;
      }

      .cls-56 {
        fill: #9286a3;
      }

      .cls-57 {
        fill: #6b709e;
      }

      .cls-58 {
        fill: #adb1c3;
      }

      .cls-59 {
        fill: #fceed8;
      }

      .cls-60 {
        fill: #f2d29c;
      }

      .cls-61 {
        fill: #2657a7;
      }

      .cls-62 {
        fill: #c78a37;
      }

      .cls-63 {
        fill: #819dcf;
      }

      .cls-64 {
        fill: #acb8d3;
      }

      .cls-65 {
        fill: #857c97;
      }

      .cls-66 {
        fill: #cb9348;
      }

      .cls-67 {
        fill: #8e93ad;
      }

      .cls-68 {
        fill: #7595cb;
      }

      .cls-69 {
        fill: #6a75a3;
      }

      .cls-70 {
        fill: #d1b267;
      }

      .cls-71 {
        fill: #b78a5a;
      }

      .cls-72 {
        fill: #fff;
      }

      .cls-73 {
        fill: #b8b9c3;
      }

      .cls-74 {
        fill: #857b7c;
      }

      .cls-75 {
        fill: #7695ca;
      }

      .cls-76 {
        fill: #e59c21;
      }

      .cls-77 {
        fill: #5967a1;
      }

      .cls-78 {
        fill: #495085;
      }

      .cls-79 {
        fill: #ddc737;
      }

      .cls-80 {
        fill: #56679b;
      }

      .cls-81 {
        fill: #ba8c56;
      }

      .cls-82 {
        fill: #f9d48d;
      }

      .cls-83 {
        fill: #2156a6;
      }

      .cls-84 {
        fill: #6f7f8c;
      }

      .cls-85 {
        fill: #ad8566;
      }

      .cls-86 {
        fill: #646695;
      }

      .cls-87 {
        fill: #f5e46e;
      }

      .cls-88 {
        fill: #eed239;
      }

      .cls-89 {
        fill: #2a58a5;
      }

      .cls-90 {
        fill: #e9eaeb;
      }

      .cls-91 {
        fill: #305aa4;
      }

      .cls-92 {
        fill: #f9e2c0;
      }

      .cls-93 {
        fill: #f7e0bf;
      }

      .cls-94 {
        fill: #040000;
      }

      .cls-95 {
        fill: #7795c7;
      }

      .cls-96 {
        fill: #e69c1f;
      }

      .cls-97 {
        fill: #948987;
      }

      .cls-98 {
        fill: #7796cc;
      }

      .cls-99 {
        fill: #ac977c;
      }

      .cls-100 {
        fill: #2256a6;
      }

      .cls-101 {
        fill: #f8b953;
      }

      .cls-102 {
        fill: #9085a7;
      }

      .cls-103 {
        fill: #ea9e23;
      }

      .cls-104 {
        fill: #f3e370;
      }

      .cls-105 {
        fill: #9c987a;
      }

      .cls-106 {
        fill: #2155a6;
      }

      .cls-107 {
        fill: #c7b84f;
      }

      .cls-108 {
        fill: #c0863e;
      }

      .cls-109 {
        fill: #8b7d7d;
      }

      .cls-110 {
        fill: #e19920;
      }

      .cls-111 {
        fill: #2557a5;
      }

      .cls-112 {
        fill: #c9cacd;
      }

      .cls-113 {
        fill: #5f7299;
      }

      .cls-114 {
        fill: #c5b74d;
      }

      .cls-115 {
        fill: #d58e20;
      }

      .cls-116 {
        fill: #b5bac8;
      }

      .cls-117 {
        fill: #fbeed9;
      }

      .cls-118 {
        fill: #beb15b;
      }

      .cls-119 {
        fill: #f2d42a;
      }

      .cls-120 {
        fill: #79759b;
      }

      .cls-121 {
        fill: #fbcd87;
      }

      .cls-122 {
        fill: #af906e;
      }

      .cls-123 {
        fill: #f9c771;
      }

      .cls-124 {
        fill: #305ba4;
      }

      .cls-125 {
        fill: #afa9a9;
      }

      .cls-126 {
        fill: #d5c141;
      }

      .cls-127 {
        fill: #f0dbbf;
      }

      .cls-128 {
        fill: #315ca9;
      }

      .cls-129 {
        fill: #e0e0e0;
      }

      .cls-130 {
        fill: #57689e;
      }

      .cls-131 {
        fill: #f0d32d;
      }

      .cls-132 {
        fill: #f4d625;
      }

      .cls-133 {
        fill: #f5a519;
      }

      .cls-134 {
        fill: #f1d32c;
      }

      .cls-135 {
        fill: #616ca7;
      }

      .cls-136 {
        fill: #1f4076;
      }

      .cls-137 {
        fill: #ea9e1c;
      }

      .cls-138 {
        fill: #fceed9;
      }
    </style>
  </defs>
  <g id="_レイヤー_1-2" data-name="レイヤー 1">
    <g>
      <rect class="cls-72" width="1278.43" height="1278.43"/>
      <path class="cls-94" d="M716.9,176.23c7.77-.1,26.45.5,32.09,5.84,4.66,4.42,2.3,9.52,3.68,15.03,2.49,9.95,35.14,40.41,44.3,49.24,9.7,9.35,33.86,26.92,38.03,38.05l181.28,722.5c-9.61,15.47-23.18,26.22-33.49,41.38-5.84,8.58-14.55,27.81-23.65,32.47-10.58,5.42-25.88,6.6-37.7,9.7-71.96,18.9-143.83,40.06-216.74,55.16-25.73,5.33-76.25,13.52-100.25,4.19-8.34-3.24-16.43-10.1-24.46-14.21-9.2-4.71-27.08-10.6-34.13-15.76-2.19-1.6-3.63-2.96-4.23-5.74l-177.15-704.72c2.38-31.36,16.56-68.63,6.3-99.78-3.7-11.22-11.88-19.01-2.79-32.03,39.79-20.52,82.32-37.02,124.94-50.92,63.94-20.86,157.56-49.55,223.98-50.41Z"/>
      <path class="cls-44" d="M649.81,308.07c3.41-1.3,4.65-.88,3.74,1.25l4.26,2.36c6.89,10.18,13.52,20.64,18.39,31.98l24.57,98.53c.11,2.45-1.91,3.9-6.05,4.33-1.84,2.15-4.86,3.65-9.06,4.5l8.19,15.02c.87,2.49,1.66,6.03-.23,8.14-15.93,3.35-31.76,7.18-47.49,11.48-27.9,9.35-.37,9.85,10.66,5.43l29.85-7.56c12.18-4.98,15.77,7.6,10.31,15.48l-41.47,9.76c-2.57,3.17-.17,8.21,4.12,7.68l32.84-8.13c13.31-4.2,11.11,18.87-.56,19.92-16.79,3.76-33.5,7.86-50.13,12.32-9.1,2.9-4.3,10.82,4.16,8.05,15.12-3.04,30.11-6.66,44.96-10.85,1.66-.62,5.06.08,5.56,1.43,4.52,12.27-13.38,57.96-21.31,70.3-21.37,28.38-.09,9.71,8.12-3.65,7.64-11.97,14.99-24.04,22.03-36.23,6.25,3.33,11.61,8.49,16.1,15.47,4.43,3.08,7.03,6.47,7.82,10.16-.07,10.55-47.91,50.44-57.84,58.33,23.58-6.75,48.26-20.15,64.43-39.47l3.84-.46c.94-.26,2.44-.42,2.63.17,9.94,30.64,17.25,63.09,23.56,94.62,3.64.21,4.08,2.74,1.25,4.99,1.55,1.91,3.11,3.95,3.79,6.35,3.41,11.98,15.91,56.29,14.65,64.72-.19,1.27-.56,2.52-.98,3.76-.39,1.08-.83,2.13-1.41,3.09-3.68,6.05-24.7,16.8-32.41,20.7-66.76,33.78-143.16,34.67-207.81-.57,7.18,15.46,61.74,29.68,78.99,32.57l1.75,2.83-.48,1.65c-4.44.75-8.84.26-13.24-.4l-3.36,2.42c-15.99-.86-31.33-4.13-46.02-9.82-4.02-.72,2.42,3.87,4.26,4.82,70.72,36.49,163.94,11.66,221.88-37.83l2.85.49c.35-1.09.77-1.07,1.25,0l2.63.24,58.7,236.23c3.1,4.22,3.86,7.72,2.27,10.48-62.76,17.13-130.32,32.6-194.32,44.53-31.52,5.88-64.78,10.76-96.87,11.65-3.81.1-16.16.6-18.63-1.17-27.58-112.8-57.59-225.12-84.32-338.14-.22-1.44-.2-1.84,1.25-1.25,3-1.92,9.05-1.19,8.93,3.39-.79,14.35-.44,33.85,13.52,41.51l2.84.71c2.66,7.96,6.21,15.22,10.63,21.79-7.63-14.15-13.39-28.14-15.88-44.46-.08-.51.45-1.11,1.16-1.73-.54-1.82-.52-2.16,1.25-1.25,3.72-.73,8.42,5.42,6.24,8.73,2.8,1.61,4.8.56,3.74-2.49l-2.69-.97c1.15-10.68-2.66-18.62-8.45-27.3l1.16-2.92c-1.61-1.75-.92-2.4,1.25-1.25l3.7.69c9.23,14.07,19.49,27.2,30.76,39.39l-33.82-44.26.61-3.3c-3.43-1.44-3.44-9.79,0-11.23h1.25l1.56-.75c10.36,11.63,21.32,22.87,32.87,33.74-19.36-18.36-37.84-40.38-52.91-62.81l1.02-2.6c-3.64-2.7-.2-8.07,3.74-6.24.08-3.42.91-4.67,2.49-3.74l2.76-.4c-2.49-2.63-23.91-35.94-22.61-37.72.63-.87,1.25-1.58,2.39-1.79-2.76-2.08-.5-4.75,2.49-4.99-1.22-1.78-.72-2.33,1.25-1.25l2.89-.19c4.93,7.02,10,13.83,15.39,20.49.27.33-3.94-6.65-4.59-7.14-9.09-11.52-17.66-23.61-24.18-37.05-.58-1.2-.26-2.44.5-3.54-22.59-31.53-34.76-67.3-34.72-106.52l2.29-4.48c-4.3-8.64-3.42-17.69,0-26.19-.61-1.09-1.17-2.2-1.56-3.36-3.19-9.44,3.63-42.55,6.57-53.91,20.93-81.03,88.51-113.74,165.62-127.56,11.17-2,48.25-6.78,56.44-1.72.88.54,1.66,1.23,2.42,1.96Z"/>
      <path class="cls-44" d="M689.73,204.55c20.06-2.85,40.69-6.76,60.92-3.54,20.87,32.45,54.88,53.9,80.08,82.68l179.45,715.24c-13.48,6.75-27.1,13.1-41.07,18.83l-2.4-1.38c-22.06-96.06-46.02-192.56-71.9-289.49-4.94-16.28-8.03-32.82-9.26-49.63-1.08-.42-1.08-.83,0-1.25l-.64-1.8c3.53-6.84,7.66-13.62,12.38-20.34,5.38-20.12-8.67-3.97-13.97,3.43h-2.75s-2.63-.13-2.63-.13c-4.89-14.21-8.17-28.72-9.84-43.52-2.41-1.14-2.41-2.6,0-3.74l-6.58-33.12c-.51-3.15-.96-6.27.34-9.29-2.99-1.08-3.66-3.98-2.02-8.7,3.61-13.56,9.36-44.69,3.61-57.06-10.03-21.6-11.06,34.51-9.21,38.05l-2.36,2.77c-3.78,3.09-7.4-5.19-3.74-7.48l-6.71-17.23,1.72-3.97c-3.26-1.35-3.24-2.38,0-3.74l-1.26-8.42c12.04-4.41,13.78-41.07,6.89-48.32-6.47-6.82-6.01,27.73-5.08,31.28.54,7.77-3.62,11.78-6.79,3.01-3.83-.55-11.86-9.24-6.24-11.23-1.78-2.48-2.31-6.05-1.6-10.72-1.8-4.24-2.1-7.73-.89-10.49-.53-1.73-.45-2.1,1.25-1.25.93-1.56,2.38-1.95,4.35-1.17,2.9-10.42,3.85-21.08,3.6-31.8-2.13-38.27-10.81,4.19-9.18,15.23l-2.5,1.53c-5.29,2.81-7.26-17.73-6.64-18.67.42-.64.85-1.14,1.65-1.29-1.31-1.94-.6-4.29,2.12-7.03,2.07-11.58,2.24-23.38.5-35.41l2.37-2.45c-2.67-6.53-3.71-13.8-3.14-21.82-1.05-11.4-1.28-12.93-.56-.26.12,2.17.74,14.17.16,14.62-.82.64-1.62,1.16-2.7,1.22,2.03,2.36-3.6,9.45-6.24,9.98-.57,2.73-1.4,3.15-2.49,1.25-4.21-7.71-7.06-16.35-8.56-25.91-3.63-8.89-5.77-17.71-6.41-26.48-1.89-7.93-5.04-15.12-9.44-21.58-10.55-4.8-17.34-10.63-25.87-18.64-20.86-19.61-52.8-51.94-68.9-74.92-1.19-1.7-1.54-3.83-1.8-5.84Z"/>
      <path class="cls-68" d="M689.73,204.55c8.71,9.72,16.68,20.39,25.55,29.95,13.08,14.09,47.98,52.45,61.68,61.8,3.73,2.54,7.2,1.83,10.73,5.48,5.17,5.35,6.42,16.68,8.05,23.75l-2.72-.02c.26-1.03-8.66-16.94-7.96-15.37,9.54,21.19,18.24,43.3,22.33,66.61l-1.67,4.91c.51,2.25.09,3.08-1.25,2.49l-4.55-3.17c-15.59-29.36-35.16-55.46-58.14-77.71-.39-.37,7.13,6.46,7.85,7.3,10.14,11.87,19.31,23.36,28.28,36.17s34.03,49.74,33.5,63.57c-.03.85-.33,1.69-.71,2.53-3.53,2.5-12.85-6.16-13.72-9.98-1.1-.88-2.38-1.09-3.8-.77-11.33-18.41-24.48-34.91-39.44-49.5,13.11,13.25,25.2,28.65,35.59,44.99.55.87.82,1.93,1.06,3.04s.33,2.31.36,3.49c2.32,2.04,1.92,6.52-1.25,7.48l-3.32.31c-11.5-12.62-23.89-24.22-37.16-34.81,19.04,16.51,37.88,34.24,51.95,55.34.73,1.1.94,2.55,1,4.1,2.59,2.85,5.84,8.93,3.74,12.47.66,2.41.24,3.24-1.25,2.49-5.55-3.21-4.08.18,4.41,10.16,5.53,5.9,8.63,12.08,9.31,18.52,2.59,2.45-.53,6.47-3.74,4.99l-2.44.99c-8.84-10.9-17.96-21.05-27.36-30.45,16.23,17.87,31.66,37,44.15,57.71.66,1.1,1,2.39,1.31,3.74s.46,2.77.55,4.18c.07,2.26-.46,4.63-1.6,7.11-.04,5.42,19.95,37.83,27.29,41.22l.5,2.81c6.56,18.43,5.2,41.87,3.36,62.72-1.85,20.81-5.32,40.5-10.45,60.75-1.35,5.34-14.24,48.77-20.69,49.87-.7.12-1.42.09-2.15.03-1.01-1.38-1.98-2.78-2.8-4.26s-1.57-2.92-2.01-4.47c-6.65-23.24-12.51-47.16-15.14-71.1-.2-.92-.42-2.41.19-2.72,6.14-3.15,17.53-3.03,1.07-.41l-2.5-1.86c-.42,1.08-.83,1.08-1.25,0-.97.1-2.29.17-2.69-.54-1.61-2.89-7.43-30.05-8.14-34.88l2.1-2,1.65-2.41c10.1,5.16,34.31-30.51,15.8-26.57l-26.65,1.59-2.02-2.54,1.01-2.41c-3.38-12.68-6.21-25.18-8.5-37.5-1.73-1.97-2.06-5.14-.98-9.5-1.76-2.93-2.68-5.59-2.77-7.96-2.51-3.48-6.31-10.73-2.49-13.72l.88-2.79,19.08-4.99c3.01-9.85-16.56-25.49-20.66-8.25l-3.04-.19-2.94-.25-2.05-9.72-.23-1.74c4.13-3.52,3.06-6.91-3.2-10.18l-.31-3.04.49-1.85c-1.64,1.14-4.21-6.26-.49-6.88l.05-1.71c26.81-5.3,10.19-12.91-4.64-17.4l-1.65-2.1-2.63-.26c-8.54-35.39-17.09-70.79-25.63-106.19l2.07-2.06,3.21-.65c9.13,7.76,17.6,16.18,25.41,25.26-7.47-10.86-16.95-20.14-28.42-27.85l-1.45-4.24c-3.32,1.76-4.99-.4-3.74-3.74-2.11-2.56-3.16-10.74,0-12.47,2.89-.65,4.99-.42,6.32.7l-16.3-16.91c-3.31,1.88-5.82-.11-4.99-3.74l-6.17-5.33c-20.33-24.38-40.56-47.94-60.7-70.7-3.04-4.54-3.2-7.88-.48-10.03,16.84-3.48,34.1-6.31,51.14-8.73Z"/>
      <path class="cls-68" d="M969.11,1017.75c-22.01,9.03-44.68,16.56-67.35,23.7-7.94-18.54-12.93-38.05-17.73-57.6l-55.2-219.82.59-3.21c-1.11-.34-1.09-.75,0-1.25l.79-5.58c17.48-25.64,34.96-51.27,52.43-76.9l2.91.16c25.48,111.16,58.65,222.17,82.74,333.24.53,2.42,1.16,4.75.83,7.26Z"/>
      <path class="cls-44" d="M596.18,223.26c1.94,1.75,3.62,4.33,5.04,7.74,11.72,13.71,22.63,27.52,32.06,43.68.58,1,.87,2.17,1.14,3.38s.37,2.53.42,3.82c-1.24,1.1-2.64,2.26-4.34,2.45-28.05,3.2-48.39,6.57-75.39,16.32-74.13,26.77-140.52,80.7-168.98,156.03l-4.49,4.81c-3.34-13.17-13.46-44.09-13.76-55.55-.39-15.01,8.94-41.99,10.01-59.83.9-15.12-.74-28.47-4.42-43,28.56-17.59,60.83-30.84,92.34-42.44,42.25-15.56,86.51-26.98,130.36-37.39Z"/>
      <path class="cls-129" d="M967.86,1022.74c11.09-4.49,22.43-9.65,33.27-14.74,1.96-.92,10.66-8.28,10.42-3.32-.38,7.84-18.83,23.82-24.26,30.64-7.42,9.32-12.14,20.81-18.92,29.72-1.16,1.52-10.72,12.14-11.47,12.55-7.81,4.33-21.81,5.29-30.74,7.6-74,19.16-147.72,41.46-222.71,56.67-24.53,4.98-74.1,13.33-96.9,4.57-8.22-3.16-15.22-9.44-22.83-13.34-11.18-5.73-23.49-9.96-34.35-15.54-1.17-.6-2.96-.66-3.09-2.51,36.12-.1,72.07-3.92,107.52-10.35,82.71-15.01,173-35.29,252.93-60.75,5,1.69,10.58,2.74,14.07-2.26,10.46-4.03,21.3-7.84,31.82-11.26,7.08,2.83,12.51-1.23,15.22-7.67Z"/>
      <path class="cls-132" d="M634.85,281.88c.23-1.11.65-1.07,1.25,0,3.24,1,5.54,1.97,2.49,4.99-1.1.89-1.1,1.31,0,1.25,1.22-.87,2.72-.37,2.49,1.25,6.44,2.33,3.2,5.57-2.49,3.74l-4.55,2.43c-13.08.57-26.12,1.01-39.11,1.32-.32,1.09-1.56.61-2.49,0-1.79,2.34-5.85,1.79-8.73,1.25-1.03,1.36-3.42,1.9-4.99,1.25-.75.5-.78.92,0,1.25,1.57-1.29,4.28-2.09,6.24-1.25,3.79-.86,7.95-1.28,12.47-1.25,14.96-2.82,30.9-2.96,46.12-.73l3.77,3.22c1.87-1.53,2.56-.83,1.25,1.25,5.4,2.52,8.48,7.16,1.25,6.24-29.52-3.64-54.29.49-82.84,7.58-96.56,23.96-143.97,75.64-146.65,177.01-1.16,8.98-3.24,11.06-6.24,6.24-3.34-.67-2.66-3.57,0-4.99.02-4.09-.82-6.59-2.49-7.48-1.15,19.57-1.36,39.15-.64,58.73l-1.86,6.12c-.06,3.71-4.04,3.42-4.99,0-2.63-10.78-8.26-27.04-8.73-37.42-.62-.89-.84-1.75,0-2.49-1.94-4.64-1.67-9.77-1.22-14.71.97-10.65,4.74-33.71,8.24-43.33.26-.72.93-1.3,1.71-1.83.55-4.72,1.79-9.29,3.74-13.72.43-2.46,1.27-4.54,2.49-6.24-.35-1.15.12-2.01,1.25-2.49,1.68-3.83,1.26-3.83-1.25,0,.65.85-.18,2.05-1.25,2.49.06,1.96-.35,4.04-1.25,6.24-.91,4.58-2.58,7.91-4.99,9.98-2.97,14.47-6.27,29-9.9,43.6l-2.58,1.3c-3.8-10.05-6.1-20.79-8.73-31.18,5.59-15.27,12.71-30.43,20.99-44.49,22.85-38.83,64.38-75.5,103.71-97.1,35.44-19.47,87.96-38.53,128.49-38.01Z"/>
      <path class="cls-68" d="M876.81,1048.93c-7.47,2.17-14.95,4.19-22.45,6.24l-4.63-9.71-58.98-237.25c-.56-1.33-.1-3.5.65-4.88.62-1.15,15.65-17.13,17.76-19.14l2.8-.92c.35-1.09.77-1.07,1.25,0,2.03.61,3.02,2.52,3,5.73l62.27,247.25c1.56,5.84,1.01,10.07-1.66,12.69Z"/>
      <path class="cls-129" d="M746.77,184.91c2.37,2.51,1.41,8.82,1.57,12.16-20.37-2.33-42.46.93-62.81,3.92-66.49,9.77-141.41,29.19-205.09,50.6-37.17,12.5-76.16,28.25-109.4,48.98-4.28-4.41-4.37-15.73-.05-19.98,2.91-2.86,25.99-13.53,31.41-15.98,53.44-24.18,111.17-40.16,167.59-55.66,48.83-13.41,102.71-29.8,154.01-29.43,4,.03,20.31,2.83,22.75,5.41Z"/>
      <path class="cls-44" d="M901.76,1041.45c-8.29,2.61-16.6,5.06-24.94,7.48l-.56-11.29-62.49-248.1c-.43-1.98-.9-4.25-.56-6.27-1-6.25,8.5-17.2,13.19-22.09l3.02-.36c.07.28,1.74,1.59,2.19,3.37,23.27,92.45,45.41,185.22,70.15,277.26Z"/>
      <path class="cls-11" d="M415.33,523.84c-2.81-10.99,2.55-17.58,4.99-4.99.97,22.4,2.82,46.96,11.4,67.8,5.73,13.93,14.55,27.35,21.58,40.6.45.86-.62,2.49-.55,2.61,1.56,4.38-.64,6.07-3.74,2.49-1.31,1.14-1.79.44-1.25-1.25-.87-.69-1.28-.28-1.25,1.25,4.28,5.02,7.61,10.84,9.98,17.46,1.16.44,2.32,1.23,2.49,2.49.83.36.81.77,0,1.25,1.39.88,2.74,3.35,2.49,4.99-.94,4.06-2.2,4.18-2.49,4.99.18,1.29-.4,2.38-1.75,3.28l8.91,17.86-.92,3.8,1.25,1.25c2.48-.34,3,.72,1.25,2.49l1.25,1.25c2.56-.4,3.08.68,1.25,2.49,1.99,1.59,2.82,3.26,2.49,4.99,2.84.85,2.24,3.8,1.25,6.24-1.44,1.87-3.34,3.01-3.74,6.24-2.12,2.1-1.37,5.23,2.23,9.39l-.99,3.08,1.25,1.25v1.25l2.49,2.49,1.25,1.25,1.25,1.25,1.25,1.25c3.39-.62,3.43-.1,1.25,2.49l1.25,1.25,1.25,1.25v1.25c1.07.41,1.9,1.24,2.49,2.49l1.25,2.49c.35,2.49.38,8.78,0,11.23,2.24,3.81.52,6.68-3.74,4.99.63,1.19,1.29,2.44,1.25,3.74,2.67,4.48,7.99,13.01,9.13,17.69,1.21,5.02,0,9.83.85,13.49,2.32,5.51.33,6.36-3.74,2.49-1.43-2.32-4.1-5.06-6.24-8.73-1.54.26-2.28-2.14-2.49-3.74-1.2.13-1.62-.7-1.25-2.49-1.64.14-1.88-2.33-1.25-3.74-1.27-1.04-1.68-1.04-1.25,0,1.81,1.83,1.53,4.95,1.25,7.48,3.06,6.28,5.8,16.81,6.63,24.09.14,1.22-.82,2.37-1.64,3.35-9.11,4.86-15.37-18.38-16.08-24.46-.39-3.38.44-18.44-.14-19.2-.21-.28-2.08,2-6.23-1.24-.92-.06-1.75-.9-2.49-2.49-1.26-5.51-3.65-10.32-3.74-16.21-.62-.89-.84-1.75,0-2.49l-.73-.91c.59-11.42,1.25-22.76,1.98-34.02-.43-.76-.85-.77-1.25,0,4.17,6.73-2.12,16.33-7.48,7.48-1.03-4.83-3.52-9.41-3.74-14.97-.62-.89-.84-1.75,0-2.49-1.56-5.95-1.86-12.09-.92-18.43l-3.57-1.07c-2.04-2.32-5.35-20.8-5.57-24.44-.34-5.45-.62-13.97,3.83-17.18-.49-2.15-.43-4.76,1.25-6.24-.37-.64-.79-.62-1.25,0,.88.85.07,3.37-1.25,3.74.82,4.72-3.13,5.84-6.88,3.04-5.47-4.1-3.09-35.13-1.88-42.09-7.75-10.31-18.8-71.88-14.12-76.88.48-.51,1.06-.92,1.67-1.31Z"/>
      <path class="cls-44" d="M705.94,299.34c-1.47.47-3.05.86-4.58.47-5.13-1.3-18.68-6.08-23.48-8.28-1.44-.66-2.34-2.11-3.12-3.42l-1.25-1.25c-.17,1.53-1,1.53-2.49,0l-6.51-4.55c-14.24-19.14-28.64-38.23-44.96-55.66l-3.41-7.14c6.86-1.53,14.98-4.69,22.45-6.24.85,12.84,14.02,20.99,21.84,29.92,14,15.98,27.62,32.3,41.02,48.79l4.49,7.36Z"/>
      <path class="cls-68" d="M616.14,219.51c20.29,20.54,37.59,44.22,54.88,67.35-1.59.82-3.31,1.53-5.13,1.43-5.92-.33-19.48-2.33-25.22-3.74-1.77-.43-3.27-1.43-4.58-2.68-.42-.01-.83,0-1.25,0-6.11-9.77-12.25-19.69-18.94-29.08-4.45-6.25-15.51-17.64-18.32-22.85-1.19-2.2-1.67-4.19-1.41-6.69,6.48-1.54,13.43-2.28,19.96-3.74Z"/>
      <path class="cls-31" d="M414.09,493.91c.19,1.62-.08,3.35,0,4.99,4.08,2.11,3.19,13.15.54,15.82l.71,9.12c-.23,17.09,3.37,45.72,8.41,62.06,1.27,4.13,6.36,13.5,6.51,15.96.4,6.52-2.57,18.08-2.55,24.88.01,4.18,1.66,22.69,8.83,14.34,1-1.18,1.41-.35,1.25,2.49-1.75,10.88-2.02,21.73.57,32.47,1.48,6.12.72,8.65,8.15,7.45-.73,6.33-2.45,15.05-2.49,21.19-.35,1.09-.77,1.07-1.25,0-6.78-25.48-13.64-51.45-18.71-77.33-.62-1.02-.62-2.26,0-3.74-1.56-2.08-3.11-6.01-2.49-8.73-.81-.35-.79-.77,0-1.25-.91-2.18-1.74-4.67-2.49-7.48-1.04-.44-.67-1.73,0-2.49-1.24-.89-2.08-2.43-1.25-3.74-1.46-.84-1.9-3.4-1.25-4.99-1.19-.36-.61-1.65,0-2.49-2.67-1.68-2.81-6.77-2.49-9.98-.71-.74-1.31-1.51-1.52-2.38-1.91-7.65-3.47-15.6-4.9-23.36-.36-1.96.34-3.81,1.44-5.44-2.61-21.57-1.88-43.6,2.49-64.86,1.78,1.07,2.61,3.57,2.49,7.48Z"/>
      <path class="cls-90" d="M967.86,1022.74c3.66,4.5-3.99,9.71-7.45,10.64-6.52,1.76-9.74-2.09-11.7-1.72-.49.09-5.78,4.28-8.32,5.4-5,2.2-11.34,2.2-14.92,3.79-2.93,1.3-4,5.98-9.48,6.79-2.41.36-9.95.59-9.26-3.7,20.38-6.49,41.31-13.19,61.11-21.2Z"/>
      <path class="cls-111" d="M404.11,451.5c-1.39,19.08-8.36,40.4-8.73,59.87-.35,1.09-.77,1.07-1.25,0-1.52-5.71-3.92-12.85-3.74-18.71.32-10.46,8.44-34.46,12.47-44.9,2.68-2.45,2.23,1.13,1.25,3.74Z"/>
      <path class="cls-12" d="M455.24,749.59c-.35,1.09-.77,1.07-1.25,0-2.43-9.12-4.28-18.22-6.24-27.44,7.51,3.49,6.88-2.22,7.48-7.48.35-1.09.77-1.07,1.25,0,.76,2.97,2.47,6.51,2.51,9.33.08,6.82-3.6,18.01-3.75,25.59Z"/>
      <path class="cls-103" d="M409.1,551.28c1.23,10.2,3.33,20.96,4.99,31.18.35,2.34-.07,3.59-1.25,3.74-2.6-11.74-5.89-23.26-8.73-34.92h4.99Z"/>
      <path class="cls-115" d="M416.58,592.44c-.19.98-.61,1.4-1.25,1.25-1.75-1.91-1.94-5-2.49-7.48l1.25-3.74c.43,2.64,1.89,6.59,2.49,9.98Z"/>
      <path class="cls-62" d="M424.06,623.62c.03,1.45-.38,2.28-1.25,2.49-.16-.76.2-1.84,0-2.49l-1.25-2.49c-.41-1.66-.93-3.31-1.25-4.99.14-.8.31-1.34,1.25-1.25.87,3.19,1.91,4.16,2.49,8.73Z"/>
      <path class="cls-21" d="M421.57,613.64c-.35,1.09-.77,1.07-1.25,0-.36-2.04-.87-4.12-1.25-6.24v-1.25c2.47,1.92,1.81,5.12,2.49,7.48Z"/>
      <path class="cls-76" d="M417.83,599.92c.28,1.49.24,1.88-1.25,1.25-.43-1.73-1.05-4.55-1.25-6.24.35-1.09.77-1.07,1.25,0,.22,1.23.89,2.97,1.25,4.99Z"/>
      <path class="cls-81" d="M419.07,603.67c-.35,1.09-.77,1.07-1.25,0-.18-.59-.96-1.33-1.25-2.49l1.25-1.25c.11.6.93,1.96,1.25,3.74Z"/>
      <path class="cls-78" d="M461.48,770.8l-1.25,1.25c-.21-.87-.87-2.1-1.25-3.74,1.39.25,1.87,2,2.49,2.49Z"/>
      <path class="cls-108" d="M424.06,627.36c-.59-.17-1.12-.66-1.25-1.25l1.25-2.49c.31,2.44-.04,3.53,0,3.74Z"/>
      <path class="cls-110" d="M419.07,606.16c.07.4-.07.84,0,1.25-1.69-.85-.91-2.65-1.25-3.74h1.25c.14.78-.14,1.72,0,2.49Z"/>
      <path class="cls-28" d="M444.02,707.19c-1.21-.46-.99-1.53-1.25-2.49h1.25c0,.83-.03,1.67,0,2.49Z"/>
      <path class="cls-136" d="M395.38,513.86c-1.21-.46-.99-1.53-1.25-2.49h1.25c-.02.83-.04,1.67,0,2.49Z"/>
      <path class="cls-108" d="M422.82,623.62c-.06-.19-.85-.9-1.25-2.49l1.25,2.49Z"/>
      <path class="cls-137" d="M416.58,594.94h-1.25c-.05-.39-.03-.85,0-1.25.04-.58.67-1.1,1.25-1.25.14.78-.14,1.72,0,2.49Z"/>
      <path class="cls-96" d="M421.57,614.89l-1.25,1.25c-.15-.77.14-1.72,0-2.49h1.25c.11.38-.11.86,0,1.25Z"/>
      <path class="cls-16" d="M455.24,752.09c-1.21-.46-.99-1.53-1.25-2.49h1.25c-.02.83-.01,1.66,0,2.49Z"/>
      <path class="cls-72" d="M694.71,446.51c13.34-5.8,26.09,1.84,23.48,18.2l11.93-2.79,2.01,2.05c2.29-2.77,6.03-4.56,11.22-5.37,2.76-5.4,5.67-7.77,8.73-7.11,3.9-2.43,23.14,7.77,23.51,12.11.6,7.08-12.4,8.08-17.28,9.09l-.94,2.7-15.28,1.04c-1.96,3.24-3.06,3.24-4.99,0l-1.81,2.84c-16.58.83-16.47,11.73-.15,5.14l1.97,2c1.73-2.82,4.88-7.2,7.48-8.73,2.77-3.28,14.55-1.61,13.72,3.74,6.21,3.3,13.88,10.06,3.74,14.97-.39,5.15-16.57,7.11-19.96,3.74l-.54,2.65-14.43,3.04c-.57.55-.63,10.39,1.94,9.03l13.76-3.98,3.02,1.74.16-1.73c6.75-1.72,13.76-3.22,21.04-4.5,2.49-2.78,5.93-9.46,6.43-9.77,7.8-4.87,27.72,14.71,18.49,20.35-.93.57-18.18,4.9-21.18,5.63-3.27,4.88-16.11,6.57-21.2,3.74l-2.23,3.06-24.13,6.05-2.33-1.63c.18,3.69-.14,7.35-.96,10.97l3.45,1.5.87-2.69,23.09-4.26c.27-2.04,1.19-3.03,3.48-3.02-2.19-11.17,20.47-7.88,22.45,0,6.71,3.79,5.99,10.77,3.74,17.46,1.45,3.04.14,6.25-3.91,9.63-2.6,6.77-6.28,11.88-11.05,15.32-2.77,5.54-1.94,9.69,2.49,12.47,4.48-2.23,16.53-1.26,19.96,2.49,10.17.43,25.66-2.37,34.36-1.31,10.79,1.32-3.47,21.73-7.35,25.83-5.07,5.36-8.6,5.88-15.79,5.41l-1.8,2.35c-7.14-.86-14.19-2.53-21.1-4.49l-.81-2.85-4.01,1.27-21.22-9.95c-2.67,2.71-5.07,3.94-7.21,3.69-6.67,7.08-13.95,15.5-22.05,20.98-6.67,4.52-34.33,18.87-41.52,20.84-3.26.89-8.33,1.51-7.01-3.24,1.1-3.96,21.39-16.71,26.34-21.09,4.7-4.16,32.65-34,31.69-37.95-9.08-5.63-13.37-15.15-21.1-21.95-6.03,12.41-12.57,24.87-20.71,36.06-2.61,3.59-13.15,17.17-16.04,18.88-1.94,1.15-3.37,1.59-5.64,1.16-2.16-7.63,6.18-13.57,10.15-20.34,11.59-19.75,18.67-44.26,20.98-66.94-2.04-2.04-46.24,14.04-56.5,10.96-3.62-1.09-4.52-6.82-2.75-9.74,2.98-4.93,41.7-11.51,49.81-13.79,12.02-3.38,14.39-2.71,13.18-17.37-1.43-1.52-33.56,8.83-39.3,8.84-7.69.01-9.13-9.67-4.76-12.38l42.81-10.2-1.39-11.07c-4.6-2.9-49.53,13.93-60.08,10.81-4.9-1.45-5.56-5.27-1.51-8.48,5.39-4.27,42.2-12.1,51.71-14.39,2.08-.5,4.17-.67,6.29-.56,1.84-13.06-22.82-25.14,2.49-26.19Z"/>
      <path class="cls-72" d="M501.39,633.6c-2.55-.16-9.82.61-11.05-.17-1.82-1.15-3.1-10.37-1.75-13.24,2.9-6.17,30.63-8.81,37.61-11.66l-2.37-19.82c-6.68,1.16-14.01,4.27-20.72,4.84-3.04.26-10.88-.95-11.69-.54-1.75.89-10.08,14.45-14.39,18.11-3.28,2.78-8.35,7.76-11.78,3.17,14.97-33.35,33.8-68.75,35.9-106.02.23-4.05-3.71-7.08,2.4-10.32,2.16-1.15,10.11-3.52,12.55-3.78,6.33-.68,6.62,5.44,9.73,9.62,16.21,21.76,44.36,33.75,70.99,36.27,5.17.49,20.27-1.88,22.45,2.51,2.68,5.39-8,23.19-13.13,25.55-13.42,6.17-55.73-18.71-67.22-27.52-5.78-4.43-11.92-12.03-16.93-15.5-1.06-.73-1.23-1.74-3.13-1.23-2.39,18.98-9.74,36.39-17.46,53.62,10.85-3.36,24.78-5.81,34.91-10.6,10.3-4.88,19.85-21.16,29.73-2.28,7.87,15.04-10.05,16.33-20.87,19.25-.16,6.04-1.11,12.69,2.33,18.08,1.2.84,20.75-5.41,23.37-6.72,10.23-5.12,8.34-16.02,23.23-8.76,3.99,1.94,15.73,8.6,12.71,13.5-2.68,4.35-24.78,11.72-30.57,13.71-.12,1.1.3,1.93,1.25,2.49,3.61.24,19.19,4.19,19.89,8.25.47,2.71-4.72,4.61-6.19,6.42-6.15,7.55-10.44,19.43-12.44,28.98.82.77,19.79-2.53,22.23-3.33,6.45-2.1,11.3-10.65,16.74-10.15,5.85.53,15.73,9.4,12.77,15.95-2.57,5.67-10.23,3.23-14.94,3.78-38.25,4.49-72.32,18.14-108.89,25.81-13.43,2.82-26,5.51-15.24-12.75l31.2-5.6c.16-2.11-2.75-1.11-4.41-2.42-6.98-5.54-6.16-15.84-9.93-23.75-2.04-4.28-10.21-10.09-6.85-13.73q15.19-1.62,0,0Z"/>
      <path class="cls-132" d="M789.51,808.21c-.45,1.75-22.92,18.41-26.29,20.48-40.83,25.08-100.74,43.02-148.58,35.28-13.7-2.22-42.88-10.66-54.23-18.1-3.89-2.55-5.83-7.78-1.03-7.82,3.14-.03,18.48,6.05,24.08,7.21,9.33,1.94,16.93,2.74,26.45,2.86,8.05.22,15.95.64,23.7,1.25.6-.41.59-.83,0-1.25-3.18.71-7.97,1.31-9.98-1.25-21.79-3.58-66.93-15.45-81.73-32.39-1.21-1.38-3.02-5.06-1.83-6.26,1.89-1.9,19.18,8.6,22.85,10.19,73.65,31.93,158.5,16.58,221.6-30.15.42-1.08.83-1.08,1.25,0,4.12,3.56,8.3,15.42,3.74,19.96Z"/>
      <path class="cls-68" d="M772.04,618.63c4.95,14.98,9.53,30.36,13.72,46.15,1,3.19-.06,3.48-2.49,1.25-1.13,1.86-1.13,3.52,0,4.99.13-1.13.56-1.06,1.25,0,.98-.15,2.51-.18,2.71.49,7.65,25.97,15.14,54.54,21.31,81,2.17,4.93,2.47,9.37.92,13.31,2.68,1.99,2.04,2.94-1.25,2.49-.96,4.85-4.24,9.11-9.85,12.78-3.96,4.81-8.16,7.21-12.6,7.18-.27.2-.98-.2-1.25,0-4.61-25.23-12.81-49.61-17.46-74.83l.97-2.55c23.76-.82,24.7-1.44,2.82-1.89-2.88-8.66-4.52-17.86-4.91-27.61l-1.35-5.6,2.84,26.7-1.62,5.96-26.19-94.79c2.19-2.32,3.9-6.66,7.8-6.06,7.96,3.78,16.22,8.43,24.63,11.05Z"/>
      <path class="cls-68" d="M690.97,320.54c1.74-1.61,2.38-.95,1.25,1.25,5.7,5.51,9.69,12.64,11.98,21.38l29.99,118.74-2.05,2.07c-2.34.6-14.22,3.86-15.03,3.22-3.85-3.01-.4-12.57-2.31-15.14-3.25-4.38-14.88-5.76-20.08-5.54l3.81-3.05-24.66-98.96c-5.25-12.49-13.19-23.73-20.31-35.19l4.09-1.84c10.41,1.1,26.61,5.2,33.33,13.06Z"/>
      <path class="cls-5" d="M710.95,724.65c-1.17-.77-5.33-24.01-6.27-27.43l-3.59,10.72-1.39,19.2c-7.27,1.42-7.4-6.55-10.67-11.15-2.97-4.18-8.53-8.17-11.76-12.55-.6,7.43,5.66,21.77,5.01,28.09-.69,6.73-5.34,1.64-6.72-3.32-1.92-6.89-6.48-27.67-6.94-34.32-.26-3.71.29-6.26,4.74-5.24,6.07,9.03,13.47,17.35,21.35,24.76.13-4.01,6.19-30.28,7.52-31.18,3.78-2.55,6.14,5.01,6.86,7.46,1.62,5.45,6.57,25.95,6.8,30.75.15,3.23-2.58,5.74-4.93,4.19Z"/>
      <path class="cls-100" d="M576.23,613.64l1.25,2.49c-1.57-.1-3.25-.25-4.79.18-3.96,2.74-8.02,40.12-2.69,45.95l-12.46,3.76-6.16-44.13c7.03-4.03,17.02-5.55,24.86-8.25Z"/>
      <path class="cls-119" d="M732.31,708.61c-1.59,2.55,2.86,18.4-4.53,16.02-1.41-.45-2.11-2.87-1.99-4.34,1.96-10.76,1.1-21.19,2.97-32.07.88-5.09,1.82-17.62,9.08-12.3,2.3,1.69,6.58,13.75,8.61,17.58.83,1.57,17.54,27.17,7.52,24.92-2.65-.6-3.54-11.44-7.64-12.19-1.16-.21-13.62,1.72-14.03,2.39Z"/>
      <path class="cls-119" d="M634.81,699.72c-.61,5.98,8.88,44.2,7.44,46.04-.34.44-3.13,1.49-4.27.13-3.62-4.32-2.91-17.21-4.59-19.76-1.86-2.83-15.37,1.53-15.96,2.33-.93,1.28,5.46,19.59.59,19.85-.94.05-2.79-1.55-3.35-2.94-1.08-2.67-7.66-34.36-7.15-36.13.55-1.94,3.75-2.81,4.86-2.05.69.47,2.62,13.87,3.77,16.21,5.01-2.94,10.33-4.37,16.2-3.75-.66-3.09-3.87-18.62-2.48-19.95.3-.29,3.75.17,4.95.02Z"/>
      <path class="cls-27" d="M556.26,767.05c-3.84,3.98-12.57-16.21-15.58-16.19-6.27.04,1.01,17.12-.63,18.69-1.34-.22-4.1.47-4.85-.14-1.67-1.37-8.28-37.03-8.87-42.27,6.76-.42,18.42-2.63,23.05,3.77,5.89,8.16-3.19,13.19-2.88,16.61.46,5.1,12.26,12.4,9.77,19.53Z"/>
      <path class="cls-32" d="M458.99,663.53c-1.17,3.16,12.5,23.78,15.2,27.83,8,12.03,17.91,25.36,26.71,36.9,2.84,3.72,18.22,20.52,18.7,22.52.35,1.44-2.28,3.78-2.62,3.78-3.9.04-35.88-44.64-40.54-51.11-2.13.69-2.93-1.81-2.49-3.74-1.33-.74-2.58-1.99-3.74-3.74-.38-.81-.77-1.76-1.25-2.49l-1.25-1.25c-.5-.76-.8-1.69-1.25-2.49l-1.25-1.25c-4.08-8.13-7.17-16.79-12.46-24.33l6.23-.62Z"/>
      <path class="cls-87" d="M811.96,783.27c-.55,6.68-17.53,18.72-21.2,24.94h-1.25c1.31-5.08-3.83-14.4-3.74-19.96,7.43-5.6,15.9-13.31,22.45-19.96,4.77.75,6.95,11.08,3.74,14.97Z"/>
      <path class="cls-92" d="M470.21,713.42c1.18.79,7.92,11.7,10.03,14.29,10.86,13.36,22.47,28.17,34.21,40.63,3.56,3.78,10.38,6.23,10.69,11.78.1,1.83.11,2.31-1.93,1.92-6.83-1.28-29.43-29.4-35.53-36.19l-2.49-2.49-1.25-2.49-1.25-1.25-1.25-1.25-1.25-1.25c-.52-.68-.73-1.85-1.25-2.49l-1.25-1.25-1.25-1.25-1.25-1.25c-.9-.84-1.32-1.67-1.25-2.49l-1.25-1.25-1.25-1.25c-1.86-2.9-5.68-8.75-6.25-11.84-.52-2.83,4.59-.91,5-.63Z"/>
      <path class="cls-29" d="M602.23,712.37c.67,1.12,0,3.34.2,4.79-15.64-2.24-24.71,5.41-22.16,21.53,3.13,19.71,28.77,4.93,30.87,7.16,2.18,5.57-6.27,8-10.7,8.62-19.99,2.8-27.22-6.02-25.51-25.51.64-7.26,3.56-12.85,10.59-15.6,2.99-1.17,15.01-3.83,16.71-1Z"/>
      <path class="cls-53" d="M490.17,799.48c2.95.05,4.32.84,3.74-2.49.58,2.52,20.56,31.49,23.73,35.51,4.08,5.15,18.66,18.14,20.57,21.84,1.13,2.19.2,2.39-1.29,3.76-2.14.49-3-.76-4.4-1.81-16.88-12.68-31.36-38.96-42.35-56.81Z"/>
      <path class="cls-104" d="M765.81,708.43c-1.86-11.13-2.74-22.92-3.76-34.2.11-1.25,3.41-.97,4.22-.78,2.74.65,3.84,32.3,5.89,33.63s22.06-3.64,17.96,5.09l-23.07,1.24c-.27-1.47-.92-3.03-1.25-4.99Z"/>
      <path class="cls-53" d="M486.43,757.08l34.95,45.49c3.25,5.94.53,7.92-4.44,3.2-10.63-10.09-22.11-29.09-31.76-41.2-1.4.65-2.87-1-2.49-2.49,1.24-1.56,3.29-2.05,3.74-4.99Z"/>
      <path class="cls-53" d="M462.73,657.3c-1.82.02-2.7-2.08-2.49-3.74-.82-.36-.8-.78,0-1.25-1.12-.48-2.39-1.26-2.49-2.49-3.62-4.86-8.09-11.81-8.73-17.46,1.82-.02,3.2-.71,3.74-2.49,3.87,7.41,9.47,16.58,14.18,23.86,2.89,4.47,17.86,21.97,16.98,25.35-.37,1.43-2.06,2.29-3.77,1.35-1.27-.7-15.55-20.24-17.42-23.12Z"/>
      <path class="cls-35" d="M560.65,718.42c1.75-.54,3.57.18,4.14,2.07-.46,12.32,6.39,28.36,6.39,39.89,0,2.84-1.03,3.75-3.06,5.4-1.82-1.3-2.4-2.32-3.02-4.44-1.81-6.16-6.26-32.69-6.27-38.76,0-1.56.11-3.63,1.82-4.16Z"/>
      <path class="cls-93" d="M481.44,787.01c.92,1.96,1.33,3.63,1.25,4.99,1.76,6.68,3.37,14.77,5.66,21.15,1.65,4.58,11.64,23.55,11.36,25.65-.11.8-2.42,3.06-2.68,3.07-2.59.06-12.1-22.28-13.1-26.17-2.13-8.29-3.21-18.75-4.99-27.44-.3-2.19.12-3.44,1.25-3.74.42.83.81,1.67,1.25,2.49Z"/>
      <path class="cls-104" d="M687.23,313.06c1.24-.41,1.65,0,1.25,1.25,4.15,2.04,4.98,4.12,2.49,6.24-12.43-6.04-23.84-9.04-37.42-11.23-1.73-.28-3.43-1.21-3.74-1.25l2.49-.61c-1.3-1.82-2.58-3.71-3.73-5.62l2.13-1.97c11.19,1.58,29.4,4.59,36.53,13.19Z"/>
      <path class="cls-33" d="M420.32,518.85c-1.21-2.53-1.98-4.28-4.98-4.99-.06,3.32.03,6.66-.01,9.98-2.59-7.59-.86-16.87-1.25-24.94,5.4.86,4.08-2.97,6.24-6.24-.24,8.97-.39,17.09,0,26.19Z"/>
      <path class="cls-54" d="M633.6,848.13c1.09.35,1.07.77,0,1.25-7.31.33-16.8.8-23.7-1.25,4.26.05,10.47.99,13.72-1.25,3.26.54,6.7.77,9.98,1.25Z"/>
      <path class="cls-77" d="M476.45,703.45c-.9,1.2-1.58,2.55-2.49,3.74-.21-2.03-.49-4.36-1.25-6.24-.6-1.88-.58-2.21,1.25-1.25.88,1.21,1.62,2.53,2.49,3.74Z"/>
      <path class="cls-57" d="M462.73,657.3c-.53.22-1.12.7-1.25,1.25-1.55-1.29-1.66-3.34-2.49-4.99.37-.82.78-.8,1.25,0,.75,1.22,1.69,2.5,2.49,3.74Z"/>
      <path class="cls-80" d="M485.18,764.56l-1.25,1.25c-.82-1.37-3.87-.45-1.25-3.74,1.41.35,1.74,1.55,2.49,2.49Z"/>
      <path class="cls-50" d="M483.93,790.75l-1.25,1.25c-.32-1.23-2.14-2.8-1.25-4.99.5.95,1.7,2.38,2.49,3.74Z"/>
      <path class="cls-34" d="M487.67,745.85h-1.25c-.02-.16-.94-1.63-1.25-2.49.73.78,1.59,1.49,2.49,2.49Z"/>
      <path class="cls-87" d="M859.35,572.49l1.6.91c2.57,12.12,4.94,24.29,7.13,36.51,0,1.25.02,2.49,0,3.74,1.74,18.6,2.94,51.09-4.17,68.08-.46,1.1-1.22,2.07-2.07,3.01.29,1.57.7,1.99,1.25,1.25,1.05-7.34,7.94-21.63,13.45-26.5,1.02-.9,2.61-.93,4.01-.94,3.9,2.46,5.42,12.51,4.99,17.46.09.39-.09.85,0,1.25l-56.13,82.32c-4.65-1.35-4.82-8.69-2.49-12.47-1.11-.34-1.09-.75,0-1.25,6.11-7.37,9.52-17.51,12.81-26.48,15.37-41.86,20.15-86.83,19.66-131.24-.05-4.5-2.34-10.86-2.54-15.65.53-2.3,1.59-2.15,2.49,0Z"/>
      <path class="cls-55" d="M819.44,417.83c-.75,4.05-.28,8.69,1.41,13.91l-4.12,4.11c4.62,3.24,6.77,7.21,6.45,11.92,1.9-1.74,3.88,2.92,3.74,4.99,1.38.01,2.1,1.4,1.25,2.49,3.98,8.75,4.26,12.15,2.49,21.2-.67,4.16-7.27,2.87-6.24-1.25-3.93,2.78-11.69-8.87-9.98-12.47-1.58-.15-2.15-1.05-2.49-2.49l-2.49-3.74c-2.07-1.76-4.23-4.66-3.74-7.48-1.86-3.88-4.77-7.85-3.74-12.47-.95-1.45-1.11-2.72-.49-3.81l-13.3-17.03c-1.1-1.57-.21-2.93,1.32-4.1-.24-2.08-.12-5.9,1.25-7.48-1.87-5.19,3.23-4.42,6.24-1.25,4.8,1.5,12.87,10,13.72,9.98.35-4.86.36-9.78.02-14.76l2.47-1.45c3.21-1.45,8.03,16.51,7.91,18.05-.1,1.2-.78,2.33-1.67,3.15Z"/>
      <path class="cls-59" d="M804.47,384.15c1.02.65,1.43-.18,1.25-2.49-3.5-21.2-8.93-36.6-16.53-56.44-1.01-2.64-6.89-14.46-6.81-15.29.11-1.09,2.01-2.13,2.75-3.08,2.32-.04,9.44,15.87,10.6,18.69,6.85,16.59,11.66,34.76,14.97,52.38,1.78.18,2.08,2.4,1.25,3.74.52,1.02.94,2.27,1.25,3.74,3.55,1.66,3.76,9.77,0,11.23-.04,2.75.98,16.12-2.49,16.21-6.07-21.02-19-41.19-31.16-59.27-9.55-14.2-21.55-30.4-33.21-42.88-1.02-1.1-13.92-10.19-4.88-10.12,4.59.04,24.23,24.36,28.06,29.35,12.47,16.22,25.34,36.15,34.95,54.23Z"/>
      <path class="cls-133" d="M861.85,567.5c.12,3.19-.71,4.43-2.49,3.74-6.84-2.13-9.84-19.03-9.79-26.04l2.31-2.65c-.53-9.4-.71-22.53-.05-31.86.43-6.05.55-18.31,9.19-15.37,11.37,3.87,5.67,43.01,4.27,52.52-.91,6.2-4.67,12.65-3.43,19.64Z"/>
      <path class="cls-55" d="M835.65,520.1c.25-1.12.68-1.08,1.25,0l2.16-1.63c4.29,1.64,7.85,12.27,9.07,16.6,1.12,2.18,1,5.77,3.74,7.48.52,9.15,2.74,20.69,7.48,28.69,1.06.4,1.06.81,0,1.25-.8-.12-1.79.17-2.49,0-1.82-.44-6.06-3.27-7.49-4.71-3.91-3.94-19.69-30.49-22.14-36.2-1.65-3.84.07-7.89,3.44-10.22.18-4.18,2.85-4.83,4.99-1.25Z"/>
      <path class="cls-15" d="M836.9,487.67c.28.81,2.48,4.13,3.74,2.49,1.39-1.82-.26-18.29-.06-21.86.32-5.78.57-21.19,8.78-17.42,10.01,4.6,5.67,43.96-1.92,50.5-4.06,3.5-4.69-1.39-4.3,8.75l-3.19-.96c-1.59-1.8-5.82-19.18-3.05-21.49Z"/>
      <path class="cls-133" d="M825.68,437.78c-.09-5.28,1.46-29.61,4.33-32.45,2.65-2.62,8.09-1.41,9.14,2.15,1.12,3.81.7,24.63.24,29.67-.21,2.28-3.07,17.48-3.83,17.99-1.16.78-4.86-.21-6.13-1.14-1.39.09-2.12-1.43-1.25-2.49-3.43-2.08-4.26-5.82-2.49-11.23-2.4-.37-2.26-1.36,0-2.49Z"/>
      <path class="cls-55" d="M830.66,476.45c-.75,3.83,4.05,5.36,6.24,11.23,2.66,7.13,2.69,15.56,6.24,22.45.05,1.22-.16,2.57,0,3.74.06,3.78-1.19,5.03-3.74,3.74-2.76,2.17-4.84.5-6.24-4.99-4.75-4.84-8.25-11.41-11.23-17.46-1.53-.89-2.77-2.14-3.74-3.74l-1.25-1.25c-4.17.41-5.32-1.96-2.49-4.99,1.17-1.29,2.58-4.03,3.74-4.99-2.05-3.56,3.34-4.59,6.24-4.99,1.91,1.06,4.06,1.41,6.24,1.25Z"/>
      <path class="cls-75" d="M880.55,657.3c1.05.39,1.05.8,0,1.25-7.05,8.08-11.88,18.25-17.46,27.44-1.63,1.66-1.8.98-1.25-1.25,3.74-22.59,5.94-48.2,6.24-71.09l12.47,43.65Z"/>
      <path class="cls-15" d="M825.68,372.93c.5,11.67,3.02,27.38-.54,38.74-.75,2.41-3.52,4-4.45,6.16-.35,1.09-.77,1.07-1.25,0l-6.24-21.2c.06-3.94-.17-7.05,0-11.23-.75-1.19-.86-2.59,0-3.74-1.33-1.47-1.83-3.76,0-4.99,1.12-7.18,5.75-8.45,6.24-9.98,3.06-1.61,5.14.47,6.24,6.24Z"/>
      <path class="cls-5" d="M885.54,676.01c-.06-.26-1.78-1.58-2.19-3.37-.96-4.25-3.04-9.93-2.8-14.09.02-.43-.09-.9,0-1.25.82-3.19,14.82-18.21,17.49-16.92,10.03,11.88-7.18,25.02-12.5,35.63Z"/>
      <path class="cls-127" d="M825.68,372.93l-6.24-6.24c.64-2.02.16-12.51.05-15.64-.06-1.72-3.47-16.77,2.48-12.46,4.1,2.97,3.46,28.45,3.71,34.33Z"/>
      <path class="cls-88" d="M868.08,609.9c-2.43-10.24-9.69-27.32-8.73-37.42.04-.43-.08-.88,0-1.25.24-1.04,1.98-2.57,2.49-3.74,2.83,15.97,6.34,24.67,6.24,42.41Z"/>
      <path class="cls-8" d="M825.68,437.78c.01.83-.05,1.67,0,2.49.11,4.26-.72,6.76-2.49,7.48-2.65-3.77-4.97-8.99-9.97-10-1.53-2.28,5.44-5.91,6.06-8.34,1.32-5.15-7.41-7.43.16-11.59h1.25c-1.45,3.38,2.29,16.49,4.99,19.96Z"/>
      <path class="cls-95" d="M848.13,535.07c-1.71-3.31-8.05-14.05-11.23-14.97-1.5-1.43-.67-2.26,2.49-2.49,1.2-1.3,2.11-2.88,3.74-3.74.89,6.5,5.22,14.16,4.99,21.2Z"/>
      <path class="cls-69" d="M813.2,381.66c-.35,1.09-.77,1.07-1.25,0-.28-1.05-.88-1.81-1.25-3.74l2.49-1.25c-.24,1.52.15,3.38,0,4.99Z"/>
      <path class="cls-67" d="M829.42,454l-1.25,1.25c-.31-.69-.88-1.8-1.25-2.49-1.01-1.94-.72-2.43,1.25-1.25.4.68.93,2.26,1.25,2.49Z"/>
      <path class="cls-44" d="M723.4,340.5c2.99-1.89,3.87-.68,2.49,2.49l26.19,108.51c-2.81,1.75-4.73,7.49-7.54,9.3s-8.81,2.26-12.41,3.18l-30.29-120c-2.79-7.02-6.2-15.57-9.62-22.18,5.46-.77,11.02,1.12,16.67,5.67,7.11,3.17,11.95,7.52,14.52,13.04Z"/>
      <path class="cls-24" d="M826.92,745.85c.1.39-.1.86,0,1.25-2.28,7.75-9.8,16.28-17.46,18.71l-24.94-94.79c2.43-4.16,14.33-7.77,17.67-3.61,1.91,12.61,3.93,25.08,6.06,37.41-.93-11.18-2.56-22.32-4.88-33.42-.23-3.27-.24-6.23,3.61-5.36,5.44,26.77,13.28,53.33,19.96,79.82Z"/>
      <path class="cls-106" d="M795.74,623.62l8.73,37.42c-2.08,4.28-14.93,6.4-18.71,3.74-4.8.51-3.01.03-3.89-2.91-3.72-12.43-6.57-25.18-9.69-37.78-.37-1.5-2.21-4.61-.13-5.46,6.17,1.92,17.4,4.58,23.7,4.99Z"/>
      <path class="cls-83" d="M777.03,553.78c2.55.77,2.33,3.18,2.91,5.2,2.75,9.64,6.3,22.18,8.05,31.88.73,4.05-.29,2.76-3.47,2.83-7.35-.31-12.72-.36-19.96-2.49-4.85-2.41-5.68-6.57-2.49-12.47,2.91-5.45,5.81-11.33,8.94-16.63,2.04-3.46,4.46-3.64,6.03-8.31Z"/>
      <path class="cls-138" d="M804.47,451.5c2.03-.27,3.44,3.07,3.74,4.99,1.71.7,2.8,2.24,3.74,3.74.29,1.42,1.13,2.26,2.49,2.49,2.69,3.05,7.48,11.1,9.98,12.47.3,3.14-3.81,3-6.24,4.99-7.17-11.94-16.33-24.4-25.55-34.94-3.98-4.55-9.51-10.82-13.68-15.01-3.76-3.77-27.44-22.63-27.99-24.4-3.2-10.21,12.19,2.64,13.61,3.86,15.28,13.18,26.85,26.7,39.89,41.8Z"/>
      <path class="cls-100" d="M720.91,318.05c1.08.41,1.08.83,0,1.25.64,2.91,1.94,10.44,0,12.47l-4,.23c-7.77-5.44-15.88-10.51-24.79-13.87l-3.64-3.82c-.35-.49-.78-.88-1.25-1.25-3.79-2.95-14.13-13.73-6.24-13.72l4.19-1.43c13.07,4.15,27.1,8.87,35.72,20.14Z"/>
      <path class="cls-138" d="M830.66,521.35c-13.67-23.31-30.32-44.55-48.14-64.79.15-3.2,3.09-4.41,5.37-2.17l26.56,30.79c.34,1.9,1.33,3.5,2.49,4.99l1.25,1.25c1.22,1.24,2.05,2.49,2.49,3.74,4.4,5.95,8.56,12.19,12.47,18.71,2.59,2.85,3.42,4.93,2.49,6.24-1.71-.08-3.56.26-4.99,1.25Z"/>
      <path class="cls-59" d="M789.51,411.59c.9,7.7,14.75,20.5,14.78,21.83.01.63-2.09,2.13-2.31,3.12-16.87-22.77-36.5-42.77-58.43-60.68-.43-2.13-.97-3.13,1.71-2.98,8.82.51,36.52,31.78,44.24,38.72Z"/>
      <path class="cls-119" d="M673.51,286.87l1.25,1.25c10.73,2.83,21.36,5.96,31.18,11.23,1.52.82,3.42,2.72,4.99,3.74l11.28,11.4c1.14,1.57.4,2.5-1.31,3.56-13.1-9.13-24.43-14.65-39.91-18.71-2.34,2.18-3.17,1.76-2.49-1.25-4.46-2.03-9.09-5.93-7.48-11.23.74.17,1.74-.16,2.49,0Z"/>
      <path class="cls-117" d="M796.99,402.86c-2.12-.66-4.53-.73-6.24,1.25-8.65-12.76-17.64-26.15-27.48-38-3.3-3.97-9.12-7.98-11.72-11.98-3.34-5.13,0-6.34,4.33-3.08,15.58,11.72,28.65,36.53,41.1,51.82Z"/>
      <path class="cls-134" d="M804.47,661.04c.4-.08.84.07,1.25,0,3.68.72,4.18,2.62,1.25,4.99-3.84,2.2,3.07,25.21,3.58,30.72.17,1.79.53,10.09.15,10.45-.18.17-4.77.15-4.95-.03-1.44-1.41-3.93-34.97-6.29-39.9-4.86,1.16-10.03,3.21-14.95,3.75-.4.04-.84,0-1.25,0-3.03.18-2.45-3.93,0-4.99.73-.36,1.99-1.08,2.49-1.25,5.28-1.76,13.03-2.66,18.71-3.74Z"/>
      <path class="cls-36" d="M762.07,496.4c4.27-.86,2.69,6.87,4.99,9.98-.18.2.62,1.68-.86,2.5-3.41,1.88-15.48,2.63-20.34,3.73-5.94,1.46-8.39-9.91-3.74-12.47,5.35-1.09,15.66-1.66,19.96-3.74Z"/>
      <path class="cls-104" d="M724.65,335.51c9.82,7.54,20.17,15.18,28.08,24.93,2.52,3.1,10.38,15.1,1.86,10.62-3.84-2.02-14.54-16.16-19.3-20.61-2.73-2.55-6.4-5.04-9.39-7.45-1.1-.89-1.93-2.06-2.49-2.49-2.36-2.63-2.75-4.7,1.25-4.99Z"/>
      <path class="cls-131" d="M720.91,331.77c1.54,1.11,2.64,2.89,3.74,3.74l-1.25,4.99c-9.4-7.2-20.15-14.28-31.18-18.71-.24-.47-1.03-.83-1.25-1.25-.98-1.88-1.46-4.79-2.49-6.24,11.58,3.29,22.71,10.51,32.43,17.46Z"/>
      <path class="cls-61" d="M770.8,522.6l3.4,13.15-.91.57c-5.69-3.22-19.56-8.55-22.45,0-4.79.69-7.13-9-1.25-9.98,6.6-1.53,14.56-2.13,21.2-3.74Z"/>
      <path class="cls-4" d="M710.93,303.08c3.31,2.16,23.16,15.25,18.7,19.95-1.71,1.8-7.21-2.29-8.72-3.74-.09-.4.09-.85,0-1.25-1.33-5.72-8.03-9.48-9.98-14.97Z"/>
      <path class="cls-128" d="M758.32,472.71c-.04,3.61,4.8,9.96,0,8.73-5.79-3.08-7.74-2.8-13.72-3.74-2.38,2.18-2.68,1.94-2.49-1.25,4.6-3.2,11.29-2.72,16.21-3.74Z"/>
      <path class="cls-26" d="M806.97,666.03c-.34-1.68-.88-3.32-1.25-4.99,2.13-.38,12.75-5.21,13.71-.61s-10.32,4.36-12.47,5.59Z"/>
      <path class="cls-14" d="M809.46,456.49c-.39.5-.81.49-1.25,0-1.32-1.55-2.41-3.45-3.74-4.99l1.25-2.49c1.15,2.39,2.52,5.11,3.74,7.48Z"/>
      <path class="cls-64" d="M805.72,381.66c.22,1.31,2.4,3.68,1.23,6.23-1.66.41-1.58-2.05-2.48-3.74l1.25-2.49Z"/>
      <path class="cls-20" d="M829.42,759.57c.1.39-.1.86,0,1.25-2.26,5.28-15.5,18.2-16.21,22.45h-1.25c.32-3.93-2.73-10.9-3.74-14.97.52-.53.72-1.95,1.25-2.49,5.9-6.13,11.43-12.7,17.46-18.71,1.09,4.34,1.56,8.77,2.49,12.47Z"/>
      <path class="cls-87" d="M671.02,286.87c2.67,3.57,4.88,7.59,7.48,11.23-1.27.82-2.66,1.64-4.22,1.65-5.61.03-21.45-1.6-27.09-2.68l-3.62-2.71c-1.65,3.46-5.19,2.58-4.99-1.25h3.74s-1.25-3.74-1.25-3.74c1.48-.49.64-1.32-2.49-2.49l-2.49-4.99c11.9.35,23.38,2.38,34.92,4.99Z"/>
      <path class="cls-75" d="M678.5,298.09c1.32.31,2.13,1.15,2.49,1.25l-1.22.61,7.46,13.11c-7.61-5.95-28.99-8.15-38.66-11.23-.26-.43-.93-.77-1.25-1.25-4.57-1.64-5.82-3.72-3.74-6.24,11.99.74,23,.94,34.92,3.74Z"/>
      <path class="cls-91" d="M638.59,293.1c.26,0,2.66,1.1,4.99,1.25,1.6,1.83,2.45,4.28,3.74,6.24-16.71-3.41-33.01-2.12-49.89-2.49-.89.39-1.69.72-2.49,0-1.09-.35-1.07-.77,0-1.25,15.01-2.17,28.31-4.21,43.65-3.74Z"/>
      <path class="cls-113" d="M404.11,451.5c.1-1.34.27-3.17-1.25-3.74,1.56-4.04,3.67-7.1,4.99-9.98-1.08,4.39-1.19,9.81-3.74,13.72Z"/>
      <path class="cls-70" d="M638.59,286.87c1.09.35,1.07.77,0,1.25-5.77-.28-11.8.73-17.47-.62,0-.99,15.43-.73,17.47-.62Z"/>
      <path class="cls-51" d="M638.59,286.87c4.24.23,8.24,1.17,12.47,1.26-1.11,2.24-7.75,1.38-9.97,1.23-.67-.04-1.85-1.22-2.49-1.25v-1.25Z"/>
      <path class="cls-130" d="M592.44,296.84l2.49,1.25c.82.06,1.67-.02,2.49,0-2.97,2.62-8.52.76-12.47,1.25-1.06-.03-1.55-.08-1.25-1.25,2.84-.5,5.86-.82,8.73-1.25Z"/>
      <path class="cls-30" d="M414.09,493.91c-.15-1.28-1.68-6.09-2.49-7.48.33-1.59.59-6.14,2.48-6.23v13.71Z"/>
      <path class="cls-79" d="M419.06,402.86l-5.61,8.71c.39-3.21,2.6-7.31,5.61-8.71Z"/>
      <path class="cls-126" d="M411.59,429.05c-.37.76-.79.74-1.25,0,.43-.95,2.68-7.65,3.73-6.24,1.08,3.06-1.86,4.78-2.48,6.24Z"/>
      <path class="cls-1" d="M583.71,298.09l1.25,1.25c-1.36.17-4.08.91-6.24,1.25-1.09-.35-1.07-.77,0-1.25,1.66-.38,3.31-.95,4.99-1.25Z"/>
      <path class="cls-107" d="M578.72,299.34v1.25c-.85.13-6.18,2.7-6.25.62,1.41-1.75,4.34-1.44,6.25-1.87Z"/>
      <path class="cls-84" d="M407.85,437.78c.49-2,.46-3.67,1.25-6.24.37-.78.79-.76,1.25,0-.78,1.57-1.49,4.04-2.49,6.24Z"/>
      <polygon class="cls-118" points="416.57 451.5 414.09 451.49 415.35 446.52 416.57 446.52 416.57 451.5"/>
      <rect class="cls-114" x="611.16" y="288.13" width="6.22" height="1.22"/>
      <path class="cls-105" d="M410.34,431.55h-1.25c.24-.79.88-1.67,1.25-2.49h1.25c-.39.92-.82,1.63-1.25,2.49Z"/>
      <path class="cls-38" d="M594.94,296.84v1.25c-1.06-.08-2.14-.04-2.49-1.25.79-.12,1.7.12,2.49,0Z"/>
      <path class="cls-6" d="M449.01,632.35c4.25,5.73,5.58,12.25,8.73,17.46-.38.58-.8.56-1.25,0-3.65-5.88-7.6-10.74-9.98-17.46-.92-1.71-.54-2.25,1.25-1.25.39.43.91.79,1.25,1.25Z"/>
      <path class="cls-60" d="M480.19,784.52l-1.25,3.74c-.6-2.96-.85-4.46-1.25-7.48.35-1.09.77-1.07,1.25,0,.47,1.08.57,2.41,1.25,3.74Z"/>
      <path class="cls-66" d="M437.78,643.58c.16-.88-1.26-2.35-1.25-2.49.03-.56.96-2.63,1.25-3.74.35-1.09.77-1.07,1.25,0-.38,2.14-.97,4.51-1.25,6.24Z"/>
      <path class="cls-42" d="M439.03,637.34h-1.25c.48-1.82-.35-4.45,2.48-4.99.64,1.99-.98,3.57-1.23,4.99Z"/>
      <path class="cls-120" d="M473.95,699.7l-1.25,1.25c-.41-1.01-1.76-3.4-2.49-4.99,1.99.7,2.64,2.24,3.74,3.74Z"/>
      <path class="cls-7" d="M460.23,652.31c-.37.82-.78.8-1.25,0-.17-.3-1.69-1.2-2.49-2.49h1.25c.22.36,1.65,1.13,2.49,2.49Z"/>
      <path class="cls-71" d="M478.94,780.77h-1.25c-.06-.48-2.67-2.9-.62-3.75.72-.03,1.41,2.71,1.87,3.75Z"/>
      <path class="cls-85" d="M447.76,631.11l-1.25,1.25c-.35-.99-1.99-1.71-1.23-3.74,1.49-.06,1.8,1.74,2.48,2.49Z"/>
      <path class="cls-9" d="M475.2,730.89c-.68-.77-1.48-.97-2.49-2.49h1.25c.72.97.97,2.15,1.25,2.49Z"/>
      <path class="cls-86" d="M456.49,714.67h-1.25c.14-1.18-.58-3.75.62-3.75,1.36.37.34,2.66.62,3.75Z"/>
      <path class="cls-49" d="M485.18,743.36c-.74-.8-1.49-1.29-2.49-2.49h1.25c.64,1.03.8,1.23,1.25,2.49Z"/>
      <path class="cls-123" d="M462.73,708.42c-2.61.36-2.84.12-2.48-2.48l2.48,2.48Z"/>
      <path class="cls-37" d="M437.78,613.66c.85.43-.73,2.12-2.48,1.22-.85-.43.73-2.12,2.48-1.22Z"/>
      <path class="cls-56" d="M483.93,740.86h-1.25c-.2-.24.19-.95,0-1.25.28.43.95.76,1.25,1.25Z"/>
      <path class="cls-47" d="M482.68,739.62c-.29-.43-.91-.78-1.25-1.25.38.44.92.74,1.25,1.25Z"/>
      <path class="cls-74" d="M481.44,738.37c-.3-.42-.88-.77-1.25-1.25.43.4.86.8,1.25,1.25Z"/>
      <path class="cls-102" d="M478.94,734.63c-.36-.45-.87-.8-1.25-1.25.42.41.86.8,1.25,1.25Z"/>
      <path class="cls-65" d="M477.69,733.38c-.38-.44-.87-.8-1.25-1.25.36.44.84.84,1.25,1.25Z"/>
      <path class="cls-109" d="M476.45,732.13c-.37-.44-.86-.81-1.25-1.25.36.45.88.79,1.25,1.25Z"/>
      <path class="cls-43" d="M473.95,728.39h-1.25c-.18-.26.15-.86,0-1.25.3.43.9.77,1.25,1.25Z"/>
      <path class="cls-22" d="M472.71,727.14c-.3-.42-.93-.76-1.25-1.25.48.29,1.04.72,1.25,1.25Z"/>
      <path class="cls-122" d="M468.96,693.47c-.43-.38-.93-.76-1.25-1.25.43.38.93.76,1.25,1.25Z"/>
      <path class="cls-135" d="M460.23,653.56h-1.25c-.17-.34.18-.94,0-1.25h1.25c.19.3-.19.95,0,1.25Z"/>
      <path class="cls-40" d="M466.47,689.73c-.15-.27-.92-.59-1.25-1.25l1.25,1.25Z"/>
      <path class="cls-87" d="M674.76,288.11c-.55-.14-1.01-.73-1.25-1.25.57.12,1.07.68,1.25,1.25Z"/>
      <path class="cls-3" d="M749.59,526.34c-3.1,3.2,1.07,8.1,1.25,9.98.05.51-1.32,4.69-2.12,5.02-5.36,2.2-18.8,3.73-25.32,4.96-3.31-2.08-3.06-8.65-2.49-12.47,1.73-1.6,24.16-6.43,28.69-7.48Z"/>
      <path class="cls-98" d="M742.11,500.14c.16,3.98.02,10.33,3.74,12.47-3.05.69-19.63,6.58-21.2,4.99.6-2.9-.95-11.84.16-13.55.48-.75,14.78-3.4,17.3-3.91Z"/>
      <path class="cls-19" d="M728.39,561.26c6.19-.91,12.41-2.29,18.7-2.49.89.79-7.4,18.59-8.71,19.42-2.37,1.51-5.7-2.11-7.5-3.22-4.13-5.43-4.96-10-2.49-13.72Z"/>
      <path class="cls-39" d="M737.12,476.45c1.62,2.65,3.39,8.34,0,9.98-2,.68-14.39,4.27-14.96,3.75-.35-.33-1.21-7.73-2.55-9.26.08-.9,15.39-4.25,17.5-4.46Z"/>
      <path class="cls-46" d="M728.39,561.26l3.4,13.15-.91.57c-5.55-3.42-9.29-7.01-13.71-11.85,3.45-1.72,7.58-1.33,11.22-1.86Z"/>
      <path class="cls-18" d="M742.11,476.45c1.16.07,2.11,1.19,2.49,1.25-.5,6.41-2.6,7.08-7.48,8.73-.27-3.47-2.37-6.83,0-9.98,1.51-.15,3.44-.09,4.99,0Z"/>
      <path class="cls-23" d="M723.4,546.29c-2.09.4-4.16.81-6.23,1.24.27-3.64,1.15-11.34,3.73-13.72,1.84,3.3,3.78,9,2.49,12.47Z"/>
      <path class="cls-63" d="M764.56,591.19c-11.48-3.38-7.17-3.7-2.49-12.47-.44,4.43.49,8.56,2.49,12.47Z"/>
      <path class="cls-36" d="M501.39,633.6c1.85-2,26.75-5.92,28.78-4.45,1.63,1.18,8.06,37.84,6.86,39.46-1.04,1.4-5.17,1.16-6.94,2.41,5.5-11.5-9.92-34.97-20.9-37.12-2.64-.52-5.18-.14-7.8-.3Z"/>
      <rect class="cls-10" x="642.34" y="843.15" width="4.98" height="1.22"/>
      <path class="cls-99" d="M633.6,848.13c1.17.17,3.75-.6,3.75.62-.33,1.21-2.62.57-3.75.62v-1.25Z"/>
      <path class="cls-17" d="M783.27,666.03v4.99c-1.19,0-3.6.52-3.75-.63-.71-4.21,1.68-3.35,3.75-4.36Z"/>
      <path class="cls-124" d="M737.11,684.73c.89,1,3.93,14.06,7.5,16.2l-11.22,1.26c-.78-.78.88-13.33,1.29-15.57.3-1.59.46-4.1,2.44-1.9Z"/>
      <path class="cls-89" d="M544.93,733.49c2.9,3.45-4.64,14.42-9.86,13.61l-2.5-14.96c.63-.58,11.71.59,12.35,1.35Z"/>
      <path class="cls-25" d="M863.09,685.98c-.61,1-.15,3.61-2.48,3.74-.92-2.1,1.07-3.99,1.23-4.99l1.25,1.25Z"/>
      <path class="cls-125" d="M828.17,451.5l-1.25,1.25c-.57-1.07-2.73-3.55-3.74-4.99l2.49-7.48c.33,5-.25,6.53,2.49,11.23Z"/>
      <path class="cls-82" d="M821.93,453.98c-1.84,1.5-5.57-4.05-4.98-6.22l4.98,6.22Z"/>
      <path class="cls-116" d="M811.96,460.23c-.92-1.07-2.38-2.15-3.74-3.74h1.25c.38.74,1.4.75,2.49,3.74Z"/>
      <path class="cls-112" d="M814.45,462.73c-3.86.6-1.96-1.02-2.49-2.49.59.68,1.6,1.49,2.49,2.49Z"/>
      <path class="cls-97" d="M813.2,385.4c-1.66-.86-.93-2.57-1.25-3.74h1.25c-.11,1.23.05,2.51,0,3.74Z"/>
      <path class="cls-101" d="M860.6,543.8c.22,2.42.16,5.59-2.48,6.24v-8.1s1.23-.63,1.23-.63l1.25,2.49Z"/>
      <path class="cls-52" d="M860.61,528.83l.61-4.98c2.73,1.93,2.42,3.85-.61,4.98Z"/>
      <path class="cls-13" d="M860.6,543.8l-1.25-2.49c1.7-.06,1.14,1.36,1.25,2.49Z"/>
      <path class="cls-45" d="M857.48,555.02c.81.42.81.83,0,1.25v-1.25Z"/>
      <path class="cls-58" d="M833.16,512.62c1.85,2.99,2.53,6.04,6.24,4.99-.79.86-1.73,1.6-2.49,2.49-.32-.09-.82.02-1.25,0l-2.49-6.24v-1.25Z"/>
      <path class="cls-121" d="M831.29,445.27c.81.42.81.83,0,1.25v-1.25Z"/>
      <path class="cls-2" d="M833.16,512.62v1.25c-5.62-5.16-8.61-12.37-12.47-18.71.38-.55.8-.54,1.25,0,4.84,6.43,7.17,10.92,11.23,17.46Z"/>
      <path class="cls-73" d="M821.93,495.16h-1.25c-.73-1.19-1.34-1.21-2.49-3.74.73.94,2.36,1.9,3.74,3.74Z"/>
      <path class="cls-48" d="M818.19,491.41c-.34-.43-.88-.78-1.25-1.25.45.34,1.02.74,1.25,1.25Z"/>
      <path class="cls-41" d="M820.68,374.19c.85.43-.73,2.12-2.48,1.22-.85-.43.73-2.12,2.48-1.22Z"/>
    </g>
  </g>
</svg>