<?xml version="1.0" encoding="UTF-8"?>
<svg xmlns="http://www.w3.org/2000/svg" xmlns:xlink="http://www.w3.org/1999/xlink" viewBox="0 0 773.89 582.68">
  <defs>
    <style>
      .cls-1 {
        fill: #fbf4e4;
      }

      .cls-2 {
        fill: #957f6d;
      }

      .cls-3 {
        stroke: #f08f70;
        stroke-width: 3px;
      }

      .cls-3, .cls-4, .cls-5, .cls-6, .cls-7 {
        stroke-linejoin: round;
      }

      .cls-3, .cls-4, .cls-5, .cls-6, .cls-7, .cls-8 {
        stroke-linecap: round;
      }

      .cls-3, .cls-6, .cls-7, .cls-8 {
        fill: none;
      }

      .cls-9 {
        fill: #c0aa99;
      }

      .cls-4 {
        fill: #b5b075;
      }

      .cls-4, .cls-5, .cls-6, .cls-7, .cls-10, .cls-8 {
        stroke: #231815;
      }

      .cls-4, .cls-5, .cls-6, .cls-8 {
        stroke-width: 4px;
      }

      .cls-11 {
        fill: #231815;
      }

      .cls-12 {
        fill: #6f6053;
      }

      .cls-5 {
        fill: #fff;
      }

      .cls-7 {
        stroke-width: 5px;
      }

      .cls-13 {
        fill: #edb9a7;
      }

      .cls-14 {
        fill: #c9c7a0;
      }

      .cls-10 {
        fill: #cba98c;
        stroke-width: 2.5px;
      }

      .cls-10, .cls-8 {
        stroke-miterlimit: 10;
      }

      .cls-15 {
        fill: #f4e1d0;
      }

      .cls-16 {
        fill: url(#_名称未設定グラデーション_36);
      }

      .cls-17 {
        fill: url(#_名称未設定グラデーション_40);
      }

      .cls-18 {
        fill: url(#_名称未設定グラデーション_46);
      }

      .cls-19 {
        fill: url(#_名称未設定グラデーション_47);
      }

      .cls-20 {
        fill: url(#_名称未設定グラデーション_48);
      }
    </style>
    <linearGradient id="_名称未設定グラデーション_48" data-name="名称未設定グラデーション 48" x1="99.49" y1="194.94" x2="186.25" y2="194.94" gradientUnits="userSpaceOnUse">
      <stop offset="0" stop-color="#f7f8f8" stop-opacity="0"/>
      <stop offset=".9" stop-color="#edb9a7"/>
    </linearGradient>
    <linearGradient id="_名称未設定グラデーション_46" data-name="名称未設定グラデーション 46" x1="149.85" y1="243.5" x2="149.85" y2="210.72" gradientUnits="userSpaceOnUse">
      <stop offset=".18" stop-color="#edb9a7"/>
      <stop offset=".33" stop-color="#efc9bb" stop-opacity=".74"/>
      <stop offset=".51" stop-color="#f2d9d1" stop-opacity=".48"/>
      <stop offset=".67" stop-color="#f4e6e1" stop-opacity=".27"/>
      <stop offset=".81" stop-color="#f5f0ed" stop-opacity=".12"/>
      <stop offset=".93" stop-color="#f6f5f5" stop-opacity=".03"/>
      <stop offset="1" stop-color="#f7f8f8" stop-opacity="0"/>
    </linearGradient>
    <linearGradient id="_名称未設定グラデーション_47" data-name="名称未設定グラデーション 47" x1="265.46" y1="244.56" x2="265.46" y2="208.22" gradientUnits="userSpaceOnUse">
      <stop offset="0" stop-color="#edb9a7"/>
      <stop offset=".19" stop-color="#efc9bb" stop-opacity=".74"/>
      <stop offset=".4" stop-color="#f2d9d1" stop-opacity=".48"/>
      <stop offset=".6" stop-color="#f4e6e1" stop-opacity=".27"/>
      <stop offset=".77" stop-color="#f5f0ed" stop-opacity=".12"/>
      <stop offset=".91" stop-color="#f6f5f5" stop-opacity=".03"/>
      <stop offset="1" stop-color="#f7f8f8" stop-opacity="0"/>
    </linearGradient>
    <radialGradient id="_名称未設定グラデーション_40" data-name="名称未設定グラデーション 40" cx="391.22" cy="545.38" fx="391.22" fy="545.38" r="276.48" gradientUnits="userSpaceOnUse">
      <stop offset=".18" stop-color="#d2e2dc"/>
      <stop offset=".49" stop-color="#d2e2dc" stop-opacity=".99"/>
      <stop offset=".61" stop-color="#d3e2dd" stop-opacity=".96"/>
      <stop offset=".69" stop-color="#d5e3de" stop-opacity=".91"/>
      <stop offset=".75" stop-color="#d8e5e0" stop-opacity=".83"/>
      <stop offset=".81" stop-color="#dbe7e3" stop-opacity=".74"/>
      <stop offset=".86" stop-color="#e0eae6" stop-opacity=".62"/>
      <stop offset=".9" stop-color="#e5edea" stop-opacity=".47"/>
      <stop offset=".94" stop-color="#ebf1ef" stop-opacity=".31"/>
      <stop offset=".98" stop-color="#f2f5f4" stop-opacity=".12"/>
      <stop offset="1" stop-color="#f7f8f8" stop-opacity="0"/>
    </radialGradient>
    <linearGradient id="_名称未設定グラデーション_36" data-name="名称未設定グラデーション 36" x1="388.91" y1="470.53" x2="388.91" y2="312.71" gradientUnits="userSpaceOnUse">
      <stop offset=".46" stop-color="#d2e2dc"/>
      <stop offset=".52" stop-color="#d2e2dc" stop-opacity=".98"/>
      <stop offset=".59" stop-color="#d4e3de" stop-opacity=".92"/>
      <stop offset=".67" stop-color="#d8e5e0" stop-opacity=".83"/>
      <stop offset=".75" stop-color="#dde8e4" stop-opacity=".69"/>
      <stop offset=".82" stop-color="#e3ece9" stop-opacity=".52"/>
      <stop offset=".9" stop-color="#ebf1ef" stop-opacity=".31"/>
      <stop offset=".98" stop-color="#f4f6f6" stop-opacity=".06"/>
      <stop offset="1" stop-color="#f7f8f8" stop-opacity="0"/>
    </linearGradient>
  </defs>
  <g id="_回し塗り" data-name="回し塗り">
    <path class="cls-1" d="M155.77,183.81l.86,9.43s-56.99-4.72-69.57,4.67c-16.53,12.33-7.45,40.92-7.45,40.92l202.3,5.89s16.24-40.13-8.61-54.29c-13.83-7.88-68.56-.52-68.56-.52l-2.1-10.37,28.08-28.15s15.19-16.51-.35-20.82l-2.59-35.86-114.86-1.38.28,29.77s-5.06,14.73-1.97,19.24,11.5,12.83,11.5,12.83l33.03,28.66Z"/>
    <rect class="cls-13" x="130.67" y="151.38" width="25.1" height="10.34" rx="5.11" ry="5.11"/>
    <rect class="cls-13" x="191.1" y="149.98" width="26.87" height="10.34" rx="5.11" ry="5.11"/>
    <path class="cls-2" d="M229.91,60.58c-24.42-26.04-80.45-22.79-98.32-12.91-38.51,21.29-31.81,82.22-23.09,82.91,3.63.28,7.12-.58,10.55-2.05-.19,6.36-.57,26.54,1.98,30.03,3.04,4.16,3.11.99,7.04,5.41,3.92,4.41,1.77,14.52,1.77,14.52,0,0,8.79-7.58,10.02-13.53,1.13-5.52-12.7-10.51-12.66-19.92.05-11.82-1.36-19.84-1.36-19.84l-.62.13c1.62-6.59,3.87-10.7,3.87-10.7,7.01,6.26,18.24-2.66,27.11-1.11l5.92-8.15,14.39,2.89v-5.92l17.98,7.45,11.53,1.18,14.96,1.05,2.49,5.91c-.55,7.76-1.3,19.9-1.27,27.47.04,9.42-13.8,14.41-12.66,19.92,1.22,5.95,10.02,13.53,10.02,13.53,0,0-2.15-10.11,1.77-14.52,3.92-4.41,4-1.25,7.04-5.41,2.35-3.22,2.21-20.67,2.02-28.34,1.77-.03,4.54-.06,5.74.01,7.92.45,7.91-18.58,7.91-18.58,0,0,5.99-29.97-14.11-51.41Z"/>
    <path class="cls-2" d="M162.96,40.47s-11.19-19.33-1.04-26.64c13.57-9.78,13.2-9.01,29.45-11.83,12.06-2.09,39.52,17.92,16.9,40.83l-45.31-2.36Z"/>
    <path class="cls-12" d="M164.77,38.64s29.64-1.3,34.96-12.47,7.56-17.23,7.56-17.23c0,0,14.62,7.31,10,19.71-4.62,12.4-12.52,15.96-12.52,15.96l-40.01-5.97Z"/>
    <path class="cls-9" d="M163.28,38.48c.14-.42-3.1-13.71,2.92-20.15s6.8-6.23,13.59-8.82,21.02-5.57,21.02-5.57c0,0-4.56-2.97-17.94-.87s-23.46,12-24.02,18.35c-.75,8.4,4.43,17.07,4.43,17.07Z"/>
    <path class="cls-9" d="M122.32,56.62c-.43,1.5-4.63,3.74,1.53,5.7s24.09,1.26,25.49,0l1.4-1.26s1.26,1.4,6.44,1.68,11.07-1.26,11.07-1.26c0,0,4.06,2.8,3.64,4.34,0,0,.84.56-6.02,0s-16.39,2.1-16.39,2.1c0,0,.48-1.4-4.59-1.4s-18.38,4.65-18.38,4.65c0,0,4.48-.58-1.96-1.84s-14.19,2.33-14.19,2.33l11.96-15.03Z"/>
    <path class="cls-9" d="M190.52,60.91s6.88,1.82,11.5-1.82,4.97-4.2,4.97-4.2c0,0,1.89,1.54,3.99.56s0-7.7,0-7.7c0,0,1.91-.42,6.49,3.36s7.66,5.51,7.66,5.51c0,0,2.24-.23-4.9,0s-4.06,2.48-4.06,2.48c0,0-5.88-1.4-9.18-.28s-6.18,4.2-6.18,4.2c0,0-1.74-1.4-5.1,0s-5.19-2.1-5.19-2.1Z"/>
    <path class="cls-12" d="M103.91,99.61s.93,6.5,6.45,12.14c4.71,4.82,7.18,3.14,7.18,3.14l.22,13.32-7.36,5.04c-2.2-6.6-5.35-15.56-6.78-21.5s.28-12.14.28-12.14Z"/>
    <path class="cls-12" d="M244.53,100.57s-.93,6.5-6.45,12.14c-4.71,4.82-7.18,3.14-7.18,3.14l-.22,13.32,7.36,5.04c2.2-6.6,5.35-15.56,6.78-21.5s-.28-12.14-.28-12.14Z"/>
    <path class="cls-12" d="M148.37,75.86s-2.43-2.05-8.96,6.72-9.59,15.53-9.59,15.53c0,0,4.4-20.57,9.69-23.1s8.86.85,8.86.85Z"/>
    <path class="cls-12" d="M200.14,75.86s2.43-2.05,8.96,6.72,9.59,15.53,9.59,15.53c0,0-4.4-20.57-9.69-23.1s-8.86.85-8.86.85Z"/>
    <path class="cls-12" d="M119.14,151.38c5.46,8.94,18.04,8.94,18.04,8.94,2.66,4.95-5.43,16.72-5.43,16.72,0,0-1.09-12.56-3.83-13.27s-7.1-1.5-7.1-4.25-1.68-8.14-1.68-8.14Z"/>
    <path class="cls-12" d="M228.53,151.38c-5.46,8.94-18.04,8.94-18.04,8.94-2.66,4.95,5.43,16.72,5.43,16.72,0,0,1.09-12.56,3.83-13.27s7.1-1.5,7.1-4.25,1.68-8.14,1.68-8.14Z"/>
    <path class="cls-20" d="M202.65,181.66s-10.2,21.92-29.33,26.24c-12.55,2.84-57.43-14.29-57.43-14.29l39.88-.63-.58-10.9s8.4,8.26,18.49,9.83c10.82,1.68,28.97-10.25,28.97-10.25Z"/>
    <path class="cls-18" d="M78.49,208.22s-1.38,11.06,9.83,15.44c11.21,4.37,126.81,11.02,130.92,12.46s4.02,7.38,4.02,7.38l-144.81-4.9c-4.53-6.02.04-30.38.04-30.38Z"/>
    <path class="cls-19" d="M249.38,234.54c8.59-2.43,26.7-4.56,26.43-7.14s-.02-6.27,1.68-7.06c3.64-1.68,7.56-12.13,7.56-12.13,0,0,4.81,8.97,1.87,20.16s-3.15,16.38-13.44,16.18-30.45-1.26-30.45-1.26l6.35-8.75Z"/>
  </g>
  <g id="_途中" data-name="途中">
    <path class="cls-8" d="M211.35,171.52s-19.02,20.39-34.65,20.39-39.53-22.82-39.53-22.82"/>
    <path class="cls-6" d="M118.27,106s-1.14,43.57-.56,45.39c2.34,7.31,3.78,11.11,7.47,11.67,9.15,1.4,3.64,19.8,3.64,19.8,0,0,7.84-11.58,10.09-17.56,2.24-5.98-1.12-5.23-5.55-9.71s-7-5.86-7.15-33.99c-.03-5.64,0-31.28,13.29-46.59,1.28-1.47,2.69-3.84,2.69-3.84l2.6,1.31-5.29,2.53"/>
    <path class="cls-6" d="M117.71,151.38s-7.73-6.35-7.28-14.19c.4-7.01,7.29-6.35,7.29-6.35"/>
    <path class="cls-6" d="M110.41,130.82s-7.75-3.91-8.2-25.01c-.61-28.2,10.44-41.28,24.65-53.04,21.67-17.93,45.81-10.97,45.81-10.97,0,0,27.24-6.96,48.9,10.97,14.21,11.76,25.26,24.84,24.65,53.04-.45,21.11-8.2,25.01-8.2,25.01"/>
    <path class="cls-6" d="M230.17,106s1.14,43.57.56,45.39c-2.34,7.31-3.78,11.11-7.47,11.67-9.15,1.4-3.64,19.8-3.64,19.8,0,0-7.84-11.58-10.09-17.56s1.12-5.23,5.55-9.71,7-5.86,7.15-33.99c.03-5.64,0-31.28-13.29-46.59-1.28-1.47-2.69-3.84-2.69-3.84l-2.6,1.31,5.29,2.53"/>
    <path class="cls-6" d="M230.72,130.84s6.89-.66,7.29,6.35c.45,7.84-7.28,14.19-7.28,14.19"/>
    <path class="cls-6" d="M162.96,40.47s-8.12-11.61-3.36-22.53S183.97-.56,197.42,2.81s23.27,18.65,19.07,28.73c-4.2,10.09-10.19,12.48-10.19,12.48"/>
    <path class="cls-6" d="M158.85,26.81s16.83-2.77,28.93-8.88c10.99-5.55,15.33-11.43,15.33-11.43"/>
    <path class="cls-6" d="M209.42,11.4s-10.93,11.61-20.59,16.81-26.83,10.7-26.83,10.7"/>
    <path class="cls-6" d="M214.76,16.65s-1.38,4.17-9.69,12c-7.01,6.61-14.56,12-14.56,12"/>
    <path class="cls-6" d="M163.28,12.62c.89.46,6.07-.05,10.94,3.12s3.59,6.26,3.59,6.26"/>
    <path class="cls-6" d="M174.22,5.44s9.56.64,14.74,1.9,7.98,3.22,7.98,3.22"/>
    <path class="cls-6" d="M79.61,238.83s-13.91-33.02,12.89-42.76c15.41-5.6,63.27-3.08,63.27-3.08v-9.17"/>
    <path class="cls-6" d="M96.98,206.9l131.49,13.07s4.36-5.89,9.56-8.65c9.63-5.11,22.66-8.65,26.86-7.53s9.5,5.31,10.37,8.11c.59,1.91,1.02,4.29,1.34,6.8.96,7.52.9,16.13.9,16.13l-1.68,1.29-9.24,7.11"/>
    <path class="cls-6" d="M276.59,218.69l6.97,2.59s.82,10.09-.3,12.51l-7.45,2.32"/>
    <path class="cls-6" d="M278.15,243.23s7.1,1.96,8.78-14.85-1.49-32.03-10.27-36.47-23.91-7.24-44.82-5c-20.92,2.24-27.08,2.99-27.08,2.99l-2.1-10.37"/>
    <line class="cls-6" x1="181.88" y1="215.34" x2="254.05" y2="197.75"/>
    <path class="cls-6" d="M248.73,229.59s.47,3.24-1.87,6.52-6.6,7.18-6.6,7.18l10.61-7.73-2.15-5.98Z"/>
    <path class="cls-6" d="M247.1,214.14s11.07,3.78,12.37,7.98,1.77,19.61,1.49,20.08"/>
    <path class="cls-6" d="M250.88,206.44s10.09,2.56,14.38,7.74c3.91,4.71,6.13,25.3,4.37,26.68"/>
    <path class="cls-6" d="M243.18,127.03s4.48-22.91,1.97-38.97-18.19-30.58-18.19-30.58c0,0-5.04-6.89-17.83-11.45s-25.59-5.37-25.59-5.37l-10.88,1.14s-6.17-1.14-19-1.14c-16.81,0-34.6,19.15-34.6,19.15,0,0-13.97,14.79-16,31.48-.92,7.56-.12,14.88,1.1,25.08.78,6.48,6.24,16.89,6.24,16.89l7.36-5.04-.22,21.65s1.76,10.13,4.7,11.66,5.17.37,6.53,3.69.05,17.64.05,17.64c0,0,9.52-13.45,10.09-17.56s-9.45-12.85-10.4-16.76-1.36-42.16-1.36-42.16c3.26,9.05,5.31,9.99,5.31,9.99"/>
    <path class="cls-6" d="M146.29,113.75c-3.36-3.18-7.66-16.44-7.66-19.05"/>
    <path class="cls-6" d="M147.6,89.47c1.12,10.94,9.98,20.16,10.5,21.11"/>
    <path class="cls-6" d="M156.19,89.95s0,15.78,9.15,17.93,12.14,1.17,12.14,1.17l-1.49-6.1s12.51,6.55,18.12,6.32"/>
    <path class="cls-6" d="M187.38,85.64c3.92,11.7,10.47,18.83,19.61,24.93"/>
    <path class="cls-6" d="M203.64,89.95c4.48,11.83,17.1,20.23,17.84,20.63"/>
    <path class="cls-6" d="M162.63,115.24s-10.57-3-20.17,0c-8.87,2.77-15.31,7.84-15.31,7.84"/>
    <path class="cls-6" d="M187.78,114.13s10.57-3,20.17,0c8.87,2.77,15.31,7.84,15.31,7.84"/>
    <line class="cls-6" x1="175.48" y1="162.3" x2="175.52" y2="162.68"/>
    <path class="cls-6" d="M168.05,172.02c6.21,3.91,11.93,2.52,15.69-1.12"/>
    <path class="cls-3" d="M129.81,159.39s6.77-5.23,8.82-5.23,1.49,3.36,3.83,4.3,9.06-2.99,9.06-2.99"/>
    <path class="cls-3" d="M196.13,157.48s6.77-5.23,8.82-5.23,1.49,3.36,3.83,4.3,9.06-2.99,9.06-2.99"/>
    <path class="cls-7" d="M127.31,129.73c5.24-5.07,13.35-7.73,21.85-7.66,8.88.08,13.3,3.7,13.3,3.7"/>
    <ellipse class="cls-10" cx="150.55" cy="138.21" rx="8.72" ry="9.87"/>
    <path class="cls-11" d="M146.89,123.61c1.15-1.84,1.99-3.92,2.41-6.05h-4.82c.49,1.73,1.38,3.28,2.58,4.61.42.46,1.16.73,1.77.73s1.35-.27,1.77-.73c.95-1.04.94-2.5,0-3.54-.16-.18-.32-.37-.47-.56l.39.51c-.45-.59-.81-1.23-1.1-1.9l.25.6c-.14-.34-.26-.69-.36-1.04-.29-1.02-1.32-1.88-2.41-1.84-.44.02-.87.13-1.26.34-.5.27-1.04.93-1.15,1.49-.22,1.08-.54,2.13-.96,3.14l.25-.6c-.34.8-.74,1.58-1.2,2.32-.34.54-.42,1.32-.25,1.93s.61,1.21,1.15,1.49c1.23.65,2.68.29,3.42-.9h0Z"/>
    <path class="cls-7" d="M221.68,128.65c-5.24-5.07-13.35-7.73-21.85-7.66s-13.3,3.7-13.3,3.7"/>
    <ellipse class="cls-10" cx="199.87" cy="137.14" rx="8.72" ry="9.87"/>
    <path class="cls-11" d="M206.42,120.01c-.46-.74-.86-1.51-1.2-2.32l.25.6c-.42-1.01-.74-2.06-.96-3.14l-.25-.6c-.16-.29-.37-.53-.64-.7-.42-.33-.97-.56-1.51-.54-1.11.05-2.1.74-2.41,1.84-.1.35-.22.7-.36,1.04l.25-.6c-.29.68-.66,1.32-1.1,1.9l.39-.51c-.15.19-.31.38-.47.56-.44.49-.73,1.09-.73,1.77,0,.61.27,1.35.73,1.77s1.1.76,1.77.73,1.32-.24,1.77-.73c1.2-1.33,2.09-2.88,2.58-4.61h-4.82c.43,2.13,1.27,4.21,2.41,6.05.34.54.87.98,1.49,1.15s1.4.09,1.93-.25,1-.86,1.15-1.49.11-1.35-.25-1.93h0Z"/>
    <ellipse class="cls-15" cx="150.55" cy="141.7" rx="3.49" ry="4.77" transform="translate(4.21 287.75) rotate(-88.21)"/>
    <ellipse class="cls-15" cx="199.87" cy="141.1" rx="4.77" ry="3.49" transform="translate(-5.74 8.5) rotate(-2.4)"/>
  </g>
  <g id="_風呂" data-name="風呂">
    <ellipse class="cls-17" cx="391.22" cy="545.38" rx="312.78" ry="37.31"/>
    <path class="cls-5" d="M739.27,285.23s-6.72,79.19-16.81,104.41c-10.09,25.21-31.28,78.16-65.65,84.05-34.37,5.88-502.72,5.88-537.09,0s-55.56-58.83-65.65-84.05-16.81-104.41-16.81-104.41l355.85-21.19,346.15,21.19Z"/>
    <path class="cls-16" d="M691.91,312.71s-19.84,29.91-53.89,55.84c-88.85,67.69-229.48,65.31-250.5,64.55v-.1c.63-.04.09,0-1.47.05-.78-.03-1.21-.06-1.21-.06v.09c-21.64.59-158.15,1.68-245.05-64.53-34.04-25.94-53.89-55.84-53.89-55.84l-37.86,3.18s19.13,72.96,38.05,109.26c23.37,44.82,59.88,39.65,120.31,42.02,59.73,2.35,178.43,3.36,178.43,3.36,0,0,126.83-1.02,186.56-3.36,60.43-2.37,96.94,2.8,120.31-42.02,18.92-36.3,38.05-109.26,38.05-109.26l-37.86-3.18Z"/>
    <path class="cls-5" d="M751.93,238.89c-13.93-.81-216.66,6.12-340.28,6.89v-.12c-7.51.11-15.8.17-24.71.18-8.91-.01-17.19-.07-24.71-.18v.12c-123.62-.77-326.35-7.7-340.28-6.89-26.71,1.56-22.52,26.8-11.05,38.66,7.24,7.49,14.48,7.68,52.59,7.68h646.89c38.11,0,45.35-.19,52.59-7.68,11.46-11.86,15.66-37.1-11.05-38.66Z"/>
    <path class="cls-4" d="M126.08,455.76c-11.21.56-16.25,10.09-14.57,23.81,1.68,13.73.56,31.1-4.48,40.06s-17.37,12.89-15.69,22.97,12.89,14.01,25.21,13.45,24.09-.56,25.77-9.53-.56-19.05-2.24-29.14-.87-38.44-1.68-48.19c-1.12-13.45-12.33-13.45-12.33-13.45Z"/>
    <path class="cls-4" d="M650.46,455.76c11.21.56,16.25,10.09,14.57,23.81s-.56,31.1,4.48,40.06,17.37,12.89,15.69,22.97c-1.68,10.09-12.89,14.01-25.21,13.45s-24.09-.56-25.77-9.53.56-19.05,2.24-29.14c1.68-10.09.87-38.44,1.68-48.19,1.12-13.45,12.33-13.45,12.33-13.45Z"/>
    <g>
      <path class="cls-14" d="M105.73,546.48c1.66.43,3.31.73,4.79.65,3.24-.16,9.35-.95,10.9-14.78.57-5.08.75-10.19.94-15.29.51-13.79.24-34.27.75-48.06-1.27,3.48-.31,66.03-23.05,75.81,1.7.46,3.69,1.16,5.66,1.67Z"/>
      <path class="cls-14" d="M105.06,548.89c3.82.96,8.2,1.24,11.67-.99,4.21-2.7,5.98-7.82,6.77-12.52,1.29-7.64,1.33-15.54,1.51-23.27.16-6.85.19-13.7.24-20.54.05-7.52.09-15.05.37-22.57.11-2.94-4.02-3.22-4.91-.66-.34.97-.33,2.14-.41,3.16-.14,1.76-.24,3.52-.35,5.28-.33,5.38-.72,10.76-1.28,16.13-.17,1.61-.35,3.23-.55,4.84s-.35,2.73-.63,4.58c-.51,3.35-1.1,6.68-1.81,9.99s-1.53,6.48-2.53,9.66c-.49,1.54-1.01,3.07-1.6,4.57-.13.34-.26.68-.4,1.01-.08.19-.15.37-.23.56-.18.42.23-.53-.07.17s-.64,1.43-.98,2.13c-.7,1.44-1.47,2.86-2.33,4.21-.4.63-.82,1.25-1.26,1.85-.12.17-.25.34-.37.5.26-.34,0,0-.12.14-.22.26-.43.52-.66.78-.48.55-.98,1.07-1.51,1.58-.26.24-.52.48-.79.72-.12.1-.96.76-.46.39-1.1.82-2.28,1.52-3.54,2.07-2.06.9-1.31,4.04.6,4.57s3.76,1.16,5.66,1.67c3.11.82,4.44-4,1.33-4.82-1.9-.5-3.77-1.14-5.66-1.67l.6,4.57c5.13-2.24,8.9-6.84,11.58-11.61,3.21-5.7,5.25-12.06,6.81-18.39,3.05-12.43,4.27-25.27,5.09-38.01.14-2.21.27-4.43.42-6.64.05-.71.11-1.41.18-2.11.01-.11.07-.28.05-.38.23,1.13-.2.49-.03.29.06-.07.07-.34.1-.44l-4.91-.66c-.47,12.84-.32,25.7-.52,38.55-.11,6.96-.27,13.93-.81,20.87-.26,3.28-.57,6.58-1.58,9.74-.35,1.11-.62,1.79-1.2,2.81-.2.35-.41.68-.64,1.01-.41.6.31-.34-.14.19-.18.21-.36.41-.55.61-.14.14-.28.26-.42.4-.49.48.12-.04-.2.18s-.66.42-1,.62c-.14.08-.29.14-.43.21.69-.33.06-.03-.11.02-.28.08-.55.17-.83.24-.31.07-.61.11-.92.17.91-.17-.06,0-.31.01-1.57.11-3.05-.15-4.57-.54-3.12-.78-4.45,4.04-1.33,4.82Z"/>
    </g>
    <g>
      <path class="cls-14" d="M670.83,546.48c-1.66.43-3.31.73-4.79.65-3.24-.16-9.35-.95-10.9-14.78-.57-5.08-.75-10.19-.94-15.29-.51-13.79-.24-34.27-.75-48.06,1.27,3.48.31,66.03,23.05,75.81-1.7.46-3.69,1.16-5.66,1.67Z"/>
      <path class="cls-14" d="M670.17,544.07c-1.44.36-2.85.63-4.34.55-.23-.01-.47-.04-.7-.05-.19-.01-.64-.12.17.03-.17-.03-.35-.05-.52-.09-.52-.1-1.01-.25-1.51-.42s.52.27.03.01c-.14-.07-.29-.14-.43-.22-.35-.19-.68-.41-1-.64.54.4-.34-.33-.48-.47s-.28-.3-.41-.45c-.05-.05-.46-.6-.14-.17-.59-.8-1.09-1.69-1.48-2.61-.98-2.3-1.53-5.45-1.81-8.17-1.4-13.59-1.13-27.4-1.23-41.05-.05-7.11-.1-14.21-.36-21.32l-4.91.66c.02.07.05.33.09.37.04.03.03.19.04.24.11.36-.09-.84-.03-.25s.11,1.16.16,1.74c.14,1.84.24,3.68.36,5.52.35,5.58.76,11.16,1.37,16.72,1.46,13.34,3.56,27.33,9.63,39.45,2.75,5.5,6.79,10.98,12.59,13.51l.6-4.57c-1.9.53-3.76,1.16-5.66,1.67-3.11.82-1.79,5.65,1.33,4.82,1.9-.5,3.77-1.14,5.66-1.67s2.65-3.67.6-4.57c-1.15-.5-2.21-1.13-3.24-1.85-.1-.07-.2-.15-.3-.23.43.32.15.11.05.04-.25-.2-.49-.41-.74-.62-.49-.43-.96-.89-1.41-1.36-.42-.44-.82-.89-1.2-1.36-.11-.13-.22-.27-.32-.4-.26-.32.35.47-.05-.07-.21-.28-.42-.56-.62-.85-.84-1.19-1.59-2.44-2.29-3.72-1.54-2.84-2.38-4.89-3.43-7.89s-2-6.36-2.77-9.6-1.44-6.71-2-10.09-.91-6.03-1.3-9.42c-.64-5.62-1.08-11.27-1.44-16.91-.13-2.1-.25-4.2-.4-6.29-.09-1.18-.06-2.57-.45-3.7-.88-2.53-5.02-2.3-4.91.66.5,13.55.3,27.12.55,40.67.14,7.55.28,15.17,1.14,22.68.58,5.06,1.73,11.14,5.9,14.58,3.73,3.08,8.44,3.08,12.96,1.95,3.12-.78,1.8-5.6-1.33-4.82Z"/>
    </g>
  </g>
</svg>