<?xml version="1.0" encoding="UTF-8"?>
<svg xmlns="http://www.w3.org/2000/svg" viewBox="0 0 568.38 245.13">
  <defs>
    <style>
      .cls-1 {
        fill: #d5d2b4;
      }

      .cls-1, .cls-2, .cls-3, .cls-4, .cls-5, .cls-6, .cls-7, .cls-8, .cls-9 {
        stroke-linecap: round;
        stroke-linejoin: round;
      }

      .cls-1, .cls-8 {
        stroke: #aeddee;
        stroke-width: 7px;
      }

      .cls-10 {
        fill: #920783;
      }

      .cls-2, .cls-4 {
        fill: #f2f9fb;
      }

      .cls-2, .cls-4, .cls-7, .cls-9 {
        stroke-width: 5px;
      }

      .cls-2, .cls-5, .cls-7 {
        stroke: #7fcce2;
      }

      .cls-3 {
        stroke: #8dc556;
        stroke-width: 18px;
      }

      .cls-3, .cls-6 {
        fill: none;
      }

      .cls-4, .cls-9 {
        stroke: #55c1df;
      }

      .cls-11 {
        fill: #53c1e1;
      }

      .cls-5 {
        fill: #f4fafb;
        stroke-width: 4px;
      }

      .cls-6 {
        stroke: #fff;
        stroke-width: 11px;
      }

      .cls-7, .cls-8, .cls-9 {
        fill: #fff;
      }

      .cls-12 {
        fill: #8dc556;
      }
    </style>
  </defs>
  <g id="_レイヤー_4" data-name="レイヤー 4">
    <circle class="cls-2" cx="56.72" cy="20.74" r="17.77"/>
    <circle class="cls-7" cx="95.2" cy="23.87" r="10.01"/>
    <ellipse class="cls-7" cx="122.91" cy="56.9" rx="28.01" ry="19.13"/>
    <ellipse class="cls-7" cx="192.23" cy="41.73" rx="19.93" ry="17.86"/>
    <circle class="cls-5" cx="221.69" cy="10.27" r="7.95"/>
    <circle class="cls-9" cx="318.33" cy="234.49" r="10.64"/>
    <circle class="cls-9" cx="537.25" cy="157.34" r="10.6"/>
    <circle class="cls-5" cx="151.8" cy="43.62" r="15.01"/>
    <circle class="cls-5" cx="170.07" cy="38.53" r="9.96"/>
    <ellipse class="cls-7" cx="52.53" cy="63.47" rx="15.41" ry="12.39"/>
    <circle class="cls-4" cx="551.31" cy="178.4" r="17.08"/>
  </g>
  <g id="_レイヤー_1" data-name="レイヤー 1">
    <path class="cls-8" d="M279.82,34.74s2.88,31.25.85,41.77c-2.03,10.51-6.3,32.6-18.65,37.33-12.35,4.73-186.09,38.02-199.24,38.18s-24.6-18.91-30.05-27.99c-5.45-9.08-13.32-39.38-13.32-39.38l130.57-33.53,129.84-16.37Z"/>
    <path class="cls-8" d="M281.37,15.83c-5.22.67-79.96,17.78-125.76,26.86v-.05c-2.79.58-5.86,1.19-9.16,1.83-3.31.63-6.38,1.19-9.18,1.68v.05c-45.9,8.49-121.57,20.2-126.69,21.51-9.8,2.5-6.53,12.02-1.48,15.81,3.19,2.4,5.89,1.95,20.03-.75,8.15-1.56,77.15-14.78,110.82-21.23l18.33-3.51c33.67-6.45,102.67-19.67,110.82-21.23,14.14-2.71,16.81-3.3,18.99-6.72,3.45-5.42,3.29-15.53-6.72-14.24Z"/>
    <path class="cls-1" d="M63.92,144.58c-4.12,1.01-5.34,5.07-3.79,10.29s2.32,12.04,1.06,15.89-5.57,6.24-4.26,10.04,5.73,4.53,10.27,3.43,8.9-1.93,8.91-5.53-1.5-7.36-2.81-11.16c-1.31-3.8-2.93-14.87-3.89-18.61-1.33-5.15-5.49-4.35-5.49-4.35Z"/>
    <path class="cls-1" d="M258.44,107.31c4.2-.58,6.71,2.76,7.02,8.22s1.9,12.12,4.38,15.25,7.32,3.77,7.38,7.81-3.83,6.36-8.44,7.02c-4.61.66-8.98,1.49-10.21-1.87s-1.08-7.44-1.15-11.48c-.06-4.04-2.29-15-2.65-18.84-.5-5.31,3.66-6.1,3.66-6.1Z"/>
  </g>
  <g id="_レイヤー_2" data-name="レイヤー 2">
    <g>
      <path class="cls-11" d="M63.18,140.74c-1.5-.71-2.61-1.92-3.31-3.62-.71-1.7-.71-3.3,0-4.8,1.35-3.12,2.48-6.16,3.39-9.12.91-2.95,1.61-6.09,2.09-9.4.49-3.31.72-7.05.7-11.23-.02-4.18-.28-9.08-.78-14.72l-.75-8.36c-.19-2.14-.43-4.4-.71-6.79-.49-4.72-.18-8.52.93-11.4,1.11-2.88,3.22-5.06,6.32-6.54,3.1-1.49,7.37-2.47,12.81-2.96l26.91-2.42c5.31-.48,9.63-.24,12.94.7,3.32.94,5.8,2.75,7.44,5.4,1.64,2.66,2.58,6.36,2.81,11.11.08,1.63.18,3.1.3,4.43l.4,4.42c.15.9.27,1.9.37,3l.33,3.69c.61,6.8,1.47,13.22,2.56,19.26,1.1,6.04,2.53,10.94,4.31,14.7.4.81.73,1.18.98,1.09.25-.09.5-.57.75-1.44l.3-1.01c.44-1.61,1.33-2.76,2.68-3.47,1.34-.71,2.85-.81,4.53-.31,1.54.45,2.68,1.29,3.41,2.53.73,1.24.91,2.66.53,4.26-.27,1.4-.62,2.75-1.06,4.06-.44,1.31-.98,2.75-1.62,4.31-1.34,3.25-3.16,5.51-5.46,6.76-2.3,1.25-4.71,1.42-7.2.5-2.5-.92-4.75-3.05-6.74-6.4-3.32-5.71-5.8-12.21-7.43-19.51s-2.85-15.35-3.64-24.16l-1.37-15.25c-.18-2.01-.51-3.54-1-4.61-.49-1.07-1.35-1.76-2.59-2.07-1.24-.31-3.05-.36-5.45-.15l-26.91,2.42c-3.56.32-5.93,1.04-7.1,2.16-1.17,1.12-1.62,3.2-1.35,6.24l1.41,15.64c.66,7.38.96,13.94.88,19.66-.07,5.72-.62,10.96-1.62,15.72-1.01,4.76-2.61,9.46-4.81,14.09-.77,1.64-2.08,2.81-3.94,3.54-1.86.72-3.61.73-5.24.03ZM128.96,132.78c-1.42.91-3,1.18-4.73.82-1.73-.37-3.02-1.26-3.87-2.69-.55-1.06-1.25-2.27-2.09-3.63-2.16.65-4.68,1.37-7.54,2.15-2.87.78-5.78,1.56-8.75,2.35-2.97.79-5.77,1.53-8.42,2.23-2.65.69-4.87,1.25-6.66,1.68-1.99.44-3.7.23-5.15-.61s-2.39-2.2-2.81-4.06c-.43-1.85-.18-3.46.74-4.82.92-1.36,2.38-2.25,4.36-2.69,1.54-.27,3.51-.67,5.91-1.22,2.4-.54,4.94-1.13,7.63-1.76l-.97-10.78c-5.45.42-9.33-.29-11.65-2.14s-3.71-5.36-4.18-10.54.27-8.99,2.22-11.22,5.65-3.63,11.08-4.18l-.31-3.4c-1.54.27-3.06.52-4.54.75-1.48.23-2.93.48-4.34.73-1.68.22-3.17-.04-4.48-.77-1.31-.73-2.14-1.99-2.5-3.79-.35-1.67-.1-3.14.73-4.42.83-1.28,2.15-2.04,3.96-2.27,2.64-.43,5.63-.96,8.97-1.59,3.34-.63,6.64-1.33,9.9-2.11,3.26-.78,6.1-1.54,8.51-2.28,1.96-.7,3.68-.8,5.16-.32,1.48.49,2.52,1.49,3.11,3,.68,1.7.7,3.3.09,4.79-.62,1.49-1.88,2.55-3.78,3.18-1.53.4-3.11.84-4.73,1.31-1.62.47-3.3.92-5.02,1.33l.44,4.86c3.7-.27,6.65-.06,8.87.62,2.22.68,3.87,2,4.96,3.96,1.09,1.96,1.79,4.69,2.11,8.18.47,5.18-.28,8.89-2.23,11.12-1.95,2.23-5.68,3.63-11.18,4.19l.82,9.13,3.16-.77c-.7-1.24-.87-2.58-.51-4.02.36-1.44,1.12-2.56,2.29-3.39,1.3-.83,2.81-1.18,4.56-1.05,1.74.14,3.1.91,4.08,2.33.82,1.1,1.79,2.47,2.91,4.1,1.13,1.63,2.24,3.28,3.33,4.94,1.1,1.66,1.99,3.09,2.68,4.26.86,1.56,1.08,3.13.67,4.74-.41,1.6-1.36,2.86-2.84,3.78ZM95.69,99.23l-.63-7c-1.55.14-2.57.43-3.06.86-.48.43-.66,1.43-.52,2.98s.49,2.5,1.04,2.84c.55.34,1.61.44,3.16.3ZM106.86,98.23c1.55-.14,2.57-.43,3.06-.86.48-.43.66-1.43.52-2.98s-.49-2.5-1.04-2.84c-.55-.34-1.61-.44-3.16-.3l.63,7Z"/>
      <path class="cls-11" d="M185.79,129.15c-6.22.56-11.08.36-14.6-.6s-6.07-2.83-7.66-5.63c-1.59-2.8-2.61-6.69-3.06-11.67s-.14-9,.93-12.03c1.07-3.03,3.24-5.34,6.53-6.9,3.29-1.57,8.04-2.63,14.26-3.19l3.69-.33c.35-1.14.71-2.41,1.08-3.82.36-1.4.69-2.64.99-3.71l-1.75.16c-5.77.52-10.32.36-13.66-.49-3.34-.84-5.77-2.62-7.29-5.32s-2.5-6.55-2.95-11.54c-.45-5.05-.18-9.04.83-11.97,1.01-2.93,3.08-5.11,6.22-6.53,3.14-1.42,7.59-2.4,13.35-2.91l20.01-1.8c5.83-.52,10.4-.36,13.71.48,3.31.85,5.72,2.62,7.24,5.32,1.52,2.7,2.5,6.58,2.96,11.63s.17,8.95-.84,11.88-3.07,5.11-6.17,6.53c-3.1,1.42-7.57,2.39-13.4,2.92l-2.43.22c-.23,1.07-.54,2.3-.94,3.71-.4,1.41-.74,2.68-1.03,3.81l9.52-.86c6.22-.56,11.08-.36,14.6.6,3.51.96,6.06,2.83,7.66,5.63,1.59,2.8,2.61,6.69,3.06,11.67s.14,9-.93,12.03c-1.07,3.03-3.24,5.34-6.53,6.9s-8.04,2.63-14.26,3.19l-29.15,2.62ZM184.64,116.32l29.15-2.62c2.46-.22,4.27-.58,5.44-1.08,1.16-.5,1.89-1.3,2.18-2.4.29-1.1.35-2.59.19-4.47s-.5-3.42-.98-4.42c-.48-1-1.34-1.64-2.57-1.92-1.23-.28-3.08-.31-5.54-.09l-29.15,2.62c-2.46.22-4.29.58-5.49,1.08-1.2.5-1.94,1.29-2.24,2.36-.3,1.07-.36,2.58-.18,4.52s.5,3.33.98,4.37c.48,1.03,1.36,1.69,2.63,1.97,1.26.28,3.13.31,5.59.09ZM185.07,68.78l20.01-1.8c2.85-.26,4.8-.84,5.87-1.75,1.06-.91,1.46-2.79,1.21-5.64s-1-4.71-2.2-5.38c-1.2-.68-3.23-.88-6.08-.63l-20.01,1.8c-2.85.26-4.81.82-5.87,1.7-1.06.88-1.46,2.78-1.2,5.69s.99,4.63,2.19,5.34c1.21.71,3.23.93,6.08.68Z"/>
      <path class="cls-10" d="M279.47,113.89c-1.52.07-2.84-.4-3.96-1.41-1.13-1.01-1.73-2.25-1.8-3.72-.07-2.13-.18-4.51-.33-7.15s-.3-5.37-.46-8.22c-3.65.14-7.15.3-10.52.46-3.37.16-6.28.32-8.75.46-1.47.08-2.76-.41-3.85-1.47-1.1-1.05-1.69-2.31-1.76-3.78-.02-1.51.48-2.82,1.51-3.92,1.03-1.1,2.3-1.66,3.81-1.69,2.13-.07,4.88-.15,8.24-.25,3.36-.09,6.91-.23,10.66-.41-.05-1.18-.11-2.35-.19-3.49-.08-1.14-.17-2.28-.27-3.42-2.47.14-4.83.25-7.08.34-2.25.09-4.21.18-5.87.29-1.52.07-2.82-.43-3.92-1.51-1.1-1.08-1.66-2.35-1.69-3.81-.02-1.51.49-2.81,1.54-3.88,1.05-1.08,2.31-1.65,3.78-1.73,1.37-.04,3.16-.09,5.36-.15,2.2-.07,4.58-.14,7.14-.23-.09-1.28-.17-2.49-.25-3.63-.08-1.14-.18-2.16-.29-3.07-.07-1.52.41-2.83,1.44-3.93,1.03-1.1,2.28-1.69,3.75-1.76,1.52-.07,2.84.4,3.96,1.41,1.13,1.01,1.7,2.27,1.73,3.78.02.9.07,1.93.15,3.09.07,1.16.13,2.41.17,3.73,2.37-.1,4.61-.19,6.71-.26,2.11-.07,3.92-.14,5.44-.22,1.52-.12,2.82.36,3.89,1.44,1.07,1.07,1.62,2.37,1.65,3.88.02,1.51-.48,2.82-1.51,3.92-1.03,1.1-2.3,1.64-3.81,1.62-1.46-.02-3.21.01-5.25.09-2.04.08-4.22.15-6.53.2.06,1.09.12,2.21.2,3.35.08,1.14.14,2.3.19,3.49,3.56-.2,6.89-.36,9.99-.5,3.1-.14,5.63-.22,7.57-.26,1.52-.07,2.81.41,3.89,1.44,1.08,1.03,1.65,2.3,1.72,3.82.07,1.47-.4,2.77-1.44,3.89-1.03,1.12-2.3,1.7-3.82,1.72-1.99.04-4.48.1-7.49.2-3.01.1-6.24.2-9.69.31.2,2.9.4,5.65.6,8.26.2,2.61.39,4.92.56,6.92.12,1.47-.32,2.77-1.33,3.9-1.01,1.13-2.27,1.75-3.79,1.87Z"/>
      <path class="cls-10" d="M334.44,113.02c-1.14.11-2.15-.17-3.04-.84-.89-.67-1.38-1.58-1.45-2.71-.09-1.46-.25-3.21-.5-5.26-.24-2.05-.53-4.26-.85-6.61-.32-2.36-.67-4.74-1.05-7.14-2.15.24-4.12.44-5.9.6-1.78.16-3.18.27-4.19.31-1.13.07-2.11-.24-2.94-.95-.83-.71-1.28-1.63-1.36-2.76-.07-1.13.25-2.1.98-2.91.73-.81,1.66-1.25,2.79-1.32.93-.05,2.2-.14,3.82-.28,1.62-.14,3.42-.29,5.41-.46-.19-1.18-.41-2.3-.64-3.37-.24-1.06-.47-2.05-.68-2.95-.28-1.11-.1-2.14.54-3.1.64-.96,1.51-1.53,2.61-1.73,1.1-.24,2.14-.04,3.09.6.96.64,1.53,1.51,1.73,2.61.21.98.42,2.08.65,3.31.23,1.22.47,2.53.72,3.92,1.62-.16,3.15-.3,4.59-.43,1.44-.13,2.72-.23,3.86-.3,3.36-.3,6.06.15,8.1,1.35,2.04,1.21,3.24,3.07,3.61,5.59.26,1.79.04,3.52-.67,5.2-.71,1.68-1.97,3.15-3.78,4.41-1.81,1.27-4.27,2.23-7.37,2.87-1.1.24-2.13.11-3.08-.39-.95-.5-1.58-1.28-1.9-2.35-.28-1.07-.14-2.07.41-3.02.56-.94,1.39-1.57,2.5-1.89,2.14-.6,3.56-1.12,4.26-1.57.7-.45,1.03-1,1-1.64-.06-.81-.67-1.16-1.85-1.05-1.14.11-2.42.24-3.86.39-1.44.15-2.97.32-4.6.52.38,2.36.74,4.74,1.08,7.12.34,2.38.65,4.58.94,6.59.29,2.01.5,3.73.63,5.15.11,1.13-.18,2.14-.87,3.01-.69.87-1.61,1.36-2.74,1.48Z"/>
      <path class="cls-10" d="M377.5,78.46c-1.65-.85-3.38-1.69-5.21-2.52-1.83-.83-3.48-1.48-4.98-1.96-1.11-.38-1.9-1.08-2.38-2.09-.48-1.01-.55-2.06-.2-3.12.34-1.1,1.03-1.92,2.06-2.44,1.03-.52,2.07-.58,3.11-.19,1.19.44,2.48.93,3.86,1.49,1.38.56,2.71,1.14,4,1.74s2.38,1.15,3.29,1.64c.99.52,1.69,1.3,2.1,2.35.41,1.05.37,2.1-.12,3.17-.47,1.02-1.25,1.74-2.35,2.14-1.1.41-2.16.34-3.19-.21ZM372.84,106.48c-1.27.54-2.56.54-3.86.02-1.3-.52-2.22-1.42-2.75-2.69-.54-1.27-.54-2.57-.02-3.89.52-1.32,1.42-2.23,2.69-2.72,3.31-1.33,6.66-2.95,10.04-4.89,3.39-1.93,6.64-4.01,9.75-6.24,3.11-2.22,5.92-4.5,8.43-6.82,2.5-2.32,4.55-4.54,6.13-6.65.81-1.12,1.89-1.77,3.25-1.94,1.35-.17,2.59.15,3.71.96,1.16.77,1.83,1.84,2,3.21.17,1.38-.15,2.62-.96,3.74-1.71,2.29-3.98,4.73-6.81,7.33-2.84,2.6-6.01,5.18-9.52,7.75-3.51,2.57-7.17,4.97-10.97,7.2-3.81,2.24-7.51,4.11-11.11,5.62Z"/>
      <path class="cls-10" d="M475.57,111.02c-8.21,1.2-14.85,1.55-19.93,1.04-5.08-.5-8.93-1.87-11.54-4.09-2.13-1.82-3.61-3.96-4.44-6.43-.83-2.47-1.31-5.78-1.44-9.92l-.25-7.91c-3.09.57-6.01,1.08-8.75,1.54-2.74.46-4.96.84-6.64,1.13-1.5.24-2.85-.09-4.06-.97-1.21-.88-1.95-2.05-2.23-3.5-.24-1.5.08-2.86.93-4.09.86-1.23,2.01-1.96,3.46-2.19,1.87-.34,4.33-.76,7.38-1.25,3.05-.49,6.23-1.01,9.56-1.53l-.33-10.73c-.05-1.51.45-2.81,1.5-3.9,1.05-1.09,2.33-1.66,3.83-1.71,1.51,0,2.8.51,3.86,1.54,1.07,1.03,1.63,2.29,1.67,3.8l.29,9.32c2.44-.4,4.58-.75,6.43-1.05,1.85-.29,3.15-.5,3.9-.62,5.43-1.02,9.61-.77,12.53.74,2.92,1.51,4.68,4.19,5.27,8.03.64,4.08-.3,7.5-2.83,10.26-2.53,2.76-6.97,4.91-13.33,6.42-1.45.38-2.83.24-4.15-.4-1.32-.64-2.18-1.69-2.61-3.13-.42-1.45-.29-2.83.4-4.15.69-1.32,1.76-2.16,3.21-2.54,2.34-.54,4.05-1.01,5.15-1.4,1.09-.39,1.81-.77,2.16-1.16.34-.39.5-.84.49-1.36-.02-.71-.28-1.16-.78-1.35-.5-.2-1.41-.16-2.72.12-.89.17-2.49.46-4.81.86-2.32.4-4.98.86-7.98,1.38l.29,9.46c.08,2.59.29,4.42.63,5.49.34,1.07.9,1.93,1.67,2.56.87.77,2.17,1.33,3.9,1.68,1.73.35,4.12.45,7.18.31,3.06-.14,6.96-.5,11.7-1.07,1.5-.19,2.84.17,4.03,1.08,1.18.91,1.89,2.11,2.13,3.61.19,1.45-.19,2.77-1.11,3.96-.93,1.18-2.14,1.89-3.64,2.13Z"/>
      <path class="cls-10" d="M491.56,99.73c-1.33.59-2.71.63-4.13.12-1.43-.52-2.46-1.46-3.1-2.84-.59-1.37-.62-2.76-.08-4.17.54-1.4,1.47-2.4,2.8-3,5.26-2.47,9-5.75,11.2-9.87,2.2-4.11,3.35-9.18,3.44-15.21.02-1.51.56-2.78,1.61-3.83,1.05-1.04,2.33-1.56,3.84-1.53s2.77.57,3.79,1.64c1.02,1.07,1.52,2.37,1.5,3.87-.22,8.71-2.09,15.95-5.61,21.71-3.52,5.77-8.6,10.13-15.24,13.09ZM538.38,95.75c-6.87,2.54-12.27,2.88-16.23,1.03-3.95-1.85-5.88-5.81-5.8-11.88l.34-23.24c.02-1.51.57-2.78,1.64-3.83,1.07-1.04,2.36-1.55,3.87-1.53s2.78.57,3.83,1.65c1.04,1.07,1.55,2.37,1.53,3.87l-.3,20.48c-.03,2.03.48,3.29,1.53,3.8,1.05.51,2.6.4,4.63-.32,1.18-.41,2.53-.9,4.05-1.49,1.51-.59,3.08-1.23,4.69-1.91,1.61-.68,3.1-1.32,4.48-1.91,1.37-.59,2.76-.65,4.17-.19,1.41.47,2.45,1.39,3.14,2.77.64,1.33.74,2.72.29,4.17-.44,1.45-1.36,2.5-2.73,3.14-2.09.96-4.31,1.93-6.68,2.9-2.37.98-4.52,1.81-6.46,2.48Z"/>
      <path class="cls-11" d="M104.9,237.7c-1.49.33-2.88.1-4.17-.71-1.29-.8-2.1-1.93-2.43-3.37-.44-2.1-.96-4.44-1.57-7.03-.61-2.58-1.23-5.27-1.88-8.07-3.59.77-7.04,1.53-10.35,2.28-3.31.75-6.17,1.4-8.59,1.97-1.44.33-2.8.07-4.07-.79-1.27-.85-2.07-2-2.4-3.45-.29-1.5-.02-2.88.82-4.15.83-1.27,1.99-2.05,3.49-2.34,2.1-.44,4.81-1,8.12-1.67,3.31-.68,6.81-1.43,10.5-2.26-.25-1.17-.52-2.31-.79-3.42-.27-1.12-.56-2.23-.86-3.35-2.42.57-4.74,1.09-6.96,1.56-2.22.48-4.14.91-5.77,1.3-1.49.33-2.88.06-4.15-.81-1.28-.88-2.05-2.04-2.34-3.49-.29-1.5,0-2.87.85-4.12.86-1.25,2.01-2.04,3.45-2.37,1.35-.27,3.12-.63,5.29-1.08,2.17-.45,4.52-.93,7.04-1.46-.31-1.26-.6-2.44-.88-3.56-.27-1.12-.55-2.11-.82-2.99-.33-1.49-.09-2.87.74-4.14.83-1.27,1.97-2.07,3.41-2.4,1.49-.33,2.88-.1,4.17.71,1.29.8,2.08,1.95,2.37,3.45.18.89.41,1.9.69,3.04.28,1.14.55,2.36.82,3.67,2.33-.51,4.54-.98,6.61-1.42,2.08-.44,3.86-.82,5.35-1.16,1.49-.38,2.85-.13,4.11.75,1.25.88,2.02,2.07,2.31,3.56.29,1.5.01,2.88-.82,4.15-.83,1.27-2,2.03-3.5,2.26-1.45.24-3.18.57-5.19,1-2.01.43-4.15.88-6.44,1.33.25,1.07.5,2.17.78,3.28.27,1.12.54,2.26.79,3.42,3.49-.81,6.77-1.55,9.82-2.23,3.05-.67,5.54-1.2,7.45-1.57,1.49-.33,2.86-.08,4.11.75,1.25.83,2.04,2,2.37,3.49.33,1.44.08,2.81-.75,4.11-.83,1.29-1.99,2.08-3.49,2.37-1.96.38-4.43.88-7.39,1.5-2.96.62-6.15,1.28-9.56,1.99.7,2.84,1.38,5.53,2.03,8.09.65,2.56,1.24,4.81,1.76,6.76.38,1.44.16,2.81-.64,4.1-.8,1.29-1.95,2.13-3.44,2.51Z"/>
      <path class="cls-11" d="M150.78,227.12c-.82.23-1.6.15-2.34-.23-.74-.38-1.21-.98-1.41-1.8-.25-1.06-.6-2.32-1.04-3.8-.44-1.47-.93-3.06-1.47-4.75-.54-1.69-1.1-3.39-1.69-5.11-1.55.45-2.97.85-4.26,1.2-1.29.35-2.3.6-3.04.76-.82.2-1.58.09-2.28-.32-.7-.41-1.15-1.03-1.35-1.85-.2-.82-.08-1.58.35-2.26.43-.69,1.06-1.13,1.88-1.33.68-.16,1.6-.39,2.77-.69,1.17-.31,2.48-.65,3.91-1.03-.29-.84-.59-1.64-.91-2.39-.31-.75-.61-1.44-.88-2.08-.35-.78-.35-1.56,0-2.34.35-.78.91-1.32,1.69-1.61.78-.32,1.56-.3,2.35.04.78.35,1.32.91,1.61,1.69.28.69.58,1.48.9,2.35.32.87.67,1.8,1.03,2.79,1.17-.32,2.28-.62,3.32-.9,1.04-.28,1.97-.52,2.79-.72,2.43-.65,4.47-.67,6.12-.05,1.65.62,2.78,1.84,3.37,3.64.42,1.28.48,2.58.17,3.9-.31,1.32-1.05,2.56-2.21,3.73-1.17,1.16-2.85,2.18-5.05,3.05-.78.32-1.55.35-2.31.11-.76-.24-1.33-.74-1.7-1.48-.34-.75-.37-1.5-.08-2.27.29-.76.82-1.33,1.59-1.71,1.49-.71,2.47-1.28,2.92-1.7s.63-.86.53-1.34c-.15-.59-.64-.76-1.49-.53-.82.23-1.75.49-2.79.79-1.04.3-2.14.62-3.31.97.58,1.69,1.15,3.38,1.71,5.09.55,1.7,1.07,3.28,1.54,4.72.47,1.44.84,2.68,1.12,3.7.23.82.15,1.59-.25,2.32-.4.73-1,1.21-1.82,1.44Z"/>
      <path class="cls-11" d="M180.61,201.87c-1.54-.94-3.16-1.87-4.87-2.8-1.71-.93-3.27-1.68-4.68-2.25-1.04-.45-1.76-1.18-2.15-2.19-.39-1.01-.38-2.02.04-3.03.41-1.04,1.14-1.77,2.18-2.2,1.04-.43,2.05-.41,3.03.04,1.12.51,2.34,1.08,3.63,1.72,1.3.64,2.55,1.29,3.75,1.96s2.22,1.28,3.07,1.82c.92.57,1.54,1.37,1.87,2.41.32,1.04.21,2.06-.35,3.05-.53.95-1.34,1.58-2.44,1.9-1.09.31-2.12.17-3.08-.43ZM179.94,223.36c-.98.53-2,.63-3.08.31-1.08-.32-1.88-.97-2.41-1.94-.53-.98-.63-2.01-.31-3.11.32-1.1.97-1.89,1.95-2.38,2.55-1.31,5.1-2.86,7.67-4.67,2.56-1.8,5.01-3.71,7.33-5.72,2.32-2.01,4.4-4.04,6.23-6.09,1.83-2.05,3.3-3.97,4.41-5.78.56-.96,1.38-1.56,2.45-1.8,1.07-.24,2.08-.08,3.04.49.99.53,1.6,1.33,1.84,2.42.24,1.09.08,2.11-.48,3.06-1.19,1.96-2.83,4.08-4.9,6.38-2.07,2.29-4.42,4.6-7.03,6.92-2.61,2.32-5.36,4.51-8.23,6.59-2.88,2.08-5.7,3.85-8.46,5.33Z"/>
      <path class="cls-11" d="M261.88,206.63c-6.47,1.38-11.75,2-15.82,1.86-4.07-.14-7.2-1.03-9.4-2.66-1.79-1.34-3.08-2.97-3.87-4.89-.79-1.92-1.34-4.53-1.66-7.82l-.6-6.28c-2.43.61-4.73,1.17-6.89,1.68-2.16.51-3.9.92-5.23,1.24-1.18.26-2.28.08-3.28-.56-1.01-.64-1.66-1.53-1.96-2.67-.27-1.18-.09-2.28.53-3.31.62-1.02,1.5-1.66,2.65-1.93,1.47-.37,3.41-.83,5.81-1.38,2.4-.55,4.91-1.12,7.54-1.72l-.82-8.53c-.11-1.2.22-2.26,1-3.18.78-.92,1.77-1.44,2.96-1.56,1.2-.08,2.25.26,3.16,1.03.9.76,1.41,1.74,1.53,2.94l.71,7.41c1.92-.45,3.61-.84,5.07-1.17,1.46-.33,2.48-.56,3.08-.69,4.27-1.09,7.61-1.11,10.02-.06,2.4,1.05,3.94,3.09,4.61,6.12.72,3.21.15,5.99-1.72,8.32-1.87,2.33-5.3,4.27-10.29,5.8-1.13.37-2.24.34-3.32-.11-1.08-.44-1.83-1.23-2.24-2.36-.41-1.13-.38-2.24.11-3.32.48-1.08,1.29-1.81,2.42-2.19,1.83-.55,3.18-1.01,4.03-1.38.85-.36,1.4-.71,1.66-1.04.25-.33.36-.69.32-1.11-.05-.56-.29-.91-.69-1.04-.41-.13-1.13-.05-2.16.24-.7.18-1.96.49-3.79.93-1.83.44-3.92.94-6.28,1.51l.72,7.52c.2,2.06.46,3.5.79,4.34.33.84.81,1.49,1.46,1.95.73.57,1.8.95,3.19,1.14,1.4.19,3.31.15,5.73-.13,2.43-.27,5.51-.76,9.26-1.46,1.19-.23,2.27-.01,3.26.65.99.66,1.61,1.58,1.88,2.76.22,1.15,0,2.22-.68,3.21-.68.99-1.61,1.62-2.79,1.88Z"/>
      <path class="cls-11" d="M280.48,198c-1,.59-2.09.74-3.27.46-1.18-.28-2.08-.94-2.71-1.98-.59-1.04-.73-2.14-.43-3.3.3-1.16.96-2.04,1.96-2.62,3.96-2.42,6.63-5.35,8.01-8.81,1.38-3.45,1.85-7.57,1.39-12.36-.11-1.2.2-2.26.94-3.18.74-.92,1.71-1.44,2.91-1.55s2.25.21,3.15.97c.9.76,1.41,1.74,1.53,2.94.59,6.93-.26,12.83-2.54,17.71-2.29,4.88-5.93,8.79-10.93,11.72ZM317.26,190.73c-5.22,2.62-9.48,3.37-12.78,2.25-3.3-1.12-5.18-4.09-5.64-8.91l-1.77-18.46c-.11-1.2.21-2.26.97-3.18s1.74-1.44,2.94-1.56,2.26.21,3.18.97,1.44,1.74,1.56,2.94l1.56,16.27c.15,1.61.67,2.57,1.55,2.88.88.31,2.09.09,3.64-.66.9-.43,1.93-.94,3.08-1.54,1.15-.6,2.33-1.24,3.55-1.93,1.22-.68,2.34-1.32,3.38-1.91,1.04-.59,2.14-.76,3.29-.51,1.16.25,2.07.89,2.73,1.92.62,1,.82,2.09.6,3.28-.23,1.19-.85,2.1-1.89,2.73-1.57.94-3.25,1.91-5.04,2.89-1.79.98-3.43,1.83-4.91,2.54Z"/>
      <path class="cls-11" d="M404.86,235.79c-1.89,0-3.48-.61-4.76-1.83-1.28-1.22-1.92-2.84-1.92-4.86v-24.46c0-1.4.32-2.6.96-3.57s1.45-1.74,2.43-2.29c-3.66-3.24-6.84-6.6-9.53-10.08h-1.38c-1.16,1.53-2.41,3.02-3.76,4.49-1.34,1.47-2.81,2.9-4.4,4.31,1.71.25,3.08,1.07,4.12,2.47,1.04,1.41,1.43,2.99,1.19,4.76-.98,7.21-3.53,13.38-7.65,18.51-4.12,5.13-9.36,9.1-15.71,11.91-1.89.79-3.73.98-5.5.55-1.77-.43-3.09-1.53-3.94-3.3-.92-1.77-1.01-3.43-.27-4.99.73-1.56,1.83-2.64,3.3-3.25,5.25-2.07,9.25-4.69,12-7.83,2.75-3.14,4.46-7.41,5.13-12.78-2.63,1.89-5.35,3.7-8.15,5.4-2.81,1.71-5.65,3.27-8.52,4.67-1.95.92-3.8,1.1-5.54.55s-3.04-1.68-3.89-3.39c-.8-1.71-.89-3.3-.27-4.76.61-1.46,1.68-2.5,3.21-3.11,4.89-1.95,9.18-4.09,12.87-6.41,3.69-2.32,7.04-4.95,10.03-7.88-4.46-.24-7.92-.9-10.4-1.97-2.47-1.07-4.18-2.85-5.13-5.36-.95-2.5-1.42-6.01-1.42-10.54,0-3.79.32-6.86.96-9.21.64-2.35,1.77-4.17,3.39-5.45,1.62-1.28,3.83-2.17,6.64-2.66,2.81-.49,6.41-.73,10.81-.73h24.74c4.34,0,7.92.24,10.77.73,2.84.49,5.05,1.37,6.64,2.66,1.59,1.28,2.7,3.1,3.34,5.45.64,2.35.96,5.42.96,9.21,0,4.64-.5,8.23-1.51,10.77-1.01,2.54-2.82,4.32-5.45,5.36-2.63,1.04-6.35,1.62-11.18,1.74,3.36,3.12,7.05,5.73,11.09,7.83s8.4,4.02,13.1,5.73c1.53.55,2.61,1.68,3.25,3.39.64,1.71.53,3.45-.32,5.22-.79,1.59-2.14,2.73-4.03,3.44-1.89.7-3.82.59-5.77-.32-4.89-2.2-9.5-4.73-13.83-7.61v22.81c0,2.01-.66,3.63-1.97,4.86-1.31,1.22-2.89,1.83-4.72,1.83ZM371.88,166.71h13.47v-4.21h-5.59c-2.93,0-4.93.22-6,.64-1.07.43-1.7,1.62-1.88,3.57ZM379.75,178.9h5.59v-4.12h-13.47c.24,1.89.88,3.06,1.92,3.48,1.04.43,3.02.64,5.96.64ZM398.99,166.71h13.38c-.24-1.95-.89-3.14-1.92-3.57-1.04-.43-3.02-.64-5.96-.64h-5.5v4.21ZM398.99,178.9h5.5c2.87,0,4.84-.21,5.91-.64,1.07-.43,1.73-1.59,1.97-3.48h-13.38v4.12Z"/>
      <path class="cls-11" d="M445.72,236.8c-1.65,0-3.04-.52-4.17-1.56-1.13-1.04-1.69-2.51-1.69-4.4v-65.32c0-3.6.4-6.37,1.19-8.29.79-1.92,2.3-3.25,4.53-3.99,2.23-.73,5.45-1.1,9.66-1.1,6.54,0,10.82,1.22,12.87,3.66,2.04,2.44,2.3,6.11.78,10.99-.67,2.26-1.37,4.46-2.11,6.6-.73,2.14-1.41,4.03-2.02,5.68-.49,1.53-.8,2.72-.92,3.57-.12.85-.05,1.57.23,2.15.27.58.69,1.24,1.24,1.97,1.34,1.77,2.38,3.7,3.11,5.77.79-.31,1.59-.46,2.38-.46h48.37c1.65,0,2.96.52,3.94,1.56.98,1.04,1.47,2.32,1.47,3.85s-.49,2.81-1.47,3.85c-.98,1.04-2.29,1.56-3.94,1.56h-.64c.43.25.79.58,1.1,1.01.85,1.04,1.22,2.38,1.1,4.03-.12,1.65-.79,2.93-2.02,3.85-.73.49-1.82,1.24-3.25,2.24-1.44,1.01-2.7,1.91-3.8,2.7,2.44,2.5,5.43,4.7,8.98,6.6,1.41.79,2.32,2,2.75,3.62.43,1.62.27,3.13-.46,4.54-.86,1.71-2.26,2.72-4.21,3.02-1.95.31-3.73-.03-5.31-1.01-5.31-3.3-9.73-7.39-13.24-12.28-3.51-4.89-6.28-10.99-8.29-18.32h-5.22v17.87l7.51-1.01c1.4-.18,2.72.09,3.94.82,1.22.73,1.95,1.86,2.2,3.39.24,1.47.06,2.79-.55,3.99-.61,1.19-1.77,1.94-3.48,2.24-.49.06-1.53.24-3.12.55-1.59.31-3.47.64-5.63,1.01-2.17.37-4.35.73-6.55,1.1-2.2.37-4.12.69-5.77.96-1.65.27-2.78.47-3.39.6-1.89.24-3.5-.06-4.81-.92s-2.12-2.11-2.43-3.76c-.31-1.77.05-3.27,1.05-4.49s2.37-1.95,4.08-2.2l4.95-.64v-19.51h-4.31c-.18,0-.34-.03-.46-.09-.12,4.95-1.34,8.64-3.67,11.09-2.32,2.44-5.47,3.82-9.44,4.12-2.08.18-3.79-.21-5.13-1.19v14.02c0,1.89-.56,3.36-1.69,4.4-1.13,1.04-2.55,1.56-4.26,1.56ZM451.68,206.47c.55-.43,1.28-.73,2.2-.92,1.4-.31,2.4-.95,2.98-1.92.58-.98.87-2.78.87-5.4,0-1.71-.31-3.42-.92-5.13-.61-1.71-1.38-3.24-2.29-4.58-.98-1.47-1.65-2.64-2.02-3.53-.37-.88-.46-1.85-.27-2.89.18-1.04.55-2.5,1.1-4.4.49-1.46,1.07-3.39,1.74-5.77.67-2.38,1.22-4.43,1.65-6.14.31-.98.31-1.65,0-2.02-.31-.37-1.16-.55-2.56-.55-.92,0-1.56.18-1.92.55s-.55,1.07-.55,2.11v40.59ZM487.87,189.52c-5.74,0-9.83-.98-12.28-2.93-2.44-1.95-3.67-5.44-3.67-10.45v-10.17c0-5.01,1.22-8.47,3.67-10.4,2.44-1.92,6.53-2.89,12.28-2.89h15.12c5.8,0,9.95.96,12.46,2.89,2.5,1.92,3.76,5.39,3.76,10.4v10.17c0,5.01-1.25,8.49-3.76,10.45s-6.66,2.93-12.46,2.93h-15.12ZM483.93,166.62h5.77v-4.12h-.82c-2.02,0-3.34.24-3.99.73s-.96,1.62-.96,3.39ZM488.87,179.72h.82v-4.12h-5.77c0,1.77.32,2.9.96,3.39s1.97.73,3.99.73ZM500.69,166.62h6.5c-.06-1.77-.41-2.9-1.05-3.39-.64-.49-1.94-.73-3.89-.73h-1.56v4.12ZM500.69,179.72h1.56c1.95,0,3.25-.24,3.89-.73.64-.49.99-1.62,1.05-3.39h-6.5v4.12ZM505.46,207.94c1.04-.79,2.15-1.65,3.34-2.56,1.19-.92,2-1.53,2.43-1.83.18-.24.46-.46.82-.64h-8.61c.31.86.63,1.71.96,2.56.33.86.69,1.68,1.05,2.47Z"/>
    </g>
    <g>
      <path class="cls-3" d="M63.18,140.74c-1.5-.71-2.61-1.92-3.31-3.62-.71-1.7-.71-3.3,0-4.8,1.35-3.12,2.48-6.16,3.39-9.12.91-2.95,1.61-6.09,2.09-9.4.49-3.31.72-7.05.7-11.23-.02-4.18-.28-9.08-.78-14.72l-.75-8.36c-.19-2.14-.43-4.4-.71-6.79-.49-4.72-.18-8.52.93-11.4,1.11-2.88,3.22-5.06,6.32-6.54,3.1-1.49,7.37-2.47,12.81-2.96l26.91-2.42c5.31-.48,9.63-.24,12.94.7,3.32.94,5.8,2.75,7.44,5.4,1.64,2.66,2.58,6.36,2.81,11.11.08,1.63.18,3.1.3,4.43l.4,4.42c.15.9.27,1.9.37,3l.33,3.69c.61,6.8,1.47,13.22,2.56,19.26,1.1,6.04,2.53,10.94,4.31,14.7.4.81.73,1.18.98,1.09.25-.09.5-.57.75-1.44l.3-1.01c.44-1.61,1.33-2.76,2.68-3.47,1.34-.71,2.85-.81,4.53-.31,1.54.45,2.68,1.29,3.41,2.53.73,1.24.91,2.66.53,4.26-.27,1.4-.62,2.75-1.06,4.06-.44,1.31-.98,2.75-1.62,4.31-1.34,3.25-3.16,5.51-5.46,6.76-2.3,1.25-4.71,1.42-7.2.5-2.5-.92-4.75-3.05-6.74-6.4-3.32-5.71-5.8-12.21-7.43-19.51s-2.85-15.35-3.64-24.16l-1.37-15.25c-.18-2.01-.51-3.54-1-4.61-.49-1.07-1.35-1.76-2.59-2.07-1.24-.31-3.05-.36-5.45-.15l-26.91,2.42c-3.56.32-5.93,1.04-7.1,2.16-1.17,1.12-1.62,3.2-1.35,6.24l1.41,15.64c.66,7.38.96,13.94.88,19.66-.07,5.72-.62,10.96-1.62,15.72-1.01,4.76-2.61,9.46-4.81,14.09-.77,1.64-2.08,2.81-3.94,3.54-1.86.72-3.61.73-5.24.03ZM128.96,132.78c-1.42.91-3,1.18-4.73.82-1.73-.37-3.02-1.26-3.87-2.69-.55-1.06-1.25-2.27-2.09-3.63-2.16.65-4.68,1.37-7.54,2.15-2.87.78-5.78,1.56-8.75,2.35-2.97.79-5.77,1.53-8.42,2.23-2.65.69-4.87,1.25-6.66,1.68-1.99.44-3.7.23-5.15-.61s-2.39-2.2-2.81-4.06c-.43-1.85-.18-3.46.74-4.82.92-1.36,2.38-2.25,4.36-2.69,1.54-.27,3.51-.67,5.91-1.22,2.4-.54,4.94-1.13,7.63-1.76l-.97-10.78c-5.45.42-9.33-.29-11.65-2.14s-3.71-5.36-4.18-10.54.27-8.99,2.22-11.22,5.65-3.63,11.08-4.18l-.31-3.4c-1.54.27-3.06.52-4.54.75-1.48.23-2.93.48-4.34.73-1.68.22-3.17-.04-4.48-.77-1.31-.73-2.14-1.99-2.5-3.79-.35-1.67-.1-3.14.73-4.42.83-1.28,2.15-2.04,3.96-2.27,2.64-.43,5.63-.96,8.97-1.59,3.34-.63,6.64-1.33,9.9-2.11,3.26-.78,6.1-1.54,8.51-2.28,1.96-.7,3.68-.8,5.16-.32,1.48.49,2.52,1.49,3.11,3,.68,1.7.7,3.3.09,4.79-.62,1.49-1.88,2.55-3.78,3.18-1.53.4-3.11.84-4.73,1.31-1.62.47-3.3.92-5.02,1.33l.44,4.86c3.7-.27,6.65-.06,8.87.62,2.22.68,3.87,2,4.96,3.96,1.09,1.96,1.79,4.69,2.11,8.18.47,5.18-.28,8.89-2.23,11.12-1.95,2.23-5.68,3.63-11.18,4.19l.82,9.13,3.16-.77c-.7-1.24-.87-2.58-.51-4.02.36-1.44,1.12-2.56,2.29-3.39,1.3-.83,2.81-1.18,4.56-1.05,1.74.14,3.1.91,4.08,2.33.82,1.1,1.79,2.47,2.91,4.1,1.13,1.63,2.24,3.28,3.33,4.94,1.1,1.66,1.99,3.09,2.68,4.26.86,1.56,1.08,3.13.67,4.74-.41,1.6-1.36,2.86-2.84,3.78ZM95.69,99.23l-.63-7c-1.55.14-2.57.43-3.06.86-.48.43-.66,1.43-.52,2.98s.49,2.5,1.04,2.84c.55.34,1.61.44,3.16.3ZM106.86,98.23c1.55-.14,2.57-.43,3.06-.86.48-.43.66-1.43.52-2.98s-.49-2.5-1.04-2.84c-.55-.34-1.61-.44-3.16-.3l.63,7Z"/>
      <path class="cls-3" d="M185.79,129.15c-6.22.56-11.08.36-14.6-.6s-6.07-2.83-7.66-5.63c-1.59-2.8-2.61-6.69-3.06-11.67s-.14-9,.93-12.03c1.07-3.03,3.24-5.34,6.53-6.9,3.29-1.57,8.04-2.63,14.26-3.19l3.69-.33c.35-1.14.71-2.41,1.08-3.82.36-1.4.69-2.64.99-3.71l-1.75.16c-5.77.52-10.32.36-13.66-.49-3.34-.84-5.77-2.62-7.29-5.32s-2.5-6.55-2.95-11.54c-.45-5.05-.18-9.04.83-11.97,1.01-2.93,3.08-5.11,6.22-6.53,3.14-1.42,7.59-2.4,13.35-2.91l20.01-1.8c5.83-.52,10.4-.36,13.71.48,3.31.85,5.72,2.62,7.24,5.32,1.52,2.7,2.5,6.58,2.96,11.63s.17,8.95-.84,11.88-3.07,5.11-6.17,6.53c-3.1,1.42-7.57,2.39-13.4,2.92l-2.43.22c-.23,1.07-.54,2.3-.94,3.71-.4,1.41-.74,2.68-1.03,3.81l9.52-.86c6.22-.56,11.08-.36,14.6.6,3.51.96,6.06,2.83,7.66,5.63,1.59,2.8,2.61,6.69,3.06,11.67s.14,9-.93,12.03c-1.07,3.03-3.24,5.34-6.53,6.9s-8.04,2.63-14.26,3.19l-29.15,2.62ZM184.64,116.32l29.15-2.62c2.46-.22,4.27-.58,5.44-1.08,1.16-.5,1.89-1.3,2.18-2.4.29-1.1.35-2.59.19-4.47s-.5-3.42-.98-4.42c-.48-1-1.34-1.64-2.57-1.92-1.23-.28-3.08-.31-5.54-.09l-29.15,2.62c-2.46.22-4.29.58-5.49,1.08-1.2.5-1.94,1.29-2.24,2.36-.3,1.07-.36,2.58-.18,4.52s.5,3.33.98,4.37c.48,1.03,1.36,1.69,2.63,1.97,1.26.28,3.13.31,5.59.09ZM185.07,68.78l20.01-1.8c2.85-.26,4.8-.84,5.87-1.75,1.06-.91,1.46-2.79,1.21-5.64s-1-4.71-2.2-5.38c-1.2-.68-3.23-.88-6.08-.63l-20.01,1.8c-2.85.26-4.81.82-5.87,1.7-1.06.88-1.46,2.78-1.2,5.69s.99,4.63,2.19,5.34c1.21.71,3.23.93,6.08.68Z"/>
      <path class="cls-3" d="M279.47,113.89c-1.52.07-2.84-.4-3.96-1.41-1.13-1.01-1.73-2.25-1.8-3.72-.07-2.13-.18-4.51-.33-7.15s-.3-5.37-.46-8.22c-3.65.14-7.15.3-10.52.46-3.37.16-6.28.32-8.75.46-1.47.08-2.76-.41-3.85-1.47-1.1-1.05-1.69-2.31-1.76-3.78-.02-1.51.48-2.82,1.51-3.92,1.03-1.1,2.3-1.66,3.81-1.69,2.13-.07,4.88-.15,8.24-.25,3.36-.09,6.91-.23,10.66-.41-.05-1.18-.11-2.35-.19-3.49-.08-1.14-.17-2.28-.27-3.42-2.47.14-4.83.25-7.08.34-2.25.09-4.21.18-5.87.29-1.52.07-2.82-.43-3.92-1.51-1.1-1.08-1.66-2.35-1.69-3.81-.02-1.51.49-2.81,1.54-3.88,1.05-1.08,2.31-1.65,3.78-1.73,1.37-.04,3.16-.09,5.36-.15,2.2-.07,4.58-.14,7.14-.23-.09-1.28-.17-2.49-.25-3.63-.08-1.14-.18-2.16-.29-3.07-.07-1.52.41-2.83,1.44-3.93,1.03-1.1,2.28-1.69,3.75-1.76,1.52-.07,2.84.4,3.96,1.41,1.13,1.01,1.7,2.27,1.73,3.78.02.9.07,1.93.15,3.09.07,1.16.13,2.41.17,3.73,2.37-.1,4.61-.19,6.71-.26,2.11-.07,3.92-.14,5.44-.22,1.52-.12,2.82.36,3.89,1.44,1.07,1.07,1.62,2.37,1.65,3.88.02,1.51-.48,2.82-1.51,3.92-1.03,1.1-2.3,1.64-3.81,1.62-1.46-.02-3.21.01-5.25.09-2.04.08-4.22.15-6.53.2.06,1.09.12,2.21.2,3.35.08,1.14.14,2.3.19,3.49,3.56-.2,6.89-.36,9.99-.5,3.1-.14,5.63-.22,7.57-.26,1.52-.07,2.81.41,3.89,1.44,1.08,1.03,1.65,2.3,1.72,3.82.07,1.47-.4,2.77-1.44,3.89-1.03,1.12-2.3,1.7-3.82,1.72-1.99.04-4.48.1-7.49.2-3.01.1-6.24.2-9.69.31.2,2.9.4,5.65.6,8.26.2,2.61.39,4.92.56,6.92.12,1.47-.32,2.77-1.33,3.9-1.01,1.13-2.27,1.75-3.79,1.87Z"/>
      <path class="cls-3" d="M334.44,113.02c-1.14.11-2.15-.17-3.04-.84-.89-.67-1.38-1.58-1.45-2.71-.09-1.46-.25-3.21-.5-5.26-.24-2.05-.53-4.26-.85-6.61-.32-2.36-.67-4.74-1.05-7.14-2.15.24-4.12.44-5.9.6-1.78.16-3.18.27-4.19.31-1.13.07-2.11-.24-2.94-.95-.83-.71-1.28-1.63-1.36-2.76-.07-1.13.25-2.1.98-2.91.73-.81,1.66-1.25,2.79-1.32.93-.05,2.2-.14,3.82-.28,1.62-.14,3.42-.29,5.41-.46-.19-1.18-.41-2.3-.64-3.37-.24-1.06-.47-2.05-.68-2.95-.28-1.11-.1-2.14.54-3.1.64-.96,1.51-1.53,2.61-1.73,1.1-.24,2.14-.04,3.09.6.96.64,1.53,1.51,1.73,2.61.21.98.42,2.08.65,3.31.23,1.22.47,2.53.72,3.92,1.62-.16,3.15-.3,4.59-.43,1.44-.13,2.72-.23,3.86-.3,3.36-.3,6.06.15,8.1,1.35,2.04,1.21,3.24,3.07,3.61,5.59.26,1.79.04,3.52-.67,5.2-.71,1.68-1.97,3.15-3.78,4.41-1.81,1.27-4.27,2.23-7.37,2.87-1.1.24-2.13.11-3.08-.39-.95-.5-1.58-1.28-1.9-2.35-.28-1.07-.14-2.07.41-3.02.56-.94,1.39-1.57,2.5-1.89,2.14-.6,3.56-1.12,4.26-1.57.7-.45,1.03-1,1-1.64-.06-.81-.67-1.16-1.85-1.05-1.14.11-2.42.24-3.86.39-1.44.15-2.97.32-4.6.52.38,2.36.74,4.74,1.08,7.12.34,2.38.65,4.58.94,6.59.29,2.01.5,3.73.63,5.15.11,1.13-.18,2.14-.87,3.01-.69.87-1.61,1.36-2.74,1.48Z"/>
      <path class="cls-3" d="M377.5,78.46c-1.65-.85-3.38-1.69-5.21-2.52-1.83-.83-3.48-1.48-4.98-1.96-1.11-.38-1.9-1.08-2.38-2.09-.48-1.01-.55-2.06-.2-3.12.34-1.1,1.03-1.92,2.06-2.44,1.03-.52,2.07-.58,3.11-.19,1.19.44,2.48.93,3.86,1.49,1.38.56,2.71,1.14,4,1.74s2.38,1.15,3.29,1.64c.99.52,1.69,1.3,2.1,2.35.41,1.05.37,2.1-.12,3.17-.47,1.02-1.25,1.74-2.35,2.14-1.1.41-2.16.34-3.19-.21ZM372.84,106.48c-1.27.54-2.56.54-3.86.02-1.3-.52-2.22-1.42-2.75-2.69-.54-1.27-.54-2.57-.02-3.89.52-1.32,1.42-2.23,2.69-2.72,3.31-1.33,6.66-2.95,10.04-4.89,3.39-1.93,6.64-4.01,9.75-6.24,3.11-2.22,5.92-4.5,8.43-6.82,2.5-2.32,4.55-4.54,6.13-6.65.81-1.12,1.89-1.77,3.25-1.94,1.35-.17,2.59.15,3.71.96,1.16.77,1.83,1.84,2,3.21.17,1.38-.15,2.62-.96,3.74-1.71,2.29-3.98,4.73-6.81,7.33-2.84,2.6-6.01,5.18-9.52,7.75-3.51,2.57-7.17,4.97-10.97,7.2-3.81,2.24-7.51,4.11-11.11,5.62Z"/>
      <path class="cls-3" d="M475.57,111.02c-8.21,1.2-14.85,1.55-19.93,1.04-5.08-.5-8.93-1.87-11.54-4.09-2.13-1.82-3.61-3.96-4.44-6.43-.83-2.47-1.31-5.78-1.44-9.92l-.25-7.91c-3.09.57-6.01,1.08-8.75,1.54-2.74.46-4.96.84-6.64,1.13-1.5.24-2.85-.09-4.06-.97-1.21-.88-1.95-2.05-2.23-3.5-.24-1.5.08-2.86.93-4.09.86-1.23,2.01-1.96,3.46-2.19,1.87-.34,4.33-.76,7.38-1.25,3.05-.49,6.23-1.01,9.56-1.53l-.33-10.73c-.05-1.51.45-2.81,1.5-3.9,1.05-1.09,2.33-1.66,3.83-1.71,1.51,0,2.8.51,3.86,1.54,1.07,1.03,1.63,2.29,1.67,3.8l.29,9.32c2.44-.4,4.58-.75,6.43-1.05,1.85-.29,3.15-.5,3.9-.62,5.43-1.02,9.61-.77,12.53.74,2.92,1.51,4.68,4.19,5.27,8.03.64,4.08-.3,7.5-2.83,10.26-2.53,2.76-6.97,4.91-13.33,6.42-1.45.38-2.83.24-4.15-.4-1.32-.64-2.18-1.69-2.61-3.13-.42-1.45-.29-2.83.4-4.15.69-1.32,1.76-2.16,3.21-2.54,2.34-.54,4.05-1.01,5.15-1.4,1.09-.39,1.81-.77,2.16-1.16.34-.39.5-.84.49-1.36-.02-.71-.28-1.16-.78-1.35-.5-.2-1.41-.16-2.72.12-.89.17-2.49.46-4.81.86-2.32.4-4.98.86-7.98,1.38l.29,9.46c.08,2.59.29,4.42.63,5.49.34,1.07.9,1.93,1.67,2.56.87.77,2.17,1.33,3.9,1.68,1.73.35,4.12.45,7.18.31,3.06-.14,6.96-.5,11.7-1.07,1.5-.19,2.84.17,4.03,1.08,1.18.91,1.89,2.11,2.13,3.61.19,1.45-.19,2.77-1.11,3.96-.93,1.18-2.14,1.89-3.64,2.13Z"/>
      <path class="cls-3" d="M491.56,99.73c-1.33.59-2.71.63-4.13.12-1.43-.52-2.46-1.46-3.1-2.84-.59-1.37-.62-2.76-.08-4.17.54-1.4,1.47-2.4,2.8-3,5.26-2.47,9-5.75,11.2-9.87,2.2-4.11,3.35-9.18,3.44-15.21.02-1.51.56-2.78,1.61-3.83,1.05-1.04,2.33-1.56,3.84-1.53s2.77.57,3.79,1.64c1.02,1.07,1.52,2.37,1.5,3.87-.22,8.71-2.09,15.95-5.61,21.71-3.52,5.77-8.6,10.13-15.24,13.09ZM538.38,95.75c-6.87,2.54-12.27,2.88-16.23,1.03-3.95-1.85-5.88-5.81-5.8-11.88l.34-23.24c.02-1.51.57-2.78,1.64-3.83,1.07-1.04,2.36-1.55,3.87-1.53s2.78.57,3.83,1.65c1.04,1.07,1.55,2.37,1.53,3.87l-.3,20.48c-.03,2.03.48,3.29,1.53,3.8,1.05.51,2.6.4,4.63-.32,1.18-.41,2.53-.9,4.05-1.49,1.51-.59,3.08-1.23,4.69-1.91,1.61-.68,3.1-1.32,4.48-1.91,1.37-.59,2.76-.65,4.17-.19,1.41.47,2.45,1.39,3.14,2.77.64,1.33.74,2.72.29,4.17-.44,1.45-1.36,2.5-2.73,3.14-2.09.96-4.31,1.93-6.68,2.9-2.37.98-4.52,1.81-6.46,2.48Z"/>
      <path class="cls-3" d="M104.9,237.7c-1.49.33-2.88.1-4.17-.71-1.29-.8-2.1-1.93-2.43-3.37-.44-2.1-.96-4.44-1.57-7.03-.61-2.58-1.23-5.27-1.88-8.07-3.59.77-7.04,1.53-10.35,2.28-3.31.75-6.17,1.4-8.59,1.97-1.44.33-2.8.07-4.07-.79-1.27-.85-2.07-2-2.4-3.45-.29-1.5-.02-2.88.82-4.15.83-1.27,1.99-2.05,3.49-2.34,2.1-.44,4.81-1,8.12-1.67,3.31-.68,6.81-1.43,10.5-2.26-.25-1.17-.52-2.31-.79-3.42-.27-1.12-.56-2.23-.86-3.35-2.42.57-4.74,1.09-6.96,1.56-2.22.48-4.14.91-5.77,1.3-1.49.33-2.88.06-4.15-.81-1.28-.88-2.05-2.04-2.34-3.49-.29-1.5,0-2.87.85-4.12.86-1.25,2.01-2.04,3.45-2.37,1.35-.27,3.12-.63,5.29-1.08,2.17-.45,4.52-.93,7.04-1.46-.31-1.26-.6-2.44-.88-3.56-.27-1.12-.55-2.11-.82-2.99-.33-1.49-.09-2.87.74-4.14.83-1.27,1.97-2.07,3.41-2.4,1.49-.33,2.88-.1,4.17.71,1.29.8,2.08,1.95,2.37,3.45.18.89.41,1.9.69,3.04.28,1.14.55,2.36.82,3.67,2.33-.51,4.54-.98,6.61-1.42,2.08-.44,3.86-.82,5.35-1.16,1.49-.38,2.85-.13,4.11.75,1.25.88,2.02,2.07,2.31,3.56.29,1.5.01,2.88-.82,4.15-.83,1.27-2,2.03-3.5,2.26-1.45.24-3.18.57-5.19,1-2.01.43-4.15.88-6.44,1.33.25,1.07.5,2.17.78,3.28.27,1.12.54,2.26.79,3.42,3.49-.81,6.77-1.55,9.82-2.23,3.05-.67,5.54-1.2,7.45-1.57,1.49-.33,2.86-.08,4.11.75,1.25.83,2.04,2,2.37,3.49.33,1.44.08,2.81-.75,4.11-.83,1.29-1.99,2.08-3.49,2.37-1.96.38-4.43.88-7.39,1.5-2.96.62-6.15,1.28-9.56,1.99.7,2.84,1.38,5.53,2.03,8.09.65,2.56,1.24,4.81,1.76,6.76.38,1.44.16,2.81-.64,4.1-.8,1.29-1.95,2.13-3.44,2.51Z"/>
      <path class="cls-3" d="M150.78,227.12c-.82.23-1.6.15-2.34-.23-.74-.38-1.21-.98-1.41-1.8-.25-1.06-.6-2.32-1.04-3.8-.44-1.47-.93-3.06-1.47-4.75-.54-1.69-1.1-3.39-1.69-5.11-1.55.45-2.97.85-4.26,1.2-1.29.35-2.3.6-3.04.76-.82.2-1.58.09-2.28-.32-.7-.41-1.15-1.03-1.35-1.85-.2-.82-.08-1.58.35-2.26.43-.69,1.06-1.13,1.88-1.33.68-.16,1.6-.39,2.77-.69,1.17-.31,2.48-.65,3.91-1.03-.29-.84-.59-1.64-.91-2.39-.31-.75-.61-1.44-.88-2.08-.35-.78-.35-1.56,0-2.34.35-.78.91-1.32,1.69-1.61.78-.32,1.56-.3,2.35.04.78.35,1.32.91,1.61,1.69.28.69.58,1.48.9,2.35.32.87.67,1.8,1.03,2.79,1.17-.32,2.28-.62,3.32-.9,1.04-.28,1.97-.52,2.79-.72,2.43-.65,4.47-.67,6.12-.05,1.65.62,2.78,1.84,3.37,3.64.42,1.28.48,2.58.17,3.9-.31,1.32-1.05,2.56-2.21,3.73-1.17,1.16-2.85,2.18-5.05,3.05-.78.32-1.55.35-2.31.11-.76-.24-1.33-.74-1.7-1.48-.34-.75-.37-1.5-.08-2.27.29-.76.82-1.33,1.59-1.71,1.49-.71,2.47-1.28,2.92-1.7s.63-.86.53-1.34c-.15-.59-.64-.76-1.49-.53-.82.23-1.75.49-2.79.79-1.04.3-2.14.62-3.31.97.58,1.69,1.15,3.38,1.71,5.09.55,1.7,1.07,3.28,1.54,4.72.47,1.44.84,2.68,1.12,3.7.23.82.15,1.59-.25,2.32-.4.73-1,1.21-1.82,1.44Z"/>
      <path class="cls-3" d="M180.61,201.87c-1.54-.94-3.16-1.87-4.87-2.8-1.71-.93-3.27-1.68-4.68-2.25-1.04-.45-1.76-1.18-2.15-2.19-.39-1.01-.38-2.02.04-3.03.41-1.04,1.14-1.77,2.18-2.2,1.04-.43,2.05-.41,3.03.04,1.12.51,2.34,1.08,3.63,1.72,1.3.64,2.55,1.29,3.75,1.96s2.22,1.28,3.07,1.82c.92.57,1.54,1.37,1.87,2.41.32,1.04.21,2.06-.35,3.05-.53.95-1.34,1.58-2.44,1.9-1.09.31-2.12.17-3.08-.43ZM179.94,223.36c-.98.53-2,.63-3.08.31-1.08-.32-1.88-.97-2.41-1.94-.53-.98-.63-2.01-.31-3.11.32-1.1.97-1.89,1.95-2.38,2.55-1.31,5.1-2.86,7.67-4.67,2.56-1.8,5.01-3.71,7.33-5.72,2.32-2.01,4.4-4.04,6.23-6.09,1.83-2.05,3.3-3.97,4.41-5.78.56-.96,1.38-1.56,2.45-1.8,1.07-.24,2.08-.08,3.04.49.99.53,1.6,1.33,1.84,2.42.24,1.09.08,2.11-.48,3.06-1.19,1.96-2.83,4.08-4.9,6.38-2.07,2.29-4.42,4.6-7.03,6.92-2.61,2.32-5.36,4.51-8.23,6.59-2.88,2.08-5.7,3.85-8.46,5.33Z"/>
      <path class="cls-3" d="M261.88,206.63c-6.47,1.38-11.75,2-15.82,1.86-4.07-.14-7.2-1.03-9.4-2.66-1.79-1.34-3.08-2.97-3.87-4.89-.79-1.92-1.34-4.53-1.66-7.82l-.6-6.28c-2.43.61-4.73,1.17-6.89,1.68-2.16.51-3.9.92-5.23,1.24-1.18.26-2.28.08-3.28-.56-1.01-.64-1.66-1.53-1.96-2.67-.27-1.18-.09-2.28.53-3.31.62-1.02,1.5-1.66,2.65-1.93,1.47-.37,3.41-.83,5.81-1.38,2.4-.55,4.91-1.12,7.54-1.72l-.82-8.53c-.11-1.2.22-2.26,1-3.18.78-.92,1.77-1.44,2.96-1.56,1.2-.08,2.25.26,3.16,1.03.9.76,1.41,1.74,1.53,2.94l.71,7.41c1.92-.45,3.61-.84,5.07-1.17,1.46-.33,2.48-.56,3.08-.69,4.27-1.09,7.61-1.11,10.02-.06,2.4,1.05,3.94,3.09,4.61,6.12.72,3.21.15,5.99-1.72,8.32-1.87,2.33-5.3,4.27-10.29,5.8-1.13.37-2.24.34-3.32-.11-1.08-.44-1.83-1.23-2.24-2.36-.41-1.13-.38-2.24.11-3.32.48-1.08,1.29-1.81,2.42-2.19,1.83-.55,3.18-1.01,4.03-1.38.85-.36,1.4-.71,1.66-1.04.25-.33.36-.69.32-1.11-.05-.56-.29-.91-.69-1.04-.41-.13-1.13-.05-2.16.24-.7.18-1.96.49-3.79.93-1.83.44-3.92.94-6.28,1.51l.72,7.52c.2,2.06.46,3.5.79,4.34.33.84.81,1.49,1.46,1.95.73.57,1.8.95,3.19,1.14,1.4.19,3.31.15,5.73-.13,2.43-.27,5.51-.76,9.26-1.46,1.19-.23,2.27-.01,3.26.65.99.66,1.61,1.58,1.88,2.76.22,1.15,0,2.22-.68,3.21-.68.99-1.61,1.62-2.79,1.88Z"/>
      <path class="cls-3" d="M280.48,198c-1,.59-2.09.74-3.27.46-1.18-.28-2.08-.94-2.71-1.98-.59-1.04-.73-2.14-.43-3.3.3-1.16.96-2.04,1.96-2.62,3.96-2.42,6.63-5.35,8.01-8.81,1.38-3.45,1.85-7.57,1.39-12.36-.11-1.2.2-2.26.94-3.18.74-.92,1.71-1.44,2.91-1.55s2.25.21,3.15.97c.9.76,1.41,1.74,1.53,2.94.59,6.93-.26,12.83-2.54,17.71-2.29,4.88-5.93,8.79-10.93,11.72ZM317.26,190.73c-5.22,2.62-9.48,3.37-12.78,2.25-3.3-1.12-5.18-4.09-5.64-8.91l-1.77-18.46c-.11-1.2.21-2.26.97-3.18s1.74-1.44,2.94-1.56,2.26.21,3.18.97,1.44,1.74,1.56,2.94l1.56,16.27c.15,1.61.67,2.57,1.55,2.88.88.31,2.09.09,3.64-.66.9-.43,1.93-.94,3.08-1.54,1.15-.6,2.33-1.24,3.55-1.93,1.22-.68,2.34-1.32,3.38-1.91,1.04-.59,2.14-.76,3.29-.51,1.16.25,2.07.89,2.73,1.92.62,1,.82,2.09.6,3.28-.23,1.19-.85,2.1-1.89,2.73-1.57.94-3.25,1.91-5.04,2.89-1.79.98-3.43,1.83-4.91,2.54Z"/>
      <path class="cls-3" d="M404.86,235.79c-1.89,0-3.48-.61-4.76-1.83-1.28-1.22-1.92-2.84-1.92-4.86v-24.46c0-1.4.32-2.6.96-3.57s1.45-1.74,2.43-2.29c-3.66-3.24-6.84-6.6-9.53-10.08h-1.38c-1.16,1.53-2.41,3.02-3.76,4.49-1.34,1.47-2.81,2.9-4.4,4.31,1.71.25,3.08,1.07,4.12,2.47,1.04,1.41,1.43,2.99,1.19,4.76-.98,7.21-3.53,13.38-7.65,18.51-4.12,5.13-9.36,9.1-15.71,11.91-1.89.79-3.73.98-5.5.55-1.77-.43-3.09-1.53-3.94-3.3-.92-1.77-1.01-3.43-.27-4.99.73-1.56,1.83-2.64,3.3-3.25,5.25-2.07,9.25-4.69,12-7.83,2.75-3.14,4.46-7.41,5.13-12.78-2.63,1.89-5.35,3.7-8.15,5.4-2.81,1.71-5.65,3.27-8.52,4.67-1.95.92-3.8,1.1-5.54.55s-3.04-1.68-3.89-3.39c-.8-1.71-.89-3.3-.27-4.76.61-1.46,1.68-2.5,3.21-3.11,4.89-1.95,9.18-4.09,12.87-6.41,3.69-2.32,7.04-4.95,10.03-7.88-4.46-.24-7.92-.9-10.4-1.97-2.47-1.07-4.18-2.85-5.13-5.36-.95-2.5-1.42-6.01-1.42-10.54,0-3.79.32-6.86.96-9.21.64-2.35,1.77-4.17,3.39-5.45,1.62-1.28,3.83-2.17,6.64-2.66,2.81-.49,6.41-.73,10.81-.73h24.74c4.34,0,7.92.24,10.77.73,2.84.49,5.05,1.37,6.64,2.66,1.59,1.28,2.7,3.1,3.34,5.45.64,2.35.96,5.42.96,9.21,0,4.64-.5,8.23-1.51,10.77-1.01,2.54-2.82,4.32-5.45,5.36-2.63,1.04-6.35,1.62-11.18,1.74,3.36,3.12,7.05,5.73,11.09,7.83s8.4,4.02,13.1,5.73c1.53.55,2.61,1.68,3.25,3.39.64,1.71.53,3.45-.32,5.22-.79,1.59-2.14,2.73-4.03,3.44-1.89.7-3.82.59-5.77-.32-4.89-2.2-9.5-4.73-13.83-7.61v22.81c0,2.01-.66,3.63-1.97,4.86-1.31,1.22-2.89,1.83-4.72,1.83ZM371.88,166.71h13.47v-4.21h-5.59c-2.93,0-4.93.22-6,.64-1.07.43-1.7,1.62-1.88,3.57ZM379.75,178.9h5.59v-4.12h-13.47c.24,1.89.88,3.06,1.92,3.48,1.04.43,3.02.64,5.96.64ZM398.99,166.71h13.38c-.24-1.95-.89-3.14-1.92-3.57-1.04-.43-3.02-.64-5.96-.64h-5.5v4.21ZM398.99,178.9h5.5c2.87,0,4.84-.21,5.91-.64,1.07-.43,1.73-1.59,1.97-3.48h-13.38v4.12Z"/>
      <path class="cls-3" d="M445.72,236.8c-1.65,0-3.04-.52-4.17-1.56-1.13-1.04-1.69-2.51-1.69-4.4v-65.32c0-3.6.4-6.37,1.19-8.29.79-1.92,2.3-3.25,4.53-3.99,2.23-.73,5.45-1.1,9.66-1.1,6.54,0,10.82,1.22,12.87,3.66,2.04,2.44,2.3,6.11.78,10.99-.67,2.26-1.37,4.46-2.11,6.6-.73,2.14-1.41,4.03-2.02,5.68-.49,1.53-.8,2.72-.92,3.57-.12.85-.05,1.57.23,2.15.27.58.69,1.24,1.24,1.97,1.34,1.77,2.38,3.7,3.11,5.77.79-.31,1.59-.46,2.38-.46h48.37c1.65,0,2.96.52,3.94,1.56.98,1.04,1.47,2.32,1.47,3.85s-.49,2.81-1.47,3.85c-.98,1.04-2.29,1.56-3.94,1.56h-.64c.43.25.79.58,1.1,1.01.85,1.04,1.22,2.38,1.1,4.03-.12,1.65-.79,2.93-2.02,3.85-.73.49-1.82,1.24-3.25,2.24-1.44,1.01-2.7,1.91-3.8,2.7,2.44,2.5,5.43,4.7,8.98,6.6,1.41.79,2.32,2,2.75,3.62.43,1.62.27,3.13-.46,4.54-.86,1.71-2.26,2.72-4.21,3.02-1.95.31-3.73-.03-5.31-1.01-5.31-3.3-9.73-7.39-13.24-12.28-3.51-4.89-6.28-10.99-8.29-18.32h-5.22v17.87l7.51-1.01c1.4-.18,2.72.09,3.94.82,1.22.73,1.95,1.86,2.2,3.39.24,1.47.06,2.79-.55,3.99-.61,1.19-1.77,1.94-3.48,2.24-.49.06-1.53.24-3.12.55-1.59.31-3.47.64-5.63,1.01-2.17.37-4.35.73-6.55,1.1-2.2.37-4.12.69-5.77.96-1.65.27-2.78.47-3.39.6-1.89.24-3.5-.06-4.81-.92s-2.12-2.11-2.43-3.76c-.31-1.77.05-3.27,1.05-4.49s2.37-1.95,4.08-2.2l4.95-.64v-19.51h-4.31c-.18,0-.34-.03-.46-.09-.12,4.95-1.34,8.64-3.67,11.09-2.32,2.44-5.47,3.82-9.44,4.12-2.08.18-3.79-.21-5.13-1.19v14.02c0,1.89-.56,3.36-1.69,4.4-1.13,1.04-2.55,1.56-4.26,1.56ZM451.68,206.47c.55-.43,1.28-.73,2.2-.92,1.4-.31,2.4-.95,2.98-1.92.58-.98.87-2.78.87-5.4,0-1.71-.31-3.42-.92-5.13-.61-1.71-1.38-3.24-2.29-4.58-.98-1.47-1.65-2.64-2.02-3.53-.37-.88-.46-1.85-.27-2.89.18-1.04.55-2.5,1.1-4.4.49-1.46,1.07-3.39,1.74-5.77.67-2.38,1.22-4.43,1.65-6.14.31-.98.31-1.65,0-2.02-.31-.37-1.16-.55-2.56-.55-.92,0-1.56.18-1.92.55s-.55,1.07-.55,2.11v40.59ZM487.87,189.52c-5.74,0-9.83-.98-12.28-2.93-2.44-1.95-3.67-5.44-3.67-10.45v-10.17c0-5.01,1.22-8.47,3.67-10.4,2.44-1.92,6.53-2.89,12.28-2.89h15.12c5.8,0,9.95.96,12.46,2.89,2.5,1.92,3.76,5.39,3.76,10.4v10.17c0,5.01-1.25,8.49-3.76,10.45s-6.66,2.93-12.46,2.93h-15.12ZM483.93,166.62h5.77v-4.12h-.82c-2.02,0-3.34.24-3.99.73s-.96,1.62-.96,3.39ZM488.87,179.72h.82v-4.12h-5.77c0,1.77.32,2.9.96,3.39s1.97.73,3.99.73ZM500.69,166.62h6.5c-.06-1.77-.41-2.9-1.05-3.39-.64-.49-1.94-.73-3.89-.73h-1.56v4.12ZM500.69,179.72h1.56c1.95,0,3.25-.24,3.89-.73.64-.49.99-1.62,1.05-3.39h-6.5v4.12ZM505.46,207.94c1.04-.79,2.15-1.65,3.34-2.56,1.19-.92,2-1.53,2.43-1.83.18-.24.46-.46.82-.64h-8.61c.31.86.63,1.71.96,2.56.33.86.69,1.68,1.05,2.47Z"/>
    </g>
    <g>
      <path class="cls-6" d="M63.18,140.74c-1.5-.71-2.61-1.92-3.31-3.62-.71-1.7-.71-3.3,0-4.8,1.35-3.12,2.48-6.16,3.39-9.12.91-2.95,1.61-6.09,2.09-9.4.49-3.31.72-7.05.7-11.23-.02-4.18-.28-9.08-.78-14.72l-.75-8.36c-.19-2.14-.43-4.4-.71-6.79-.49-4.72-.18-8.52.93-11.4,1.11-2.88,3.22-5.06,6.32-6.54,3.1-1.49,7.37-2.47,12.81-2.96l26.91-2.42c5.31-.48,9.63-.24,12.94.7,3.32.94,5.8,2.75,7.44,5.4,1.64,2.66,2.58,6.36,2.81,11.11.08,1.63.18,3.1.3,4.43l.4,4.42c.15.9.27,1.9.37,3l.33,3.69c.61,6.8,1.47,13.22,2.56,19.26,1.1,6.04,2.53,10.94,4.31,14.7.4.81.73,1.18.98,1.09.25-.09.5-.57.75-1.44l.3-1.01c.44-1.61,1.33-2.76,2.68-3.47,1.34-.71,2.85-.81,4.53-.31,1.54.45,2.68,1.29,3.41,2.53.73,1.24.91,2.66.53,4.26-.27,1.4-.62,2.75-1.06,4.06-.44,1.31-.98,2.75-1.62,4.31-1.34,3.25-3.16,5.51-5.46,6.76-2.3,1.25-4.71,1.42-7.2.5-2.5-.92-4.75-3.05-6.74-6.4-3.32-5.71-5.8-12.21-7.43-19.51s-2.85-15.35-3.64-24.16l-1.37-15.25c-.18-2.01-.51-3.54-1-4.61-.49-1.07-1.35-1.76-2.59-2.07-1.24-.31-3.05-.36-5.45-.15l-26.91,2.42c-3.56.32-5.93,1.04-7.1,2.16-1.17,1.12-1.62,3.2-1.35,6.24l1.41,15.64c.66,7.38.96,13.94.88,19.66-.07,5.72-.62,10.96-1.62,15.72-1.01,4.76-2.61,9.46-4.81,14.09-.77,1.64-2.08,2.81-3.94,3.54-1.86.72-3.61.73-5.24.03ZM128.96,132.78c-1.42.91-3,1.18-4.73.82-1.73-.37-3.02-1.26-3.87-2.69-.55-1.06-1.25-2.27-2.09-3.63-2.16.65-4.68,1.37-7.54,2.15-2.87.78-5.78,1.56-8.75,2.35-2.97.79-5.77,1.53-8.42,2.23-2.65.69-4.87,1.25-6.66,1.68-1.99.44-3.7.23-5.15-.61s-2.39-2.2-2.81-4.06c-.43-1.85-.18-3.46.74-4.82.92-1.36,2.38-2.25,4.36-2.69,1.54-.27,3.51-.67,5.91-1.22,2.4-.54,4.94-1.13,7.63-1.76l-.97-10.78c-5.45.42-9.33-.29-11.65-2.14s-3.71-5.36-4.18-10.54.27-8.99,2.22-11.22,5.65-3.63,11.08-4.18l-.31-3.4c-1.54.27-3.06.52-4.54.75-1.48.23-2.93.48-4.34.73-1.68.22-3.17-.04-4.48-.77-1.31-.73-2.14-1.99-2.5-3.79-.35-1.67-.1-3.14.73-4.42.83-1.28,2.15-2.04,3.96-2.27,2.64-.43,5.63-.96,8.97-1.59,3.34-.63,6.64-1.33,9.9-2.11,3.26-.78,6.1-1.54,8.51-2.28,1.96-.7,3.68-.8,5.16-.32,1.48.49,2.52,1.49,3.11,3,.68,1.7.7,3.3.09,4.79-.62,1.49-1.88,2.55-3.78,3.18-1.53.4-3.11.84-4.73,1.31-1.62.47-3.3.92-5.02,1.33l.44,4.86c3.7-.27,6.65-.06,8.87.62,2.22.68,3.87,2,4.96,3.96,1.09,1.96,1.79,4.69,2.11,8.18.47,5.18-.28,8.89-2.23,11.12-1.95,2.23-5.68,3.63-11.18,4.19l.82,9.13,3.16-.77c-.7-1.24-.87-2.58-.51-4.02.36-1.44,1.12-2.56,2.29-3.39,1.3-.83,2.81-1.18,4.56-1.05,1.74.14,3.1.91,4.08,2.33.82,1.1,1.79,2.47,2.91,4.1,1.13,1.63,2.24,3.28,3.33,4.94,1.1,1.66,1.99,3.09,2.68,4.26.86,1.56,1.08,3.13.67,4.74-.41,1.6-1.36,2.86-2.84,3.78ZM95.69,99.23l-.63-7c-1.55.14-2.57.43-3.06.86-.48.43-.66,1.43-.52,2.98s.49,2.5,1.04,2.84c.55.34,1.61.44,3.16.3ZM106.86,98.23c1.55-.14,2.57-.43,3.06-.86.48-.43.66-1.43.52-2.98s-.49-2.5-1.04-2.84c-.55-.34-1.61-.44-3.16-.3l.63,7Z"/>
      <path class="cls-6" d="M185.79,129.15c-6.22.56-11.08.36-14.6-.6s-6.07-2.83-7.66-5.63c-1.59-2.8-2.61-6.69-3.06-11.67s-.14-9,.93-12.03c1.07-3.03,3.24-5.34,6.53-6.9,3.29-1.57,8.04-2.63,14.26-3.19l3.69-.33c.35-1.14.71-2.41,1.08-3.82.36-1.4.69-2.64.99-3.71l-1.75.16c-5.77.52-10.32.36-13.66-.49-3.34-.84-5.77-2.62-7.29-5.32s-2.5-6.55-2.95-11.54c-.45-5.05-.18-9.04.83-11.97,1.01-2.93,3.08-5.11,6.22-6.53,3.14-1.42,7.59-2.4,13.35-2.91l20.01-1.8c5.83-.52,10.4-.36,13.71.48,3.31.85,5.72,2.62,7.24,5.32,1.52,2.7,2.5,6.58,2.96,11.63s.17,8.95-.84,11.88-3.07,5.11-6.17,6.53c-3.1,1.42-7.57,2.39-13.4,2.92l-2.43.22c-.23,1.07-.54,2.3-.94,3.71-.4,1.41-.74,2.68-1.03,3.81l9.52-.86c6.22-.56,11.08-.36,14.6.6,3.51.96,6.06,2.83,7.66,5.63,1.59,2.8,2.61,6.69,3.06,11.67s.14,9-.93,12.03c-1.07,3.03-3.24,5.34-6.53,6.9s-8.04,2.63-14.26,3.19l-29.15,2.62ZM184.64,116.32l29.15-2.62c2.46-.22,4.27-.58,5.44-1.08,1.16-.5,1.89-1.3,2.18-2.4.29-1.1.35-2.59.19-4.47s-.5-3.42-.98-4.42c-.48-1-1.34-1.64-2.57-1.92-1.23-.28-3.08-.31-5.54-.09l-29.15,2.62c-2.46.22-4.29.58-5.49,1.08-1.2.5-1.94,1.29-2.24,2.36-.3,1.07-.36,2.58-.18,4.52s.5,3.33.98,4.37c.48,1.03,1.36,1.69,2.63,1.97,1.26.28,3.13.31,5.59.09ZM185.07,68.78l20.01-1.8c2.85-.26,4.8-.84,5.87-1.75,1.06-.91,1.46-2.79,1.21-5.64s-1-4.71-2.2-5.38c-1.2-.68-3.23-.88-6.08-.63l-20.01,1.8c-2.85.26-4.81.82-5.87,1.7-1.06.88-1.46,2.78-1.2,5.69s.99,4.63,2.19,5.34c1.21.71,3.23.93,6.08.68Z"/>
      <path class="cls-6" d="M279.47,113.89c-1.52.07-2.84-.4-3.96-1.41-1.13-1.01-1.73-2.25-1.8-3.72-.07-2.13-.18-4.51-.33-7.15s-.3-5.37-.46-8.22c-3.65.14-7.15.3-10.52.46-3.37.16-6.28.32-8.75.46-1.47.08-2.76-.41-3.85-1.47-1.1-1.05-1.69-2.31-1.76-3.78-.02-1.51.48-2.82,1.51-3.92,1.03-1.1,2.3-1.66,3.81-1.69,2.13-.07,4.88-.15,8.24-.25,3.36-.09,6.91-.23,10.66-.41-.05-1.18-.11-2.35-.19-3.49-.08-1.14-.17-2.28-.27-3.42-2.47.14-4.83.25-7.08.34-2.25.09-4.21.18-5.87.29-1.52.07-2.82-.43-3.92-1.51-1.1-1.08-1.66-2.35-1.69-3.81-.02-1.51.49-2.81,1.54-3.88,1.05-1.08,2.31-1.65,3.78-1.73,1.37-.04,3.16-.09,5.36-.15,2.2-.07,4.58-.14,7.14-.23-.09-1.28-.17-2.49-.25-3.63-.08-1.14-.18-2.16-.29-3.07-.07-1.52.41-2.83,1.44-3.93,1.03-1.1,2.28-1.69,3.75-1.76,1.52-.07,2.84.4,3.96,1.41,1.13,1.01,1.7,2.27,1.73,3.78.02.9.07,1.93.15,3.09.07,1.16.13,2.41.17,3.73,2.37-.1,4.61-.19,6.71-.26,2.11-.07,3.92-.14,5.44-.22,1.52-.12,2.82.36,3.89,1.44,1.07,1.07,1.62,2.37,1.65,3.88.02,1.51-.48,2.82-1.51,3.92-1.03,1.1-2.3,1.64-3.81,1.62-1.46-.02-3.21.01-5.25.09-2.04.08-4.22.15-6.53.2.06,1.09.12,2.21.2,3.35.08,1.14.14,2.3.19,3.49,3.56-.2,6.89-.36,9.99-.5,3.1-.14,5.63-.22,7.57-.26,1.52-.07,2.81.41,3.89,1.44,1.08,1.03,1.65,2.3,1.72,3.82.07,1.47-.4,2.77-1.44,3.89-1.03,1.12-2.3,1.7-3.82,1.72-1.99.04-4.48.1-7.49.2-3.01.1-6.24.2-9.69.31.2,2.9.4,5.65.6,8.26.2,2.61.39,4.92.56,6.92.12,1.47-.32,2.77-1.33,3.9-1.01,1.13-2.27,1.75-3.79,1.87Z"/>
      <path class="cls-6" d="M334.44,113.02c-1.14.11-2.15-.17-3.04-.84-.89-.67-1.38-1.58-1.45-2.71-.09-1.46-.25-3.21-.5-5.26-.24-2.05-.53-4.26-.85-6.61-.32-2.36-.67-4.74-1.05-7.14-2.15.24-4.12.44-5.9.6-1.78.16-3.18.27-4.19.31-1.13.07-2.11-.24-2.94-.95-.83-.71-1.28-1.63-1.36-2.76-.07-1.13.25-2.1.98-2.91.73-.81,1.66-1.25,2.79-1.32.93-.05,2.2-.14,3.82-.28,1.62-.14,3.42-.29,5.41-.46-.19-1.18-.41-2.3-.64-3.37-.24-1.06-.47-2.05-.68-2.95-.28-1.11-.1-2.14.54-3.1.64-.96,1.51-1.53,2.61-1.73,1.1-.24,2.14-.04,3.09.6.96.64,1.53,1.51,1.73,2.61.21.98.42,2.08.65,3.31.23,1.22.47,2.53.72,3.92,1.62-.16,3.15-.3,4.59-.43,1.44-.13,2.72-.23,3.86-.3,3.36-.3,6.06.15,8.1,1.35,2.04,1.21,3.24,3.07,3.61,5.59.26,1.79.04,3.52-.67,5.2-.71,1.68-1.97,3.15-3.78,4.41-1.81,1.27-4.27,2.23-7.37,2.87-1.1.24-2.13.11-3.08-.39-.95-.5-1.58-1.28-1.9-2.35-.28-1.07-.14-2.07.41-3.02.56-.94,1.39-1.57,2.5-1.89,2.14-.6,3.56-1.12,4.26-1.57.7-.45,1.03-1,1-1.64-.06-.81-.67-1.16-1.85-1.05-1.14.11-2.42.24-3.86.39-1.44.15-2.97.32-4.6.52.38,2.36.74,4.74,1.08,7.12.34,2.38.65,4.58.94,6.59.29,2.01.5,3.73.63,5.15.11,1.13-.18,2.14-.87,3.01-.69.87-1.61,1.36-2.74,1.48Z"/>
      <path class="cls-6" d="M377.5,78.46c-1.65-.85-3.38-1.69-5.21-2.52-1.83-.83-3.48-1.48-4.98-1.96-1.11-.38-1.9-1.08-2.38-2.09-.48-1.01-.55-2.06-.2-3.12.34-1.1,1.03-1.92,2.06-2.44,1.03-.52,2.07-.58,3.11-.19,1.19.44,2.48.93,3.86,1.49,1.38.56,2.71,1.14,4,1.74s2.38,1.15,3.29,1.64c.99.52,1.69,1.3,2.1,2.35.41,1.05.37,2.1-.12,3.17-.47,1.02-1.25,1.74-2.35,2.14-1.1.41-2.16.34-3.19-.21ZM372.84,106.48c-1.27.54-2.56.54-3.86.02-1.3-.52-2.22-1.42-2.75-2.69-.54-1.27-.54-2.57-.02-3.89.52-1.32,1.42-2.23,2.69-2.72,3.31-1.33,6.66-2.95,10.04-4.89,3.39-1.93,6.64-4.01,9.75-6.24,3.11-2.22,5.92-4.5,8.43-6.82,2.5-2.32,4.55-4.54,6.13-6.65.81-1.12,1.89-1.77,3.25-1.94,1.35-.17,2.59.15,3.71.96,1.16.77,1.83,1.84,2,3.21.17,1.38-.15,2.62-.96,3.74-1.71,2.29-3.98,4.73-6.81,7.33-2.84,2.6-6.01,5.18-9.52,7.75-3.51,2.57-7.17,4.97-10.97,7.2-3.81,2.24-7.51,4.11-11.11,5.62Z"/>
      <path class="cls-6" d="M475.57,111.02c-8.21,1.2-14.85,1.55-19.93,1.04-5.08-.5-8.93-1.87-11.54-4.09-2.13-1.82-3.61-3.96-4.44-6.43-.83-2.47-1.31-5.78-1.44-9.92l-.25-7.91c-3.09.57-6.01,1.08-8.75,1.54-2.74.46-4.96.84-6.64,1.13-1.5.24-2.85-.09-4.06-.97-1.21-.88-1.95-2.05-2.23-3.5-.24-1.5.08-2.86.93-4.09.86-1.23,2.01-1.96,3.46-2.19,1.87-.34,4.33-.76,7.38-1.25,3.05-.49,6.23-1.01,9.56-1.53l-.33-10.73c-.05-1.51.45-2.81,1.5-3.9,1.05-1.09,2.33-1.66,3.83-1.71,1.51,0,2.8.51,3.86,1.54,1.07,1.03,1.63,2.29,1.67,3.8l.29,9.32c2.44-.4,4.58-.75,6.43-1.05,1.85-.29,3.15-.5,3.9-.62,5.43-1.02,9.61-.77,12.53.74,2.92,1.51,4.68,4.19,5.27,8.03.64,4.08-.3,7.5-2.83,10.26-2.53,2.76-6.97,4.91-13.33,6.42-1.45.38-2.83.24-4.15-.4-1.32-.64-2.18-1.69-2.61-3.13-.42-1.45-.29-2.83.4-4.15.69-1.32,1.76-2.16,3.21-2.54,2.34-.54,4.05-1.01,5.15-1.4,1.09-.39,1.81-.77,2.16-1.16.34-.39.5-.84.49-1.36-.02-.71-.28-1.16-.78-1.35-.5-.2-1.41-.16-2.72.12-.89.17-2.49.46-4.81.86-2.32.4-4.98.86-7.98,1.38l.29,9.46c.08,2.59.29,4.42.63,5.49.34,1.07.9,1.93,1.67,2.56.87.77,2.17,1.33,3.9,1.68,1.73.35,4.12.45,7.18.31,3.06-.14,6.96-.5,11.7-1.07,1.5-.19,2.84.17,4.03,1.08,1.18.91,1.89,2.11,2.13,3.61.19,1.45-.19,2.77-1.11,3.96-.93,1.18-2.14,1.89-3.64,2.13Z"/>
      <path class="cls-6" d="M491.56,99.73c-1.33.59-2.71.63-4.13.12-1.43-.52-2.46-1.46-3.1-2.84-.59-1.37-.62-2.76-.08-4.17.54-1.4,1.47-2.4,2.8-3,5.26-2.47,9-5.75,11.2-9.87,2.2-4.11,3.35-9.18,3.44-15.21.02-1.51.56-2.78,1.61-3.83,1.05-1.04,2.33-1.56,3.84-1.53s2.77.57,3.79,1.64c1.02,1.07,1.52,2.37,1.5,3.87-.22,8.71-2.09,15.95-5.61,21.71-3.52,5.77-8.6,10.13-15.24,13.09ZM538.38,95.75c-6.87,2.54-12.27,2.88-16.23,1.03-3.95-1.85-5.88-5.81-5.8-11.88l.34-23.24c.02-1.51.57-2.78,1.64-3.83,1.07-1.04,2.36-1.55,3.87-1.53s2.78.57,3.83,1.65c1.04,1.07,1.55,2.37,1.53,3.87l-.3,20.48c-.03,2.03.48,3.29,1.53,3.8,1.05.51,2.6.4,4.63-.32,1.18-.41,2.53-.9,4.05-1.49,1.51-.59,3.08-1.23,4.69-1.91,1.61-.68,3.1-1.32,4.48-1.91,1.37-.59,2.76-.65,4.17-.19,1.41.47,2.45,1.39,3.14,2.77.64,1.33.74,2.72.29,4.17-.44,1.45-1.36,2.5-2.73,3.14-2.09.96-4.31,1.93-6.68,2.9-2.37.98-4.52,1.81-6.46,2.48Z"/>
      <path class="cls-6" d="M104.9,237.7c-1.49.33-2.88.1-4.17-.71-1.29-.8-2.1-1.93-2.43-3.37-.44-2.1-.96-4.44-1.57-7.03-.61-2.58-1.23-5.27-1.88-8.07-3.59.77-7.04,1.53-10.35,2.28-3.31.75-6.17,1.4-8.59,1.97-1.44.33-2.8.07-4.07-.79-1.27-.85-2.07-2-2.4-3.45-.29-1.5-.02-2.88.82-4.15.83-1.27,1.99-2.05,3.49-2.34,2.1-.44,4.81-1,8.12-1.67,3.31-.68,6.81-1.43,10.5-2.26-.25-1.17-.52-2.31-.79-3.42-.27-1.12-.56-2.23-.86-3.35-2.42.57-4.74,1.09-6.96,1.56-2.22.48-4.14.91-5.77,1.3-1.49.33-2.88.06-4.15-.81-1.28-.88-2.05-2.04-2.34-3.49-.29-1.5,0-2.87.85-4.12.86-1.25,2.01-2.04,3.45-2.37,1.35-.27,3.12-.63,5.29-1.08,2.17-.45,4.52-.93,7.04-1.46-.31-1.26-.6-2.44-.88-3.56-.27-1.12-.55-2.11-.82-2.99-.33-1.49-.09-2.87.74-4.14.83-1.27,1.97-2.07,3.41-2.4,1.49-.33,2.88-.1,4.17.71,1.29.8,2.08,1.95,2.37,3.45.18.89.41,1.9.69,3.04.28,1.14.55,2.36.82,3.67,2.33-.51,4.54-.98,6.61-1.42,2.08-.44,3.86-.82,5.35-1.16,1.49-.38,2.85-.13,4.11.75,1.25.88,2.02,2.07,2.31,3.56.29,1.5.01,2.88-.82,4.15-.83,1.27-2,2.03-3.5,2.26-1.45.24-3.18.57-5.19,1-2.01.43-4.15.88-6.44,1.33.25,1.07.5,2.17.78,3.28.27,1.12.54,2.26.79,3.42,3.49-.81,6.77-1.55,9.82-2.23,3.05-.67,5.54-1.2,7.45-1.57,1.49-.33,2.86-.08,4.11.75,1.25.83,2.04,2,2.37,3.49.33,1.44.08,2.81-.75,4.11-.83,1.29-1.99,2.08-3.49,2.37-1.96.38-4.43.88-7.39,1.5-2.96.62-6.15,1.28-9.56,1.99.7,2.84,1.38,5.53,2.03,8.09.65,2.56,1.24,4.81,1.76,6.76.38,1.44.16,2.81-.64,4.1-.8,1.29-1.95,2.13-3.44,2.51Z"/>
      <path class="cls-6" d="M150.78,227.12c-.82.23-1.6.15-2.34-.23-.74-.38-1.21-.98-1.41-1.8-.25-1.06-.6-2.32-1.04-3.8-.44-1.47-.93-3.06-1.47-4.75-.54-1.69-1.1-3.39-1.69-5.11-1.55.45-2.97.85-4.26,1.2-1.29.35-2.3.6-3.04.76-.82.2-1.58.09-2.28-.32-.7-.41-1.15-1.03-1.35-1.85-.2-.82-.08-1.58.35-2.26.43-.69,1.06-1.13,1.88-1.33.68-.16,1.6-.39,2.77-.69,1.17-.31,2.48-.65,3.91-1.03-.29-.84-.59-1.64-.91-2.39-.31-.75-.61-1.44-.88-2.08-.35-.78-.35-1.56,0-2.34.35-.78.91-1.32,1.69-1.61.78-.32,1.56-.3,2.35.04.78.35,1.32.91,1.61,1.69.28.69.58,1.48.9,2.35.32.87.67,1.8,1.03,2.79,1.17-.32,2.28-.62,3.32-.9,1.04-.28,1.97-.52,2.79-.72,2.43-.65,4.47-.67,6.12-.05,1.65.62,2.78,1.84,3.37,3.64.42,1.28.48,2.58.17,3.9-.31,1.32-1.05,2.56-2.21,3.73-1.17,1.16-2.85,2.18-5.05,3.05-.78.32-1.55.35-2.31.11-.76-.24-1.33-.74-1.7-1.48-.34-.75-.37-1.5-.08-2.27.29-.76.82-1.33,1.59-1.71,1.49-.71,2.47-1.28,2.92-1.7s.63-.86.53-1.34c-.15-.59-.64-.76-1.49-.53-.82.23-1.75.49-2.79.79-1.04.3-2.14.62-3.31.97.58,1.69,1.15,3.38,1.71,5.09.55,1.7,1.07,3.28,1.54,4.72.47,1.44.84,2.68,1.12,3.7.23.82.15,1.59-.25,2.32-.4.73-1,1.21-1.82,1.44Z"/>
      <path class="cls-6" d="M180.61,201.87c-1.54-.94-3.16-1.87-4.87-2.8-1.71-.93-3.27-1.68-4.68-2.25-1.04-.45-1.76-1.18-2.15-2.19-.39-1.01-.38-2.02.04-3.03.41-1.04,1.14-1.77,2.18-2.2,1.04-.43,2.05-.41,3.03.04,1.12.51,2.34,1.08,3.63,1.72,1.3.64,2.55,1.29,3.75,1.96s2.22,1.28,3.07,1.82c.92.57,1.54,1.37,1.87,2.41.32,1.04.21,2.06-.35,3.05-.53.95-1.34,1.58-2.44,1.9-1.09.31-2.12.17-3.08-.43ZM179.94,223.36c-.98.53-2,.63-3.08.31-1.08-.32-1.88-.97-2.41-1.94-.53-.98-.63-2.01-.31-3.11.32-1.1.97-1.89,1.95-2.38,2.55-1.31,5.1-2.86,7.67-4.67,2.56-1.8,5.01-3.71,7.33-5.72,2.32-2.01,4.4-4.04,6.23-6.09,1.83-2.05,3.3-3.97,4.41-5.78.56-.96,1.38-1.56,2.45-1.8,1.07-.24,2.08-.08,3.04.49.99.53,1.6,1.33,1.84,2.42.24,1.09.08,2.11-.48,3.06-1.19,1.96-2.83,4.08-4.9,6.38-2.07,2.29-4.42,4.6-7.03,6.92-2.61,2.32-5.36,4.51-8.23,6.59-2.88,2.08-5.7,3.85-8.46,5.33Z"/>
      <path class="cls-6" d="M261.88,206.63c-6.47,1.38-11.75,2-15.82,1.86-4.07-.14-7.2-1.03-9.4-2.66-1.79-1.34-3.08-2.97-3.87-4.89-.79-1.92-1.34-4.53-1.66-7.82l-.6-6.28c-2.43.61-4.73,1.17-6.89,1.68-2.16.51-3.9.92-5.23,1.24-1.18.26-2.28.08-3.28-.56-1.01-.64-1.66-1.53-1.96-2.67-.27-1.18-.09-2.28.53-3.31.62-1.02,1.5-1.66,2.65-1.93,1.47-.37,3.41-.83,5.81-1.38,2.4-.55,4.91-1.12,7.54-1.72l-.82-8.53c-.11-1.2.22-2.26,1-3.18.78-.92,1.77-1.44,2.96-1.56,1.2-.08,2.25.26,3.16,1.03.9.76,1.41,1.74,1.53,2.94l.71,7.41c1.92-.45,3.61-.84,5.07-1.17,1.46-.33,2.48-.56,3.08-.69,4.27-1.09,7.61-1.11,10.02-.06,2.4,1.05,3.94,3.09,4.61,6.12.72,3.21.15,5.99-1.72,8.32-1.87,2.33-5.3,4.27-10.29,5.8-1.13.37-2.24.34-3.32-.11-1.08-.44-1.83-1.23-2.24-2.36-.41-1.13-.38-2.24.11-3.32.48-1.08,1.29-1.81,2.42-2.19,1.83-.55,3.18-1.01,4.03-1.38.85-.36,1.4-.71,1.66-1.04.25-.33.36-.69.32-1.11-.05-.56-.29-.91-.69-1.04-.41-.13-1.13-.05-2.16.24-.7.18-1.96.49-3.79.93-1.83.44-3.92.94-6.28,1.51l.72,7.52c.2,2.06.46,3.5.79,4.34.33.84.81,1.49,1.46,1.95.73.57,1.8.95,3.19,1.14,1.4.19,3.31.15,5.73-.13,2.43-.27,5.51-.76,9.26-1.46,1.19-.23,2.27-.01,3.26.65.99.66,1.61,1.58,1.88,2.76.22,1.15,0,2.22-.68,3.21-.68.99-1.61,1.62-2.79,1.88Z"/>
      <path class="cls-6" d="M280.48,198c-1,.59-2.09.74-3.27.46-1.18-.28-2.08-.94-2.71-1.98-.59-1.04-.73-2.14-.43-3.3.3-1.16.96-2.04,1.96-2.62,3.96-2.42,6.63-5.35,8.01-8.81,1.38-3.45,1.85-7.57,1.39-12.36-.11-1.2.2-2.26.94-3.18.74-.92,1.71-1.44,2.91-1.55s2.25.21,3.15.97c.9.76,1.41,1.74,1.53,2.94.59,6.93-.26,12.83-2.54,17.71-2.29,4.88-5.93,8.79-10.93,11.72ZM317.26,190.73c-5.22,2.62-9.48,3.37-12.78,2.25-3.3-1.12-5.18-4.09-5.64-8.91l-1.77-18.46c-.11-1.2.21-2.26.97-3.18s1.74-1.44,2.94-1.56,2.26.21,3.18.97,1.44,1.74,1.56,2.94l1.56,16.27c.15,1.61.67,2.57,1.55,2.88.88.31,2.09.09,3.64-.66.9-.43,1.93-.94,3.08-1.54,1.15-.6,2.33-1.24,3.55-1.93,1.22-.68,2.34-1.32,3.38-1.91,1.04-.59,2.14-.76,3.29-.51,1.16.25,2.07.89,2.73,1.92.62,1,.82,2.09.6,3.28-.23,1.19-.85,2.1-1.89,2.73-1.57.94-3.25,1.91-5.04,2.89-1.79.98-3.43,1.83-4.91,2.54Z"/>
      <path class="cls-6" d="M404.86,235.79c-1.89,0-3.48-.61-4.76-1.83-1.28-1.22-1.92-2.84-1.92-4.86v-24.46c0-1.4.32-2.6.96-3.57s1.45-1.74,2.43-2.29c-3.66-3.24-6.84-6.6-9.53-10.08h-1.38c-1.16,1.53-2.41,3.02-3.76,4.49-1.34,1.47-2.81,2.9-4.4,4.31,1.71.25,3.08,1.07,4.12,2.47,1.04,1.41,1.43,2.99,1.19,4.76-.98,7.21-3.53,13.38-7.65,18.51-4.12,5.13-9.36,9.1-15.71,11.91-1.89.79-3.73.98-5.5.55-1.77-.43-3.09-1.53-3.94-3.3-.92-1.77-1.01-3.43-.27-4.99.73-1.56,1.83-2.64,3.3-3.25,5.25-2.07,9.25-4.69,12-7.83,2.75-3.14,4.46-7.41,5.13-12.78-2.63,1.89-5.35,3.7-8.15,5.4-2.81,1.71-5.65,3.27-8.52,4.67-1.95.92-3.8,1.1-5.54.55s-3.04-1.68-3.89-3.39c-.8-1.71-.89-3.3-.27-4.76.61-1.46,1.68-2.5,3.21-3.11,4.89-1.95,9.18-4.09,12.87-6.41,3.69-2.32,7.04-4.95,10.03-7.88-4.46-.24-7.92-.9-10.4-1.97-2.47-1.07-4.18-2.85-5.13-5.36-.95-2.5-1.42-6.01-1.42-10.54,0-3.79.32-6.86.96-9.21.64-2.35,1.77-4.17,3.39-5.45,1.62-1.28,3.83-2.17,6.64-2.66,2.81-.49,6.41-.73,10.81-.73h24.74c4.34,0,7.92.24,10.77.73,2.84.49,5.05,1.37,6.64,2.66,1.59,1.28,2.7,3.1,3.34,5.45.64,2.35.96,5.42.96,9.21,0,4.64-.5,8.23-1.51,10.77-1.01,2.54-2.82,4.32-5.45,5.36-2.63,1.04-6.35,1.62-11.18,1.74,3.36,3.12,7.05,5.73,11.09,7.83s8.4,4.02,13.1,5.73c1.53.55,2.61,1.68,3.25,3.39.64,1.71.53,3.45-.32,5.22-.79,1.59-2.14,2.73-4.03,3.44-1.89.7-3.82.59-5.77-.32-4.89-2.2-9.5-4.73-13.83-7.61v22.81c0,2.01-.66,3.63-1.97,4.86-1.31,1.22-2.89,1.83-4.72,1.83ZM371.88,166.71h13.47v-4.21h-5.59c-2.93,0-4.93.22-6,.64-1.07.43-1.7,1.62-1.88,3.57ZM379.75,178.9h5.59v-4.12h-13.47c.24,1.89.88,3.06,1.92,3.48,1.04.43,3.02.64,5.96.64ZM398.99,166.71h13.38c-.24-1.95-.89-3.14-1.92-3.57-1.04-.43-3.02-.64-5.96-.64h-5.5v4.21ZM398.99,178.9h5.5c2.87,0,4.84-.21,5.91-.64,1.07-.43,1.73-1.59,1.97-3.48h-13.38v4.12Z"/>
      <path class="cls-6" d="M445.72,236.8c-1.65,0-3.04-.52-4.17-1.56-1.13-1.04-1.69-2.51-1.69-4.4v-65.32c0-3.6.4-6.37,1.19-8.29.79-1.92,2.3-3.25,4.53-3.99,2.23-.73,5.45-1.1,9.66-1.1,6.54,0,10.82,1.22,12.87,3.66,2.04,2.44,2.3,6.11.78,10.99-.67,2.26-1.37,4.46-2.11,6.6-.73,2.14-1.41,4.03-2.02,5.68-.49,1.53-.8,2.72-.92,3.57-.12.85-.05,1.57.23,2.15.27.58.69,1.24,1.24,1.97,1.34,1.77,2.38,3.7,3.11,5.77.79-.31,1.59-.46,2.38-.46h48.37c1.65,0,2.96.52,3.94,1.56.98,1.04,1.47,2.32,1.47,3.85s-.49,2.81-1.47,3.85c-.98,1.04-2.29,1.56-3.94,1.56h-.64c.43.25.79.58,1.1,1.01.85,1.04,1.22,2.38,1.1,4.03-.12,1.65-.79,2.93-2.02,3.85-.73.49-1.82,1.24-3.25,2.24-1.44,1.01-2.7,1.91-3.8,2.7,2.44,2.5,5.43,4.7,8.98,6.6,1.41.79,2.32,2,2.75,3.62.43,1.62.27,3.13-.46,4.54-.86,1.71-2.26,2.72-4.21,3.02-1.95.31-3.73-.03-5.31-1.01-5.31-3.3-9.73-7.39-13.24-12.28-3.51-4.89-6.28-10.99-8.29-18.32h-5.22v17.87l7.51-1.01c1.4-.18,2.72.09,3.94.82,1.22.73,1.95,1.86,2.2,3.39.24,1.47.06,2.79-.55,3.99-.61,1.19-1.77,1.94-3.48,2.24-.49.06-1.53.24-3.12.55-1.59.31-3.47.64-5.63,1.01-2.17.37-4.35.73-6.55,1.1-2.2.37-4.12.69-5.77.96-1.65.27-2.78.47-3.39.6-1.89.24-3.5-.06-4.81-.92s-2.12-2.11-2.43-3.76c-.31-1.77.05-3.27,1.05-4.49s2.37-1.95,4.08-2.2l4.95-.64v-19.51h-4.31c-.18,0-.34-.03-.46-.09-.12,4.95-1.34,8.64-3.67,11.09-2.32,2.44-5.47,3.82-9.44,4.12-2.08.18-3.79-.21-5.13-1.19v14.02c0,1.89-.56,3.36-1.69,4.4-1.13,1.04-2.55,1.56-4.26,1.56ZM451.68,206.47c.55-.43,1.28-.73,2.2-.92,1.4-.31,2.4-.95,2.98-1.92.58-.98.87-2.78.87-5.4,0-1.71-.31-3.42-.92-5.13-.61-1.71-1.38-3.24-2.29-4.58-.98-1.47-1.65-2.64-2.02-3.53-.37-.88-.46-1.85-.27-2.89.18-1.04.55-2.5,1.1-4.4.49-1.46,1.07-3.39,1.74-5.77.67-2.38,1.22-4.43,1.65-6.14.31-.98.31-1.65,0-2.02-.31-.37-1.16-.55-2.56-.55-.92,0-1.56.18-1.92.55s-.55,1.07-.55,2.11v40.59ZM487.87,189.52c-5.74,0-9.83-.98-12.28-2.93-2.44-1.95-3.67-5.44-3.67-10.45v-10.17c0-5.01,1.22-8.47,3.67-10.4,2.44-1.92,6.53-2.89,12.28-2.89h15.12c5.8,0,9.95.96,12.46,2.89,2.5,1.92,3.76,5.39,3.76,10.4v10.17c0,5.01-1.25,8.49-3.76,10.45s-6.66,2.93-12.46,2.93h-15.12ZM483.93,166.62h5.77v-4.12h-.82c-2.02,0-3.34.24-3.99.73s-.96,1.62-.96,3.39ZM488.87,179.72h.82v-4.12h-5.77c0,1.77.32,2.9.96,3.39s1.97.73,3.99.73ZM500.69,166.62h6.5c-.06-1.77-.41-2.9-1.05-3.39-.64-.49-1.94-.73-3.89-.73h-1.56v4.12ZM500.69,179.72h1.56c1.95,0,3.25-.24,3.89-.73.64-.49.99-1.62,1.05-3.39h-6.5v4.12ZM505.46,207.94c1.04-.79,2.15-1.65,3.34-2.56,1.19-.92,2-1.53,2.43-1.83.18-.24.46-.46.82-.64h-8.61c.31.86.63,1.71.96,2.56.33.86.69,1.68,1.05,2.47Z"/>
    </g>
    <g>
      <path class="cls-12" d="M63.18,140.74c-1.5-.71-2.61-1.92-3.31-3.62-.71-1.7-.71-3.3,0-4.8,1.35-3.12,2.48-6.16,3.39-9.12.91-2.95,1.61-6.09,2.09-9.4.49-3.31.72-7.05.7-11.23-.02-4.18-.28-9.08-.78-14.72l-.75-8.36c-.19-2.14-.43-4.4-.71-6.79-.49-4.72-.18-8.52.93-11.4,1.11-2.88,3.22-5.06,6.32-6.54,3.1-1.49,7.37-2.47,12.81-2.96l26.91-2.42c5.31-.48,9.63-.24,12.94.7,3.32.94,5.8,2.75,7.44,5.4,1.64,2.66,2.58,6.36,2.81,11.11.08,1.63.18,3.1.3,4.43l.4,4.42c.15.9.27,1.9.37,3l.33,3.69c.61,6.8,1.47,13.22,2.56,19.26,1.1,6.04,2.53,10.94,4.31,14.7.4.81.73,1.18.98,1.09.25-.09.5-.57.75-1.44l.3-1.01c.44-1.61,1.33-2.76,2.68-3.47,1.34-.71,2.85-.81,4.53-.31,1.54.45,2.68,1.29,3.41,2.53.73,1.24.91,2.66.53,4.26-.27,1.4-.62,2.75-1.06,4.06-.44,1.31-.98,2.75-1.62,4.31-1.34,3.25-3.16,5.51-5.46,6.76-2.3,1.25-4.71,1.42-7.2.5-2.5-.92-4.75-3.05-6.74-6.4-3.32-5.71-5.8-12.21-7.43-19.51s-2.85-15.35-3.64-24.16l-1.37-15.25c-.18-2.01-.51-3.54-1-4.61-.49-1.07-1.35-1.76-2.59-2.07-1.24-.31-3.05-.36-5.45-.15l-26.91,2.42c-3.56.32-5.93,1.04-7.1,2.16-1.17,1.12-1.62,3.2-1.35,6.24l1.41,15.64c.66,7.38.96,13.94.88,19.66-.07,5.72-.62,10.96-1.62,15.72-1.01,4.76-2.61,9.46-4.81,14.09-.77,1.64-2.08,2.81-3.94,3.54-1.86.72-3.61.73-5.24.03ZM128.96,132.78c-1.42.91-3,1.18-4.73.82-1.73-.37-3.02-1.26-3.87-2.69-.55-1.06-1.25-2.27-2.09-3.63-2.16.65-4.68,1.37-7.54,2.15-2.87.78-5.78,1.56-8.75,2.35-2.97.79-5.77,1.53-8.42,2.23-2.65.69-4.87,1.25-6.66,1.68-1.99.44-3.7.23-5.15-.61s-2.39-2.2-2.81-4.06c-.43-1.85-.18-3.46.74-4.82.92-1.36,2.38-2.25,4.36-2.69,1.54-.27,3.51-.67,5.91-1.22,2.4-.54,4.94-1.13,7.63-1.76l-.97-10.78c-5.45.42-9.33-.29-11.65-2.14s-3.71-5.36-4.18-10.54.27-8.99,2.22-11.22,5.65-3.63,11.08-4.18l-.31-3.4c-1.54.27-3.06.52-4.54.75-1.48.23-2.93.48-4.34.73-1.68.22-3.17-.04-4.48-.77-1.31-.73-2.14-1.99-2.5-3.79-.35-1.67-.1-3.14.73-4.42.83-1.28,2.15-2.04,3.96-2.27,2.64-.43,5.63-.96,8.97-1.59,3.34-.63,6.64-1.33,9.9-2.11,3.26-.78,6.1-1.54,8.51-2.28,1.96-.7,3.68-.8,5.16-.32,1.48.49,2.52,1.49,3.11,3,.68,1.7.7,3.3.09,4.79-.62,1.49-1.88,2.55-3.78,3.18-1.53.4-3.11.84-4.73,1.31-1.62.47-3.3.92-5.02,1.33l.44,4.86c3.7-.27,6.65-.06,8.87.62,2.22.68,3.87,2,4.96,3.96,1.09,1.96,1.79,4.69,2.11,8.18.47,5.18-.28,8.89-2.23,11.12-1.95,2.23-5.68,3.63-11.18,4.19l.82,9.13,3.16-.77c-.7-1.24-.87-2.58-.51-4.02.36-1.44,1.12-2.56,2.29-3.39,1.3-.83,2.81-1.18,4.56-1.05,1.74.14,3.1.91,4.08,2.33.82,1.1,1.79,2.47,2.91,4.1,1.13,1.63,2.24,3.28,3.33,4.94,1.1,1.66,1.99,3.09,2.68,4.26.86,1.56,1.08,3.13.67,4.74-.41,1.6-1.36,2.86-2.84,3.78ZM95.69,99.23l-.63-7c-1.55.14-2.57.43-3.06.86-.48.43-.66,1.43-.52,2.98s.49,2.5,1.04,2.84c.55.34,1.61.44,3.16.3ZM106.86,98.23c1.55-.14,2.57-.43,3.06-.86.48-.43.66-1.43.52-2.98s-.49-2.5-1.04-2.84c-.55-.34-1.61-.44-3.16-.3l.63,7Z"/>
      <path class="cls-12" d="M185.79,129.15c-6.22.56-11.08.36-14.6-.6s-6.07-2.83-7.66-5.63c-1.59-2.8-2.61-6.69-3.06-11.67s-.14-9,.93-12.03c1.07-3.03,3.24-5.34,6.53-6.9,3.29-1.57,8.04-2.63,14.26-3.19l3.69-.33c.35-1.14.71-2.41,1.08-3.82.36-1.4.69-2.64.99-3.71l-1.75.16c-5.77.52-10.32.36-13.66-.49-3.34-.84-5.77-2.62-7.29-5.32s-2.5-6.55-2.95-11.54c-.45-5.05-.18-9.04.83-11.97,1.01-2.93,3.08-5.11,6.22-6.53,3.14-1.42,7.59-2.4,13.35-2.91l20.01-1.8c5.83-.52,10.4-.36,13.71.48,3.31.85,5.72,2.62,7.24,5.32,1.52,2.7,2.5,6.58,2.96,11.63s.17,8.95-.84,11.88-3.07,5.11-6.17,6.53c-3.1,1.42-7.57,2.39-13.4,2.92l-2.43.22c-.23,1.07-.54,2.3-.94,3.71-.4,1.41-.74,2.68-1.03,3.81l9.52-.86c6.22-.56,11.08-.36,14.6.6,3.51.96,6.06,2.83,7.66,5.63,1.59,2.8,2.61,6.69,3.06,11.67s.14,9-.93,12.03c-1.07,3.03-3.24,5.34-6.53,6.9s-8.04,2.63-14.26,3.19l-29.15,2.62ZM184.64,116.32l29.15-2.62c2.46-.22,4.27-.58,5.44-1.08,1.16-.5,1.89-1.3,2.18-2.4.29-1.1.35-2.59.19-4.47s-.5-3.42-.98-4.42c-.48-1-1.34-1.64-2.57-1.92-1.23-.28-3.08-.31-5.54-.09l-29.15,2.62c-2.46.22-4.29.58-5.49,1.08-1.2.5-1.94,1.29-2.24,2.36-.3,1.07-.36,2.58-.18,4.52s.5,3.33.98,4.37c.48,1.03,1.36,1.69,2.63,1.97,1.26.28,3.13.31,5.59.09ZM185.07,68.78l20.01-1.8c2.85-.26,4.8-.84,5.87-1.75,1.06-.91,1.46-2.79,1.21-5.64s-1-4.71-2.2-5.38c-1.2-.68-3.23-.88-6.08-.63l-20.01,1.8c-2.85.26-4.81.82-5.87,1.7-1.06.88-1.46,2.78-1.2,5.69s.99,4.63,2.19,5.34c1.21.71,3.23.93,6.08.68Z"/>
      <path class="cls-12" d="M279.47,113.89c-1.52.07-2.84-.4-3.96-1.41-1.13-1.01-1.73-2.25-1.8-3.72-.07-2.13-.18-4.51-.33-7.15s-.3-5.37-.46-8.22c-3.65.14-7.15.3-10.52.46-3.37.16-6.28.32-8.75.46-1.47.08-2.76-.41-3.85-1.47-1.1-1.05-1.69-2.31-1.76-3.78-.02-1.51.48-2.82,1.51-3.92,1.03-1.1,2.3-1.66,3.81-1.69,2.13-.07,4.88-.15,8.24-.25,3.36-.09,6.91-.23,10.66-.41-.05-1.18-.11-2.35-.19-3.49-.08-1.14-.17-2.28-.27-3.42-2.47.14-4.83.25-7.08.34-2.25.09-4.21.18-5.87.29-1.52.07-2.82-.43-3.92-1.51-1.1-1.08-1.66-2.35-1.69-3.81-.02-1.51.49-2.81,1.54-3.88,1.05-1.08,2.31-1.65,3.78-1.73,1.37-.04,3.16-.09,5.36-.15,2.2-.07,4.58-.14,7.14-.23-.09-1.28-.17-2.49-.25-3.63-.08-1.14-.18-2.16-.29-3.07-.07-1.52.41-2.83,1.44-3.93,1.03-1.1,2.28-1.69,3.75-1.76,1.52-.07,2.84.4,3.96,1.41,1.13,1.01,1.7,2.27,1.73,3.78.02.9.07,1.93.15,3.09.07,1.16.13,2.41.17,3.73,2.37-.1,4.61-.19,6.71-.26,2.11-.07,3.92-.14,5.44-.22,1.52-.12,2.82.36,3.89,1.44,1.07,1.07,1.62,2.37,1.65,3.88.02,1.51-.48,2.82-1.51,3.92-1.03,1.1-2.3,1.64-3.81,1.62-1.46-.02-3.21.01-5.25.09-2.04.08-4.22.15-6.53.2.06,1.09.12,2.21.2,3.35.08,1.14.14,2.3.19,3.49,3.56-.2,6.89-.36,9.99-.5,3.1-.14,5.63-.22,7.57-.26,1.52-.07,2.81.41,3.89,1.44,1.08,1.03,1.65,2.3,1.72,3.82.07,1.47-.4,2.77-1.44,3.89-1.03,1.12-2.3,1.7-3.82,1.72-1.99.04-4.48.1-7.49.2-3.01.1-6.24.2-9.69.31.2,2.9.4,5.65.6,8.26.2,2.61.39,4.92.56,6.92.12,1.47-.32,2.77-1.33,3.9-1.01,1.13-2.27,1.75-3.79,1.87Z"/>
      <path class="cls-12" d="M334.44,113.02c-1.14.11-2.15-.17-3.04-.84-.89-.67-1.38-1.58-1.45-2.71-.09-1.46-.25-3.21-.5-5.26-.24-2.05-.53-4.26-.85-6.61-.32-2.36-.67-4.74-1.05-7.14-2.15.24-4.12.44-5.9.6-1.78.16-3.18.27-4.19.31-1.13.07-2.11-.24-2.94-.95-.83-.71-1.28-1.63-1.36-2.76-.07-1.13.25-2.1.98-2.91.73-.81,1.66-1.25,2.79-1.32.93-.05,2.2-.14,3.82-.28,1.62-.14,3.42-.29,5.41-.46-.19-1.18-.41-2.3-.64-3.37-.24-1.06-.47-2.05-.68-2.95-.28-1.11-.1-2.14.54-3.1.64-.96,1.51-1.53,2.61-1.73,1.1-.24,2.14-.04,3.09.6.96.64,1.53,1.51,1.73,2.61.21.98.42,2.08.65,3.31.23,1.22.47,2.53.72,3.92,1.62-.16,3.15-.3,4.59-.43,1.44-.13,2.72-.23,3.86-.3,3.36-.3,6.06.15,8.1,1.35,2.04,1.21,3.24,3.07,3.61,5.59.26,1.79.04,3.52-.67,5.2-.71,1.68-1.97,3.15-3.78,4.41-1.81,1.27-4.27,2.23-7.37,2.87-1.1.24-2.13.11-3.08-.39-.95-.5-1.58-1.28-1.9-2.35-.28-1.07-.14-2.07.41-3.02.56-.94,1.39-1.57,2.5-1.89,2.14-.6,3.56-1.12,4.26-1.57.7-.45,1.03-1,1-1.64-.06-.81-.67-1.16-1.85-1.05-1.14.11-2.42.24-3.86.39-1.44.15-2.97.32-4.6.52.38,2.36.74,4.74,1.08,7.12.34,2.38.65,4.58.94,6.59.29,2.01.5,3.73.63,5.15.11,1.13-.18,2.14-.87,3.01-.69.87-1.61,1.36-2.74,1.48Z"/>
      <path class="cls-12" d="M377.5,78.46c-1.65-.85-3.38-1.69-5.21-2.52-1.83-.83-3.48-1.48-4.98-1.96-1.11-.38-1.9-1.08-2.38-2.09-.48-1.01-.55-2.06-.2-3.12.34-1.1,1.03-1.92,2.06-2.44,1.03-.52,2.07-.58,3.11-.19,1.19.44,2.48.93,3.86,1.49,1.38.56,2.71,1.14,4,1.74s2.38,1.15,3.29,1.64c.99.52,1.69,1.3,2.1,2.35.41,1.05.37,2.1-.12,3.17-.47,1.02-1.25,1.74-2.35,2.14-1.1.41-2.16.34-3.19-.21ZM372.84,106.48c-1.27.54-2.56.54-3.86.02-1.3-.52-2.22-1.42-2.75-2.69-.54-1.27-.54-2.57-.02-3.89.52-1.32,1.42-2.23,2.69-2.72,3.31-1.33,6.66-2.95,10.04-4.89,3.39-1.93,6.64-4.01,9.75-6.24,3.11-2.22,5.92-4.5,8.43-6.82,2.5-2.32,4.55-4.54,6.13-6.65.81-1.12,1.89-1.77,3.25-1.94,1.35-.17,2.59.15,3.71.96,1.16.77,1.83,1.84,2,3.21.17,1.38-.15,2.62-.96,3.74-1.71,2.29-3.98,4.73-6.81,7.33-2.84,2.6-6.01,5.18-9.52,7.75-3.51,2.57-7.17,4.97-10.97,7.2-3.81,2.24-7.51,4.11-11.11,5.62Z"/>
      <path class="cls-12" d="M475.57,111.02c-8.21,1.2-14.85,1.55-19.93,1.04-5.08-.5-8.93-1.87-11.54-4.09-2.13-1.82-3.61-3.96-4.44-6.43-.83-2.47-1.31-5.78-1.44-9.92l-.25-7.91c-3.09.57-6.01,1.08-8.75,1.54-2.74.46-4.96.84-6.64,1.13-1.5.24-2.85-.09-4.06-.97-1.21-.88-1.95-2.05-2.23-3.5-.24-1.5.08-2.86.93-4.09.86-1.23,2.01-1.96,3.46-2.19,1.87-.34,4.33-.76,7.38-1.25,3.05-.49,6.23-1.01,9.56-1.53l-.33-10.73c-.05-1.51.45-2.81,1.5-3.9,1.05-1.09,2.33-1.66,3.83-1.71,1.51,0,2.8.51,3.86,1.54,1.07,1.03,1.63,2.29,1.67,3.8l.29,9.32c2.44-.4,4.58-.75,6.43-1.05,1.85-.29,3.15-.5,3.9-.62,5.43-1.02,9.61-.77,12.53.74,2.92,1.51,4.68,4.19,5.27,8.03.64,4.08-.3,7.5-2.83,10.26-2.53,2.76-6.97,4.91-13.33,6.42-1.45.38-2.83.24-4.15-.4-1.32-.64-2.18-1.69-2.61-3.13-.42-1.45-.29-2.83.4-4.15.69-1.32,1.76-2.16,3.21-2.54,2.34-.54,4.05-1.01,5.15-1.4,1.09-.39,1.81-.77,2.16-1.16.34-.39.5-.84.49-1.36-.02-.71-.28-1.16-.78-1.35-.5-.2-1.41-.16-2.72.12-.89.17-2.49.46-4.81.86-2.32.4-4.98.86-7.98,1.38l.29,9.46c.08,2.59.29,4.42.63,5.49.34,1.07.9,1.93,1.67,2.56.87.77,2.17,1.33,3.9,1.68,1.73.35,4.12.45,7.18.31,3.06-.14,6.96-.5,11.7-1.07,1.5-.19,2.84.17,4.03,1.08,1.18.91,1.89,2.11,2.13,3.61.19,1.45-.19,2.77-1.11,3.96-.93,1.18-2.14,1.89-3.64,2.13Z"/>
      <path class="cls-12" d="M491.56,99.73c-1.33.59-2.71.63-4.13.12-1.43-.52-2.46-1.46-3.1-2.84-.59-1.37-.62-2.76-.08-4.17.54-1.4,1.47-2.4,2.8-3,5.26-2.47,9-5.75,11.2-9.87,2.2-4.11,3.35-9.18,3.44-15.21.02-1.51.56-2.78,1.61-3.83,1.05-1.04,2.33-1.56,3.84-1.53s2.77.57,3.79,1.64c1.02,1.07,1.52,2.37,1.5,3.87-.22,8.71-2.09,15.95-5.61,21.71-3.52,5.77-8.6,10.13-15.24,13.09ZM538.38,95.75c-6.87,2.54-12.27,2.88-16.23,1.03-3.95-1.85-5.88-5.81-5.8-11.88l.34-23.24c.02-1.51.57-2.78,1.64-3.83,1.07-1.04,2.36-1.55,3.87-1.53s2.78.57,3.83,1.65c1.04,1.07,1.55,2.37,1.53,3.87l-.3,20.48c-.03,2.03.48,3.29,1.53,3.8,1.05.51,2.6.4,4.63-.32,1.18-.41,2.53-.9,4.05-1.49,1.51-.59,3.08-1.23,4.69-1.91,1.61-.68,3.1-1.32,4.48-1.91,1.37-.59,2.76-.65,4.17-.19,1.41.47,2.45,1.39,3.14,2.77.64,1.33.74,2.72.29,4.17-.44,1.45-1.36,2.5-2.73,3.14-2.09.96-4.31,1.93-6.68,2.9-2.37.98-4.52,1.81-6.46,2.48Z"/>
      <path class="cls-12" d="M104.9,237.7c-1.49.33-2.88.1-4.17-.71-1.29-.8-2.1-1.93-2.43-3.37-.44-2.1-.96-4.44-1.57-7.03-.61-2.58-1.23-5.27-1.88-8.07-3.59.77-7.04,1.53-10.35,2.28-3.31.75-6.17,1.4-8.59,1.97-1.44.33-2.8.07-4.07-.79-1.27-.85-2.07-2-2.4-3.45-.29-1.5-.02-2.88.82-4.15.83-1.27,1.99-2.05,3.49-2.34,2.1-.44,4.81-1,8.12-1.67,3.31-.68,6.81-1.43,10.5-2.26-.25-1.17-.52-2.31-.79-3.42-.27-1.12-.56-2.23-.86-3.35-2.42.57-4.74,1.09-6.96,1.56-2.22.48-4.14.91-5.77,1.3-1.49.33-2.88.06-4.15-.81-1.28-.88-2.05-2.04-2.34-3.49-.29-1.5,0-2.87.85-4.12.86-1.25,2.01-2.04,3.45-2.37,1.35-.27,3.12-.63,5.29-1.08,2.17-.45,4.52-.93,7.04-1.46-.31-1.26-.6-2.44-.88-3.56-.27-1.12-.55-2.11-.82-2.99-.33-1.49-.09-2.87.74-4.14.83-1.27,1.97-2.07,3.41-2.4,1.49-.33,2.88-.1,4.17.71,1.29.8,2.08,1.95,2.37,3.45.18.89.41,1.9.69,3.04.28,1.14.55,2.36.82,3.67,2.33-.51,4.54-.98,6.61-1.42,2.08-.44,3.86-.82,5.35-1.16,1.49-.38,2.85-.13,4.11.75,1.25.88,2.02,2.07,2.31,3.56.29,1.5.01,2.88-.82,4.15-.83,1.27-2,2.03-3.5,2.26-1.45.24-3.18.57-5.19,1-2.01.43-4.15.88-6.44,1.33.25,1.07.5,2.17.78,3.28.27,1.12.54,2.26.79,3.42,3.49-.81,6.77-1.55,9.82-2.23,3.05-.67,5.54-1.2,7.45-1.57,1.49-.33,2.86-.08,4.11.75,1.25.83,2.04,2,2.37,3.49.33,1.44.08,2.81-.75,4.11-.83,1.29-1.99,2.08-3.49,2.37-1.96.38-4.43.88-7.39,1.5-2.96.62-6.15,1.28-9.56,1.99.7,2.84,1.38,5.53,2.03,8.09.65,2.56,1.24,4.81,1.76,6.76.38,1.44.16,2.81-.64,4.1-.8,1.29-1.95,2.13-3.44,2.51Z"/>
      <path class="cls-12" d="M150.78,227.12c-.82.23-1.6.15-2.34-.23-.74-.38-1.21-.98-1.41-1.8-.25-1.06-.6-2.32-1.04-3.8-.44-1.47-.93-3.06-1.47-4.75-.54-1.69-1.1-3.39-1.69-5.11-1.55.45-2.97.85-4.26,1.2-1.29.35-2.3.6-3.04.76-.82.2-1.58.09-2.28-.32-.7-.41-1.15-1.03-1.35-1.85-.2-.82-.08-1.58.35-2.26.43-.69,1.06-1.13,1.88-1.33.68-.16,1.6-.39,2.77-.69,1.17-.31,2.48-.65,3.91-1.03-.29-.84-.59-1.64-.91-2.39-.31-.75-.61-1.44-.88-2.08-.35-.78-.35-1.56,0-2.34.35-.78.91-1.32,1.69-1.61.78-.32,1.56-.3,2.35.04.78.35,1.32.91,1.61,1.69.28.69.58,1.48.9,2.35.32.87.67,1.8,1.03,2.79,1.17-.32,2.28-.62,3.32-.9,1.04-.28,1.97-.52,2.79-.72,2.43-.65,4.47-.67,6.12-.05,1.65.62,2.78,1.84,3.37,3.64.42,1.28.48,2.58.17,3.9-.31,1.32-1.05,2.56-2.21,3.73-1.17,1.16-2.85,2.18-5.05,3.05-.78.32-1.55.35-2.31.11-.76-.24-1.33-.74-1.7-1.48-.34-.75-.37-1.5-.08-2.27.29-.76.82-1.33,1.59-1.71,1.49-.71,2.47-1.28,2.92-1.7s.63-.86.53-1.34c-.15-.59-.64-.76-1.49-.53-.82.23-1.75.49-2.79.79-1.04.3-2.14.62-3.31.97.58,1.69,1.15,3.38,1.71,5.09.55,1.7,1.07,3.28,1.54,4.72.47,1.44.84,2.68,1.12,3.7.23.82.15,1.59-.25,2.32-.4.73-1,1.21-1.82,1.44Z"/>
      <path class="cls-12" d="M180.61,201.87c-1.54-.94-3.16-1.87-4.87-2.8-1.71-.93-3.27-1.68-4.68-2.25-1.04-.45-1.76-1.18-2.15-2.19-.39-1.01-.38-2.02.04-3.03.41-1.04,1.14-1.77,2.18-2.2,1.04-.43,2.05-.41,3.03.04,1.12.51,2.34,1.08,3.63,1.72,1.3.64,2.55,1.29,3.75,1.96s2.22,1.28,3.07,1.82c.92.57,1.54,1.37,1.87,2.41.32,1.04.21,2.06-.35,3.05-.53.95-1.34,1.58-2.44,1.9-1.09.31-2.12.17-3.08-.43ZM179.94,223.36c-.98.53-2,.63-3.08.31-1.08-.32-1.88-.97-2.41-1.94-.53-.98-.63-2.01-.31-3.11.32-1.1.97-1.89,1.95-2.38,2.55-1.31,5.1-2.86,7.67-4.67,2.56-1.8,5.01-3.71,7.33-5.72,2.32-2.01,4.4-4.04,6.23-6.09,1.83-2.05,3.3-3.97,4.41-5.78.56-.96,1.38-1.56,2.45-1.8,1.07-.24,2.08-.08,3.04.49.99.53,1.6,1.33,1.84,2.42.24,1.09.08,2.11-.48,3.06-1.19,1.96-2.83,4.08-4.9,6.38-2.07,2.29-4.42,4.6-7.03,6.92-2.61,2.32-5.36,4.51-8.23,6.59-2.88,2.08-5.7,3.85-8.46,5.33Z"/>
      <path class="cls-12" d="M261.88,206.63c-6.47,1.38-11.75,2-15.82,1.86-4.07-.14-7.2-1.03-9.4-2.66-1.79-1.34-3.08-2.97-3.87-4.89-.79-1.92-1.34-4.53-1.66-7.82l-.6-6.28c-2.43.61-4.73,1.17-6.89,1.68-2.16.51-3.9.92-5.23,1.24-1.18.26-2.28.08-3.28-.56-1.01-.64-1.66-1.53-1.96-2.67-.27-1.18-.09-2.28.53-3.31.62-1.02,1.5-1.66,2.65-1.93,1.47-.37,3.41-.83,5.81-1.38,2.4-.55,4.91-1.12,7.54-1.72l-.82-8.53c-.11-1.2.22-2.26,1-3.18.78-.92,1.77-1.44,2.96-1.56,1.2-.08,2.25.26,3.16,1.03.9.76,1.41,1.74,1.53,2.94l.71,7.41c1.92-.45,3.61-.84,5.07-1.17,1.46-.33,2.48-.56,3.08-.69,4.27-1.09,7.61-1.11,10.02-.06,2.4,1.05,3.94,3.09,4.61,6.12.72,3.21.15,5.99-1.72,8.32-1.87,2.33-5.3,4.27-10.29,5.8-1.13.37-2.24.34-3.32-.11-1.08-.44-1.83-1.23-2.24-2.36-.41-1.13-.38-2.24.11-3.32.48-1.08,1.29-1.81,2.42-2.19,1.83-.55,3.18-1.01,4.03-1.38.85-.36,1.4-.71,1.66-1.04.25-.33.36-.69.32-1.11-.05-.56-.29-.91-.69-1.04-.41-.13-1.13-.05-2.16.24-.7.18-1.96.49-3.79.93-1.83.44-3.92.94-6.28,1.51l.72,7.52c.2,2.06.46,3.5.79,4.34.33.84.81,1.49,1.46,1.95.73.57,1.8.95,3.19,1.14,1.4.19,3.31.15,5.73-.13,2.43-.27,5.51-.76,9.26-1.46,1.19-.23,2.27-.01,3.26.65.99.66,1.61,1.58,1.88,2.76.22,1.15,0,2.22-.68,3.21-.68.99-1.61,1.62-2.79,1.88Z"/>
      <path class="cls-12" d="M280.48,198c-1,.59-2.09.74-3.27.46-1.18-.28-2.08-.94-2.71-1.98-.59-1.04-.73-2.14-.43-3.3.3-1.16.96-2.04,1.96-2.62,3.96-2.42,6.63-5.35,8.01-8.81,1.38-3.45,1.85-7.57,1.39-12.36-.11-1.2.2-2.26.94-3.18.74-.92,1.71-1.44,2.91-1.55s2.25.21,3.15.97c.9.76,1.41,1.74,1.53,2.94.59,6.93-.26,12.83-2.54,17.71-2.29,4.88-5.93,8.79-10.93,11.72ZM317.26,190.73c-5.22,2.62-9.48,3.37-12.78,2.25-3.3-1.12-5.18-4.09-5.64-8.91l-1.77-18.46c-.11-1.2.21-2.26.97-3.18s1.74-1.44,2.94-1.56,2.26.21,3.18.97,1.44,1.74,1.56,2.94l1.56,16.27c.15,1.61.67,2.57,1.55,2.88.88.31,2.09.09,3.64-.66.9-.43,1.93-.94,3.08-1.54,1.15-.6,2.33-1.24,3.55-1.93,1.22-.68,2.34-1.32,3.38-1.91,1.04-.59,2.14-.76,3.29-.51,1.16.25,2.07.89,2.73,1.92.62,1,.82,2.09.6,3.28-.23,1.19-.85,2.1-1.89,2.73-1.57.94-3.25,1.91-5.04,2.89-1.79.98-3.43,1.83-4.91,2.54Z"/>
      <path class="cls-12" d="M404.86,235.79c-1.89,0-3.48-.61-4.76-1.83-1.28-1.22-1.92-2.84-1.92-4.86v-24.46c0-1.4.32-2.6.96-3.57s1.45-1.74,2.43-2.29c-3.66-3.24-6.84-6.6-9.53-10.08h-1.38c-1.16,1.53-2.41,3.02-3.76,4.49-1.34,1.47-2.81,2.9-4.4,4.31,1.71.25,3.08,1.07,4.12,2.47,1.04,1.41,1.43,2.99,1.19,4.76-.98,7.21-3.53,13.38-7.65,18.51-4.12,5.13-9.36,9.1-15.71,11.91-1.89.79-3.73.98-5.5.55-1.77-.43-3.09-1.53-3.94-3.3-.92-1.77-1.01-3.43-.27-4.99.73-1.56,1.83-2.64,3.3-3.25,5.25-2.07,9.25-4.69,12-7.83,2.75-3.14,4.46-7.41,5.13-12.78-2.63,1.89-5.35,3.7-8.15,5.4-2.81,1.71-5.65,3.27-8.52,4.67-1.95.92-3.8,1.1-5.54.55s-3.04-1.68-3.89-3.39c-.8-1.71-.89-3.3-.27-4.76.61-1.46,1.68-2.5,3.21-3.11,4.89-1.95,9.18-4.09,12.87-6.41,3.69-2.32,7.04-4.95,10.03-7.88-4.46-.24-7.92-.9-10.4-1.97-2.47-1.07-4.18-2.85-5.13-5.36-.95-2.5-1.42-6.01-1.42-10.54,0-3.79.32-6.86.96-9.21.64-2.35,1.77-4.17,3.39-5.45,1.62-1.28,3.83-2.17,6.64-2.66,2.81-.49,6.41-.73,10.81-.73h24.74c4.34,0,7.92.24,10.77.73,2.84.49,5.05,1.37,6.64,2.66,1.59,1.28,2.7,3.1,3.34,5.45.64,2.35.96,5.42.96,9.21,0,4.64-.5,8.23-1.51,10.77-1.01,2.54-2.82,4.32-5.45,5.36-2.63,1.04-6.35,1.62-11.18,1.74,3.36,3.12,7.05,5.73,11.09,7.83s8.4,4.02,13.1,5.73c1.53.55,2.61,1.68,3.25,3.39.64,1.71.53,3.45-.32,5.22-.79,1.59-2.14,2.73-4.03,3.44-1.89.7-3.82.59-5.77-.32-4.89-2.2-9.5-4.73-13.83-7.61v22.81c0,2.01-.66,3.63-1.97,4.86-1.31,1.22-2.89,1.83-4.72,1.83ZM371.88,166.71h13.47v-4.21h-5.59c-2.93,0-4.93.22-6,.64-1.07.43-1.7,1.62-1.88,3.57ZM379.75,178.9h5.59v-4.12h-13.47c.24,1.89.88,3.06,1.92,3.48,1.04.43,3.02.64,5.96.64ZM398.99,166.71h13.38c-.24-1.95-.89-3.14-1.92-3.57-1.04-.43-3.02-.64-5.96-.64h-5.5v4.21ZM398.99,178.9h5.5c2.87,0,4.84-.21,5.91-.64,1.07-.43,1.73-1.59,1.97-3.48h-13.38v4.12Z"/>
      <path class="cls-12" d="M445.72,236.8c-1.65,0-3.04-.52-4.17-1.56-1.13-1.04-1.69-2.51-1.69-4.4v-65.32c0-3.6.4-6.37,1.19-8.29.79-1.92,2.3-3.25,4.53-3.99,2.23-.73,5.45-1.1,9.66-1.1,6.54,0,10.82,1.22,12.87,3.66,2.04,2.44,2.3,6.11.78,10.99-.67,2.26-1.37,4.46-2.11,6.6-.73,2.14-1.41,4.03-2.02,5.68-.49,1.53-.8,2.72-.92,3.57-.12.85-.05,1.57.23,2.15.27.58.69,1.24,1.24,1.97,1.34,1.77,2.38,3.7,3.11,5.77.79-.31,1.59-.46,2.38-.46h48.37c1.65,0,2.96.52,3.94,1.56.98,1.04,1.47,2.32,1.47,3.85s-.49,2.81-1.47,3.85c-.98,1.04-2.29,1.56-3.94,1.56h-.64c.43.25.79.58,1.1,1.01.85,1.04,1.22,2.38,1.1,4.03-.12,1.65-.79,2.93-2.02,3.85-.73.49-1.82,1.24-3.25,2.24-1.44,1.01-2.7,1.91-3.8,2.7,2.44,2.5,5.43,4.7,8.98,6.6,1.41.79,2.32,2,2.75,3.62.43,1.62.27,3.13-.46,4.54-.86,1.71-2.26,2.72-4.21,3.02-1.95.31-3.73-.03-5.31-1.01-5.31-3.3-9.73-7.39-13.24-12.28-3.51-4.89-6.28-10.99-8.29-18.32h-5.22v17.87l7.51-1.01c1.4-.18,2.72.09,3.94.82,1.22.73,1.95,1.86,2.2,3.39.24,1.47.06,2.79-.55,3.99-.61,1.19-1.77,1.94-3.48,2.24-.49.06-1.53.24-3.12.55-1.59.31-3.47.64-5.63,1.01-2.17.37-4.35.73-6.55,1.1-2.2.37-4.12.69-5.77.96-1.65.27-2.78.47-3.39.6-1.89.24-3.5-.06-4.81-.92s-2.12-2.11-2.43-3.76c-.31-1.77.05-3.27,1.05-4.49s2.37-1.95,4.08-2.2l4.95-.64v-19.51h-4.31c-.18,0-.34-.03-.46-.09-.12,4.95-1.34,8.64-3.67,11.09-2.32,2.44-5.47,3.82-9.44,4.12-2.08.18-3.79-.21-5.13-1.19v14.02c0,1.89-.56,3.36-1.69,4.4-1.13,1.04-2.55,1.56-4.26,1.56ZM451.68,206.47c.55-.43,1.28-.73,2.2-.92,1.4-.31,2.4-.95,2.98-1.92.58-.98.87-2.78.87-5.4,0-1.71-.31-3.42-.92-5.13-.61-1.71-1.38-3.24-2.29-4.58-.98-1.47-1.65-2.64-2.02-3.53-.37-.88-.46-1.85-.27-2.89.18-1.04.55-2.5,1.1-4.4.49-1.46,1.07-3.39,1.74-5.77.67-2.38,1.22-4.43,1.65-6.14.31-.98.31-1.65,0-2.02-.31-.37-1.16-.55-2.56-.55-.92,0-1.56.18-1.92.55s-.55,1.07-.55,2.11v40.59ZM487.87,189.52c-5.74,0-9.83-.98-12.28-2.93-2.44-1.95-3.67-5.44-3.67-10.45v-10.17c0-5.01,1.22-8.47,3.67-10.4,2.44-1.92,6.53-2.89,12.28-2.89h15.12c5.8,0,9.95.96,12.46,2.89,2.5,1.92,3.76,5.39,3.76,10.4v10.17c0,5.01-1.25,8.49-3.76,10.45s-6.66,2.93-12.46,2.93h-15.12ZM483.93,166.62h5.77v-4.12h-.82c-2.02,0-3.34.24-3.99.73s-.96,1.62-.96,3.39ZM488.87,179.72h.82v-4.12h-5.77c0,1.77.32,2.9.96,3.39s1.97.73,3.99.73ZM500.69,166.62h6.5c-.06-1.77-.41-2.9-1.05-3.39-.64-.49-1.94-.73-3.89-.73h-1.56v4.12ZM500.69,179.72h1.56c1.95,0,3.25-.24,3.89-.73.64-.49.99-1.62,1.05-3.39h-6.5v4.12ZM505.46,207.94c1.04-.79,2.15-1.65,3.34-2.56,1.19-.92,2-1.53,2.43-1.83.18-.24.46-.46.82-.64h-8.61c.31.86.63,1.71.96,2.56.33.86.69,1.68,1.05,2.47Z"/>
    </g>
  </g>
</svg>