<?xml version="1.0" encoding="UTF-8"?>
<svg xmlns="http://www.w3.org/2000/svg" xmlns:xlink="http://www.w3.org/1999/xlink" viewBox="0 0 773.89 582.68">
  <defs>
    <style>
      .cls-1 {
        fill: #fbf4e4;
      }

      .cls-2 {
        fill: #957f6d;
      }

      .cls-3 {
        stroke: #f08f70;
      }

      .cls-3, .cls-4, .cls-5, .cls-6 {
        stroke-linecap: round;
        stroke-linejoin: round;
        stroke-width: 4px;
      }

      .cls-3, .cls-6 {
        fill: none;
      }

      .cls-7 {
        fill: url(#_名称未設定グラデーション_33-2);
      }

      .cls-8 {
        fill: url(#_名称未設定グラデーション_33-3);
      }

      .cls-9 {
        fill: #c0aa99;
      }

      .cls-4 {
        fill: #b5b075;
      }

      .cls-4, .cls-5, .cls-6 {
        stroke: #231815;
      }

      .cls-10 {
        fill: #6f6053;
      }

      .cls-5 {
        fill: #fff;
      }

      .cls-11 {
        fill: #edb9a7;
      }

      .cls-12 {
        fill: #c9c7a0;
      }

      .cls-13 {
        fill: #dda877;
      }

      .cls-14 {
        fill: url(#_名称未設定グラデーション_36);
      }

      .cls-15 {
        fill: url(#_名称未設定グラデーション_33);
      }

      .cls-16 {
        fill: url(#_名称未設定グラデーション_40);
      }

      .cls-17 {
        fill: url(#_名称未設定グラデーション_30);
      }
    </style>
    <linearGradient id="_名称未設定グラデーション_30" data-name="名称未設定グラデーション 30" x1="125.25" y1="146.32" x2="125.25" y2="166.15" gradientUnits="userSpaceOnUse">
      <stop offset=".25" stop-color="#edb9a7"/>
      <stop offset=".35" stop-color="#edbaa8" stop-opacity=".98"/>
      <stop offset=".45" stop-color="#edbdac" stop-opacity=".93"/>
      <stop offset=".54" stop-color="#eec2b3" stop-opacity=".85"/>
      <stop offset=".64" stop-color="#efc9bc" stop-opacity=".74"/>
      <stop offset=".74" stop-color="#f1d3c8" stop-opacity=".59"/>
      <stop offset=".83" stop-color="#f2ded7" stop-opacity=".4"/>
      <stop offset=".93" stop-color="#f5ebe8" stop-opacity=".19"/>
      <stop offset="1" stop-color="#f7f8f8" stop-opacity="0"/>
    </linearGradient>
    <linearGradient id="_名称未設定グラデーション_33" data-name="名称未設定グラデーション 33" x1="142.63" y1="172.89" x2="150.05" y2="200.58" gradientUnits="userSpaceOnUse">
      <stop offset=".37" stop-color="#edb9a7"/>
      <stop offset=".81" stop-color="#f4e5e0" stop-opacity=".29"/>
      <stop offset="1" stop-color="#f7f8f8" stop-opacity="0"/>
    </linearGradient>
    <linearGradient id="_名称未設定グラデーション_33-2" data-name="名称未設定グラデーション 33" x1="207.11" y1="251.46" x2="207.11" y2="223.52" xlink:href="#_名称未設定グラデーション_33"/>
    <linearGradient id="_名称未設定グラデーション_33-3" data-name="名称未設定グラデーション 33" x1="371.37" y1="243.63" x2="371.37" y2="218.71" xlink:href="#_名称未設定グラデーション_33"/>
    <radialGradient id="_名称未設定グラデーション_40" data-name="名称未設定グラデーション 40" cx="391.22" cy="545.38" fx="391.22" fy="545.38" r="276.48" gradientUnits="userSpaceOnUse">
      <stop offset=".18" stop-color="#d2e2dc"/>
      <stop offset=".49" stop-color="#d2e2dc" stop-opacity=".99"/>
      <stop offset=".61" stop-color="#d3e2dd" stop-opacity=".96"/>
      <stop offset=".69" stop-color="#d5e3de" stop-opacity=".91"/>
      <stop offset=".75" stop-color="#d8e5e0" stop-opacity=".83"/>
      <stop offset=".81" stop-color="#dbe7e3" stop-opacity=".74"/>
      <stop offset=".86" stop-color="#e0eae6" stop-opacity=".62"/>
      <stop offset=".9" stop-color="#e5edea" stop-opacity=".47"/>
      <stop offset=".94" stop-color="#ebf1ef" stop-opacity=".31"/>
      <stop offset=".98" stop-color="#f2f5f4" stop-opacity=".12"/>
      <stop offset="1" stop-color="#f7f8f8" stop-opacity="0"/>
    </radialGradient>
    <linearGradient id="_名称未設定グラデーション_36" data-name="名称未設定グラデーション 36" x1="388.91" y1="470.53" x2="388.91" y2="312.71" gradientUnits="userSpaceOnUse">
      <stop offset=".46" stop-color="#d2e2dc"/>
      <stop offset=".52" stop-color="#d2e2dc" stop-opacity=".98"/>
      <stop offset=".59" stop-color="#d4e3de" stop-opacity=".92"/>
      <stop offset=".67" stop-color="#d8e5e0" stop-opacity=".83"/>
      <stop offset=".75" stop-color="#dde8e4" stop-opacity=".69"/>
      <stop offset=".82" stop-color="#e3ece9" stop-opacity=".52"/>
      <stop offset=".9" stop-color="#ebf1ef" stop-opacity=".31"/>
      <stop offset=".98" stop-color="#f4f6f6" stop-opacity=".06"/>
      <stop offset="1" stop-color="#f7f8f8" stop-opacity="0"/>
    </linearGradient>
  </defs>
  <g id="_女1塗り" data-name="女1塗り">
    <path class="cls-1" d="M125.36,203.62s-5.11,8.83-2.5,14.43,4,12.96,4.45,19.27c.49,6.9-.72,6.88-.72,6.88l47.42,1.87,81.53,5.45,85.42-9.83h34.27l13.78-7.58s17.6,5.39,23.19,2.76,6.16.38,5.53-3.63-1.3-5.22-1.3-5.22c0,0-.73,1.99,3.37.47s5.94-2.56,3.48-5.76-6.34-3.68-6.34-3.68l.86-2.8-15.56-4.48-12.47-10.25-12.37,4.83-12.27.28-26.48,13.63-76.81,4.93-77.42-35.47s-4.13.15-8.21,0c-4.08-.15-5.64-6.34-5.64-6.34,0,0,29.18-13.6,31.84-17.42s10.76-15.89,11.08-23.55c.56-13.49-.07-35.07-7.89-38.98,0,0,.58.52-10.95,1.08s-15.66,2.64-17.54-4.88l-1.88-7.51-85.22,36.26"/>
    <path class="cls-2" d="M142.37,112.79l52.72-22.12-3.65-21.34s-16.5-23.92-40.82-24.44c-22.55-.49-33.52-6.15-65.37,16.58-8.84,6.31-26.48,59.79-26.48,59.79,0,0-2.6,23.08,14.07,38.48s44.26,25.19,44.26,25.19c0,0,11.19-2.59,20.66-8.03s4.61-13.43,4.61-13.43l-6.71-37.99,6.71-12.67Z"/>
    <path class="cls-10" d="M65,149.95c15.42,22.68,36.56,32.81,52.1,34.98,5.22.73,14.03-.64,20.28-5.78,7.91-6.51,5.43-16.18,5.43-16.18,0,0-3.01,13.6-18.98,5.27-15.97-8.33-31.42-18.45-41.21-31.57-8.2-10.99-9.5-21.33-9.5-21.33l-17.56,4.73,9.43,29.88Z"/>
    <path class="cls-2" d="M26.46,86.76s-.3,12.14,7.72,22.73,15.09,11.32,29.28,10.56c13.33-.71,30.14-16.99,28.52-31.21s-8.94-24.98-20.69-30.25-23.78-2.18-33.6,6.4c-10.77,9.41-11.23,21.77-11.23,21.77Z"/>
    <path class="cls-1" d="M140.46,162.36s1.76,7.7-2.7,9.64-27.03,1.86-28.27-9.64,0-20.94,3.52-22.38,13.84-.56,13.84-.56l13.6,22.94Z"/>
    <path class="cls-17" d="M119.39,146.98c-2.66,2.43-3.78,13.66,1,16.96,3.7,2.55,6.96,2.53,9.14,1.77,2.62-.92,3.86-3.31,3.86-3.31l-8.36-15.74s-4.27-.93-5.65.33Z"/>
    <ellipse class="cls-11" cx="155.5" cy="139.44" rx="20.31" ry="9.91" transform="translate(-46.92 87.98) rotate(-27.62)"/>
    <path class="cls-13" d="M204.61,125.46s3.5,6.72,1.26,20.85c-1.12,7.06-4.2,7.06-4.2,7.06-10.23-4.81-13.03-18.19-13.03-18.19l15.97-9.72Z"/>
    <path class="cls-15" d="M138.91,179.12s4.52-8.96,6.25-7.38c6.26,5.74,20.4,7.99,25.83,8.92l4.05,5.9s-19.6,7.26-28.57,8.95-21.23,8.54-21.23,8.54l-8.15-19.12s9.83-1.57,16.3-3.66l5.52-2.15Z"/>
    <path class="cls-7" d="M123.37,223.52s70.19.4,73.25,1.24,40.65,11.52,52.92,15.69c12.83,4.36,41.31,6.07,41.31,6.07l-36.31,4.93-126.62-7.2-4.55-20.73Z"/>
    <path class="cls-8" d="M315.32,243.63l22.97-10.06s26.89.38,32.22-1.68,16.53-13.17,16.53-13.17l34.31,4.81s10.93.16,3.46,2.03-8.26,1.86-8.26,1.86c0,0,3.52,4.37,2.16,5.87s-28.79-.59-28.79-.59l-13.78,7.58-60.82,3.36Z"/>
    <path class="cls-10" d="M135.03,69.58c4.93,2.05,3.62,5.01,8.96,18.82,3.77,9.74,9.72,19.18,9.72,19.18l-20.03,15.41s-4.67-36.51-1.31-43.86,2.67-9.55,2.67-9.55Z"/>
    <path class="cls-9" d="M94.46,56.79s17.15-3.89,25.03-4.27c4.86-.23,11.41.33,7.66,4.1-9.13,9.16-26.71,15.36-26.71,15.36,0,0,2.68,1.48,18.19-3.87,7.32-2.53,22.11-15.13,28.86-14.26,4.73.61,20.01,2.23,29.6,8.58,5.18,3.43,17.29,22.26,17.29,22.26,0,0-1.75-30.66-30.47-36.83s-50.96-1.74-56.55.94-12.89,7.99-12.89,7.99Z"/>
    <path class="cls-9" d="M29.9,74.55s12.72-8.21,26.59-8.63,27.03,8.18,34.81,16.56c0,0-4.51-15.13-12.43-20.82-11.56-8.3-27.54-8.33-37.78-2.11-7.98,4.84-11.19,15-11.19,15Z"/>
    <path class="cls-10" d="M29.53,99.4s6.04,12.08,30.52,11.95c26.62-.15,30.34-12.23,30.34-12.23,0,0-8.72,17.71-25.55,21-18.77,3.67-29.27-8.63-29.27-8.63l-6.04-12.08Z"/>
  </g>
  <g id="_女1" data-name="女1">
    <line class="cls-5" x1="144.1" y1="125.46" x2="167.64" y2="108.38"/>
    <line class="cls-5" x1="144.1" y1="128.55" x2="171" y2="109.5"/>
    <path class="cls-6" d="M159.94,209.42s-5.83-9.71,2.43-16.06,12.68-6.79,12.68-6.79l-4.05-4.79s29.32-11.21,37.17-23.16c6.61-10.07,8.78-32.68,3.36-45.95s-7.1-11.95-7.1-11.95c0,0-12.7,3.74-19.61,2.99s-8.59-9.34-8.59-9.34"/>
    <path class="cls-6" d="M377.28,212.72l40.56,4.92c2.54.31,3.4-3.3.99-4.15-.02,0-.03-.01-.05-.02-.11-.04-.22-.07-.34-.09-3.03-.51-47.98-8.01-52.42-8.16-4.2-.14-23.27,11.62-26.48,13.63-.3.19-.65.3-1.01.32l-76.27,4.42c-.33.02-.66-.04-.96-.17-4.21-1.8-36.25-15.59-49.41-23.34-24.06-14.17-36.86-13.52-36.86-13.52"/>
    <path class="cls-6" d="M376.13,221.44s38.34,2.76,40.41,5.97,4.82,8.27-3.44,8.04-23.19-2.76-23.19-2.76l-13.78,7.58h-34.27l-78.11,9.87c-3.79.48-7.65.18-11.32-.89l-70.72-20.51"/>
    <path class="cls-6" d="M419.08,217.44c1.52.92,8.24,4.66,5.72,8.11s-7.47,1.87-7.47,1.87"/>
    <path class="cls-6" d="M373.4,206.15s11.25-6.46,14.99-6.65,14.75,9.71,14.75,9.71"/>
    <path class="cls-6" d="M140.46,167.66s-1.2,9.53-17.31,5.6-16.59-18.21-13.79-28.02,14.57-6.44,14.57-6.44l16.53,28.86Z"/>
    <path class="cls-2" d="M123.93,96.6l2.93,53.46s.08,14.07,9.2,16.43,9.42-1.58,10.67,5.05,2.92,10.19-1.81,13.37-3.57,3.19-3.57,3.19c0,0,6.63.2,12.48-5.55s8.08-6.19,5.42-14.9-6.66-3.8-15.12-9.06-10.81-69.41-10.81-69.41l-9.36,7.41Z"/>
    <path class="cls-6" d="M117.1,184.93s14.67-1.54,20.28-5.78c5.6-4.24,7.79-10.29,7.79-10.29"/>
    <line class="cls-6" x1="120.01" y1="190.65" x2="134.29" y2="188.11"/>
    <path class="cls-6" d="M127.19,242.92s.28-10.09-2.8-19.33,1.4-21.57,1.4-21.57l-8.68-17.09s-25.21-3.58-44.26-25.19c-14.49-16.44-16.26-35.88-16.26-35.88,0,0-8.66-1.2-18.66,6.55-6.29,4.87-9.25,16.81-9.25,16.81"/>
    <path class="cls-5" d="M67.62,121.65s6.45,11.28,11.82,18c5.37,6.72,11.82,12.25,11.82,12.25"/>
    <path class="cls-6" d="M193.97,94.37c0-19.72.79-24.3-10.65-35.12-15.68-14.85-29.42-15.13-54.07-15.97s-47.71,21.42-47.71,21.42"/>
    <path class="cls-6" d="M202.84,125.46l-15.5,9.42s.56,6.54,4.67,11.39,8.03,7.1,8.03,7.1"/>
    <path class="cls-3" d="M144.1,148.57s-1.4-4.19,3.82-8.17,5.79-4.72,6.72-4.16,1.35,4.21,3.29,4.16,9.69-9.02,9.69-9.02"/>
    <path class="cls-6" d="M137.76,121.65s4.56-6.56,6.34-14.41.09-14.57-.17-15.13"/>
    <path class="cls-6" d="M152.04,108.38s2.13-4.71,4.48-14.01c1.42-5.62-.74-9.54-.74-9.54"/>
    <path class="cls-6" d="M163.8,80.72s2.05,4.11,2.05,10.09-2.05,12.7-2.05,12.7"/>
    <path class="cls-6" d="M172.21,77.17s1.31,3.55,2.99,10.09c1.68,6.54-1.49,13.26-1.49,13.26"/>
    <path class="cls-6" d="M178.75,71.2s6.35,10.09,6.35,15.5-1.87,9.9-1.87,9.9"/>
    <path class="cls-6" d="M115.43,157.95c-1.96-13.17,8.82-13.17,8.82-13.17"/>
    <path class="cls-6" d="M76.58,119.02s4.48,6.44,16.95,9.53c7.65,1.89,16.95,0,16.95,0"/>
    <path class="cls-6" d="M141.86,73.25l-5.32-3.92s-4.48,20.17-3.36,28.58,3.64,52.95,7.56,57.15,14.85,7.56,18.49,12.61.84,12.12-7,15.72-12.05,4.73-12.05,4.73c0,0,6.72-5.04,6.72-12.61s-.84-6.44-6.44-7.84-11.96-2.8-13.27-8.4-3.26-52.67-3.26-52.67"/>
    <path class="cls-6" d="M129.49,163.2s-2.85,2.04-5.56-5.25c-2.71-7.28,2.72-2.88,2.72-2.88"/>
    <g>
      <path class="cls-6" d="M91.97,88.85c-.03,19.55-12.74,29.63-33.2,32.41-18.56,2.53-32.31-17.41-32.31-34.49s14.47-30.93,32.31-30.93,33.23,16.58,33.2,33.01Z"/>
      <path class="cls-6" d="M29.9,73.14c11.85,4.03,26.7-4.33,29.01-17.3"/>
      <path class="cls-6" d="M26.91,82.46c4.72,6.08,19.56,4.72,28.35-1.4,10.76-7.49,13.92-18.65,13.92-18.65"/>
      <path class="cls-6" d="M40.66,116.06s3.74,2.46,16.67-4.62c0,0,12.21-5.96,15.11-24.08,1.64-10.22-4.54-29.47-4.54-29.47"/>
      <path class="cls-6" d="M29.53,99.4c9.71,3.92,27.16,5.66,42.92-15.5"/>
      <path class="cls-6" d="M74.25,116.92s9.55-15.49,9.5-28.07c-.06-13.68-7.18-27.38-7.18-27.38"/>
    </g>
  </g>
  <g id="_風呂" data-name="風呂">
    <ellipse class="cls-16" cx="391.22" cy="545.38" rx="312.78" ry="37.31"/>
    <path class="cls-5" d="M739.27,285.23s-6.72,79.19-16.81,104.41c-10.09,25.21-31.28,78.16-65.65,84.05-34.37,5.88-502.72,5.88-537.09,0s-55.56-58.83-65.65-84.05-16.81-104.41-16.81-104.41l355.85-21.19,346.15,21.19Z"/>
    <path class="cls-14" d="M691.91,312.71s-19.84,29.91-53.89,55.84c-88.85,67.69-229.48,65.31-250.5,64.55v-.1c.63-.04.09,0-1.47.05-.78-.03-1.21-.06-1.21-.06v.09c-21.64.59-158.15,1.68-245.05-64.53-34.04-25.94-53.89-55.84-53.89-55.84l-37.86,3.18s19.13,72.96,38.05,109.26c23.37,44.82,59.88,39.65,120.31,42.02,59.73,2.35,178.43,3.36,178.43,3.36,0,0,126.83-1.02,186.56-3.36,60.43-2.37,96.94,2.8,120.31-42.02,18.92-36.3,38.05-109.26,38.05-109.26l-37.86-3.18Z"/>
    <path class="cls-5" d="M751.93,238.89c-13.93-.81-216.66,6.12-340.28,6.89v-.12c-7.51.11-15.8.17-24.71.18-8.91-.01-17.19-.07-24.71-.18v.12c-123.62-.77-326.35-7.7-340.28-6.89-26.71,1.56-22.52,26.8-11.05,38.66,7.24,7.49,14.48,7.68,52.59,7.68h646.89c38.11,0,45.35-.19,52.59-7.68,11.46-11.86,15.66-37.1-11.05-38.66Z"/>
    <path class="cls-4" d="M126.08,455.76c-11.21.56-16.25,10.09-14.57,23.81,1.68,13.73.56,31.1-4.48,40.06s-17.37,12.89-15.69,22.97,12.89,14.01,25.21,13.45,24.09-.56,25.77-9.53-.56-19.05-2.24-29.14-.87-38.44-1.68-48.19c-1.12-13.45-12.33-13.45-12.33-13.45Z"/>
    <path class="cls-4" d="M650.46,455.76c11.21.56,16.25,10.09,14.57,23.81s-.56,31.1,4.48,40.06,17.37,12.89,15.69,22.97c-1.68,10.09-12.89,14.01-25.21,13.45s-24.09-.56-25.77-9.53.56-19.05,2.24-29.14c1.68-10.09.87-38.44,1.68-48.19,1.12-13.45,12.33-13.45,12.33-13.45Z"/>
    <g>
      <path class="cls-12" d="M105.73,546.48c1.66.43,3.31.73,4.79.65,3.24-.16,9.35-.95,10.9-14.78.57-5.08.75-10.19.94-15.29.51-13.79.24-34.27.75-48.06-1.27,3.48-.31,66.03-23.05,75.81,1.7.46,3.69,1.16,5.66,1.67Z"/>
      <path class="cls-12" d="M105.06,548.89c3.82.96,8.2,1.24,11.67-.99,4.21-2.7,5.98-7.82,6.77-12.52,1.29-7.64,1.33-15.54,1.51-23.27.16-6.85.19-13.7.24-20.54.05-7.52.09-15.05.37-22.57.11-2.94-4.02-3.22-4.91-.66-.34.97-.33,2.14-.41,3.16-.14,1.76-.24,3.52-.35,5.28-.33,5.38-.72,10.76-1.28,16.13-.17,1.61-.35,3.23-.55,4.84s-.35,2.73-.63,4.58c-.51,3.35-1.1,6.68-1.81,9.99s-1.53,6.48-2.53,9.66c-.49,1.54-1.01,3.07-1.6,4.57-.13.34-.26.68-.4,1.01-.08.19-.15.37-.23.56-.18.42.23-.53-.07.17s-.64,1.43-.98,2.13c-.7,1.44-1.47,2.86-2.33,4.21-.4.63-.82,1.25-1.26,1.85-.12.17-.25.34-.37.5.26-.34,0,0-.12.14-.22.26-.43.52-.66.78-.48.55-.98,1.07-1.51,1.58-.26.24-.52.48-.79.72-.12.1-.96.76-.46.39-1.1.82-2.28,1.52-3.54,2.07-2.06.9-1.31,4.04.6,4.57s3.76,1.16,5.66,1.67c3.11.82,4.44-4,1.33-4.82-1.9-.5-3.77-1.14-5.66-1.67l.6,4.57c5.13-2.24,8.9-6.84,11.58-11.61,3.21-5.7,5.25-12.06,6.81-18.39,3.05-12.43,4.27-25.27,5.09-38.01.14-2.21.27-4.43.42-6.64.05-.71.11-1.41.18-2.11.01-.11.07-.28.05-.38.23,1.13-.2.49-.03.29.06-.07.07-.34.1-.44l-4.91-.66c-.47,12.84-.32,25.7-.52,38.55-.11,6.96-.27,13.93-.81,20.87-.26,3.28-.57,6.58-1.58,9.74-.35,1.11-.62,1.79-1.2,2.81-.2.35-.41.68-.64,1.01-.41.6.31-.34-.14.19-.18.21-.36.41-.55.61-.14.14-.28.26-.42.4-.49.48.12-.04-.2.18s-.66.42-1,.62c-.14.08-.29.14-.43.21.69-.33.06-.03-.11.02-.28.08-.55.17-.83.24-.31.07-.61.11-.92.17.91-.17-.06,0-.31.01-1.57.11-3.05-.15-4.57-.54-3.12-.78-4.45,4.04-1.33,4.82Z"/>
    </g>
    <g>
      <path class="cls-12" d="M670.83,546.48c-1.66.43-3.31.73-4.79.65-3.24-.16-9.35-.95-10.9-14.78-.57-5.08-.75-10.19-.94-15.29-.51-13.79-.24-34.27-.75-48.06,1.27,3.48.31,66.03,23.05,75.81-1.7.46-3.69,1.16-5.66,1.67Z"/>
      <path class="cls-12" d="M670.17,544.07c-1.44.36-2.85.63-4.34.55-.23-.01-.47-.04-.7-.05-.19-.01-.64-.12.17.03-.17-.03-.35-.05-.52-.09-.52-.1-1.01-.25-1.51-.42s.52.27.03.01c-.14-.07-.29-.14-.43-.22-.35-.19-.68-.41-1-.64.54.4-.34-.33-.48-.47s-.28-.3-.41-.45c-.05-.05-.46-.6-.14-.17-.59-.8-1.09-1.69-1.48-2.61-.98-2.3-1.53-5.45-1.81-8.17-1.4-13.59-1.13-27.4-1.23-41.05-.05-7.11-.1-14.21-.36-21.32l-4.91.66c.02.07.05.33.09.37.04.03.03.19.04.24.11.36-.09-.84-.03-.25s.11,1.16.16,1.74c.14,1.84.24,3.68.36,5.52.35,5.58.76,11.16,1.37,16.72,1.46,13.34,3.56,27.33,9.63,39.45,2.75,5.5,6.79,10.98,12.59,13.51l.6-4.57c-1.9.53-3.76,1.16-5.66,1.67-3.11.82-1.79,5.65,1.33,4.82,1.9-.5,3.77-1.14,5.66-1.67s2.65-3.67.6-4.57c-1.15-.5-2.21-1.13-3.24-1.85-.1-.07-.2-.15-.3-.23.43.32.15.11.05.04-.25-.2-.49-.41-.74-.62-.49-.43-.96-.89-1.41-1.36-.42-.44-.82-.89-1.2-1.36-.11-.13-.22-.27-.32-.4-.26-.32.35.47-.05-.07-.21-.28-.42-.56-.62-.85-.84-1.19-1.59-2.44-2.29-3.72-1.54-2.84-2.38-4.89-3.43-7.89s-2-6.36-2.77-9.6-1.44-6.71-2-10.09-.91-6.03-1.3-9.42c-.64-5.62-1.08-11.27-1.44-16.91-.13-2.1-.25-4.2-.4-6.29-.09-1.18-.06-2.57-.45-3.7-.88-2.53-5.02-2.3-4.91.66.5,13.55.3,27.12.55,40.67.14,7.55.28,15.17,1.14,22.68.58,5.06,1.73,11.14,5.9,14.58,3.73,3.08,8.44,3.08,12.96,1.95,3.12-.78,1.8-5.6-1.33-4.82Z"/>
    </g>
  </g>
</svg>